G04*
G04 #@! TF.GenerationSoftware,Altium Limited,Altium Designer,21.6.1 (37)*
G04*
G04 Layer_Color=32768*
%FSLAX25Y25*%
%MOIN*%
G70*
G04*
G04 #@! TF.SameCoordinates,AC17BD28-DEAC-4D96-B394-8643799D6FE3*
G04*
G04*
G04 #@! TF.FilePolarity,Positive*
G04*
G01*
G75*
%ADD104C,0.00787*%
%ADD110C,0.00394*%
D104*
X28224Y52260D02*
Y59740D01*
X18776D02*
X28224D01*
X18776Y52260D02*
Y59740D01*
Y52260D02*
X28224D01*
X93012Y40063D02*
Y47937D01*
X81988Y40063D02*
X93012D01*
X81988D02*
Y47937D01*
X93012D01*
X69209Y61850D02*
X97791D01*
Y78150D01*
X69209D02*
X97791D01*
X69209Y61850D02*
Y78150D01*
D110*
X119535Y-524D02*
Y23000D01*
X86465Y-524D02*
Y23000D01*
X119535D01*
X86465Y-524D02*
X119535D01*
X101031Y10500D02*
X104969D01*
X103000Y8531D02*
Y12468D01*
X114000Y27500D02*
Y29500D01*
X113000Y28500D02*
X115000D01*
X107000Y22000D02*
Y35000D01*
X121000Y22000D02*
Y35000D01*
X107000Y22000D02*
X121000D01*
X107000Y35000D02*
X121000D01*
X23500Y54031D02*
Y57968D01*
X21531Y56000D02*
X25469D01*
X87500Y42031D02*
Y45968D01*
X85532Y44000D02*
X89468D01*
X89500Y25532D02*
Y29469D01*
X87532Y27500D02*
X91469D01*
X81500Y20413D02*
X97500D01*
X81500Y34587D02*
X97500D01*
X81500Y20413D02*
Y34587D01*
X97500Y20413D02*
Y34587D01*
X83000Y53031D02*
Y56968D01*
X81032Y55000D02*
X84969D01*
X73748Y63071D02*
X92252D01*
X73748Y46929D02*
X92252D01*
Y63071D01*
X73748Y46929D02*
Y63071D01*
X81532Y70000D02*
X85469D01*
X83500Y68032D02*
Y71969D01*
M02*
