G04*
G04 #@! TF.GenerationSoftware,Altium Limited,Altium Designer,21.6.1 (37)*
G04*
G04 Layer_Color=128*
%FSLAX25Y25*%
%MOIN*%
G70*
G04*
G04 #@! TF.SameCoordinates,AC7CD038-FE90-4222-8F95-758E89F8CD36*
G04*
G04*
G04 #@! TF.FilePolarity,Positive*
G04*
G01*
G75*
%ADD110C,0.00200*%
D110*
X5595Y11500D02*
X17405D01*
X11500Y5595D02*
Y17405D01*
X5595Y91000D02*
X17405D01*
X11500Y85094D02*
Y96905D01*
X183595Y91000D02*
X195405D01*
X189500Y85094D02*
Y96905D01*
X183595Y11500D02*
X195405D01*
X189500Y5595D02*
Y17405D01*
X19646Y68528D02*
X22008D01*
X20827Y67347D02*
Y69709D01*
X19646Y34472D02*
X22008D01*
X20827Y33291D02*
Y35653D01*
X3898Y68528D02*
X6260D01*
X5079Y67347D02*
Y69709D01*
X3898Y34472D02*
X6260D01*
X5079Y33291D02*
Y35653D01*
X17579Y40122D02*
X20138D01*
X18858Y38842D02*
Y41402D01*
X17579Y62878D02*
X20138D01*
X18858Y61598D02*
Y64157D01*
X57516Y84000D02*
X59484D01*
X58500Y83016D02*
Y84984D01*
X57516Y90000D02*
X59484D01*
X58500Y89016D02*
Y90984D01*
X57516Y96000D02*
X59484D01*
X58500Y95016D02*
Y96984D01*
X62516Y84000D02*
X64484D01*
X63500Y83016D02*
Y84984D01*
X62516Y90000D02*
X64484D01*
X63500Y89016D02*
Y90984D01*
X62516Y96000D02*
X64484D01*
X63500Y95016D02*
Y96984D01*
X67516Y84000D02*
X69484D01*
X68500Y83016D02*
Y84984D01*
X67516Y96000D02*
X69484D01*
X68500Y95016D02*
Y96984D01*
X67516Y90000D02*
X69484D01*
X68500Y89016D02*
Y90984D01*
X72516Y84000D02*
X74484D01*
X73500Y83016D02*
Y84984D01*
X72516Y90000D02*
X74484D01*
X73500Y89016D02*
Y90984D01*
X72516Y96000D02*
X74484D01*
X73500Y95016D02*
Y96984D01*
X77516Y96000D02*
X79484D01*
X78500Y95016D02*
Y96984D01*
X77516Y84000D02*
X79484D01*
X78500Y83016D02*
Y84984D01*
X77516Y90000D02*
X79484D01*
X78500Y89016D02*
Y90984D01*
X82516Y84000D02*
X84484D01*
X83500Y83016D02*
Y84984D01*
X82516Y90000D02*
X84484D01*
X83500Y89016D02*
Y90984D01*
X82516Y96000D02*
X84484D01*
X83500Y95016D02*
Y96984D01*
X53800Y53400D02*
X54800D01*
X54300Y52900D02*
Y53900D01*
X56400Y47100D02*
X57400D01*
X56900Y46600D02*
Y47600D01*
X31300Y46100D02*
X32300D01*
X31800Y45600D02*
Y46600D01*
X36500Y50000D02*
X37500D01*
X37000Y49500D02*
Y50500D01*
X32500Y52500D02*
X33500D01*
X33000Y52000D02*
Y53000D01*
X34800Y45000D02*
X35800D01*
X35300Y44500D02*
Y45500D01*
X84000Y20000D02*
X85000D01*
X84500Y19500D02*
Y20500D01*
X81500Y20000D02*
X82500D01*
X82000Y19500D02*
Y20500D01*
X92000Y25500D02*
X93000D01*
X92500Y25000D02*
Y26000D01*
X92000Y28000D02*
X93000D01*
X92500Y27500D02*
Y28500D01*
X119000Y27500D02*
X120000D01*
X119500Y27000D02*
Y28000D01*
X116000Y27500D02*
X117000D01*
X116500Y27000D02*
Y28000D01*
X119000Y25000D02*
X120000D01*
X119500Y24500D02*
Y25500D01*
X116000Y25000D02*
X117000D01*
X116500Y24500D02*
Y25500D01*
X119000Y22500D02*
X120000D01*
X119500Y22000D02*
Y23000D01*
X116000Y22500D02*
X117000D01*
X116500Y22000D02*
Y23000D01*
X122000Y27500D02*
X123000D01*
X122500Y27000D02*
Y28000D01*
X124500Y27500D02*
X125500D01*
X125000Y27000D02*
Y28000D01*
X124500Y25000D02*
X125500D01*
X125000Y24500D02*
Y25500D01*
X122000Y25000D02*
X123000D01*
X122500Y24500D02*
Y25500D01*
X124500Y22500D02*
X125500D01*
X125000Y22000D02*
Y23000D01*
X122000Y22500D02*
X123000D01*
X122500Y22000D02*
Y23000D01*
X148516Y89000D02*
X150484D01*
X149500Y88016D02*
Y89984D01*
X160500Y44000D02*
X161500D01*
X161000Y43500D02*
Y44500D01*
X169000Y32000D02*
X170000D01*
X169500Y31500D02*
Y32500D01*
X170500Y24500D02*
X171500D01*
X171000Y24000D02*
Y25000D01*
X76500Y55000D02*
X77500D01*
X77000Y54500D02*
Y55500D01*
X79500Y55000D02*
X80500D01*
X80000Y54500D02*
Y55500D01*
X162000Y24000D02*
X163000D01*
X162500Y23500D02*
Y24500D01*
X164500Y24000D02*
X165500D01*
X165000Y23500D02*
Y24500D01*
X164500Y26500D02*
X165500D01*
X165000Y26000D02*
Y27000D01*
X164500Y29000D02*
X165500D01*
X165000Y28500D02*
Y29500D01*
X155200Y11600D02*
X156200D01*
X155700Y11100D02*
Y12100D01*
X152700Y11600D02*
X153700D01*
X153200Y11100D02*
Y12100D01*
X127000Y17500D02*
X128000D01*
X127500Y17000D02*
Y18000D01*
X124500Y17500D02*
X125500D01*
X125000Y17000D02*
Y18000D01*
X124500Y20000D02*
X125500D01*
X125000Y19500D02*
Y20500D01*
X127000Y20000D02*
X128000D01*
X127500Y19500D02*
Y20500D01*
X122000Y20000D02*
X123000D01*
X122500Y19500D02*
Y20500D01*
X116000Y17500D02*
X117000D01*
X116500Y17000D02*
Y18000D01*
X61500Y2000D02*
X62500D01*
X62000Y1500D02*
Y2500D01*
X61500Y4500D02*
X62500D01*
X62000Y4000D02*
Y5000D01*
X61500Y7000D02*
X62500D01*
X62000Y6500D02*
Y7500D01*
X41500Y11500D02*
X42500D01*
X42000Y11000D02*
Y12000D01*
X38500Y11500D02*
X39500D01*
X39000Y11000D02*
Y12000D01*
X35500Y11500D02*
X36500D01*
X36000Y11000D02*
Y12000D01*
X32500Y11500D02*
X33500D01*
X33000Y11000D02*
Y12000D01*
X29500Y11500D02*
X30500D01*
X30000Y11000D02*
Y12000D01*
X29500Y14000D02*
X30500D01*
X30000Y13500D02*
Y14500D01*
X29500Y16500D02*
X30500D01*
X30000Y16000D02*
Y17000D01*
X21000Y3000D02*
X22000D01*
X21500Y2500D02*
Y3500D01*
X23000Y19000D02*
X24000D01*
X23500Y18500D02*
Y19500D01*
X23000Y16000D02*
X24000D01*
X23500Y15500D02*
Y16500D01*
X23000Y13000D02*
X24000D01*
X23500Y12500D02*
Y13500D01*
X15500Y46500D02*
X16500D01*
X16000Y46000D02*
Y47000D01*
X6500Y41000D02*
X7500D01*
X7000Y40500D02*
Y41500D01*
X6500Y48500D02*
X7500D01*
X7000Y48000D02*
Y49000D01*
X6500Y56500D02*
X7500D01*
X7000Y56000D02*
Y57000D01*
X26000Y23700D02*
X27000D01*
X26500Y23200D02*
Y24200D01*
X29500Y36900D02*
X30500D01*
X30000Y36400D02*
Y37400D01*
X32500Y40100D02*
X33500D01*
X33000Y39600D02*
Y40600D01*
X23500Y25000D02*
X24500D01*
X24000Y24500D02*
Y25500D01*
X92100Y39400D02*
X93100D01*
X92600Y38900D02*
Y39900D01*
X89700Y39400D02*
X90700D01*
X90200Y38900D02*
Y39900D01*
X87400Y39400D02*
X88400D01*
X87900Y38900D02*
Y39900D01*
X104200Y20700D02*
X105200D01*
X104700Y20200D02*
Y21200D01*
X100000Y16500D02*
X101000D01*
X100500Y16000D02*
Y17000D01*
X101000Y19500D02*
X102000D01*
X101500Y19000D02*
Y20000D01*
X61400Y42100D02*
X62400D01*
X61900Y41600D02*
Y42600D01*
X64000Y44500D02*
X65000D01*
X64500Y44000D02*
Y45000D01*
X158500Y49500D02*
X159500D01*
X159000Y49000D02*
Y50000D01*
X158500Y52500D02*
X159500D01*
X159000Y52000D02*
Y53000D01*
X158500Y55500D02*
X159500D01*
X159000Y55000D02*
Y56000D01*
X75000Y41500D02*
X76000D01*
X75500Y41000D02*
Y42000D01*
X126000Y5500D02*
X127000D01*
X126500Y5000D02*
Y6000D01*
X107000Y17000D02*
X108000D01*
X107500Y16500D02*
Y17500D01*
X123500Y49445D02*
X124500D01*
X124000Y48945D02*
Y49945D01*
X126000Y49445D02*
X127000D01*
X126500Y48945D02*
Y49945D01*
X128500Y49445D02*
X129500D01*
X129000Y48945D02*
Y49945D01*
X123500Y46945D02*
X124500D01*
X124000Y46445D02*
Y47445D01*
X126000Y46945D02*
X127000D01*
X126500Y46445D02*
Y47445D01*
X128500Y46945D02*
X129500D01*
X129000Y46445D02*
Y47445D01*
X123500Y44445D02*
X124500D01*
X124000Y43945D02*
Y44945D01*
X126000Y44445D02*
X127000D01*
X126500Y43945D02*
Y44945D01*
X128500Y44445D02*
X129500D01*
X129000Y43945D02*
Y44945D01*
X123500Y41945D02*
X124500D01*
X124000Y41445D02*
Y42445D01*
X126000Y41945D02*
X127000D01*
X126500Y41445D02*
Y42445D01*
X128500Y41945D02*
X129500D01*
X129000Y41445D02*
Y42445D01*
X123500Y39445D02*
X124500D01*
X124000Y38945D02*
Y39945D01*
X126000Y39445D02*
X127000D01*
X126500Y38945D02*
Y39945D01*
X128500Y39445D02*
X129500D01*
X129000Y38945D02*
Y39945D01*
X128500Y56500D02*
X129500D01*
X129000Y56000D02*
Y57000D01*
X126000Y56500D02*
X127000D01*
X126500Y56000D02*
Y57000D01*
X126000Y59000D02*
X127000D01*
X126500Y58500D02*
Y59500D01*
X128500Y59000D02*
X129500D01*
X129000Y58500D02*
Y59500D01*
X123500Y59000D02*
X124500D01*
X124000Y58500D02*
Y59500D01*
X128500Y61500D02*
X129500D01*
X129000Y61000D02*
Y62000D01*
X126000Y61500D02*
X127000D01*
X126500Y61000D02*
Y62000D01*
X123500Y61500D02*
X124500D01*
X124000Y61000D02*
Y62000D01*
X128500Y64000D02*
X129500D01*
X129000Y63500D02*
Y64500D01*
X126000Y64000D02*
X127000D01*
X126500Y63500D02*
Y64500D01*
X123500Y64000D02*
X124500D01*
X124000Y63500D02*
Y64500D01*
X128500Y66500D02*
X129500D01*
X129000Y66000D02*
Y67000D01*
X126000Y66500D02*
X127000D01*
X126500Y66000D02*
Y67000D01*
X123500Y66500D02*
X124500D01*
X124000Y66000D02*
Y67000D01*
X128500Y69000D02*
X129500D01*
X129000Y68500D02*
Y69500D01*
X126000Y69000D02*
X127000D01*
X126500Y68500D02*
Y69500D01*
X123500Y69000D02*
X124500D01*
X124000Y68500D02*
Y69500D01*
X128500Y71500D02*
X129500D01*
X129000Y71000D02*
Y72000D01*
X126000Y71500D02*
X127000D01*
X126500Y71000D02*
Y72000D01*
X123500Y71500D02*
X124500D01*
X124000Y71000D02*
Y72000D01*
X112500Y39500D02*
X113500D01*
X113000Y39000D02*
Y40000D01*
X112500Y42000D02*
X113500D01*
X113000Y41500D02*
Y42500D01*
X107500Y48500D02*
X108500D01*
X108000Y48000D02*
Y49000D01*
X107500Y51000D02*
X108500D01*
X108000Y50500D02*
Y51500D01*
X105000Y48500D02*
X106000D01*
X105500Y48000D02*
Y49000D01*
X105000Y51000D02*
X106000D01*
X105500Y50500D02*
Y51500D01*
X105000Y53500D02*
X106000D01*
X105500Y53000D02*
Y54000D01*
X105000Y56000D02*
X106000D01*
X105500Y55500D02*
Y56500D01*
X105000Y58500D02*
X106000D01*
X105500Y58000D02*
Y59000D01*
X102000Y58500D02*
X103000D01*
X102500Y58000D02*
Y59000D01*
X102000Y61000D02*
X103000D01*
X102500Y60500D02*
Y61500D01*
X105000Y61000D02*
X106000D01*
X105500Y60500D02*
Y61500D01*
X105000Y63500D02*
X106000D01*
X105500Y63000D02*
Y64000D01*
X102000Y63500D02*
X103000D01*
X102500Y63000D02*
Y64000D01*
X82500Y52500D02*
X83500D01*
X83000Y52000D02*
Y53000D01*
X82500Y55000D02*
X83500D01*
X83000Y54500D02*
Y55500D01*
X82500Y57500D02*
X83500D01*
X83000Y57000D02*
Y58000D01*
X82500Y60000D02*
X83500D01*
X83000Y59500D02*
Y60500D01*
X71500Y66500D02*
X72500D01*
X72000Y66000D02*
Y67000D01*
X74500Y66500D02*
X75500D01*
X75000Y66000D02*
Y67000D01*
X78000Y66500D02*
X79000D01*
X78500Y66000D02*
Y67000D01*
X81500Y66500D02*
X82500D01*
X82000Y66000D02*
Y67000D01*
X84500Y66500D02*
X85500D01*
X85000Y66000D02*
Y67000D01*
X84500Y69500D02*
X85500D01*
X85000Y69000D02*
Y70000D01*
X81500Y69500D02*
X82500D01*
X82000Y69000D02*
Y70000D01*
X78000Y69500D02*
X79000D01*
X78500Y69000D02*
Y70000D01*
X74500Y69500D02*
X75500D01*
X75000Y69000D02*
Y70000D01*
X71500Y69500D02*
X72500D01*
X72000Y69000D02*
Y70000D01*
X84500Y72500D02*
X85500D01*
X85000Y72000D02*
Y73000D01*
X81500Y72500D02*
X82500D01*
X82000Y72000D02*
Y73000D01*
X78000Y72500D02*
X79000D01*
X78500Y72000D02*
Y73000D01*
X74500Y72500D02*
X75500D01*
X75000Y72000D02*
Y73000D01*
X71500Y72500D02*
X72500D01*
X72000Y72000D02*
Y73000D01*
X29500Y40000D02*
X30500D01*
X30000Y39500D02*
Y40500D01*
X60500Y50000D02*
X61500D01*
X61000Y49500D02*
Y50500D01*
X57500Y54000D02*
X58500D01*
X58000Y53500D02*
Y54500D01*
X57500Y57000D02*
X58500D01*
X58000Y56500D02*
Y57500D01*
Y65000D02*
X59000D01*
X58500Y64500D02*
Y65500D01*
Y69500D02*
X59500D01*
X59000Y69000D02*
Y70000D01*
X58500Y72500D02*
X59500D01*
X59000Y72000D02*
Y73000D01*
X42000Y64500D02*
X43000D01*
X42500Y64000D02*
Y65000D01*
X46000Y64500D02*
X47000D01*
X46500Y64000D02*
Y65000D01*
X46000Y68000D02*
X47000D01*
X46500Y67500D02*
Y68500D01*
X42000Y68000D02*
X43000D01*
X42500Y67500D02*
Y68500D01*
X64000Y15000D02*
X65000D01*
X64500Y14500D02*
Y15500D01*
X65500Y13000D02*
X66500D01*
X66000Y12500D02*
Y13500D01*
X45000Y25000D02*
X46000D01*
X45500Y24500D02*
Y25500D01*
X41000Y25000D02*
X42000D01*
X41500Y24500D02*
Y25500D01*
X41000Y29000D02*
X42000D01*
X41500Y28500D02*
Y29500D01*
X45000Y29000D02*
X46000D01*
X45500Y28500D02*
Y29500D01*
X49000Y29000D02*
X50000D01*
X49500Y28500D02*
Y29500D01*
X49000Y33000D02*
X50000D01*
X49500Y32500D02*
Y33500D01*
X45000Y33000D02*
X46000D01*
X45500Y32500D02*
Y33500D01*
X41000Y33000D02*
X42000D01*
X41500Y32500D02*
Y33500D01*
X106500Y6600D02*
X107500D01*
X107000Y6100D02*
Y7100D01*
X103300Y6700D02*
X104300D01*
X103800Y6200D02*
Y7200D01*
X81500Y6000D02*
X82500D01*
X82000Y5500D02*
Y6500D01*
X71400Y6000D02*
X72400D01*
X71900Y5500D02*
Y6500D01*
X85400Y42800D02*
X86400D01*
X85900Y42300D02*
Y43300D01*
X85400Y45500D02*
X86400D01*
X85900Y45000D02*
Y46000D01*
X75260Y51260D02*
X76260D01*
X75760Y50760D02*
Y51760D01*
X94800Y47400D02*
X95800D01*
X95300Y46900D02*
Y47900D01*
X114900Y39000D02*
X115900D01*
X115400Y38500D02*
Y39500D01*
X42000Y38800D02*
X43000D01*
X42500Y38300D02*
Y39300D01*
X54200Y38900D02*
X55200D01*
X54700Y38400D02*
Y39400D01*
X37100Y43600D02*
X38100D01*
X37600Y43100D02*
Y44100D01*
X104200Y40400D02*
X105200D01*
X104700Y39900D02*
Y40900D01*
X104200Y38200D02*
X105200D01*
X104700Y37700D02*
Y38700D01*
X118900Y12800D02*
X119900D01*
X119400Y12300D02*
Y13300D01*
X78300Y19800D02*
X79300D01*
X78800Y19300D02*
Y20300D01*
X163634Y38189D02*
X169933D01*
X166783Y35039D02*
Y41339D01*
X163634Y61811D02*
X169933D01*
X166783Y58661D02*
Y64961D01*
X46400Y46900D02*
X47400D01*
X46900Y46400D02*
Y47400D01*
X43100Y47000D02*
X44100D01*
X43600Y46500D02*
Y47500D01*
X19300Y59000D02*
X20300D01*
X19800Y58500D02*
Y59500D01*
X15700Y57700D02*
X16700D01*
X16200Y57200D02*
Y58200D01*
X33200Y55300D02*
X34200D01*
X33700Y54800D02*
Y55800D01*
X11500Y68400D02*
X12500D01*
X12000Y67900D02*
Y68900D01*
X11500Y65900D02*
X12500D01*
X12000Y65400D02*
Y66400D01*
X28000Y74600D02*
X29000D01*
X28500Y74100D02*
Y75100D01*
X40600Y76400D02*
X41600D01*
X41100Y75900D02*
Y76900D01*
X64500Y66400D02*
X65500D01*
X65000Y65900D02*
Y66900D01*
X64500Y63900D02*
X65500D01*
X65000Y63400D02*
Y64400D01*
X68000Y57200D02*
X69000D01*
X68500Y56700D02*
Y57700D01*
X68000Y54750D02*
X69000D01*
X68500Y54250D02*
Y55250D01*
X85600Y51200D02*
X86600D01*
X86100Y50700D02*
Y51700D01*
X113000Y51800D02*
X114000D01*
X113500Y51300D02*
Y52300D01*
X71700Y40500D02*
X72700D01*
X72200Y40000D02*
Y41000D01*
X68000Y40200D02*
X69000D01*
X68500Y39700D02*
Y40700D01*
X71100Y44900D02*
X72100D01*
X71600Y44400D02*
Y45400D01*
X67000Y44900D02*
X68000D01*
X67500Y44400D02*
Y45400D01*
X87559Y20141D02*
X88559D01*
X88059Y19641D02*
Y20641D01*
X136600Y5400D02*
X137600D01*
X137100Y4900D02*
Y5900D01*
X118400Y19700D02*
X119400D01*
X118900Y19200D02*
Y20200D01*
X119100Y7500D02*
X120100D01*
X119600Y7000D02*
Y8000D01*
X122500Y9700D02*
X123500D01*
X123000Y9200D02*
Y10200D01*
X126000Y9700D02*
X127000D01*
X126500Y9200D02*
Y10200D01*
X129600Y9700D02*
X130600D01*
X130100Y9200D02*
Y10200D01*
X136600Y9700D02*
X137600D01*
X137100Y9200D02*
Y10200D01*
X140100Y9700D02*
X141100D01*
X140600Y9200D02*
Y10200D01*
X143600Y9700D02*
X144600D01*
X144100Y9200D02*
Y10200D01*
X147100Y9700D02*
X148100D01*
X147600Y9200D02*
Y10200D01*
X39600Y46800D02*
X40600D01*
X40100Y46300D02*
Y47300D01*
X51300Y12700D02*
X52300D01*
X51800Y12200D02*
Y13200D01*
X48600Y12700D02*
X49600D01*
X49100Y12200D02*
Y13200D01*
X13500Y61000D02*
X14500D01*
X14000Y60500D02*
Y61500D01*
X30900Y62500D02*
X31900D01*
X31400Y62000D02*
Y63000D01*
X29100Y66700D02*
X30100D01*
X29600Y66200D02*
Y67200D01*
X19500Y45400D02*
X20500D01*
X20000Y44900D02*
Y45900D01*
X14600Y49500D02*
X15600D01*
X15100Y49000D02*
Y50000D01*
X48350D02*
X49350D01*
X48850Y49500D02*
Y50500D01*
X46900Y52900D02*
X47900D01*
X47400Y52400D02*
Y53400D01*
X44500Y53200D02*
X45500D01*
X45000Y52700D02*
Y53700D01*
X40516Y96000D02*
X42484D01*
X41500Y95016D02*
Y96984D01*
X30516Y96000D02*
X32484D01*
X31500Y95016D02*
Y96984D01*
X35516Y96000D02*
X37484D01*
X36500Y95016D02*
Y96984D01*
X35516Y90000D02*
X37484D01*
X36500Y89016D02*
Y90984D01*
X30516Y90000D02*
X32484D01*
X31500Y89016D02*
Y90984D01*
X40516Y90000D02*
X42484D01*
X41500Y89016D02*
Y90984D01*
X35516Y84000D02*
X37484D01*
X36500Y83016D02*
Y84984D01*
X30516Y84000D02*
X32484D01*
X31500Y83016D02*
Y84984D01*
X40516Y84000D02*
X42484D01*
X41500Y83016D02*
Y84984D01*
X125516Y90000D02*
X127484D01*
X126500Y89016D02*
Y90984D01*
X115516Y90000D02*
X117484D01*
X116500Y89016D02*
Y90984D01*
X130516Y84000D02*
X132484D01*
X131500Y83016D02*
Y84984D01*
X105516Y96000D02*
X107484D01*
X106500Y95016D02*
Y96984D01*
X110516Y96000D02*
X112484D01*
X111500Y95016D02*
Y96984D01*
X130516Y90000D02*
X132484D01*
X131500Y89016D02*
Y90984D01*
X120516Y84000D02*
X122484D01*
X121500Y83016D02*
Y84984D01*
X110516Y90000D02*
X112484D01*
X111500Y89016D02*
Y90984D01*
X130516Y96000D02*
X132484D01*
X131500Y95016D02*
Y96984D01*
X115516Y84000D02*
X117484D01*
X116500Y83016D02*
Y84984D01*
X120516Y90000D02*
X122484D01*
X121500Y89016D02*
Y90984D01*
X125516Y96000D02*
X127484D01*
X126500Y95016D02*
Y96984D01*
X110516Y84000D02*
X112484D01*
X111500Y83016D02*
Y84984D01*
X125516Y84000D02*
X127484D01*
X126500Y83016D02*
Y84984D01*
X105516Y90000D02*
X107484D01*
X106500Y89016D02*
Y90984D01*
X120516Y96000D02*
X122484D01*
X121500Y95016D02*
Y96984D01*
X105516Y84000D02*
X107484D01*
X106500Y83016D02*
Y84984D01*
X115516Y96000D02*
X117484D01*
X116500Y95016D02*
Y96984D01*
X144516Y17000D02*
X146484D01*
X145500Y16016D02*
Y17984D01*
X134516Y17000D02*
X136484D01*
X135500Y16016D02*
Y17984D01*
X139516Y17000D02*
X141484D01*
X140500Y16016D02*
Y17984D01*
X144516Y43000D02*
X146484D01*
X145500Y42016D02*
Y43984D01*
X134516Y43000D02*
X136484D01*
X135500Y42016D02*
Y43984D01*
X139516Y43000D02*
X141484D01*
X140500Y42016D02*
Y43984D01*
X144516Y49000D02*
X146484D01*
X145500Y48016D02*
Y49984D01*
X134516Y49000D02*
X136484D01*
X135500Y48016D02*
Y49984D01*
X139516Y49000D02*
X141484D01*
X140500Y48016D02*
Y49984D01*
X144516Y57000D02*
X146484D01*
X145500Y56016D02*
Y57984D01*
X134516Y57000D02*
X136484D01*
X135500Y56016D02*
Y57984D01*
X139516Y57000D02*
X141484D01*
X140500Y56016D02*
Y57984D01*
X144516Y65000D02*
X146484D01*
X145500Y64016D02*
Y65984D01*
X134516Y65000D02*
X136484D01*
X135500Y64016D02*
Y65984D01*
X139516Y65000D02*
X141484D01*
X140500Y64016D02*
Y65984D01*
X144516Y71000D02*
X146484D01*
X145500Y70016D02*
Y71984D01*
X134516Y71000D02*
X136484D01*
X135500Y70016D02*
Y71984D01*
X139516Y71000D02*
X141484D01*
X140500Y70016D02*
Y71984D01*
X153516Y77000D02*
X155484D01*
X154500Y76016D02*
Y77984D01*
X143516Y77000D02*
X145484D01*
X144500Y76016D02*
Y77984D01*
X148516Y77000D02*
X150484D01*
X149500Y76016D02*
Y77984D01*
X158516Y83000D02*
X160484D01*
X159500Y82016D02*
Y83984D01*
X148516Y83000D02*
X150484D01*
X149500Y82016D02*
Y83984D01*
X153516Y83000D02*
X155484D01*
X154500Y82016D02*
Y83984D01*
X158516Y89000D02*
X160484D01*
X159500Y88016D02*
Y89984D01*
X153516Y89000D02*
X155484D01*
X154500Y88016D02*
Y89984D01*
X153516Y95000D02*
X155484D01*
X154500Y94016D02*
Y95984D01*
X148516Y95000D02*
X150484D01*
X149500Y94016D02*
Y95984D01*
X158516Y95000D02*
X160484D01*
X159500Y94016D02*
Y95984D01*
M02*
