G04*
G04 #@! TF.GenerationSoftware,Altium Limited,Altium Designer,21.6.1 (37)*
G04*
G04 Layer_Color=8388736*
%FSLAX25Y25*%
%MOIN*%
G70*
G04*
G04 #@! TF.SameCoordinates,AC7CD038-FE90-4222-8F95-758E89F8CD36*
G04*
G04*
G04 #@! TF.FilePolarity,Positive*
G04*
G01*
G75*
%ADD110C,0.00200*%
G36*
X93300Y34200D02*
X94300D01*
Y34700D01*
Y34800D01*
X94224Y34983D01*
X94083Y35124D01*
X93900Y35200D01*
X93800D01*
D01*
X93300D01*
Y34200D01*
D02*
G37*
D110*
X34700Y44500D02*
Y51500D01*
X31300D02*
X34700D01*
X31300Y44500D02*
X34700D01*
X31300D02*
Y51500D01*
X38300Y44500D02*
Y51500D01*
X34900D02*
X38300D01*
X34900Y44500D02*
X38300D01*
X34900D02*
Y51500D01*
X114500Y40200D02*
X121500D01*
X114500Y36800D02*
Y40200D01*
X121500Y36800D02*
Y40200D01*
X114500Y36800D02*
X121500D01*
X102800Y25500D02*
Y32500D01*
Y25500D02*
X106200D01*
X102800Y32500D02*
X106200D01*
Y25500D02*
Y32500D01*
X149250Y3000D02*
Y10000D01*
X145850D02*
X149250D01*
X145850Y3000D02*
X149250D01*
X145850D02*
Y10000D01*
X145750Y3000D02*
Y10000D01*
X142350D02*
X145750D01*
X142350Y3000D02*
X145750D01*
X142350D02*
Y10000D01*
X124850Y3000D02*
Y10000D01*
Y3000D02*
X128250D01*
X124850Y10000D02*
X128250D01*
Y3000D02*
Y10000D01*
X138850Y3000D02*
Y10000D01*
Y3000D02*
X142250D01*
X138850Y10000D02*
X142250D01*
Y3000D02*
Y10000D01*
X135350Y3000D02*
Y10000D01*
Y3000D02*
X138750D01*
X135350Y10000D02*
X138750D01*
Y3000D02*
Y10000D01*
X135250Y3000D02*
Y10000D01*
X131850D02*
X135250D01*
X131850Y3000D02*
X135250D01*
X131850D02*
Y10000D01*
X128350Y3000D02*
Y10000D01*
Y3000D02*
X131750D01*
X128350Y10000D02*
X131750D01*
Y3000D02*
Y10000D01*
X121350Y3000D02*
Y10000D01*
Y3000D02*
X124750D01*
X121350Y10000D02*
X124750D01*
Y3000D02*
Y10000D01*
X121250Y3000D02*
Y10000D01*
X117850D02*
X121250D01*
X117850Y3000D02*
X121250D01*
X117850D02*
Y10000D01*
X67000Y43200D02*
X74000D01*
X67000Y39800D02*
Y43200D01*
X74000Y39800D02*
Y43200D01*
X67000Y39800D02*
X74000D01*
X67000Y46700D02*
X74000D01*
X67000Y43300D02*
Y46700D01*
X74000Y43300D02*
Y46700D01*
X67000Y43300D02*
X74000D01*
X18700Y53000D02*
Y60000D01*
X15300D02*
X18700D01*
X15300Y53000D02*
X18700D01*
X15300D02*
Y60000D01*
X21000Y64200D02*
X28000D01*
X21000Y60800D02*
Y64200D01*
X28000Y60800D02*
Y64200D01*
X21000Y60800D02*
X28000D01*
X117700Y57500D02*
Y64500D01*
X114300D02*
X117700D01*
X114300Y57500D02*
X117700D01*
X114300D02*
Y64500D01*
X117700Y49000D02*
Y56000D01*
X114300D02*
X117700D01*
X114300Y49000D02*
X117700D01*
X114300D02*
Y56000D01*
X121700Y49000D02*
Y56000D01*
X118300D02*
X121700D01*
X118300Y49000D02*
X121700D01*
X118300D02*
Y56000D01*
Y40500D02*
Y47500D01*
Y40500D02*
X121700D01*
X118300Y47500D02*
X121700D01*
Y40500D02*
Y47500D01*
X114300Y40500D02*
Y47500D01*
Y40500D02*
X117700D01*
X114300Y47500D02*
X117700D01*
Y40500D02*
Y47500D01*
X121700Y57500D02*
Y64500D01*
X118300D02*
X121700D01*
X118300Y57500D02*
X121700D01*
X118300D02*
Y64500D01*
X100000Y59000D02*
X111000D01*
Y65000D01*
X100000Y59000D02*
Y65000D01*
X111000D01*
X59500Y51300D02*
X66500D01*
Y54700D01*
X59500Y51300D02*
Y54700D01*
X66500D01*
X98300Y25500D02*
Y32500D01*
Y25500D02*
X101700D01*
X98300Y32500D02*
X101700D01*
Y25500D02*
Y32500D01*
X45400Y44500D02*
Y51500D01*
Y44500D02*
X48800D01*
X45400Y51500D02*
X48800D01*
Y44500D02*
Y51500D01*
X59500Y61700D02*
X66500D01*
X59500Y58300D02*
Y61700D01*
X66500Y58300D02*
Y61700D01*
X59500Y58300D02*
X66500D01*
X41900Y44500D02*
Y51500D01*
Y44500D02*
X45300D01*
X41900Y51500D02*
X45300D01*
Y44500D02*
Y51500D01*
X15500Y47200D02*
X22500D01*
X15500Y43800D02*
Y47200D01*
X22500Y43800D02*
Y47200D01*
X15500Y43800D02*
X22500D01*
X117800Y10500D02*
Y17500D01*
Y10500D02*
X121200D01*
X117800Y17500D02*
X121200D01*
Y10500D02*
Y17500D01*
X107000Y38800D02*
X114000D01*
Y42200D01*
X107000Y38800D02*
Y42200D01*
X114000D01*
X59500Y58200D02*
X66500D01*
X59500Y54800D02*
Y58200D01*
X66500Y54800D02*
Y58200D01*
X59500Y54800D02*
X66500D01*
X15500Y51200D02*
X22500D01*
X15500Y47800D02*
Y51200D01*
X22500Y47800D02*
Y51200D01*
X15500Y47800D02*
X22500D01*
X23000Y24300D02*
X30000D01*
Y27700D01*
X23000Y24300D02*
Y27700D01*
X30000D01*
X107000Y35300D02*
X114000D01*
Y38700D01*
X107000Y35300D02*
Y38700D01*
X114000D01*
X107000Y42300D02*
X114000D01*
Y45700D01*
X107000Y42300D02*
Y45700D01*
X114000D01*
X93300Y34200D02*
X106700D01*
X93300D02*
Y45800D01*
X106700Y34200D02*
Y45800D01*
X93300D02*
X106700D01*
X55800Y44500D02*
Y51500D01*
X52400D02*
X55800D01*
X52400Y44500D02*
X55800D01*
X52400D02*
Y51500D01*
X97700Y46500D02*
Y53500D01*
X94300D02*
X97700D01*
X94300Y46500D02*
X97700D01*
X94300D02*
Y53500D01*
X59300Y44500D02*
Y51500D01*
X55900D02*
X59300D01*
X55900Y44500D02*
X59300D01*
X55900D02*
Y51500D01*
X67000Y54700D02*
X74000D01*
X67000Y51300D02*
Y54700D01*
X74000Y51300D02*
Y54700D01*
X67000Y51300D02*
X74000D01*
X75000Y43200D02*
X82000D01*
X75000Y39800D02*
Y43200D01*
X82000Y39800D02*
Y43200D01*
X75000Y39800D02*
X82000D01*
X75000Y46700D02*
X82000D01*
X75000Y43300D02*
Y46700D01*
X82000Y43300D02*
Y46700D01*
X75000Y43300D02*
X82000D01*
X90800Y54000D02*
Y61000D01*
Y54000D02*
X94200D01*
X90800Y61000D02*
X94200D01*
Y54000D02*
Y61000D01*
X67000Y51200D02*
X74000D01*
X67000Y47800D02*
Y51200D01*
X74000Y47800D02*
Y51200D01*
X67000Y47800D02*
X74000D01*
X67000Y61700D02*
X74000D01*
X67000Y58300D02*
Y61700D01*
X74000Y58300D02*
Y61700D01*
X67000Y58300D02*
X74000D01*
X23000Y31200D02*
X30000D01*
X23000Y27800D02*
Y31200D01*
X30000Y27800D02*
Y31200D01*
X23000Y27800D02*
X30000D01*
X38400Y44500D02*
Y51500D01*
Y44500D02*
X41800D01*
X38400Y51500D02*
X41800D01*
Y44500D02*
Y51500D01*
X67000Y54800D02*
X74000D01*
Y58200D01*
X67000Y54800D02*
Y58200D01*
X74000D01*
X52300Y44500D02*
Y51500D01*
X48900D02*
X52300D01*
X48900Y44500D02*
X52300D01*
X48900D02*
Y51500D01*
X97700Y54000D02*
Y61000D01*
X94300D02*
X97700D01*
X94300Y54000D02*
X97700D01*
X94300D02*
Y61000D01*
X26800Y68000D02*
Y75000D01*
Y68000D02*
X30200D01*
X26800Y75000D02*
X30200D01*
Y68000D02*
Y75000D01*
X98500Y66000D02*
X120500D01*
Y78000D01*
X98500Y66000D02*
Y78000D01*
X120500D01*
M02*
