G04*
G04 #@! TF.GenerationSoftware,Altium Limited,Altium Designer,21.6.1 (37)*
G04*
G04 Layer_Color=8388736*
%FSLAX25Y25*%
%MOIN*%
G70*
G04*
G04 #@! TF.SameCoordinates,AC7CD038-FE90-4222-8F95-758E89F8CD36*
G04*
G04*
G04 #@! TF.FilePolarity,Negative*
G04*
G01*
G75*
%ADD10C,0.01000*%
%ADD14R,0.08400X0.15600*%
%ADD15R,0.37000X0.10500*%
G04:AMPARAMS|DCode=16|XSize=21.75mil|YSize=143.79mil|CornerRadius=6.94mil|HoleSize=0mil|Usage=FLASHONLY|Rotation=0.000|XOffset=0mil|YOffset=0mil|HoleType=Round|Shape=RoundedRectangle|*
%AMROUNDEDRECTD16*
21,1,0.02175,0.12992,0,0,0.0*
21,1,0.00787,0.14379,0,0,0.0*
1,1,0.01387,0.00394,-0.06496*
1,1,0.01387,-0.00394,-0.06496*
1,1,0.01387,-0.00394,0.06496*
1,1,0.01387,0.00394,0.06496*
%
%ADD16ROUNDEDRECTD16*%
G04:AMPARAMS|DCode=17|XSize=65.06mil|YSize=17.81mil|CornerRadius=5.95mil|HoleSize=0mil|Usage=FLASHONLY|Rotation=0.000|XOffset=0mil|YOffset=0mil|HoleType=Round|Shape=RoundedRectangle|*
%AMROUNDEDRECTD17*
21,1,0.06506,0.00591,0,0,0.0*
21,1,0.05315,0.01781,0,0,0.0*
1,1,0.01191,0.02657,-0.00295*
1,1,0.01191,-0.02657,-0.00295*
1,1,0.01191,-0.02657,0.00295*
1,1,0.01191,0.02657,0.00295*
%
%ADD17ROUNDEDRECTD17*%
%ADD18C,0.20285*%
%ADD19O,0.08868X0.04537*%
%ADD20O,0.06899X0.04537*%
%ADD21C,0.03159*%
%ADD22C,0.06899*%
G36*
X183099Y27500D02*
X172627D01*
Y74000D01*
X183099D01*
Y27500D01*
D02*
G37*
G36*
X195730Y72020D02*
X191548D01*
Y73128D01*
X195730D01*
Y72020D01*
D02*
G37*
G36*
X190990D02*
X189965D01*
Y73128D01*
X190990D01*
Y72020D01*
D02*
G37*
G36*
X195730Y69862D02*
X195105D01*
X195122Y69854D01*
X195163Y69821D01*
X195222Y69771D01*
X195297Y69696D01*
X195388Y69612D01*
X195472Y69504D01*
X195563Y69388D01*
X195638Y69254D01*
X195647Y69238D01*
X195663Y69187D01*
X195696Y69113D01*
X195730Y69013D01*
X195763Y68896D01*
X195796Y68763D01*
X195813Y68621D01*
X195821Y68471D01*
Y68396D01*
X195813Y68321D01*
X195796Y68221D01*
X195780Y68096D01*
X195746Y67971D01*
X195696Y67838D01*
X195638Y67713D01*
X195630Y67696D01*
X195605Y67663D01*
X195563Y67597D01*
X195505Y67530D01*
X195430Y67447D01*
X195347Y67372D01*
X195238Y67297D01*
X195122Y67230D01*
X195105Y67222D01*
X195063Y67205D01*
X194988Y67180D01*
X194880Y67155D01*
X194747Y67130D01*
X194589Y67105D01*
X194405Y67088D01*
X194197Y67080D01*
X191548D01*
Y68188D01*
X193472D01*
X193481D01*
X193514D01*
X193556D01*
X193614D01*
X193681D01*
X193756D01*
X193930Y68196D01*
X194122Y68205D01*
X194297Y68213D01*
X194372Y68221D01*
X194447Y68230D01*
X194505Y68238D01*
X194547Y68246D01*
X194555D01*
X194580Y68255D01*
X194614Y68271D01*
X194664Y68296D01*
X194713Y68321D01*
X194764Y68363D01*
X194814Y68405D01*
X194863Y68463D01*
X194872Y68471D01*
X194880Y68496D01*
X194897Y68529D01*
X194913Y68579D01*
X194938Y68638D01*
X194955Y68713D01*
X194963Y68788D01*
X194972Y68879D01*
Y68929D01*
X194963Y68979D01*
X194955Y69046D01*
X194938Y69129D01*
X194905Y69213D01*
X194872Y69304D01*
X194822Y69388D01*
X194814Y69396D01*
X194797Y69421D01*
X194764Y69462D01*
X194713Y69512D01*
X194655Y69562D01*
X194597Y69612D01*
X194522Y69662D01*
X194439Y69696D01*
X194430D01*
X194389Y69712D01*
X194355D01*
X194314Y69721D01*
X194272Y69729D01*
X194214Y69737D01*
X194139Y69746D01*
X194064Y69754D01*
X193972Y69762D01*
X193864D01*
X193747Y69771D01*
X193614Y69779D01*
X193472D01*
X193314D01*
X191548D01*
Y70887D01*
X195730D01*
Y69862D01*
D02*
G37*
G36*
Y64873D02*
X193531D01*
X193522D01*
X193506D01*
X193472D01*
X193422D01*
X193372D01*
X193314D01*
X193181Y64864D01*
X193039Y64856D01*
X192898Y64848D01*
X192781Y64831D01*
X192739Y64814D01*
X192698Y64806D01*
X192689D01*
X192664Y64789D01*
X192639Y64773D01*
X192598Y64756D01*
X192506Y64681D01*
X192456Y64639D01*
X192414Y64581D01*
X192406Y64573D01*
X192398Y64556D01*
X192381Y64514D01*
X192356Y64473D01*
X192340Y64414D01*
X192323Y64348D01*
X192315Y64265D01*
X192306Y64181D01*
Y64131D01*
X192315Y64081D01*
X192323Y64015D01*
X192340Y63940D01*
X192365Y63856D01*
X192398Y63773D01*
X192448Y63690D01*
X192456Y63681D01*
X192473Y63656D01*
X192506Y63615D01*
X192548Y63573D01*
X192606Y63515D01*
X192673Y63465D01*
X192756Y63415D01*
X192848Y63373D01*
X192856D01*
X192898Y63357D01*
X192956Y63340D01*
X193047Y63323D01*
X193156Y63307D01*
X193297Y63290D01*
X193456Y63282D01*
X193639Y63273D01*
X195730D01*
Y62165D01*
X189965D01*
Y63273D01*
X192098D01*
X192090Y63282D01*
X192073Y63298D01*
X192040Y63332D01*
X191998Y63365D01*
X191948Y63423D01*
X191898Y63481D01*
X191840Y63556D01*
X191773Y63631D01*
X191715Y63723D01*
X191656Y63823D01*
X191556Y64040D01*
X191515Y64156D01*
X191481Y64281D01*
X191465Y64414D01*
X191456Y64548D01*
Y64614D01*
X191465Y64689D01*
X191473Y64781D01*
X191490Y64889D01*
X191523Y64998D01*
X191556Y65122D01*
X191606Y65239D01*
X191615Y65256D01*
X191631Y65289D01*
X191665Y65347D01*
X191706Y65414D01*
X191756Y65489D01*
X191815Y65564D01*
X191890Y65639D01*
X191965Y65706D01*
X191973Y65714D01*
X192006Y65731D01*
X192048Y65756D01*
X192106Y65789D01*
X192181Y65831D01*
X192264Y65864D01*
X192356Y65897D01*
X192456Y65922D01*
X192464D01*
X192506Y65930D01*
X192573Y65939D01*
X192656Y65956D01*
X192773Y65964D01*
X192914Y65972D01*
X193081Y65980D01*
X193281D01*
X195730D01*
Y64873D01*
D02*
G37*
G36*
Y59933D02*
X191548D01*
Y61041D01*
X195730D01*
Y59933D01*
D02*
G37*
G36*
X190990D02*
X189965D01*
Y61041D01*
X190990D01*
Y59933D01*
D02*
G37*
G36*
X195730Y57709D02*
X193531D01*
X193522D01*
X193506D01*
X193472D01*
X193422D01*
X193372D01*
X193314D01*
X193181Y57701D01*
X193039Y57692D01*
X192898Y57684D01*
X192781Y57667D01*
X192739Y57651D01*
X192698Y57642D01*
X192689D01*
X192664Y57626D01*
X192639Y57609D01*
X192598Y57592D01*
X192506Y57517D01*
X192456Y57476D01*
X192414Y57417D01*
X192406Y57409D01*
X192398Y57392D01*
X192381Y57351D01*
X192356Y57309D01*
X192340Y57251D01*
X192323Y57184D01*
X192315Y57101D01*
X192306Y57017D01*
Y56967D01*
X192315Y56917D01*
X192323Y56851D01*
X192340Y56776D01*
X192365Y56692D01*
X192398Y56609D01*
X192448Y56526D01*
X192456Y56518D01*
X192473Y56493D01*
X192506Y56451D01*
X192548Y56409D01*
X192606Y56351D01*
X192673Y56301D01*
X192756Y56251D01*
X192848Y56209D01*
X192856D01*
X192898Y56193D01*
X192956Y56176D01*
X193047Y56159D01*
X193156Y56143D01*
X193297Y56126D01*
X193456Y56118D01*
X193639Y56109D01*
X195730D01*
Y55001D01*
X189965D01*
Y56109D01*
X192098D01*
X192090Y56118D01*
X192073Y56134D01*
X192040Y56168D01*
X191998Y56201D01*
X191948Y56259D01*
X191898Y56318D01*
X191840Y56393D01*
X191773Y56468D01*
X191715Y56559D01*
X191656Y56659D01*
X191556Y56876D01*
X191515Y56992D01*
X191481Y57117D01*
X191465Y57251D01*
X191456Y57384D01*
Y57451D01*
X191465Y57525D01*
X191473Y57617D01*
X191490Y57726D01*
X191523Y57834D01*
X191556Y57959D01*
X191606Y58075D01*
X191615Y58092D01*
X191631Y58125D01*
X191665Y58184D01*
X191706Y58250D01*
X191756Y58325D01*
X191815Y58400D01*
X191890Y58475D01*
X191965Y58542D01*
X191973Y58550D01*
X192006Y58567D01*
X192048Y58592D01*
X192106Y58625D01*
X192181Y58667D01*
X192264Y58700D01*
X192356Y58733D01*
X192456Y58758D01*
X192464D01*
X192506Y58767D01*
X192573Y58775D01*
X192656Y58792D01*
X192773Y58800D01*
X192914Y58808D01*
X193081Y58817D01*
X193281D01*
X195730D01*
Y57709D01*
D02*
G37*
G36*
Y50537D02*
X194855D01*
X193064Y52094D01*
X193056Y52103D01*
X193047Y52111D01*
X192989Y52161D01*
X192914Y52228D01*
X192823Y52311D01*
X192723Y52403D01*
X192614Y52503D01*
X192523Y52586D01*
X192439Y52669D01*
Y52636D01*
X192448Y52586D01*
Y52461D01*
X192456Y52369D01*
Y52161D01*
X192464Y50687D01*
X191548D01*
Y54144D01*
X192331D01*
X194172Y52544D01*
X194780Y51986D01*
Y52028D01*
X194772Y52061D01*
Y52136D01*
X194764Y52228D01*
Y52328D01*
X194755Y52419D01*
Y54268D01*
X195730D01*
Y50537D01*
D02*
G37*
G36*
X195555Y49879D02*
X195713Y49870D01*
X195896Y49854D01*
X196080Y49837D01*
X196255Y49804D01*
X196329Y49787D01*
X196405Y49762D01*
X196421Y49754D01*
X196463Y49737D01*
X196529Y49712D01*
X196613Y49670D01*
X196704Y49620D01*
X196804Y49562D01*
X196896Y49495D01*
X196979Y49412D01*
X196988Y49404D01*
X197013Y49371D01*
X197054Y49321D01*
X197096Y49262D01*
X197146Y49179D01*
X197204Y49079D01*
X197254Y48962D01*
X197304Y48829D01*
X197312Y48812D01*
X197321Y48762D01*
X197346Y48687D01*
X197362Y48579D01*
X197387Y48438D01*
X197412Y48279D01*
X197421Y48096D01*
X197429Y47896D01*
Y47796D01*
X197421Y47721D01*
Y47638D01*
X197412Y47538D01*
X197396Y47430D01*
X197379Y47313D01*
X197337Y47063D01*
X197271Y46813D01*
X197229Y46696D01*
X197179Y46580D01*
X197129Y46480D01*
X197063Y46388D01*
X197054Y46380D01*
X197046Y46372D01*
X196996Y46322D01*
X196921Y46247D01*
X196813Y46172D01*
X196679Y46088D01*
X196521Y46014D01*
X196338Y45963D01*
X196238Y45955D01*
X196138Y45947D01*
X196130D01*
X196096D01*
X196055D01*
X196005Y45955D01*
X196155Y47221D01*
X196163D01*
X196188Y47230D01*
X196230Y47238D01*
X196271Y47246D01*
X196371Y47288D01*
X196421Y47321D01*
X196455Y47363D01*
X196463Y47371D01*
X196471Y47396D01*
X196496Y47430D01*
X196513Y47488D01*
X196538Y47554D01*
X196563Y47638D01*
X196571Y47738D01*
X196579Y47854D01*
Y47929D01*
X196571Y48004D01*
X196563Y48096D01*
X196546Y48204D01*
X196521Y48313D01*
X196488Y48412D01*
X196446Y48504D01*
X196438Y48513D01*
X196430Y48529D01*
X196413Y48554D01*
X196379Y48588D01*
X196338Y48621D01*
X196288Y48654D01*
X196230Y48687D01*
X196163Y48721D01*
X196155D01*
X196138Y48729D01*
X196105Y48737D01*
X196046Y48754D01*
X195980Y48762D01*
X195896Y48771D01*
X195788Y48779D01*
X195663D01*
X195055D01*
X195063Y48771D01*
X195080Y48754D01*
X195113Y48729D01*
X195163Y48687D01*
X195213Y48646D01*
X195272Y48588D01*
X195330Y48513D01*
X195388Y48438D01*
X195455Y48354D01*
X195513Y48254D01*
X195622Y48046D01*
X195663Y47929D01*
X195696Y47804D01*
X195721Y47671D01*
X195730Y47530D01*
Y47496D01*
X195721Y47446D01*
Y47388D01*
X195705Y47321D01*
X195688Y47238D01*
X195671Y47146D01*
X195638Y47046D01*
X195605Y46946D01*
X195555Y46838D01*
X195496Y46722D01*
X195430Y46613D01*
X195347Y46505D01*
X195255Y46397D01*
X195147Y46297D01*
X195022Y46197D01*
X195013D01*
X194997Y46180D01*
X194963Y46163D01*
X194922Y46138D01*
X194863Y46105D01*
X194797Y46072D01*
X194722Y46038D01*
X194630Y46005D01*
X194539Y45972D01*
X194430Y45939D01*
X194314Y45905D01*
X194189Y45872D01*
X193922Y45830D01*
X193772Y45822D01*
X193622Y45814D01*
X193614D01*
X193572D01*
X193522D01*
X193447Y45822D01*
X193364Y45830D01*
X193264Y45838D01*
X193148Y45855D01*
X193031Y45880D01*
X192764Y45939D01*
X192631Y45980D01*
X192498Y46022D01*
X192373Y46080D01*
X192239Y46147D01*
X192123Y46222D01*
X192015Y46313D01*
X192006Y46322D01*
X191990Y46338D01*
X191965Y46363D01*
X191923Y46405D01*
X191881Y46455D01*
X191840Y46513D01*
X191790Y46580D01*
X191731Y46663D01*
X191681Y46747D01*
X191631Y46847D01*
X191540Y47055D01*
X191507Y47180D01*
X191481Y47305D01*
X191465Y47438D01*
X191456Y47571D01*
Y47605D01*
X191465Y47646D01*
Y47704D01*
X191481Y47763D01*
X191490Y47846D01*
X191515Y47929D01*
X191540Y48021D01*
X191581Y48121D01*
X191623Y48221D01*
X191681Y48329D01*
X191748Y48438D01*
X191823Y48546D01*
X191923Y48654D01*
X192023Y48754D01*
X192148Y48854D01*
X191548D01*
Y49887D01*
X195305D01*
X195313D01*
X195338D01*
X195372D01*
X195422D01*
X195488D01*
X195555Y49879D01*
D02*
G37*
G36*
X195730Y43831D02*
X193606D01*
X193597D01*
X193572D01*
X193539D01*
X193497D01*
X193439D01*
X193381D01*
X193239Y43823D01*
X193097Y43814D01*
X192948Y43798D01*
X192823Y43781D01*
X192773Y43773D01*
X192731Y43756D01*
X192723D01*
X192698Y43739D01*
X192664Y43723D01*
X192614Y43698D01*
X192514Y43623D01*
X192464Y43581D01*
X192423Y43523D01*
X192414Y43514D01*
X192406Y43498D01*
X192389Y43464D01*
X192365Y43415D01*
X192340Y43356D01*
X192323Y43298D01*
X192315Y43223D01*
X192306Y43140D01*
Y43090D01*
X192315Y43040D01*
X192323Y42973D01*
X192348Y42890D01*
X192373Y42806D01*
X192414Y42715D01*
X192464Y42623D01*
X192473Y42615D01*
X192489Y42590D01*
X192531Y42548D01*
X192573Y42498D01*
X192639Y42448D01*
X192706Y42398D01*
X192798Y42348D01*
X192889Y42315D01*
X192898D01*
X192939Y42298D01*
X193006Y42290D01*
X193106Y42273D01*
X193164Y42265D01*
X193239Y42257D01*
X193314Y42248D01*
X193406D01*
X193497Y42240D01*
X193606Y42232D01*
X193722D01*
X193847D01*
X195730D01*
Y41124D01*
X191548D01*
Y42148D01*
X192165D01*
X192156Y42157D01*
X192131Y42173D01*
X192098Y42207D01*
X192056Y42248D01*
X191998Y42298D01*
X191940Y42365D01*
X191873Y42440D01*
X191806Y42523D01*
X191748Y42615D01*
X191681Y42723D01*
X191623Y42831D01*
X191565Y42956D01*
X191523Y43090D01*
X191490Y43223D01*
X191465Y43373D01*
X191456Y43523D01*
Y43581D01*
X191465Y43656D01*
X191473Y43748D01*
X191490Y43848D01*
X191515Y43956D01*
X191548Y44073D01*
X191590Y44189D01*
X191598Y44206D01*
X191615Y44239D01*
X191640Y44298D01*
X191681Y44364D01*
X191731Y44439D01*
X191790Y44514D01*
X191856Y44589D01*
X191931Y44656D01*
X191940Y44664D01*
X191965Y44681D01*
X192006Y44706D01*
X192065Y44739D01*
X192131Y44781D01*
X192215Y44814D01*
X192298Y44847D01*
X192398Y44872D01*
X192406D01*
X192448Y44881D01*
X192506Y44897D01*
X192589Y44906D01*
X192689Y44922D01*
X192823Y44931D01*
X192964Y44939D01*
X193139D01*
X195730D01*
Y43831D01*
D02*
G37*
G36*
X193964Y37467D02*
X193972D01*
X193989D01*
X194014D01*
X194047Y37475D01*
X194130Y37484D01*
X194247Y37500D01*
X194364Y37534D01*
X194497Y37584D01*
X194622Y37642D01*
X194730Y37725D01*
X194738Y37734D01*
X194772Y37775D01*
X194814Y37825D01*
X194863Y37900D01*
X194913Y37992D01*
X194955Y38108D01*
X194988Y38233D01*
X194997Y38366D01*
Y38408D01*
X194988Y38458D01*
X194980Y38517D01*
X194963Y38583D01*
X194938Y38658D01*
X194905Y38733D01*
X194855Y38800D01*
X194847Y38808D01*
X194830Y38833D01*
X194797Y38866D01*
X194747Y38900D01*
X194680Y38950D01*
X194605Y38991D01*
X194505Y39033D01*
X194397Y39075D01*
X194580Y40174D01*
X194589D01*
X194605Y40166D01*
X194639Y40149D01*
X194680Y40132D01*
X194730Y40108D01*
X194789Y40082D01*
X194922Y40007D01*
X195072Y39916D01*
X195230Y39799D01*
X195372Y39658D01*
X195505Y39499D01*
Y39491D01*
X195521Y39483D01*
X195530Y39449D01*
X195555Y39416D01*
X195580Y39375D01*
X195605Y39316D01*
X195630Y39258D01*
X195663Y39183D01*
X195721Y39016D01*
X195771Y38825D01*
X195805Y38600D01*
X195821Y38358D01*
Y38308D01*
X195813Y38258D01*
Y38183D01*
X195796Y38092D01*
X195780Y37983D01*
X195763Y37867D01*
X195730Y37750D01*
X195696Y37617D01*
X195647Y37484D01*
X195588Y37350D01*
X195521Y37217D01*
X195438Y37084D01*
X195347Y36959D01*
X195238Y36851D01*
X195113Y36742D01*
X195105Y36734D01*
X195088Y36726D01*
X195055Y36709D01*
X195013Y36676D01*
X194955Y36651D01*
X194888Y36617D01*
X194814Y36576D01*
X194722Y36542D01*
X194622Y36501D01*
X194514Y36467D01*
X194397Y36426D01*
X194264Y36401D01*
X194130Y36376D01*
X193989Y36351D01*
X193831Y36342D01*
X193672Y36334D01*
X193664D01*
X193631D01*
X193572D01*
X193497Y36342D01*
X193414Y36351D01*
X193314Y36359D01*
X193206Y36376D01*
X193081Y36401D01*
X192823Y36467D01*
X192689Y36509D01*
X192548Y36559D01*
X192414Y36626D01*
X192289Y36700D01*
X192165Y36784D01*
X192048Y36876D01*
X192040Y36884D01*
X192023Y36900D01*
X191990Y36934D01*
X191956Y36975D01*
X191915Y37025D01*
X191865Y37092D01*
X191806Y37167D01*
X191748Y37250D01*
X191698Y37342D01*
X191640Y37450D01*
X191590Y37558D01*
X191548Y37683D01*
X191515Y37808D01*
X191481Y37950D01*
X191465Y38092D01*
X191456Y38242D01*
Y38333D01*
X191465Y38400D01*
X191473Y38475D01*
X191490Y38566D01*
X191507Y38666D01*
X191531Y38775D01*
X191565Y38891D01*
X191606Y39008D01*
X191656Y39133D01*
X191723Y39258D01*
X191790Y39375D01*
X191873Y39491D01*
X191973Y39608D01*
X192081Y39708D01*
X192090Y39716D01*
X192106Y39733D01*
X192148Y39758D01*
X192198Y39791D01*
X192264Y39833D01*
X192340Y39874D01*
X192439Y39924D01*
X192548Y39974D01*
X192673Y40024D01*
X192814Y40074D01*
X192964Y40116D01*
X193139Y40157D01*
X193322Y40191D01*
X193522Y40216D01*
X193731Y40233D01*
X193964D01*
Y37467D01*
D02*
G37*
G36*
X191873Y35701D02*
X191931D01*
X192048Y35684D01*
X192190Y35659D01*
X192348Y35626D01*
X192498Y35576D01*
X192639Y35509D01*
X192656Y35501D01*
X192698Y35476D01*
X192764Y35434D01*
X192848Y35376D01*
X192931Y35309D01*
X193031Y35218D01*
X193122Y35126D01*
X193206Y35018D01*
X193214Y35001D01*
X193239Y34968D01*
X193272Y34910D01*
X193314Y34835D01*
X193364Y34743D01*
X193406Y34643D01*
X193447Y34535D01*
X193481Y34418D01*
Y34402D01*
X193489Y34376D01*
Y34343D01*
X193497Y34301D01*
X193506Y34243D01*
X193514Y34185D01*
Y34110D01*
X193522Y34035D01*
X193531Y33943D01*
X193539Y33843D01*
X193547Y33735D01*
Y33618D01*
X193556Y33494D01*
Y32461D01*
X195730D01*
Y31294D01*
X189965D01*
Y33419D01*
X189974Y33510D01*
Y33727D01*
X189990Y33960D01*
X190007Y34193D01*
X190015Y34293D01*
X190024Y34393D01*
X190040Y34476D01*
X190057Y34543D01*
Y34551D01*
X190065Y34568D01*
X190074Y34593D01*
X190082Y34626D01*
X190124Y34718D01*
X190174Y34835D01*
X190249Y34960D01*
X190349Y35101D01*
X190473Y35234D01*
X190623Y35368D01*
X190632D01*
X190640Y35384D01*
X190665Y35401D01*
X190699Y35418D01*
X190748Y35451D01*
X190798Y35476D01*
X190857Y35509D01*
X190923Y35543D01*
X191090Y35601D01*
X191273Y35659D01*
X191498Y35693D01*
X191740Y35709D01*
X191748D01*
X191765D01*
X191790D01*
X191831D01*
X191873Y35701D01*
D02*
G37*
G36*
X188267Y72870D02*
X188271D01*
X188285Y72866D01*
X188304Y72856D01*
X188327Y72847D01*
X188359Y72833D01*
X188396Y72819D01*
X188475Y72787D01*
X188562Y72755D01*
X188650Y72718D01*
X188729Y72681D01*
X188761Y72662D01*
X188793Y72649D01*
X188803Y72644D01*
X188826Y72630D01*
X188858Y72607D01*
X188900Y72579D01*
X188946Y72542D01*
X188992Y72501D01*
X189038Y72459D01*
X189075Y72408D01*
X189080Y72404D01*
X189089Y72385D01*
X189103Y72357D01*
X189121Y72316D01*
X189140Y72270D01*
X189154Y72214D01*
X189163Y72154D01*
X189168Y72085D01*
Y72066D01*
X189163Y72043D01*
Y72011D01*
X189154Y71974D01*
X189145Y71932D01*
X189135Y71886D01*
X189117Y71835D01*
X188752Y71794D01*
Y71798D01*
X188756Y71817D01*
X188761Y71840D01*
X188770Y71868D01*
X188784Y71942D01*
X188789Y72016D01*
Y72039D01*
X188784Y72062D01*
Y72089D01*
X188770Y72159D01*
X188756Y72191D01*
X188743Y72223D01*
Y72228D01*
X188733Y72237D01*
X188724Y72251D01*
X188710Y72270D01*
X188673Y72311D01*
X188622Y72348D01*
X188618D01*
X188609Y72357D01*
X188590Y72367D01*
X188562Y72376D01*
X188525Y72394D01*
X188470Y72413D01*
X188405Y72441D01*
X188327Y72468D01*
X188322D01*
X188304Y72478D01*
X188271Y72487D01*
X188230Y72505D01*
X185910Y71627D01*
Y72043D01*
X187255Y72528D01*
X187260D01*
X187264Y72533D01*
X187278Y72538D01*
X187301Y72542D01*
X187324Y72551D01*
X187352Y72561D01*
X187417Y72584D01*
X187495Y72611D01*
X187588Y72639D01*
X187685Y72667D01*
X187791Y72695D01*
X187786D01*
X187777Y72699D01*
X187763Y72704D01*
X187745Y72708D01*
X187722Y72713D01*
X187694Y72722D01*
X187625Y72741D01*
X187546Y72764D01*
X187454Y72796D01*
X187361Y72824D01*
X187264Y72861D01*
X185910Y73360D01*
Y73753D01*
X188267Y72870D01*
D02*
G37*
G36*
X187135Y71364D02*
X187186Y71359D01*
X187241Y71355D01*
X187306Y71346D01*
X187375Y71332D01*
X187523Y71295D01*
X187601Y71272D01*
X187675Y71244D01*
X187754Y71212D01*
X187823Y71170D01*
X187892Y71124D01*
X187957Y71073D01*
X187962Y71068D01*
X187971Y71059D01*
X187985Y71045D01*
X188008Y71022D01*
X188031Y70990D01*
X188059Y70958D01*
X188087Y70921D01*
X188119Y70874D01*
X188147Y70824D01*
X188179Y70773D01*
X188230Y70648D01*
X188253Y70583D01*
X188267Y70514D01*
X188276Y70440D01*
X188281Y70366D01*
Y70348D01*
X188276Y70325D01*
Y70297D01*
X188271Y70265D01*
X188262Y70223D01*
X188239Y70131D01*
X188221Y70080D01*
X188197Y70029D01*
X188170Y69973D01*
X188137Y69923D01*
X188096Y69867D01*
X188050Y69816D01*
X187999Y69770D01*
X187939Y69724D01*
X188230D01*
Y69359D01*
X185033D01*
Y69752D01*
X186174D01*
X186169Y69756D01*
X186160Y69761D01*
X186146Y69775D01*
X186123Y69798D01*
X186100Y69821D01*
X186072Y69849D01*
X186045Y69886D01*
X186017Y69923D01*
X185957Y70015D01*
X185910Y70121D01*
X185887Y70181D01*
X185874Y70246D01*
X185864Y70315D01*
X185860Y70385D01*
Y70422D01*
X185864Y70463D01*
X185869Y70514D01*
X185883Y70574D01*
X185897Y70643D01*
X185920Y70717D01*
X185948Y70787D01*
X185952Y70796D01*
X185961Y70819D01*
X185984Y70856D01*
X186012Y70898D01*
X186045Y70948D01*
X186086Y70999D01*
X186137Y71055D01*
X186192Y71101D01*
X186197Y71105D01*
X186220Y71119D01*
X186252Y71142D01*
X186294Y71170D01*
X186349Y71202D01*
X186414Y71235D01*
X186488Y71267D01*
X186567Y71295D01*
X186571D01*
X186576Y71299D01*
X186590Y71304D01*
X186603Y71309D01*
X186650Y71318D01*
X186710Y71332D01*
X186779Y71346D01*
X186858Y71359D01*
X186945Y71364D01*
X187038Y71369D01*
X187042D01*
X187065D01*
X187093D01*
X187135Y71364D01*
D02*
G37*
G36*
X188230Y67137D02*
X187939D01*
X187943Y67132D01*
X187953Y67128D01*
X187971Y67114D01*
X187994Y67095D01*
X188017Y67072D01*
X188045Y67044D01*
X188077Y67012D01*
X188110Y66970D01*
X188142Y66929D01*
X188174Y66883D01*
X188202Y66827D01*
X188225Y66767D01*
X188248Y66707D01*
X188267Y66638D01*
X188276Y66564D01*
X188281Y66485D01*
Y66458D01*
X188276Y66439D01*
X188271Y66384D01*
X188262Y66319D01*
X188244Y66241D01*
X188216Y66153D01*
X188179Y66065D01*
X188128Y65977D01*
Y65973D01*
X188119Y65968D01*
X188100Y65940D01*
X188063Y65899D01*
X188017Y65848D01*
X187957Y65788D01*
X187883Y65728D01*
X187800Y65668D01*
X187703Y65617D01*
X187698D01*
X187689Y65612D01*
X187675Y65608D01*
X187657Y65598D01*
X187629Y65589D01*
X187597Y65575D01*
X187565Y65566D01*
X187523Y65557D01*
X187431Y65534D01*
X187324Y65511D01*
X187204Y65497D01*
X187075Y65492D01*
X187070D01*
X187061D01*
X187042D01*
X187015D01*
X186987Y65497D01*
X186950D01*
X186867Y65506D01*
X186770Y65520D01*
X186664Y65543D01*
X186553Y65571D01*
X186446Y65608D01*
X186442D01*
X186433Y65612D01*
X186419Y65622D01*
X186400Y65631D01*
X186349Y65658D01*
X186285Y65695D01*
X186215Y65742D01*
X186146Y65802D01*
X186072Y65871D01*
X186012Y65954D01*
Y65959D01*
X186007Y65963D01*
X185998Y65977D01*
X185989Y65996D01*
X185966Y66042D01*
X185934Y66107D01*
X185906Y66180D01*
X185883Y66268D01*
X185864Y66365D01*
X185860Y66467D01*
Y66504D01*
X185864Y66541D01*
X185869Y66592D01*
X185883Y66652D01*
X185897Y66716D01*
X185920Y66781D01*
X185952Y66841D01*
X185957Y66850D01*
X185966Y66869D01*
X185989Y66897D01*
X186012Y66934D01*
X186045Y66980D01*
X186086Y67021D01*
X186128Y67067D01*
X186179Y67109D01*
X185033D01*
Y67502D01*
X188230D01*
Y67137D01*
D02*
G37*
G36*
X187172Y65155D02*
Y63422D01*
X187176D01*
X187190D01*
X187209Y63427D01*
X187236D01*
X187269Y63432D01*
X187306Y63441D01*
X187389Y63455D01*
X187481Y63482D01*
X187583Y63519D01*
X187675Y63570D01*
X187759Y63635D01*
Y63639D01*
X187768Y63644D01*
X187791Y63672D01*
X187823Y63713D01*
X187856Y63769D01*
X187892Y63843D01*
X187925Y63926D01*
X187948Y64018D01*
X187953Y64069D01*
X187957Y64125D01*
Y64161D01*
X187953Y64203D01*
X187943Y64254D01*
X187929Y64309D01*
X187911Y64374D01*
X187883Y64434D01*
X187846Y64494D01*
X187842Y64499D01*
X187823Y64522D01*
X187795Y64550D01*
X187759Y64582D01*
X187708Y64619D01*
X187643Y64661D01*
X187569Y64702D01*
X187481Y64739D01*
X187532Y65146D01*
X187537D01*
X187546Y65141D01*
X187565Y65136D01*
X187592Y65127D01*
X187620Y65113D01*
X187657Y65099D01*
X187735Y65062D01*
X187823Y65016D01*
X187916Y64951D01*
X188003Y64878D01*
X188087Y64785D01*
Y64781D01*
X188096Y64771D01*
X188105Y64758D01*
X188119Y64739D01*
X188133Y64711D01*
X188147Y64684D01*
X188165Y64647D01*
X188184Y64605D01*
X188202Y64559D01*
X188221Y64513D01*
X188248Y64397D01*
X188271Y64268D01*
X188281Y64125D01*
Y64074D01*
X188276Y64041D01*
X188271Y64000D01*
X188262Y63949D01*
X188253Y63894D01*
X188244Y63833D01*
X188207Y63704D01*
X188179Y63635D01*
X188151Y63570D01*
X188114Y63501D01*
X188073Y63436D01*
X188026Y63376D01*
X187971Y63316D01*
X187966Y63311D01*
X187957Y63302D01*
X187939Y63288D01*
X187911Y63270D01*
X187879Y63247D01*
X187842Y63224D01*
X187795Y63196D01*
X187745Y63168D01*
X187685Y63140D01*
X187620Y63113D01*
X187546Y63090D01*
X187468Y63067D01*
X187384Y63048D01*
X187292Y63034D01*
X187195Y63025D01*
X187093Y63020D01*
X187089D01*
X187065D01*
X187038D01*
X186996Y63025D01*
X186945Y63030D01*
X186890Y63034D01*
X186825Y63043D01*
X186761Y63057D01*
X186613Y63094D01*
X186539Y63117D01*
X186460Y63145D01*
X186386Y63182D01*
X186317Y63224D01*
X186248Y63270D01*
X186183Y63321D01*
X186179Y63325D01*
X186169Y63335D01*
X186155Y63353D01*
X186132Y63376D01*
X186109Y63404D01*
X186082Y63441D01*
X186049Y63482D01*
X186021Y63533D01*
X185989Y63584D01*
X185961Y63644D01*
X185934Y63709D01*
X185910Y63778D01*
X185887Y63852D01*
X185874Y63930D01*
X185864Y64014D01*
X185860Y64101D01*
Y64148D01*
X185864Y64180D01*
X185869Y64217D01*
X185878Y64263D01*
X185887Y64314D01*
X185901Y64374D01*
X185915Y64429D01*
X185938Y64494D01*
X185961Y64554D01*
X185994Y64619D01*
X186031Y64684D01*
X186072Y64748D01*
X186123Y64808D01*
X186179Y64864D01*
X186183Y64868D01*
X186192Y64878D01*
X186211Y64891D01*
X186239Y64910D01*
X186271Y64933D01*
X186308Y64956D01*
X186354Y64984D01*
X186409Y65012D01*
X186470Y65039D01*
X186534Y65067D01*
X186608Y65090D01*
X186687Y65113D01*
X186775Y65132D01*
X186867Y65146D01*
X186964Y65155D01*
X187070Y65159D01*
X187075D01*
X187093D01*
X187126D01*
X187172Y65155D01*
D02*
G37*
G36*
X188230Y62156D02*
X186825D01*
X186821D01*
X186816D01*
X186784D01*
X186742D01*
X186691Y62152D01*
X186631Y62147D01*
X186571Y62138D01*
X186516Y62124D01*
X186465Y62110D01*
X186460D01*
X186446Y62101D01*
X186423Y62087D01*
X186396Y62073D01*
X186368Y62050D01*
X186336Y62023D01*
X186303Y61985D01*
X186275Y61944D01*
X186271Y61939D01*
X186262Y61926D01*
X186252Y61898D01*
X186239Y61865D01*
X186225Y61828D01*
X186211Y61782D01*
X186206Y61727D01*
X186202Y61671D01*
Y61648D01*
X186206Y61630D01*
X186211Y61584D01*
X186220Y61523D01*
X186243Y61459D01*
X186271Y61385D01*
X186308Y61311D01*
X186363Y61242D01*
X186372Y61232D01*
X186396Y61214D01*
X186414Y61200D01*
X186437Y61186D01*
X186465Y61168D01*
X186497Y61154D01*
X186534Y61135D01*
X186580Y61117D01*
X186631Y61103D01*
X186687Y61089D01*
X186747Y61080D01*
X186811Y61071D01*
X186890Y61062D01*
X186969D01*
X188230D01*
Y60669D01*
X185910D01*
Y61020D01*
X186243D01*
X186239Y61024D01*
X186225Y61034D01*
X186206Y61048D01*
X186183Y61066D01*
X186155Y61094D01*
X186123Y61126D01*
X186086Y61163D01*
X186049Y61209D01*
X186017Y61256D01*
X185980Y61311D01*
X185948Y61371D01*
X185920Y61436D01*
X185897Y61510D01*
X185878Y61584D01*
X185864Y61667D01*
X185860Y61755D01*
Y61791D01*
X185864Y61828D01*
X185869Y61879D01*
X185878Y61939D01*
X185892Y62004D01*
X185910Y62073D01*
X185938Y62138D01*
X185943Y62147D01*
X185952Y62166D01*
X185966Y62198D01*
X185989Y62235D01*
X186017Y62281D01*
X186054Y62323D01*
X186091Y62364D01*
X186137Y62401D01*
X186142Y62406D01*
X186160Y62415D01*
X186183Y62429D01*
X186215Y62452D01*
X186262Y62471D01*
X186308Y62489D01*
X186363Y62512D01*
X186423Y62526D01*
X186428D01*
X186446Y62531D01*
X186474Y62535D01*
X186511Y62540D01*
X186567D01*
X186631Y62545D01*
X186710Y62549D01*
X186807D01*
X188230D01*
Y62156D01*
D02*
G37*
G36*
X188045Y60068D02*
X188096D01*
X188151Y60064D01*
X188211Y60059D01*
X188336Y60045D01*
X188465Y60027D01*
X188525Y60013D01*
X188581Y59999D01*
X188632Y59980D01*
X188678Y59962D01*
X188682D01*
X188687Y59957D01*
X188715Y59939D01*
X188756Y59916D01*
X188807Y59879D01*
X188863Y59828D01*
X188923Y59768D01*
X188983Y59694D01*
X189034Y59611D01*
Y59606D01*
X189038Y59602D01*
X189048Y59588D01*
X189052Y59569D01*
X189066Y59546D01*
X189075Y59518D01*
X189098Y59449D01*
X189126Y59366D01*
X189145Y59264D01*
X189163Y59149D01*
X189168Y59024D01*
Y58982D01*
X189163Y58955D01*
Y58918D01*
X189158Y58881D01*
X189154Y58835D01*
X189145Y58784D01*
X189121Y58678D01*
X189089Y58567D01*
X189043Y58456D01*
X188978Y58354D01*
X188974Y58350D01*
X188969Y58345D01*
X188941Y58313D01*
X188900Y58276D01*
X188840Y58229D01*
X188761Y58183D01*
X188664Y58142D01*
X188609Y58128D01*
X188549Y58119D01*
X188488Y58109D01*
X188419D01*
X188470Y58493D01*
X188479D01*
X188498Y58497D01*
X188530Y58507D01*
X188572Y58516D01*
X188613Y58534D01*
X188655Y58557D01*
X188696Y58585D01*
X188729Y58622D01*
X188733Y58631D01*
X188747Y58650D01*
X188766Y58682D01*
X188784Y58728D01*
X188807Y58784D01*
X188826Y58853D01*
X188840Y58936D01*
X188844Y59024D01*
Y59070D01*
X188840Y59117D01*
X188830Y59181D01*
X188816Y59246D01*
X188798Y59315D01*
X188770Y59385D01*
X188733Y59444D01*
X188729Y59449D01*
X188715Y59468D01*
X188687Y59495D01*
X188655Y59528D01*
X188609Y59560D01*
X188558Y59592D01*
X188498Y59625D01*
X188428Y59648D01*
X188424D01*
X188405Y59652D01*
X188368Y59657D01*
X188322Y59662D01*
X188290Y59666D01*
X188253D01*
X188211Y59671D01*
X188165D01*
X188114D01*
X188054Y59676D01*
X187994D01*
X187925D01*
X187929Y59671D01*
X187939Y59662D01*
X187953Y59648D01*
X187971Y59629D01*
X187994Y59606D01*
X188022Y59574D01*
X188050Y59537D01*
X188077Y59500D01*
X188133Y59403D01*
X188184Y59297D01*
X188202Y59237D01*
X188216Y59172D01*
X188225Y59103D01*
X188230Y59033D01*
Y59010D01*
X188225Y58987D01*
Y58955D01*
X188221Y58913D01*
X188211Y58867D01*
X188202Y58816D01*
X188188Y58761D01*
X188170Y58701D01*
X188147Y58641D01*
X188119Y58581D01*
X188087Y58516D01*
X188045Y58456D01*
X187999Y58396D01*
X187948Y58340D01*
X187888Y58289D01*
X187883Y58285D01*
X187874Y58280D01*
X187851Y58266D01*
X187828Y58248D01*
X187791Y58229D01*
X187754Y58206D01*
X187708Y58183D01*
X187652Y58160D01*
X187597Y58137D01*
X187532Y58114D01*
X187468Y58091D01*
X187394Y58072D01*
X187236Y58040D01*
X187149Y58035D01*
X187061Y58031D01*
X187056D01*
X187047D01*
X187029D01*
X187005D01*
X186973Y58035D01*
X186941D01*
X186858Y58045D01*
X186765Y58059D01*
X186664Y58082D01*
X186557Y58109D01*
X186451Y58151D01*
X186446D01*
X186437Y58156D01*
X186423Y58165D01*
X186405Y58174D01*
X186354Y58202D01*
X186289Y58239D01*
X186220Y58289D01*
X186151Y58350D01*
X186077Y58419D01*
X186017Y58497D01*
Y58502D01*
X186012Y58507D01*
X186003Y58521D01*
X185994Y58539D01*
X185966Y58585D01*
X185938Y58650D01*
X185910Y58728D01*
X185883Y58821D01*
X185864Y58922D01*
X185860Y59033D01*
Y59075D01*
X185864Y59103D01*
X185869Y59135D01*
X185878Y59176D01*
X185887Y59223D01*
X185901Y59274D01*
X185920Y59324D01*
X185943Y59380D01*
X185971Y59435D01*
X186003Y59495D01*
X186040Y59551D01*
X186086Y59606D01*
X186137Y59662D01*
X186197Y59712D01*
X185910D01*
Y60073D01*
X187916D01*
X187920D01*
X187939D01*
X187966D01*
X188003D01*
X188045Y60068D01*
D02*
G37*
G36*
X188230Y57190D02*
X185910D01*
Y57583D01*
X188230D01*
Y57190D01*
D02*
G37*
G36*
X185481D02*
X185033D01*
Y57583D01*
X185481D01*
Y57190D01*
D02*
G37*
G36*
X187620Y56719D02*
X187671Y56709D01*
X187726Y56696D01*
X187786Y56673D01*
X187856Y56645D01*
X187920Y56608D01*
X187929Y56603D01*
X187948Y56585D01*
X187980Y56562D01*
X188017Y56525D01*
X188059Y56474D01*
X188105Y56418D01*
X188147Y56354D01*
X188188Y56275D01*
Y56271D01*
X188193Y56266D01*
X188202Y56238D01*
X188216Y56192D01*
X188234Y56132D01*
X188253Y56058D01*
X188267Y55975D01*
X188276Y55887D01*
X188281Y55786D01*
Y55744D01*
X188276Y55712D01*
Y55675D01*
X188271Y55628D01*
X188267Y55582D01*
X188258Y55531D01*
X188234Y55421D01*
X188202Y55305D01*
X188156Y55194D01*
X188128Y55143D01*
X188096Y55097D01*
X188091Y55093D01*
X188087Y55088D01*
X188059Y55060D01*
X188017Y55019D01*
X187953Y54972D01*
X187874Y54922D01*
X187782Y54871D01*
X187666Y54829D01*
X187537Y54797D01*
X187477Y55185D01*
X187481D01*
X187486D01*
X187514Y55194D01*
X187560Y55203D01*
X187611Y55222D01*
X187666Y55245D01*
X187726Y55273D01*
X187786Y55314D01*
X187837Y55365D01*
X187842Y55374D01*
X187856Y55393D01*
X187874Y55430D01*
X187897Y55476D01*
X187920Y55536D01*
X187939Y55605D01*
X187953Y55689D01*
X187957Y55786D01*
Y55832D01*
X187953Y55878D01*
X187943Y55938D01*
X187929Y56003D01*
X187911Y56072D01*
X187888Y56132D01*
X187851Y56187D01*
X187846Y56192D01*
X187832Y56211D01*
X187809Y56229D01*
X187777Y56257D01*
X187740Y56280D01*
X187694Y56303D01*
X187648Y56317D01*
X187592Y56321D01*
X187588D01*
X187569D01*
X187546Y56317D01*
X187514Y56308D01*
X187481Y56294D01*
X187449Y56271D01*
X187412Y56243D01*
X187384Y56201D01*
X187380Y56197D01*
X187375Y56183D01*
X187361Y56160D01*
X187347Y56123D01*
X187329Y56067D01*
X187315Y56035D01*
X187306Y55998D01*
X187292Y55956D01*
X187278Y55910D01*
X187264Y55859D01*
X187250Y55799D01*
Y55795D01*
X187246Y55781D01*
X187241Y55758D01*
X187232Y55730D01*
X187223Y55693D01*
X187209Y55651D01*
X187186Y55564D01*
X187153Y55462D01*
X187126Y55365D01*
X187093Y55273D01*
X187075Y55231D01*
X187061Y55199D01*
X187056Y55190D01*
X187047Y55171D01*
X187029Y55143D01*
X187005Y55106D01*
X186973Y55065D01*
X186936Y55023D01*
X186895Y54982D01*
X186844Y54945D01*
X186839Y54940D01*
X186821Y54931D01*
X186788Y54917D01*
X186751Y54903D01*
X186705Y54889D01*
X186650Y54875D01*
X186594Y54866D01*
X186530Y54861D01*
X186520D01*
X186502D01*
X186474Y54866D01*
X186433Y54871D01*
X186391Y54880D01*
X186340Y54889D01*
X186294Y54908D01*
X186243Y54931D01*
X186239Y54935D01*
X186220Y54945D01*
X186197Y54958D01*
X186165Y54982D01*
X186132Y55009D01*
X186091Y55042D01*
X186054Y55079D01*
X186021Y55125D01*
X186017Y55129D01*
X186012Y55143D01*
X185998Y55162D01*
X185984Y55190D01*
X185966Y55226D01*
X185948Y55268D01*
X185929Y55319D01*
X185910Y55374D01*
X185906Y55383D01*
X185901Y55402D01*
X185892Y55434D01*
X185883Y55476D01*
X185874Y55527D01*
X185869Y55582D01*
X185860Y55647D01*
Y55758D01*
X185864Y55809D01*
X185869Y55878D01*
X185878Y55952D01*
X185897Y56030D01*
X185915Y56113D01*
X185943Y56192D01*
Y56197D01*
X185948Y56201D01*
X185957Y56224D01*
X185975Y56261D01*
X185998Y56308D01*
X186031Y56358D01*
X186068Y56409D01*
X186109Y56455D01*
X186155Y56497D01*
X186160Y56502D01*
X186179Y56511D01*
X186211Y56529D01*
X186248Y56552D01*
X186303Y56576D01*
X186363Y56599D01*
X186433Y56617D01*
X186511Y56636D01*
X186562Y56252D01*
X186553D01*
X186534Y56248D01*
X186502Y56238D01*
X186460Y56224D01*
X186419Y56201D01*
X186372Y56174D01*
X186326Y56141D01*
X186285Y56095D01*
X186280Y56090D01*
X186271Y56072D01*
X186252Y56044D01*
X186234Y56003D01*
X186215Y55956D01*
X186197Y55896D01*
X186188Y55822D01*
X186183Y55744D01*
Y55698D01*
X186188Y55651D01*
X186192Y55591D01*
X186206Y55531D01*
X186220Y55467D01*
X186243Y55407D01*
X186275Y55356D01*
X186280Y55351D01*
X186289Y55337D01*
X186308Y55319D01*
X186336Y55300D01*
X186363Y55277D01*
X186400Y55259D01*
X186442Y55245D01*
X186483Y55240D01*
X186488D01*
X186497D01*
X186511Y55245D01*
X186530D01*
X186576Y55259D01*
X186622Y55287D01*
X186627Y55291D01*
X186631Y55296D01*
X186645Y55305D01*
X186659Y55323D01*
X186673Y55342D01*
X186691Y55370D01*
X186705Y55402D01*
X186724Y55439D01*
Y55444D01*
X186728Y55453D01*
X186733Y55471D01*
X186747Y55504D01*
X186761Y55550D01*
X186775Y55610D01*
X186788Y55647D01*
X186798Y55689D01*
X186811Y55735D01*
X186825Y55786D01*
Y55790D01*
X186830Y55804D01*
X186835Y55827D01*
X186844Y55855D01*
X186853Y55887D01*
X186862Y55929D01*
X186890Y56016D01*
X186918Y56113D01*
X186950Y56211D01*
X186982Y56298D01*
X186996Y56335D01*
X187010Y56368D01*
X187015Y56377D01*
X187024Y56395D01*
X187038Y56423D01*
X187061Y56465D01*
X187089Y56506D01*
X187126Y56548D01*
X187167Y56589D01*
X187213Y56626D01*
X187218Y56631D01*
X187236Y56640D01*
X187264Y56659D01*
X187306Y56677D01*
X187357Y56691D01*
X187412Y56709D01*
X187477Y56719D01*
X187551Y56723D01*
X187560D01*
X187583D01*
X187620Y56719D01*
D02*
G37*
G36*
X187172Y54469D02*
Y52736D01*
X187176D01*
X187190D01*
X187209Y52741D01*
X187236D01*
X187269Y52745D01*
X187306Y52755D01*
X187389Y52769D01*
X187481Y52796D01*
X187583Y52833D01*
X187675Y52884D01*
X187759Y52949D01*
Y52953D01*
X187768Y52958D01*
X187791Y52986D01*
X187823Y53027D01*
X187856Y53083D01*
X187892Y53157D01*
X187925Y53240D01*
X187948Y53332D01*
X187953Y53383D01*
X187957Y53439D01*
Y53475D01*
X187953Y53517D01*
X187943Y53568D01*
X187929Y53623D01*
X187911Y53688D01*
X187883Y53748D01*
X187846Y53808D01*
X187842Y53813D01*
X187823Y53836D01*
X187795Y53864D01*
X187759Y53896D01*
X187708Y53933D01*
X187643Y53974D01*
X187569Y54016D01*
X187481Y54053D01*
X187532Y54460D01*
X187537D01*
X187546Y54455D01*
X187565Y54450D01*
X187592Y54441D01*
X187620Y54427D01*
X187657Y54413D01*
X187735Y54376D01*
X187823Y54330D01*
X187916Y54265D01*
X188003Y54192D01*
X188087Y54099D01*
Y54095D01*
X188096Y54085D01*
X188105Y54071D01*
X188119Y54053D01*
X188133Y54025D01*
X188147Y53997D01*
X188165Y53961D01*
X188184Y53919D01*
X188202Y53873D01*
X188221Y53827D01*
X188248Y53711D01*
X188271Y53582D01*
X188281Y53439D01*
Y53388D01*
X188276Y53355D01*
X188271Y53314D01*
X188262Y53263D01*
X188253Y53207D01*
X188244Y53148D01*
X188207Y53018D01*
X188179Y52949D01*
X188151Y52884D01*
X188114Y52815D01*
X188073Y52750D01*
X188026Y52690D01*
X187971Y52630D01*
X187966Y52625D01*
X187957Y52616D01*
X187939Y52602D01*
X187911Y52584D01*
X187879Y52561D01*
X187842Y52538D01*
X187795Y52510D01*
X187745Y52482D01*
X187685Y52454D01*
X187620Y52427D01*
X187546Y52404D01*
X187468Y52381D01*
X187384Y52362D01*
X187292Y52348D01*
X187195Y52339D01*
X187093Y52334D01*
X187089D01*
X187065D01*
X187038D01*
X186996Y52339D01*
X186945Y52344D01*
X186890Y52348D01*
X186825Y52357D01*
X186761Y52371D01*
X186613Y52408D01*
X186539Y52431D01*
X186460Y52459D01*
X186386Y52496D01*
X186317Y52538D01*
X186248Y52584D01*
X186183Y52635D01*
X186179Y52639D01*
X186169Y52649D01*
X186155Y52667D01*
X186132Y52690D01*
X186109Y52718D01*
X186082Y52755D01*
X186049Y52796D01*
X186021Y52847D01*
X185989Y52898D01*
X185961Y52958D01*
X185934Y53023D01*
X185910Y53092D01*
X185887Y53166D01*
X185874Y53245D01*
X185864Y53328D01*
X185860Y53415D01*
Y53462D01*
X185864Y53494D01*
X185869Y53531D01*
X185878Y53577D01*
X185887Y53628D01*
X185901Y53688D01*
X185915Y53743D01*
X185938Y53808D01*
X185961Y53868D01*
X185994Y53933D01*
X186031Y53997D01*
X186072Y54062D01*
X186123Y54122D01*
X186179Y54178D01*
X186183Y54182D01*
X186192Y54192D01*
X186211Y54205D01*
X186239Y54224D01*
X186271Y54247D01*
X186308Y54270D01*
X186354Y54298D01*
X186409Y54325D01*
X186470Y54353D01*
X186534Y54381D01*
X186608Y54404D01*
X186687Y54427D01*
X186775Y54446D01*
X186867Y54460D01*
X186964Y54469D01*
X187070Y54473D01*
X187075D01*
X187093D01*
X187126D01*
X187172Y54469D01*
D02*
G37*
G36*
X186710Y51932D02*
X186747D01*
X186835Y51928D01*
X186936Y51914D01*
X187042Y51900D01*
X187153Y51877D01*
X187264Y51849D01*
X187269D01*
X187278Y51845D01*
X187292Y51840D01*
X187310Y51835D01*
X187361Y51817D01*
X187426Y51789D01*
X187500Y51762D01*
X187574Y51724D01*
X187652Y51678D01*
X187726Y51632D01*
X187735Y51627D01*
X187759Y51609D01*
X187791Y51581D01*
X187832Y51544D01*
X187879Y51503D01*
X187925Y51452D01*
X187976Y51401D01*
X188017Y51341D01*
X188022Y51332D01*
X188036Y51313D01*
X188054Y51281D01*
X188077Y51235D01*
X188105Y51179D01*
X188128Y51115D01*
X188156Y51041D01*
X188179Y50958D01*
Y50948D01*
X188184Y50934D01*
X188188Y50921D01*
X188193Y50874D01*
X188202Y50810D01*
X188211Y50736D01*
X188221Y50648D01*
X188225Y50551D01*
X188230Y50445D01*
Y49294D01*
X185033D01*
Y50523D01*
X185037Y50607D01*
X185042Y50699D01*
X185051Y50791D01*
X185065Y50884D01*
X185079Y50962D01*
Y50967D01*
X185083Y50976D01*
Y50990D01*
X185093Y51008D01*
X185107Y51059D01*
X185130Y51124D01*
X185162Y51198D01*
X185204Y51276D01*
X185250Y51355D01*
X185310Y51429D01*
X185315Y51433D01*
X185319Y51438D01*
X185333Y51452D01*
X185347Y51470D01*
X185393Y51517D01*
X185458Y51572D01*
X185536Y51632D01*
X185629Y51697D01*
X185735Y51757D01*
X185855Y51808D01*
X185860D01*
X185869Y51812D01*
X185887Y51822D01*
X185915Y51826D01*
X185948Y51840D01*
X185984Y51849D01*
X186026Y51859D01*
X186077Y51872D01*
X186128Y51886D01*
X186188Y51895D01*
X186317Y51919D01*
X186460Y51932D01*
X186617Y51937D01*
X186622D01*
X186631D01*
X186654D01*
X186677D01*
X186710Y51932D01*
D02*
G37*
G36*
X186657Y46696D02*
X186738Y46690D01*
X186835Y46680D01*
X186937Y46670D01*
X187049Y46660D01*
X187166Y46639D01*
X187288Y46614D01*
X187405Y46589D01*
X187522Y46553D01*
X187639Y46517D01*
X187746Y46466D01*
X187848Y46416D01*
X187935Y46354D01*
X187940Y46349D01*
X187950Y46339D01*
X187970Y46324D01*
X187990Y46304D01*
X188016Y46273D01*
X188047Y46237D01*
X188082Y46192D01*
X188113Y46146D01*
X188148Y46090D01*
X188184Y46034D01*
X188215Y45968D01*
X188240Y45896D01*
X188260Y45820D01*
X188281Y45733D01*
X188291Y45647D01*
X188296Y45555D01*
Y45535D01*
X188291Y45505D01*
Y45469D01*
X188286Y45428D01*
X188276Y45377D01*
X188265Y45321D01*
X188245Y45260D01*
X188225Y45194D01*
X188199Y45128D01*
X188169Y45057D01*
X188128Y44990D01*
X188087Y44919D01*
X188031Y44853D01*
X187975Y44787D01*
X187904Y44726D01*
X187899Y44721D01*
X187884Y44710D01*
X187858Y44695D01*
X187828Y44680D01*
X187782Y44654D01*
X187726Y44629D01*
X187655Y44598D01*
X187578Y44573D01*
X187487Y44543D01*
X187385Y44512D01*
X187268Y44486D01*
X187141Y44466D01*
X186998Y44446D01*
X186840Y44431D01*
X186672Y44420D01*
X186489Y44415D01*
X186484D01*
X186479D01*
X186463D01*
X186443D01*
X186392D01*
X186326Y44420D01*
X186245Y44425D01*
X186148Y44436D01*
X186046Y44446D01*
X185934Y44456D01*
X185817Y44476D01*
X185700Y44497D01*
X185578Y44527D01*
X185461Y44558D01*
X185349Y44598D01*
X185242Y44644D01*
X185140Y44695D01*
X185054Y44756D01*
X185048Y44761D01*
X185038Y44772D01*
X185018Y44787D01*
X184998Y44812D01*
X184967Y44838D01*
X184936Y44873D01*
X184906Y44919D01*
X184870Y44965D01*
X184835Y45021D01*
X184804Y45077D01*
X184774Y45143D01*
X184743Y45214D01*
X184723Y45291D01*
X184702Y45377D01*
X184692Y45464D01*
X184687Y45555D01*
Y45606D01*
X184692Y45642D01*
X184697Y45683D01*
X184707Y45733D01*
X184718Y45784D01*
X184733Y45845D01*
X184753Y45912D01*
X184779Y45973D01*
X184804Y46039D01*
X184840Y46105D01*
X184886Y46171D01*
X184931Y46237D01*
X184987Y46299D01*
X185054Y46354D01*
X185059Y46360D01*
X185074Y46370D01*
X185099Y46385D01*
X185135Y46411D01*
X185186Y46436D01*
X185247Y46466D01*
X185313Y46497D01*
X185400Y46528D01*
X185491Y46558D01*
X185598Y46594D01*
X185715Y46619D01*
X185848Y46645D01*
X185990Y46670D01*
X186143Y46685D01*
X186311Y46696D01*
X186494Y46701D01*
X186499D01*
X186504D01*
X186520D01*
X186540D01*
X186591D01*
X186657Y46696D01*
D02*
G37*
G36*
X188230Y43189D02*
X187553D01*
Y43865D01*
X188230D01*
Y43189D01*
D02*
G37*
G36*
Y41356D02*
X185680D01*
X185685Y41351D01*
X185695Y41341D01*
X185710Y41320D01*
X185736Y41290D01*
X185766Y41254D01*
X185797Y41214D01*
X185832Y41163D01*
X185873Y41107D01*
X185914Y41046D01*
X185954Y40979D01*
X186000Y40908D01*
X186041Y40832D01*
X186117Y40669D01*
X186189Y40486D01*
X185578D01*
Y40491D01*
X185573Y40496D01*
X185568Y40511D01*
X185563Y40532D01*
X185537Y40582D01*
X185507Y40654D01*
X185466Y40740D01*
X185410Y40837D01*
X185339Y40944D01*
X185257Y41056D01*
X185252Y41061D01*
X185247Y41071D01*
X185232Y41086D01*
X185211Y41107D01*
X185161Y41163D01*
X185094Y41224D01*
X185013Y41295D01*
X184911Y41366D01*
X184804Y41432D01*
X184687Y41483D01*
Y42033D01*
X188230D01*
Y41356D01*
D02*
G37*
G36*
X186336Y38577D02*
X186331Y38572D01*
X186321Y38546D01*
X186301Y38516D01*
X186280Y38475D01*
X186260Y38424D01*
X186240Y38373D01*
X186229Y38317D01*
X186224Y38261D01*
Y38241D01*
X186229Y38210D01*
X186234Y38180D01*
X186245Y38144D01*
X186260Y38104D01*
X186280Y38063D01*
X186306Y38022D01*
X186311Y38017D01*
X186321Y38007D01*
X186341Y37986D01*
X186372Y37966D01*
X186407Y37941D01*
X186458Y37915D01*
X186520Y37890D01*
X186591Y37870D01*
X186601D01*
X186616Y37864D01*
X186632Y37859D01*
X186657D01*
X186688Y37854D01*
X186728Y37849D01*
X186774Y37844D01*
X186825Y37839D01*
X186891Y37834D01*
X186957Y37829D01*
X187039D01*
X187125Y37824D01*
X187222Y37819D01*
X187329D01*
X187446D01*
X188230D01*
Y37142D01*
X185675D01*
Y37768D01*
X186036D01*
X186031Y37773D01*
X186000Y37793D01*
X185954Y37824D01*
X185899Y37864D01*
X185843Y37905D01*
X185787Y37956D01*
X185736Y38002D01*
X185700Y38053D01*
X185695Y38058D01*
X185685Y38073D01*
X185675Y38104D01*
X185659Y38139D01*
X185644Y38180D01*
X185629Y38231D01*
X185624Y38282D01*
X185619Y38343D01*
Y38384D01*
X185624Y38429D01*
X185634Y38485D01*
X185649Y38557D01*
X185675Y38633D01*
X185705Y38709D01*
X185751Y38791D01*
X186336Y38577D01*
D02*
G37*
G36*
X187151Y34927D02*
X187156D01*
X187166D01*
X187181D01*
X187202Y34933D01*
X187252Y34938D01*
X187324Y34948D01*
X187395Y34968D01*
X187476Y34999D01*
X187553Y35034D01*
X187619Y35085D01*
X187624Y35090D01*
X187644Y35116D01*
X187670Y35146D01*
X187700Y35192D01*
X187731Y35248D01*
X187756Y35319D01*
X187777Y35396D01*
X187782Y35477D01*
Y35503D01*
X187777Y35533D01*
X187772Y35569D01*
X187761Y35609D01*
X187746Y35655D01*
X187726Y35701D01*
X187695Y35742D01*
X187690Y35747D01*
X187680Y35762D01*
X187660Y35783D01*
X187629Y35803D01*
X187588Y35833D01*
X187543Y35859D01*
X187481Y35884D01*
X187415Y35910D01*
X187527Y36582D01*
X187532D01*
X187543Y36577D01*
X187563Y36566D01*
X187588Y36556D01*
X187619Y36541D01*
X187655Y36526D01*
X187736Y36480D01*
X187828Y36424D01*
X187924Y36353D01*
X188011Y36266D01*
X188092Y36169D01*
Y36164D01*
X188102Y36159D01*
X188108Y36139D01*
X188123Y36119D01*
X188138Y36093D01*
X188153Y36057D01*
X188169Y36022D01*
X188189Y35976D01*
X188225Y35874D01*
X188255Y35757D01*
X188276Y35620D01*
X188286Y35472D01*
Y35441D01*
X188281Y35411D01*
Y35365D01*
X188270Y35309D01*
X188260Y35243D01*
X188250Y35172D01*
X188230Y35100D01*
X188209Y35019D01*
X188179Y34938D01*
X188143Y34856D01*
X188102Y34775D01*
X188052Y34693D01*
X187996Y34617D01*
X187929Y34551D01*
X187853Y34485D01*
X187848Y34479D01*
X187838Y34474D01*
X187818Y34464D01*
X187792Y34444D01*
X187756Y34429D01*
X187716Y34408D01*
X187670Y34383D01*
X187614Y34363D01*
X187553Y34337D01*
X187487Y34317D01*
X187415Y34291D01*
X187334Y34276D01*
X187252Y34261D01*
X187166Y34245D01*
X187069Y34240D01*
X186972Y34235D01*
X186968D01*
X186947D01*
X186911D01*
X186866Y34240D01*
X186815Y34245D01*
X186754Y34251D01*
X186688Y34261D01*
X186611Y34276D01*
X186453Y34317D01*
X186372Y34342D01*
X186285Y34373D01*
X186204Y34413D01*
X186128Y34459D01*
X186051Y34510D01*
X185980Y34566D01*
X185975Y34571D01*
X185965Y34581D01*
X185944Y34602D01*
X185924Y34627D01*
X185899Y34658D01*
X185868Y34698D01*
X185832Y34744D01*
X185797Y34795D01*
X185766Y34851D01*
X185731Y34917D01*
X185700Y34983D01*
X185675Y35060D01*
X185654Y35136D01*
X185634Y35223D01*
X185624Y35309D01*
X185619Y35401D01*
Y35457D01*
X185624Y35497D01*
X185629Y35543D01*
X185639Y35599D01*
X185649Y35660D01*
X185664Y35727D01*
X185685Y35798D01*
X185710Y35869D01*
X185741Y35945D01*
X185782Y36022D01*
X185822Y36093D01*
X185873Y36164D01*
X185934Y36236D01*
X186000Y36297D01*
X186005Y36302D01*
X186016Y36312D01*
X186041Y36327D01*
X186072Y36348D01*
X186112Y36373D01*
X186158Y36399D01*
X186219Y36429D01*
X186285Y36459D01*
X186362Y36490D01*
X186448Y36521D01*
X186540Y36546D01*
X186647Y36571D01*
X186759Y36592D01*
X186881Y36607D01*
X187008Y36617D01*
X187151D01*
Y34927D01*
D02*
G37*
G36*
X188230Y32825D02*
Y32057D01*
X184707Y30794D01*
Y31563D01*
X187314Y32459D01*
X184707Y33319D01*
Y34077D01*
X188230Y32825D01*
D02*
G37*
%LPC*%
G36*
X179933Y69555D02*
D01*
X179075Y69455D01*
X179109Y69355D01*
X179134Y69263D01*
X179150Y69188D01*
X179159Y69122D01*
X179167Y69072D01*
X179175Y69039D01*
Y69005D01*
X179167Y68930D01*
X179150Y68872D01*
X179134Y68839D01*
X179125Y68822D01*
X179075Y68772D01*
X179034Y68747D01*
X179000Y68730D01*
X178984Y68722D01*
X178967D01*
X178934Y68714D01*
X178859D01*
X178759D01*
X178659Y68705D01*
X178559D01*
X178476D01*
X178442D01*
X178417D01*
X178401D01*
X178392D01*
X176701D01*
Y69463D01*
X175818D01*
Y68705D01*
X174336D01*
X174985Y67598D01*
X175818D01*
Y67089D01*
X174336D01*
X180092D01*
D01*
X176701D01*
Y67598D01*
X178526D01*
X178634D01*
X178726D01*
X178817D01*
X178892Y67606D01*
X179025D01*
X179134Y67614D01*
X179217Y67623D01*
X179267D01*
X179300Y67631D01*
X179309D01*
X179400Y67647D01*
X179483Y67672D01*
X179559Y67697D01*
X179617Y67722D01*
X179667Y67747D01*
X179700Y67764D01*
X179725Y67772D01*
X179733Y67781D01*
X179792Y67831D01*
X179842Y67889D01*
X179925Y68006D01*
X179950Y68056D01*
X179975Y68097D01*
X179983Y68131D01*
X179992Y68139D01*
X180025Y68231D01*
X180050Y68322D01*
X180067Y68414D01*
X180075Y68497D01*
X180083Y68572D01*
X180092Y68630D01*
Y68730D01*
Y68680D01*
X180083Y68855D01*
X180067Y69022D01*
X180042Y69172D01*
X180008Y69297D01*
X179983Y69405D01*
X179958Y69488D01*
X179942Y69538D01*
X179933Y69547D01*
Y69555D01*
D02*
G37*
G36*
X180000Y66689D02*
D01*
X179892Y66640D01*
X179792Y66598D01*
X179700Y66565D01*
X179617Y66531D01*
X179550Y66515D01*
X179492Y66498D01*
X179458Y66490D01*
X179450D01*
X179342Y66473D01*
X179209Y66465D01*
X179075Y66448D01*
X178942D01*
X178825Y66440D01*
X178726D01*
X178684D01*
X178659D01*
X178642D01*
X178634D01*
X177343Y66456D01*
X177209D01*
X177093Y66448D01*
X176985Y66440D01*
X176884Y66431D01*
X176793Y66423D01*
X176710Y66406D01*
X176635Y66398D01*
X176576Y66381D01*
X176518Y66365D01*
X176476Y66356D01*
X176401Y66331D01*
X176368Y66315D01*
X176351Y66306D01*
X176260Y66240D01*
X176168Y66165D01*
X176093Y66081D01*
X176027Y65990D01*
X175977Y65915D01*
X175943Y65848D01*
X175918Y65807D01*
X175910Y65798D01*
Y65790D01*
X175877Y65715D01*
X175852Y65640D01*
X175802Y65465D01*
X175768Y65282D01*
X175752Y65107D01*
X175735Y64940D01*
Y64874D01*
X175727Y64815D01*
Y66689D01*
Y62766D01*
X180092D01*
D01*
X178867D01*
X178967Y62774D01*
X179059Y62783D01*
X179234Y62824D01*
X179384Y62883D01*
X179508Y62949D01*
X179609Y63016D01*
X179683Y63074D01*
X179733Y63116D01*
X179742Y63133D01*
X179750D01*
X179867Y63283D01*
X179950Y63449D01*
X180008Y63616D01*
X180050Y63782D01*
X180075Y63924D01*
X180083Y63991D01*
Y64041D01*
X180092Y64091D01*
Y64149D01*
X180083Y64282D01*
X180067Y64415D01*
X180050Y64532D01*
X180025Y64632D01*
X180000Y64715D01*
X179975Y64782D01*
X179967Y64824D01*
X179958Y64840D01*
X179900Y64957D01*
X179842Y65074D01*
X179767Y65174D01*
X179700Y65265D01*
X179642Y65340D01*
X179592Y65398D01*
X179559Y65432D01*
X179550Y65448D01*
X179584Y65457D01*
X179625Y65473D01*
X179658Y65482D01*
X179667Y65490D01*
X179675D01*
X179750Y65515D01*
X179817Y65532D01*
X179875Y65548D01*
X179917Y65565D01*
X179950Y65582D01*
X179983Y65590D01*
X179992Y65598D01*
X180000D01*
Y66689D01*
D02*
G37*
G36*
X180092Y62158D02*
D01*
Y60284D01*
X180075Y60525D01*
X180042Y60750D01*
X179992Y60942D01*
X179933Y61108D01*
X179900Y61183D01*
X179875Y61242D01*
X179850Y61300D01*
X179825Y61342D01*
X179800Y61375D01*
X179792Y61408D01*
X179775Y61417D01*
Y61425D01*
X179642Y61583D01*
X179500Y61725D01*
X179342Y61841D01*
X179192Y61933D01*
X179059Y62008D01*
X179000Y62033D01*
X178950Y62058D01*
X178909Y62075D01*
X178875Y62091D01*
X178859Y62100D01*
X178850D01*
X178667Y61000D01*
X178776Y60958D01*
X178875Y60917D01*
X178950Y60875D01*
X179017Y60825D01*
X179067Y60792D01*
X179100Y60759D01*
X179117Y60734D01*
X179125Y60725D01*
X179175Y60659D01*
X179209Y60584D01*
X179234Y60509D01*
X179250Y60442D01*
X179259Y60384D01*
X179267Y60334D01*
Y60292D01*
X179259Y60159D01*
X179225Y60034D01*
X179184Y59917D01*
X179134Y59826D01*
X179084Y59751D01*
X179042Y59701D01*
X179009Y59659D01*
X179000Y59651D01*
X178892Y59567D01*
X178767Y59509D01*
X178634Y59459D01*
X178517Y59426D01*
X178401Y59409D01*
X178317Y59401D01*
X178284Y59392D01*
X178259D01*
X178242D01*
X178234D01*
Y62158D01*
X178001D01*
X177793Y62141D01*
X177593Y62116D01*
X177409Y62083D01*
X177234Y62041D01*
X177085Y62000D01*
X176943Y61950D01*
X176818Y61900D01*
X176710Y61850D01*
X176610Y61800D01*
X176535Y61758D01*
X176468Y61717D01*
X176418Y61683D01*
X176376Y61658D01*
X176360Y61642D01*
X176351Y61633D01*
X176243Y61533D01*
X176143Y61417D01*
X176060Y61300D01*
X175993Y61183D01*
X175927Y61058D01*
X175877Y60934D01*
X175835Y60817D01*
X175802Y60700D01*
X175777Y60592D01*
X175760Y60492D01*
X175743Y60400D01*
X175735Y60325D01*
X175727Y60259D01*
Y60167D01*
X175735Y60017D01*
X175752Y59876D01*
X175785Y59734D01*
X175818Y59609D01*
X175860Y59484D01*
X175910Y59376D01*
X175968Y59267D01*
X176018Y59176D01*
X176076Y59093D01*
X176135Y59018D01*
X176185Y58951D01*
X176226Y58901D01*
X176260Y58859D01*
X176293Y58826D01*
X176310Y58809D01*
X176318Y58801D01*
X176435Y58709D01*
X176560Y58626D01*
X176685Y58551D01*
X176818Y58485D01*
X176960Y58434D01*
X177093Y58393D01*
X177351Y58326D01*
X177476Y58301D01*
X177584Y58284D01*
X177684Y58276D01*
X177768Y58268D01*
X177842Y58260D01*
X175727D01*
D01*
X180092D01*
Y62158D01*
D02*
G37*
G36*
X180000Y57385D02*
X174236D01*
Y52778D01*
X180000D01*
Y57385D01*
D02*
G37*
G36*
Y51645D02*
X177234D01*
X177093Y51637D01*
X176960Y51629D01*
X176860Y51612D01*
X176776Y51604D01*
X176718Y51587D01*
X176676Y51579D01*
X176668D01*
X176568Y51554D01*
X176485Y51521D01*
X176401Y51487D01*
X176335Y51446D01*
X176277Y51412D01*
X176235Y51387D01*
X176210Y51371D01*
X176201Y51362D01*
X176127Y51296D01*
X176060Y51221D01*
X176002Y51146D01*
X175952Y51071D01*
X175910Y51004D01*
X175885Y50946D01*
X175868Y50912D01*
X175860Y50896D01*
X175818Y50779D01*
X175785Y50663D01*
X175760Y50554D01*
X175743Y50454D01*
X175735Y50363D01*
X175727Y50288D01*
Y47830D01*
X180000D01*
Y50063D01*
Y48938D01*
X178117D01*
X177992D01*
X177876D01*
X177768Y48947D01*
X177676Y48955D01*
X177584D01*
X177509Y48963D01*
X177434Y48972D01*
X177376Y48980D01*
X177276Y48997D01*
X177209Y49005D01*
X177168Y49022D01*
X177159D01*
X177068Y49055D01*
X176976Y49105D01*
X176909Y49155D01*
X176843Y49205D01*
X176801Y49255D01*
X176760Y49297D01*
X176743Y49321D01*
X176735Y49330D01*
X176685Y49421D01*
X176643Y49513D01*
X176618Y49596D01*
X176593Y49680D01*
X176585Y49746D01*
X176576Y49796D01*
Y49846D01*
X176585Y49930D01*
X176593Y50005D01*
X176610Y50063D01*
X176635Y50121D01*
X176660Y50171D01*
X176676Y50204D01*
X176685Y50221D01*
X176693Y50229D01*
X176735Y50288D01*
X176785Y50329D01*
X176884Y50404D01*
X176935Y50429D01*
X176968Y50446D01*
X176993Y50463D01*
X177001D01*
X177043Y50479D01*
X177093Y50488D01*
X177218Y50504D01*
X177368Y50521D01*
X177509Y50529D01*
X177651Y50538D01*
X177709D01*
X177768D01*
X177809D01*
X177842D01*
X177867D01*
X177876D01*
X180000D01*
Y51645D01*
D02*
G37*
G36*
X180092Y46939D02*
D01*
Y45065D01*
X180075Y45306D01*
X180042Y45531D01*
X179992Y45723D01*
X179933Y45889D01*
X179900Y45965D01*
X179875Y46023D01*
X179850Y46081D01*
X179825Y46123D01*
X179800Y46156D01*
X179792Y46189D01*
X179775Y46198D01*
Y46206D01*
X179642Y46364D01*
X179500Y46506D01*
X179342Y46622D01*
X179192Y46714D01*
X179059Y46789D01*
X179000Y46814D01*
X178950Y46839D01*
X178909Y46856D01*
X178875Y46872D01*
X178859Y46881D01*
X178850D01*
X178667Y45781D01*
X178776Y45740D01*
X178875Y45698D01*
X178950Y45656D01*
X179017Y45606D01*
X179067Y45573D01*
X179100Y45540D01*
X179117Y45515D01*
X179125Y45506D01*
X179175Y45440D01*
X179209Y45365D01*
X179234Y45290D01*
X179250Y45223D01*
X179259Y45165D01*
X179267Y45115D01*
Y45073D01*
X179259Y44940D01*
X179225Y44815D01*
X179184Y44698D01*
X179134Y44607D01*
X179084Y44532D01*
X179042Y44482D01*
X179009Y44440D01*
X179000Y44432D01*
X178892Y44348D01*
X178767Y44290D01*
X178634Y44240D01*
X178517Y44207D01*
X178401Y44190D01*
X178317Y44182D01*
X178284Y44173D01*
X178259D01*
X178242D01*
X178234D01*
Y46939D01*
X178001D01*
X177793Y46922D01*
X177593Y46897D01*
X177409Y46864D01*
X177234Y46823D01*
X177085Y46781D01*
X176943Y46731D01*
X176818Y46681D01*
X176710Y46631D01*
X176610Y46581D01*
X176535Y46539D01*
X176468Y46498D01*
X176418Y46464D01*
X176376Y46439D01*
X176360Y46423D01*
X176351Y46414D01*
X176243Y46314D01*
X176143Y46198D01*
X176060Y46081D01*
X175993Y45965D01*
X175927Y45840D01*
X175877Y45715D01*
X175835Y45598D01*
X175802Y45481D01*
X175777Y45373D01*
X175760Y45273D01*
X175743Y45182D01*
X175735Y45107D01*
X175727Y45040D01*
Y44948D01*
X175735Y44798D01*
X175752Y44657D01*
X175785Y44515D01*
X175818Y44390D01*
X175860Y44265D01*
X175910Y44157D01*
X175968Y44049D01*
X176018Y43957D01*
X176076Y43874D01*
X176135Y43799D01*
X176185Y43732D01*
X176226Y43682D01*
X176260Y43640D01*
X176293Y43607D01*
X176310Y43590D01*
X176318Y43582D01*
X176435Y43490D01*
X176560Y43407D01*
X176685Y43332D01*
X176818Y43266D01*
X176960Y43216D01*
X177093Y43174D01*
X177351Y43107D01*
X177476Y43082D01*
X177584Y43066D01*
X177684Y43057D01*
X177768Y43049D01*
X177842Y43041D01*
X175727D01*
D01*
X180092D01*
Y46939D01*
D02*
G37*
G36*
X181599Y42483D02*
D01*
Y39517D01*
X179483D01*
X179600Y39634D01*
X179700Y39742D01*
X179783Y39834D01*
X179842Y39925D01*
X179892Y40000D01*
X179933Y40050D01*
X179950Y40092D01*
X179958Y40100D01*
X180000Y40208D01*
X180033Y40317D01*
X180058Y40425D01*
X180075Y40525D01*
X180083Y40608D01*
X180092Y40675D01*
Y40733D01*
X180083Y40867D01*
X180067Y40992D01*
X180042Y41116D01*
X180000Y41233D01*
X179908Y41441D01*
X179858Y41533D01*
X179800Y41625D01*
X179750Y41699D01*
X179700Y41766D01*
X179650Y41824D01*
X179609Y41874D01*
X179567Y41916D01*
X179542Y41941D01*
X179525Y41958D01*
X179517Y41966D01*
X179400Y42058D01*
X179275Y42133D01*
X179150Y42208D01*
X179017Y42266D01*
X178884Y42316D01*
X178751Y42358D01*
X178484Y42416D01*
X178367Y42441D01*
X178251Y42458D01*
X178151Y42466D01*
X178067Y42474D01*
X177992Y42483D01*
X177892D01*
X177709Y42474D01*
X177526Y42458D01*
X177368Y42432D01*
X177209Y42408D01*
X177068Y42366D01*
X176935Y42324D01*
X176818Y42274D01*
X176710Y42233D01*
X176618Y42183D01*
X176535Y42133D01*
X176460Y42091D01*
X176410Y42058D01*
X176360Y42024D01*
X176326Y41999D01*
X176310Y41983D01*
X176301Y41974D01*
X176201Y41874D01*
X176110Y41774D01*
X176035Y41675D01*
X175968Y41566D01*
X175910Y41466D01*
X175868Y41358D01*
X175827Y41266D01*
X175802Y41166D01*
X175777Y41083D01*
X175760Y41000D01*
X175743Y40925D01*
X175735Y40867D01*
X175727Y40808D01*
Y40742D01*
X175735Y40592D01*
X175760Y40450D01*
X175793Y40317D01*
X175827Y40208D01*
X175860Y40117D01*
X175893Y40042D01*
X175918Y40000D01*
X175927Y39983D01*
X176002Y39859D01*
X176085Y39759D01*
X176168Y39659D01*
X176251Y39584D01*
X176326Y39525D01*
X176385Y39475D01*
X176418Y39450D01*
X176435Y39442D01*
X175818D01*
Y38409D01*
X175727D01*
D01*
X181599D01*
Y42483D01*
D02*
G37*
G36*
X180108Y37534D02*
D01*
Y34744D01*
X180100Y34977D01*
X180075Y35194D01*
X180033Y35402D01*
X179983Y35594D01*
X179925Y35777D01*
X179858Y35943D01*
X179792Y36093D01*
X179717Y36235D01*
X179642Y36352D01*
X179575Y36460D01*
X179508Y36552D01*
X179450Y36626D01*
X179400Y36693D01*
X179359Y36735D01*
X179334Y36760D01*
X179325Y36768D01*
X179167Y36901D01*
X179000Y37018D01*
X178825Y37126D01*
X178650Y37210D01*
X178467Y37285D01*
X178284Y37351D01*
X178101Y37401D01*
X177926Y37443D01*
X177768Y37468D01*
X177609Y37493D01*
X177476Y37510D01*
X177359Y37526D01*
X177259D01*
X177184Y37534D01*
X174127D01*
X177126D01*
X176868Y37526D01*
X176626Y37501D01*
X176401Y37468D01*
X176185Y37418D01*
X175993Y37360D01*
X175810Y37293D01*
X175643Y37226D01*
X175502Y37151D01*
X175368Y37076D01*
X175252Y37010D01*
X175152Y36943D01*
X175069Y36885D01*
X175010Y36843D01*
X174960Y36801D01*
X174935Y36777D01*
X174927Y36768D01*
X174785Y36618D01*
X174660Y36460D01*
X174552Y36293D01*
X174460Y36127D01*
X174385Y35952D01*
X174319Y35785D01*
X174269Y35619D01*
X174227Y35460D01*
X174194Y35310D01*
X174169Y35169D01*
X174152Y35044D01*
X174136Y34936D01*
Y34852D01*
X174127Y34786D01*
Y34727D01*
X174136Y34477D01*
X174161Y34236D01*
X174202Y34028D01*
X174244Y33844D01*
X174269Y33769D01*
X174286Y33694D01*
X174302Y33636D01*
X174327Y33586D01*
X174336Y33544D01*
X174352Y33511D01*
X174361Y33494D01*
Y33486D01*
X174427Y33336D01*
X174511Y33195D01*
X174602Y33070D01*
X174685Y32961D01*
X174760Y32870D01*
X174827Y32795D01*
X174869Y32753D01*
X174877Y32745D01*
X174885Y32736D01*
X175019Y32620D01*
X175160Y32511D01*
X175285Y32420D01*
X175410Y32345D01*
X175518Y32287D01*
X175602Y32237D01*
X175635Y32228D01*
X175660Y32212D01*
X175668Y32203D01*
X175677D01*
X175910Y32120D01*
X176160Y32053D01*
X176410Y32012D01*
X176643Y31978D01*
X176751Y31970D01*
X176851Y31962D01*
X176935Y31953D01*
X177009D01*
X177076Y31945D01*
X174127D01*
X180108D01*
Y37534D01*
D02*
G37*
%LPD*%
G36*
X178476Y65357D02*
X178567Y65348D01*
X178642Y65340D01*
X178692Y65332D01*
X178734Y65323D01*
X178751Y65315D01*
X178759D01*
X178834Y65290D01*
X178909Y65248D01*
X178967Y65207D01*
X179025Y65165D01*
X179067Y65123D01*
X179100Y65090D01*
X179117Y65065D01*
X179125Y65057D01*
X179192Y64957D01*
X179234Y64849D01*
X179267Y64757D01*
X179292Y64665D01*
X179309Y64590D01*
X179317Y64532D01*
Y64482D01*
X179309Y64390D01*
X179292Y64299D01*
X179267Y64224D01*
X179234Y64166D01*
X179200Y64107D01*
X179175Y64074D01*
X179159Y64049D01*
X179150Y64041D01*
X179084Y63982D01*
X179017Y63941D01*
X178950Y63916D01*
X178884Y63899D01*
X178834Y63882D01*
X178792Y63874D01*
X178759D01*
X178751D01*
X178667Y63882D01*
X178592Y63907D01*
X178526Y63941D01*
X178467Y63982D01*
X178426Y64016D01*
X178392Y64049D01*
X178376Y64074D01*
X178367Y64082D01*
X178334Y64149D01*
X178292Y64232D01*
X178259Y64332D01*
X178234Y64432D01*
X178209Y64532D01*
X178192Y64607D01*
X178184Y64640D01*
X178176Y64665D01*
Y64682D01*
X178142Y64849D01*
X178109Y64982D01*
X178076Y65107D01*
X178051Y65198D01*
X178026Y65273D01*
X178017Y65323D01*
X178001Y65357D01*
Y65365D01*
X178226D01*
X178359D01*
X178476Y65357D01*
D02*
G37*
G36*
X177309Y65307D02*
X177334Y65232D01*
X177384Y65074D01*
X177426Y64890D01*
X177468Y64715D01*
X177509Y64549D01*
X177526Y64474D01*
X177534Y64407D01*
X177543Y64357D01*
X177551Y64315D01*
X177559Y64290D01*
Y64282D01*
X177601Y64082D01*
X177643Y63899D01*
X177684Y63749D01*
X177726Y63624D01*
X177768Y63524D01*
X177793Y63458D01*
X177809Y63416D01*
X177817Y63399D01*
X177876Y63291D01*
X177943Y63199D01*
X178017Y63116D01*
X178084Y63058D01*
X178142Y62999D01*
X178192Y62966D01*
X178226Y62941D01*
X178242Y62933D01*
X178351Y62874D01*
X178459Y62833D01*
X178559Y62808D01*
X178659Y62791D01*
X178742Y62774D01*
X178809Y62766D01*
X175727D01*
Y64540D01*
X175743Y64407D01*
X175752Y64274D01*
X175777Y64157D01*
X175793Y64041D01*
X175818Y63941D01*
X175852Y63849D01*
X175877Y63766D01*
X175902Y63699D01*
X175935Y63632D01*
X175960Y63582D01*
X175977Y63532D01*
X176002Y63499D01*
X176010Y63474D01*
X176027Y63466D01*
Y63458D01*
X176152Y63316D01*
X176293Y63199D01*
X176443Y63099D01*
X176585Y63016D01*
X176718Y62958D01*
X176776Y62933D01*
X176826Y62916D01*
X176868Y62899D01*
X176901Y62891D01*
X176918Y62883D01*
X176926D01*
X177110Y63874D01*
X177009Y63916D01*
X176926Y63957D01*
X176851Y63999D01*
X176793Y64049D01*
X176751Y64082D01*
X176726Y64116D01*
X176710Y64132D01*
X176701Y64140D01*
X176660Y64207D01*
X176626Y64282D01*
X176610Y64365D01*
X176593Y64440D01*
X176585Y64507D01*
X176576Y64557D01*
Y64607D01*
X176585Y64757D01*
X176601Y64882D01*
X176618Y64982D01*
X176643Y65065D01*
X176676Y65123D01*
X176693Y65165D01*
X176710Y65190D01*
X176718Y65198D01*
X176776Y65257D01*
X176843Y65298D01*
X176918Y65323D01*
X176993Y65348D01*
X177068Y65357D01*
X177126Y65365D01*
X177159D01*
X177176D01*
X177284D01*
X177309Y65307D01*
D02*
G37*
G36*
X177559Y59409D02*
X177401Y59417D01*
X177259Y59442D01*
X177134Y59476D01*
X177034Y59526D01*
X176951Y59567D01*
X176893Y59609D01*
X176851Y59634D01*
X176843Y59642D01*
X176751Y59734D01*
X176685Y59834D01*
X176643Y59934D01*
X176610Y60026D01*
X176593Y60109D01*
X176576Y60176D01*
Y60234D01*
X176585Y60359D01*
X176618Y60467D01*
X176660Y60567D01*
X176701Y60650D01*
X176751Y60717D01*
X176793Y60767D01*
X176826Y60800D01*
X176835Y60808D01*
X176935Y60883D01*
X177051Y60950D01*
X177176Y60992D01*
X177293Y61025D01*
X177393Y61042D01*
X177484Y61050D01*
X177518Y61058D01*
X177534D01*
X177551D01*
X177559D01*
Y59409D01*
D02*
G37*
G36*
X180092Y58260D02*
X177943D01*
X178101Y58268D01*
X178259Y58276D01*
X178401Y58301D01*
X178534Y58326D01*
X178667Y58351D01*
X178784Y58393D01*
X178892Y58426D01*
X178992Y58468D01*
X179084Y58501D01*
X179159Y58543D01*
X179225Y58576D01*
X179284Y58601D01*
X179325Y58634D01*
X179359Y58651D01*
X179375Y58659D01*
X179384Y58668D01*
X179508Y58776D01*
X179617Y58884D01*
X179708Y59009D01*
X179792Y59143D01*
X179858Y59276D01*
X179917Y59409D01*
X179967Y59542D01*
X180000Y59676D01*
X180033Y59792D01*
X180050Y59909D01*
X180067Y60017D01*
X180083Y60109D01*
Y60184D01*
X180092Y60234D01*
Y58260D01*
D02*
G37*
G36*
X180000Y53945D02*
X177476D01*
Y56219D01*
X180000D01*
Y53945D01*
D02*
G37*
G36*
X176501D02*
X174236D01*
Y56219D01*
X176501D01*
Y53945D01*
D02*
G37*
G36*
X175735Y50080D02*
X175760Y49930D01*
X175793Y49796D01*
X175835Y49663D01*
X175893Y49538D01*
X175952Y49430D01*
X176018Y49321D01*
X176076Y49230D01*
X176143Y49147D01*
X176210Y49072D01*
X176268Y49005D01*
X176326Y48955D01*
X176368Y48913D01*
X176401Y48880D01*
X176426Y48863D01*
X176435Y48855D01*
X175818D01*
Y47830D01*
X175727D01*
Y50229D01*
X175735Y50080D01*
D02*
G37*
G36*
X177559Y44190D02*
X177401Y44199D01*
X177259Y44223D01*
X177134Y44257D01*
X177034Y44307D01*
X176951Y44348D01*
X176893Y44390D01*
X176851Y44415D01*
X176843Y44423D01*
X176751Y44515D01*
X176685Y44615D01*
X176643Y44715D01*
X176610Y44807D01*
X176593Y44890D01*
X176576Y44956D01*
Y45015D01*
X176585Y45140D01*
X176618Y45248D01*
X176660Y45348D01*
X176701Y45431D01*
X176751Y45498D01*
X176793Y45548D01*
X176826Y45581D01*
X176835Y45590D01*
X176935Y45665D01*
X177051Y45731D01*
X177176Y45773D01*
X177293Y45806D01*
X177393Y45823D01*
X177484Y45831D01*
X177518Y45840D01*
X177534D01*
X177551D01*
X177559D01*
Y44190D01*
D02*
G37*
G36*
X180092Y43041D02*
X177943D01*
X178101Y43049D01*
X178259Y43057D01*
X178401Y43082D01*
X178534Y43107D01*
X178667Y43132D01*
X178784Y43174D01*
X178892Y43207D01*
X178992Y43249D01*
X179084Y43282D01*
X179159Y43324D01*
X179225Y43357D01*
X179284Y43382D01*
X179325Y43415D01*
X179359Y43432D01*
X179375Y43440D01*
X179384Y43449D01*
X179508Y43557D01*
X179617Y43665D01*
X179708Y43790D01*
X179792Y43924D01*
X179858Y44057D01*
X179917Y44190D01*
X179967Y44324D01*
X180000Y44457D01*
X180033Y44573D01*
X180050Y44690D01*
X180067Y44798D01*
X180083Y44890D01*
Y44965D01*
X180092Y45015D01*
Y43041D01*
D02*
G37*
G36*
X178142Y41341D02*
X178251Y41325D01*
X178351Y41308D01*
X178442Y41291D01*
X178526Y41266D01*
X178601Y41241D01*
X178667Y41225D01*
X178776Y41175D01*
X178850Y41133D01*
X178892Y41100D01*
X178909Y41091D01*
X179009Y40992D01*
X179084Y40883D01*
X179142Y40775D01*
X179175Y40675D01*
X179200Y40583D01*
X179209Y40517D01*
X179217Y40467D01*
Y40450D01*
X179200Y40308D01*
X179167Y40175D01*
X179109Y40058D01*
X179050Y39967D01*
X178992Y39884D01*
X178934Y39825D01*
X178900Y39792D01*
X178884Y39775D01*
X178817Y39725D01*
X178742Y39684D01*
X178584Y39617D01*
X178409Y39567D01*
X178234Y39534D01*
X178084Y39517D01*
X178017Y39509D01*
X177959D01*
X177909Y39500D01*
X177876D01*
X177851D01*
X177842D01*
X177626Y39509D01*
X177443Y39542D01*
X177284Y39584D01*
X177151Y39634D01*
X177051Y39675D01*
X176976Y39717D01*
X176935Y39750D01*
X176918Y39759D01*
X176810Y39867D01*
X176735Y39975D01*
X176676Y40092D01*
X176643Y40200D01*
X176618Y40292D01*
X176610Y40367D01*
X176601Y40417D01*
Y40433D01*
X176618Y40575D01*
X176651Y40700D01*
X176701Y40808D01*
X176760Y40900D01*
X176826Y40975D01*
X176876Y41033D01*
X176909Y41075D01*
X176926Y41083D01*
X177059Y41175D01*
X177209Y41241D01*
X177376Y41283D01*
X177534Y41316D01*
X177676Y41333D01*
X177734Y41341D01*
X177793Y41350D01*
X177834D01*
X177867D01*
X177892D01*
X177901D01*
X178026D01*
X178142Y41341D01*
D02*
G37*
G36*
X177284Y36327D02*
X177459Y36318D01*
X177618Y36293D01*
X177759Y36268D01*
X177901Y36235D01*
X178026Y36193D01*
X178134Y36152D01*
X178234Y36110D01*
X178326Y36068D01*
X178401Y36027D01*
X178467Y35993D01*
X178526Y35952D01*
X178567Y35927D01*
X178592Y35902D01*
X178609Y35893D01*
X178617Y35885D01*
X178709Y35802D01*
X178784Y35710D01*
X178850Y35610D01*
X178909Y35519D01*
X178950Y35419D01*
X178992Y35327D01*
X179050Y35144D01*
X179092Y34986D01*
X179100Y34919D01*
X179109Y34861D01*
X179117Y34811D01*
Y34744D01*
X179109Y34619D01*
X179092Y34494D01*
X179067Y34377D01*
X179034Y34269D01*
X178959Y34069D01*
X178859Y33911D01*
X178817Y33836D01*
X178767Y33778D01*
X178726Y33719D01*
X178684Y33678D01*
X178659Y33644D01*
X178634Y33619D01*
X178617Y33603D01*
X178609Y33594D01*
X178509Y33520D01*
X178401Y33444D01*
X178284Y33386D01*
X178159Y33336D01*
X177918Y33253D01*
X177676Y33203D01*
X177559Y33186D01*
X177459Y33170D01*
X177359Y33161D01*
X177276Y33153D01*
X177209Y33145D01*
X177159D01*
X177126D01*
X177118D01*
X176935Y33153D01*
X176768Y33161D01*
X176610Y33186D01*
X176460Y33211D01*
X176326Y33245D01*
X176201Y33278D01*
X176093Y33320D01*
X175993Y33361D01*
X175902Y33403D01*
X175827Y33444D01*
X175768Y33478D01*
X175710Y33511D01*
X175668Y33536D01*
X175643Y33561D01*
X175627Y33569D01*
X175618Y33578D01*
X175527Y33661D01*
X175452Y33753D01*
X175385Y33853D01*
X175327Y33944D01*
X175277Y34044D01*
X175243Y34144D01*
X175177Y34328D01*
X175144Y34494D01*
X175135Y34561D01*
X175127Y34627D01*
X175119Y34677D01*
Y34744D01*
X175127Y34877D01*
X175144Y35002D01*
X175160Y35119D01*
X175194Y35227D01*
X175277Y35419D01*
X175319Y35510D01*
X175360Y35585D01*
X175410Y35660D01*
X175452Y35719D01*
X175493Y35768D01*
X175535Y35818D01*
X175568Y35852D01*
X175585Y35877D01*
X175602Y35885D01*
X175610Y35893D01*
X175710Y35969D01*
X175818Y36043D01*
X175927Y36102D01*
X176051Y36152D01*
X176301Y36227D01*
X176543Y36277D01*
X176651Y36302D01*
X176760Y36310D01*
X176851Y36318D01*
X176935Y36327D01*
X177009Y36335D01*
X177059D01*
X177093D01*
X177101D01*
X177284Y36327D01*
D02*
G37*
G36*
X180108Y31945D02*
X177159D01*
X177409Y31953D01*
X177651Y31978D01*
X177876Y32012D01*
X178084Y32062D01*
X178276Y32120D01*
X178451Y32187D01*
X178617Y32253D01*
X178759Y32328D01*
X178892Y32395D01*
X179000Y32462D01*
X179100Y32528D01*
X179184Y32587D01*
X179242Y32636D01*
X179292Y32670D01*
X179317Y32695D01*
X179325Y32703D01*
X179467Y32853D01*
X179584Y33011D01*
X179692Y33170D01*
X179775Y33345D01*
X179850Y33511D01*
X179917Y33686D01*
X179967Y33844D01*
X180008Y34011D01*
X180042Y34161D01*
X180067Y34302D01*
X180083Y34427D01*
X180092Y34536D01*
X180100Y34619D01*
X180108Y34686D01*
Y31945D01*
D02*
G37*
%LPC*%
G36*
X193589Y48796D02*
X193581D01*
X193564D01*
X193531D01*
X193481D01*
X193431Y48787D01*
X193364Y48779D01*
X193222Y48762D01*
X193064Y48729D01*
X192906Y48687D01*
X192756Y48621D01*
X192623Y48529D01*
X192606Y48521D01*
X192573Y48479D01*
X192523Y48421D01*
X192464Y48346D01*
X192406Y48246D01*
X192356Y48129D01*
X192323Y48004D01*
X192306Y47854D01*
Y47838D01*
X192315Y47788D01*
X192323Y47713D01*
X192348Y47621D01*
X192381Y47521D01*
X192439Y47405D01*
X192514Y47296D01*
X192623Y47196D01*
X192639Y47188D01*
X192681Y47155D01*
X192756Y47121D01*
X192856Y47071D01*
X192989Y47030D01*
X193148Y46988D01*
X193339Y46955D01*
X193564Y46946D01*
X193572D01*
X193589D01*
X193631D01*
X193672Y46955D01*
X193722D01*
X193789Y46963D01*
X193930Y46980D01*
X194089Y47005D01*
X194247Y47055D01*
X194397Y47113D01*
X194530Y47196D01*
X194547Y47205D01*
X194580Y47246D01*
X194630Y47296D01*
X194680Y47371D01*
X194738Y47463D01*
X194789Y47571D01*
X194822Y47696D01*
X194839Y47829D01*
Y47846D01*
X194830Y47896D01*
X194822Y47971D01*
X194797Y48071D01*
X194764Y48179D01*
X194705Y48288D01*
X194630Y48404D01*
X194522Y48513D01*
X194505Y48521D01*
X194464Y48554D01*
X194389Y48604D01*
X194289Y48654D01*
X194155Y48704D01*
X193997Y48754D01*
X193806Y48787D01*
X193589Y48796D01*
D02*
G37*
G36*
X193289Y39133D02*
X193281D01*
X193264D01*
X193247D01*
X193214Y39125D01*
X193122Y39116D01*
X193023Y39100D01*
X192906Y39066D01*
X192781Y39025D01*
X192664Y38958D01*
X192564Y38883D01*
X192556Y38875D01*
X192523Y38841D01*
X192481Y38791D01*
X192431Y38725D01*
X192389Y38641D01*
X192348Y38541D01*
X192315Y38433D01*
X192306Y38308D01*
Y38250D01*
X192323Y38183D01*
X192340Y38100D01*
X192373Y38008D01*
X192414Y37908D01*
X192481Y37808D01*
X192573Y37717D01*
X192581Y37709D01*
X192623Y37683D01*
X192681Y37642D01*
X192764Y37600D01*
X192864Y37550D01*
X192989Y37517D01*
X193131Y37492D01*
X193289Y37484D01*
Y39133D01*
D02*
G37*
G36*
X191765Y34510D02*
X191748D01*
X191715D01*
X191656Y34501D01*
X191581Y34485D01*
X191498Y34460D01*
X191407Y34426D01*
X191323Y34385D01*
X191240Y34318D01*
X191232Y34310D01*
X191207Y34285D01*
X191173Y34243D01*
X191132Y34193D01*
X191082Y34127D01*
X191040Y34043D01*
X191007Y33952D01*
X190982Y33852D01*
Y33843D01*
X190973Y33810D01*
X190965Y33752D01*
X190957Y33668D01*
Y33560D01*
X190948Y33485D01*
Y33410D01*
X190940Y33327D01*
Y32461D01*
X192581D01*
Y33260D01*
X192573Y33319D01*
Y33468D01*
X192564Y33618D01*
X192548Y33768D01*
X192523Y33902D01*
X192514Y33960D01*
X192498Y34010D01*
X192489Y34018D01*
X192481Y34052D01*
X192456Y34093D01*
X192431Y34143D01*
X192389Y34201D01*
X192340Y34260D01*
X192281Y34326D01*
X192215Y34376D01*
X192206Y34385D01*
X192181Y34402D01*
X192139Y34418D01*
X192081Y34443D01*
X192015Y34468D01*
X191940Y34493D01*
X191856Y34501D01*
X191765Y34510D01*
D02*
G37*
G36*
X187149Y70967D02*
X187070D01*
X187065D01*
X187052D01*
X187029D01*
X186996Y70962D01*
X186959D01*
X186913Y70958D01*
X186816Y70944D01*
X186710Y70925D01*
X186594Y70893D01*
X186493Y70847D01*
X186442Y70819D01*
X186400Y70787D01*
X186396D01*
X186391Y70777D01*
X186368Y70754D01*
X186331Y70717D01*
X186289Y70666D01*
X186252Y70602D01*
X186215Y70528D01*
X186192Y70440D01*
X186183Y70394D01*
Y70325D01*
X186188Y70306D01*
X186197Y70255D01*
X186211Y70195D01*
X186239Y70126D01*
X186280Y70052D01*
X186303Y70015D01*
X186336Y69978D01*
X186368Y69941D01*
X186409Y69904D01*
X186414D01*
X186419Y69895D01*
X186433Y69886D01*
X186451Y69876D01*
X186474Y69863D01*
X186502Y69844D01*
X186534Y69830D01*
X186571Y69812D01*
X186617Y69793D01*
X186664Y69779D01*
X186719Y69761D01*
X186775Y69747D01*
X186839Y69738D01*
X186908Y69729D01*
X186978Y69719D01*
X187056D01*
X187061D01*
X187075D01*
X187098D01*
X187126D01*
X187158Y69724D01*
X187199D01*
X187287Y69733D01*
X187384Y69747D01*
X187486Y69766D01*
X187578Y69793D01*
X187620Y69812D01*
X187657Y69830D01*
X187662D01*
X187671Y69840D01*
X187685Y69849D01*
X187703Y69863D01*
X187754Y69904D01*
X187805Y69964D01*
X187860Y70034D01*
X187911Y70121D01*
X187929Y70167D01*
X187943Y70223D01*
X187953Y70274D01*
X187957Y70334D01*
Y70357D01*
X187953Y70375D01*
X187943Y70426D01*
X187929Y70486D01*
X187902Y70556D01*
X187865Y70630D01*
X187809Y70703D01*
X187772Y70740D01*
X187735Y70777D01*
X187731D01*
X187726Y70787D01*
X187712Y70796D01*
X187694Y70805D01*
X187671Y70824D01*
X187643Y70837D01*
X187606Y70856D01*
X187569Y70874D01*
X187523Y70888D01*
X187477Y70907D01*
X187421Y70925D01*
X187361Y70939D01*
X187296Y70948D01*
X187227Y70958D01*
X187149Y70967D01*
D02*
G37*
G36*
X187186Y67146D02*
X187107D01*
X187102D01*
X187084D01*
X187061D01*
X187029Y67141D01*
X186992D01*
X186945Y67137D01*
X186895Y67132D01*
X186839Y67123D01*
X186728Y67100D01*
X186613Y67067D01*
X186502Y67021D01*
X186456Y66994D01*
X186409Y66961D01*
X186405D01*
X186400Y66952D01*
X186372Y66929D01*
X186336Y66887D01*
X186294Y66837D01*
X186252Y66772D01*
X186220Y66693D01*
X186192Y66606D01*
X186188Y66559D01*
X186183Y66509D01*
Y66485D01*
X186188Y66467D01*
X186192Y66416D01*
X186211Y66356D01*
X186234Y66287D01*
X186275Y66213D01*
X186326Y66139D01*
X186363Y66102D01*
X186400Y66070D01*
X186405D01*
X186409Y66060D01*
X186423Y66056D01*
X186442Y66042D01*
X186465Y66028D01*
X186493Y66014D01*
X186525Y66000D01*
X186562Y65982D01*
X186608Y65963D01*
X186659Y65949D01*
X186714Y65936D01*
X186775Y65922D01*
X186839Y65912D01*
X186913Y65903D01*
X186992Y65894D01*
X187075D01*
X187079D01*
X187093D01*
X187116D01*
X187149Y65899D01*
X187186D01*
X187227Y65903D01*
X187324Y65917D01*
X187431Y65940D01*
X187541Y65973D01*
X187648Y66019D01*
X187694Y66047D01*
X187740Y66079D01*
Y66084D01*
X187749Y66088D01*
X187772Y66111D01*
X187809Y66153D01*
X187846Y66204D01*
X187888Y66268D01*
X187925Y66347D01*
X187948Y66430D01*
X187953Y66476D01*
X187957Y66522D01*
Y66545D01*
X187953Y66564D01*
X187948Y66615D01*
X187929Y66675D01*
X187906Y66744D01*
X187869Y66818D01*
X187819Y66892D01*
X187786Y66929D01*
X187749Y66961D01*
X187745D01*
X187740Y66970D01*
X187726Y66980D01*
X187708Y66989D01*
X187685Y67003D01*
X187662Y67021D01*
X187625Y67035D01*
X187588Y67054D01*
X187546Y67072D01*
X187500Y67086D01*
X187444Y67105D01*
X187389Y67118D01*
X187324Y67128D01*
X187260Y67137D01*
X187186Y67146D01*
D02*
G37*
G36*
X186848Y64744D02*
X186844D01*
X186835D01*
X186821Y64739D01*
X186802D01*
X186747Y64730D01*
X186687Y64716D01*
X186613Y64693D01*
X186544Y64670D01*
X186474Y64633D01*
X186414Y64591D01*
X186409D01*
X186405Y64582D01*
X186377Y64559D01*
X186340Y64517D01*
X186299Y64462D01*
X186257Y64393D01*
X186220Y64309D01*
X186192Y64212D01*
X186188Y64161D01*
X186183Y64106D01*
Y64078D01*
X186188Y64060D01*
X186192Y64009D01*
X186206Y63949D01*
X186229Y63875D01*
X186262Y63797D01*
X186308Y63723D01*
X186368Y63649D01*
X186377Y63639D01*
X186400Y63621D01*
X186442Y63589D01*
X186497Y63556D01*
X186562Y63519D01*
X186645Y63487D01*
X186742Y63459D01*
X186848Y63445D01*
Y64744D01*
D02*
G37*
G36*
X187126Y59708D02*
X187047D01*
X187042D01*
X187029D01*
X187005D01*
X186978Y59703D01*
X186941D01*
X186899Y59699D01*
X186807Y59685D01*
X186700Y59662D01*
X186594Y59629D01*
X186488Y59583D01*
X186442Y59551D01*
X186400Y59518D01*
X186396D01*
X186391Y59509D01*
X186368Y59486D01*
X186331Y59444D01*
X186289Y59389D01*
X186252Y59324D01*
X186215Y59246D01*
X186192Y59158D01*
X186183Y59112D01*
Y59038D01*
X186188Y59020D01*
X186192Y58969D01*
X186211Y58909D01*
X186234Y58835D01*
X186275Y58761D01*
X186326Y58687D01*
X186363Y58650D01*
X186400Y58613D01*
X186405D01*
X186409Y58604D01*
X186423Y58594D01*
X186442Y58585D01*
X186460Y58571D01*
X186488Y58557D01*
X186520Y58539D01*
X186557Y58525D01*
X186599Y58507D01*
X186650Y58488D01*
X186700Y58474D01*
X186756Y58460D01*
X186821Y58451D01*
X186885Y58442D01*
X186955Y58433D01*
X187033D01*
X187038D01*
X187052D01*
X187075D01*
X187107Y58437D01*
X187144D01*
X187190Y58442D01*
X187287Y58456D01*
X187398Y58479D01*
X187504Y58507D01*
X187611Y58553D01*
X187657Y58581D01*
X187698Y58613D01*
X187708Y58622D01*
X187731Y58645D01*
X187763Y58682D01*
X187800Y58738D01*
X187842Y58802D01*
X187874Y58881D01*
X187897Y58969D01*
X187902Y59015D01*
X187906Y59066D01*
Y59093D01*
X187902Y59112D01*
X187897Y59163D01*
X187879Y59227D01*
X187856Y59297D01*
X187819Y59375D01*
X187768Y59449D01*
X187735Y59486D01*
X187698Y59523D01*
X187694D01*
X187689Y59532D01*
X187675Y59541D01*
X187657Y59551D01*
X187638Y59565D01*
X187611Y59583D01*
X187578Y59597D01*
X187537Y59615D01*
X187495Y59634D01*
X187449Y59648D01*
X187394Y59666D01*
X187334Y59680D01*
X187273Y59689D01*
X187204Y59699D01*
X187126Y59708D01*
D02*
G37*
G36*
X186848Y54058D02*
X186844D01*
X186835D01*
X186821Y54053D01*
X186802D01*
X186747Y54044D01*
X186687Y54030D01*
X186613Y54007D01*
X186544Y53984D01*
X186474Y53947D01*
X186414Y53905D01*
X186409D01*
X186405Y53896D01*
X186377Y53873D01*
X186340Y53831D01*
X186299Y53776D01*
X186257Y53707D01*
X186220Y53623D01*
X186192Y53526D01*
X186188Y53475D01*
X186183Y53420D01*
Y53392D01*
X186188Y53374D01*
X186192Y53323D01*
X186206Y53263D01*
X186229Y53189D01*
X186262Y53110D01*
X186308Y53037D01*
X186368Y52963D01*
X186377Y52953D01*
X186400Y52935D01*
X186442Y52903D01*
X186497Y52870D01*
X186562Y52833D01*
X186645Y52801D01*
X186742Y52773D01*
X186848Y52759D01*
Y54058D01*
D02*
G37*
G36*
X186608Y51503D02*
X186603D01*
X186585D01*
X186562D01*
X186525Y51498D01*
X186483D01*
X186437Y51494D01*
X186382Y51489D01*
X186326Y51484D01*
X186202Y51461D01*
X186072Y51433D01*
X185952Y51392D01*
X185892Y51364D01*
X185841Y51336D01*
X185837D01*
X185827Y51327D01*
X185813Y51318D01*
X185795Y51309D01*
X185749Y51272D01*
X185693Y51226D01*
X185633Y51165D01*
X185573Y51096D01*
X185522Y51018D01*
X185481Y50934D01*
X185476Y50925D01*
X185472Y50902D01*
X185458Y50861D01*
X185444Y50801D01*
X185435Y50727D01*
X185421Y50634D01*
X185416Y50579D01*
Y50519D01*
X185412Y50459D01*
Y49719D01*
X187851D01*
Y50477D01*
X187846Y50509D01*
X187842Y50579D01*
X187837Y50657D01*
X187828Y50740D01*
X187814Y50824D01*
X187795Y50893D01*
X187791Y50902D01*
X187786Y50925D01*
X187772Y50958D01*
X187754Y50999D01*
X187726Y51045D01*
X187698Y51092D01*
X187666Y51138D01*
X187629Y51184D01*
X187620Y51189D01*
X187601Y51207D01*
X187569Y51235D01*
X187523Y51267D01*
X187463Y51304D01*
X187394Y51346D01*
X187315Y51383D01*
X187227Y51415D01*
X187223D01*
X187213Y51420D01*
X187199Y51424D01*
X187181Y51429D01*
X187158Y51433D01*
X187126Y51443D01*
X187093Y51452D01*
X187056Y51461D01*
X186964Y51475D01*
X186858Y51489D01*
X186738Y51498D01*
X186608Y51503D01*
D02*
G37*
G36*
X186606Y45988D02*
X186494D01*
X186489D01*
X186469D01*
X186433D01*
X186392D01*
X186341D01*
X186285Y45983D01*
X186219D01*
X186153Y45978D01*
X186011Y45973D01*
X185873Y45963D01*
X185807Y45952D01*
X185741Y45942D01*
X185685Y45932D01*
X185639Y45922D01*
X185634D01*
X185629Y45917D01*
X185603Y45912D01*
X185563Y45896D01*
X185512Y45881D01*
X185461Y45856D01*
X185410Y45830D01*
X185364Y45800D01*
X185328Y45769D01*
X185323Y45764D01*
X185313Y45754D01*
X185303Y45733D01*
X185288Y45708D01*
X185273Y45678D01*
X185257Y45642D01*
X185252Y45601D01*
X185247Y45555D01*
Y45535D01*
X185252Y45510D01*
X185257Y45484D01*
X185267Y45448D01*
X185283Y45413D01*
X185303Y45372D01*
X185328Y45336D01*
X185334Y45331D01*
X185344Y45321D01*
X185364Y45306D01*
X185390Y45286D01*
X185430Y45260D01*
X185476Y45240D01*
X185537Y45214D01*
X185608Y45194D01*
X185614D01*
X185619Y45189D01*
X185639D01*
X185659Y45184D01*
X185690Y45179D01*
X185725Y45174D01*
X185766Y45169D01*
X185817Y45163D01*
X185878Y45153D01*
X185939Y45148D01*
X186016Y45143D01*
X186092Y45138D01*
X186184Y45133D01*
X186275D01*
X186382Y45128D01*
X186494D01*
X186499D01*
X186520D01*
X186555D01*
X186596D01*
X186647D01*
X186703Y45133D01*
X186769D01*
X186835Y45138D01*
X186978Y45143D01*
X187120Y45153D01*
X187186Y45158D01*
X187247Y45169D01*
X187303Y45179D01*
X187354Y45189D01*
X187364Y45194D01*
X187390Y45199D01*
X187431Y45214D01*
X187476Y45230D01*
X187527Y45255D01*
X187578Y45281D01*
X187624Y45311D01*
X187660Y45342D01*
X187665Y45347D01*
X187670Y45357D01*
X187685Y45377D01*
X187695Y45403D01*
X187711Y45433D01*
X187726Y45469D01*
X187731Y45510D01*
X187736Y45555D01*
Y45576D01*
X187731Y45601D01*
X187726Y45627D01*
X187716Y45662D01*
X187706Y45698D01*
X187685Y45733D01*
X187660Y45769D01*
X187655Y45774D01*
X187644Y45784D01*
X187624Y45805D01*
X187593Y45825D01*
X187558Y45845D01*
X187507Y45871D01*
X187451Y45896D01*
X187380Y45917D01*
X187375D01*
X187370Y45922D01*
X187349D01*
X187329Y45927D01*
X187298Y45932D01*
X187263Y45937D01*
X187222Y45947D01*
X187171Y45952D01*
X187115Y45957D01*
X187049Y45968D01*
X186978Y45973D01*
X186896Y45978D01*
X186810Y45983D01*
X186713D01*
X186606Y45988D01*
D02*
G37*
G36*
X186738Y35945D02*
X186733D01*
X186723D01*
X186713D01*
X186693Y35940D01*
X186637Y35935D01*
X186575Y35925D01*
X186504Y35905D01*
X186428Y35879D01*
X186357Y35839D01*
X186296Y35793D01*
X186291Y35788D01*
X186270Y35767D01*
X186245Y35737D01*
X186214Y35696D01*
X186189Y35645D01*
X186163Y35584D01*
X186143Y35518D01*
X186138Y35441D01*
Y35406D01*
X186148Y35365D01*
X186158Y35314D01*
X186179Y35258D01*
X186204Y35197D01*
X186245Y35136D01*
X186301Y35080D01*
X186306Y35075D01*
X186331Y35060D01*
X186367Y35034D01*
X186418Y35009D01*
X186479Y34978D01*
X186555Y34958D01*
X186642Y34943D01*
X186738Y34938D01*
Y35945D01*
D02*
G37*
%LPD*%
D10*
X184730Y28294D02*
X196230D01*
D14*
X173500Y91400D02*
D03*
D15*
X42000Y5250D02*
D03*
D16*
X63256Y29000D02*
D03*
X66012D02*
D03*
X71524D02*
D03*
X74279D02*
D03*
X79791D02*
D03*
X82547D02*
D03*
X88059D02*
D03*
X90815D02*
D03*
X96327D02*
D03*
X99083D02*
D03*
X101839D02*
D03*
X104595D02*
D03*
X110106D02*
D03*
X112862D02*
D03*
X118374D02*
D03*
X121130D02*
D03*
X126642D02*
D03*
X129398D02*
D03*
X134909D02*
D03*
X137665D02*
D03*
X60500D02*
D03*
X68768D02*
D03*
X77035D02*
D03*
X85303D02*
D03*
X93571D02*
D03*
X107350D02*
D03*
X115618D02*
D03*
X123886D02*
D03*
X132153D02*
D03*
X140421D02*
D03*
D17*
X24921Y64689D02*
D03*
Y63508D02*
D03*
Y61539D02*
D03*
Y60358D02*
D03*
Y58390D02*
D03*
Y56421D02*
D03*
Y54453D02*
D03*
Y52484D02*
D03*
Y50516D02*
D03*
Y48547D02*
D03*
Y46579D02*
D03*
Y44610D02*
D03*
Y42642D02*
D03*
Y41461D02*
D03*
Y39492D02*
D03*
Y38311D02*
D03*
D18*
X11500Y11500D02*
D03*
Y91000D02*
D03*
X189500D02*
D03*
Y11500D02*
D03*
D19*
X20827Y68528D02*
D03*
Y34472D02*
D03*
D20*
X5079Y68528D02*
D03*
Y34472D02*
D03*
D21*
X18858Y40122D02*
D03*
Y62878D02*
D03*
D22*
X166783Y38189D02*
D03*
Y61811D02*
D03*
M02*
