M48
;Layer_Color=9474304
;FILE_FORMAT=2:5
INCH,TZ
;TYPE=PLATED
T1F00S00C0.01000
T2F00S00C0.01968
T4F00S00C0.02559
T5F00S00C0.06299
T6F00S00C0.11811
%
T01
X21500Y3000
X23500Y13000
X30000Y14000
Y11500
X33000
X36000
X39000
X42000
X49100Y12700
X51800
X66000Y13000
X62000Y7000
Y4500
Y2000
X71900Y6000
X82000
X103800Y6700
X107000Y6600
X119600Y7500
X119400Y12800
X123000Y9700
X126500
X130100
X137100
X140600
X144100
X147600
X153200Y11600
X155700
X137100Y5400
X126500Y5500
X127500Y17500
X125000
Y20000
Y22500
Y25000
Y27500
X122500
Y25000
Y22500
Y20000
X118900Y19700
X119500Y22500
Y25000
Y27500
X116500
Y25000
Y22500
Y17500
X107500Y17000
X104700Y20700
X101500Y19500
X100500Y16500
X88059Y20141
X84500Y20000
X82000
X78800Y19800
X64500Y15000
X45500Y25000
Y29000
X49500
Y33000
X45500
X54700Y38900
X56900Y47100
X61000Y50000
X58000Y54000
Y57000
X54300Y53400
X47400Y52900
X45000Y53200
X48850Y50000
X46900Y46900
X43600Y47000
X46500Y64500
Y68000
X59000Y69500
Y72500
X58500Y65000
X65000Y63900
Y66400
X72000Y66500
X75000
Y69500
X72000
Y72500
X75000
X78500
Y69500
Y66500
X82000
X85000
Y69500
X82000
Y72500
X85000
X83000Y60000
Y57500
Y55000
Y52500
X86100Y51200
X85900Y45500
Y42800
X87900Y39400
X90200
X92600
X95300Y47400
X105500Y48500
X108000
Y51000
X105500
Y53500
Y56000
Y58500
Y61000
Y63500
X102500
Y61000
Y58500
X113500Y51800
X113000Y42000
Y39500
X115400Y39000
X124000Y39445
Y41945
Y44445
Y46945
Y49445
X126500
X129000
Y46945
X126500
Y44445
X129000
Y41945
X126500
Y39445
X129000
Y56500
X126500
Y59000
X129000
Y61500
X126500
X124000
Y59000
Y64000
X126500
X129000
Y66500
X126500
X124000
Y69000
X126500
X129000
Y71500
X126500
X124000
X104700Y40400
Y38200
X92500Y28000
Y25500
X75500Y41500
X72200Y40500
X68500Y40200
X67500Y44900
X64500Y44500
X61900Y42100
X71600Y44900
X75760Y51260
X77000Y55000
X80000
X68500Y54750
Y57200
X159000Y55500
Y52500
Y49500
X161000Y44000
X165000Y29000
Y26500
Y24000
X162500
X171000Y24500
X169500Y32000
X127500Y20000
X41500Y25000
Y29000
Y33000
X42500Y38800
X37600Y43600
X35300Y45000
X31800Y46100
X33000Y40100
X30000Y40000
Y36900
X26500Y23700
X24000Y25000
X23500Y19000
Y16000
X30000Y16500
X20000Y45400
X16000Y46500
X15100Y49500
X7000Y48500
Y41000
Y56500
X16200Y57700
X19800Y59000
X14000Y61000
X12000Y65900
Y68400
X29600Y66700
X31400Y62500
X33700Y55300
X33000Y52500
X37000Y50000
X40100Y46800
X42500Y64500
Y68000
X41100Y76400
X28500Y74600
T02
X58500Y84000
X63500
X68500
X73500
X78500
X83500
Y90000
X78500
X73500
X68500
X63500
X58500
Y96000
X63500
X68500
X73500
X78500
X83500
X106500
X111500
X116500
X121500
X126500
X131500
Y90000
X126500
X121500
X116500
X111500
X106500
Y84000
X111500
X116500
X121500
X126500
X131500
X135500Y71000
X140500
X145500
Y65000
X140500
X135500
Y57000
X140500
X145500
Y49000
X140500
X135500
Y43000
X140500
X145500
Y17000
X140500
X135500
X144500Y77000
X149500
X154500
Y83000
X159500
Y89000
X154500
X149500
Y83000
Y95000
X154500
X159500
X41500Y96000
X36500
X31500
Y90000
X36500
X41500
Y84000
X36500
X31500
T04
X18858Y40122
Y62878
T05
X166783Y38189
Y61811
T06
X11500Y11500
X189500
Y91000
X11500
M30
