G04*
G04 #@! TF.GenerationSoftware,Altium Limited,Altium Designer,21.6.1 (37)*
G04*
G04 Layer_Color=32896*
%FSLAX25Y25*%
%MOIN*%
G70*
G04*
G04 #@! TF.SameCoordinates,AC7CD038-FE90-4222-8F95-758E89F8CD36*
G04*
G04*
G04 #@! TF.FilePolarity,Positive*
G04*
G01*
G75*
%ADD10C,0.01000*%
%ADD25C,0.00600*%
%ADD102C,0.00984*%
%ADD103C,0.00100*%
%ADD104C,0.00787*%
%ADD105C,0.00500*%
%ADD106C,0.00394*%
G36*
X29450Y70850D02*
X29100D01*
Y72150D01*
X29450D01*
Y70850D01*
D02*
G37*
G36*
X27900Y72150D02*
Y70850D01*
X27550Y70850D01*
Y72150D01*
X27900Y72150D01*
D02*
G37*
G36*
X66550Y70400D02*
X65350D01*
Y69000D01*
X64650D01*
Y70400D01*
X63450D01*
Y71000D01*
X66550D01*
Y70400D01*
D02*
G37*
G36*
X25150Y63100D02*
X23850D01*
X23850Y63450D01*
X25150D01*
X25150Y63100D01*
D02*
G37*
G36*
X25150Y61550D02*
X23850D01*
Y61900D01*
X25150D01*
Y61550D01*
D02*
G37*
G36*
X71150Y60600D02*
X69850D01*
X69850Y60950D01*
X71150D01*
X71150Y60600D01*
D02*
G37*
G36*
X63650D02*
X62350D01*
X62350Y60950D01*
X63650D01*
X63650Y60600D01*
D02*
G37*
G36*
X71150Y59050D02*
X69850D01*
Y59400D01*
X71150D01*
Y59050D01*
D02*
G37*
G36*
X63650D02*
X62350D01*
Y59400D01*
X63650D01*
Y59050D01*
D02*
G37*
G36*
X71150Y57100D02*
X69850D01*
Y57450D01*
X71150D01*
Y57100D01*
D02*
G37*
G36*
X93450Y56850D02*
X93100D01*
Y58150D01*
X93450D01*
Y56850D01*
D02*
G37*
G36*
X91900Y58150D02*
Y56850D01*
X91550Y56850D01*
Y58150D01*
X91900Y58150D01*
D02*
G37*
G36*
X17950Y55850D02*
X17600Y55850D01*
Y57150D01*
X17950Y57150D01*
Y55850D01*
D02*
G37*
G36*
X16400D02*
X16050D01*
Y57150D01*
X16400D01*
Y55850D01*
D02*
G37*
G36*
X63650Y55600D02*
X63300D01*
Y57400D01*
X63650D01*
Y55600D01*
D02*
G37*
G36*
X62700D02*
X62350D01*
Y57400D01*
X62700D01*
Y55600D01*
D02*
G37*
G36*
X71150Y55550D02*
X69850D01*
X69850Y55900D01*
X71150D01*
X71150Y55550D01*
D02*
G37*
G36*
X63650Y53600D02*
X62350D01*
Y53950D01*
X63650D01*
Y53600D01*
D02*
G37*
G36*
X71150Y52100D02*
X70800D01*
Y53900D01*
X71150D01*
Y52100D01*
D02*
G37*
G36*
X70200D02*
X69850D01*
Y53900D01*
X70200D01*
Y52100D01*
D02*
G37*
G36*
X63650Y52050D02*
X62350D01*
X62350Y52400D01*
X63650D01*
X63650Y52050D01*
D02*
G37*
G36*
X19650Y50100D02*
X18350D01*
X18350Y50450D01*
X19650D01*
X19650Y50100D01*
D02*
G37*
G36*
X71150Y48600D02*
X70800D01*
Y50400D01*
X71150D01*
Y48600D01*
D02*
G37*
G36*
X70200D02*
X69850D01*
Y50400D01*
X70200D01*
Y48600D01*
D02*
G37*
G36*
X19650Y48550D02*
X18350D01*
Y48900D01*
X19650D01*
Y48550D01*
D02*
G37*
G36*
X58500Y48300D02*
X56700D01*
Y48650D01*
X58500D01*
Y48300D01*
D02*
G37*
G36*
X55000D02*
X53200D01*
Y48650D01*
X55000D01*
Y48300D01*
D02*
G37*
G36*
X58500Y47350D02*
X56700D01*
Y47700D01*
X58500D01*
Y47350D01*
D02*
G37*
G36*
X55000D02*
X53200D01*
Y47700D01*
X55000D01*
Y47350D01*
D02*
G37*
G36*
X51550D02*
X51200Y47350D01*
Y48650D01*
X51550Y48650D01*
Y47350D01*
D02*
G37*
G36*
X50000D02*
X49650D01*
Y48650D01*
X50000D01*
Y47350D01*
D02*
G37*
G36*
X48050D02*
X47700D01*
Y48650D01*
X48050D01*
Y47350D01*
D02*
G37*
G36*
X46500Y48650D02*
Y47350D01*
X46150Y47350D01*
Y48650D01*
X46500Y48650D01*
D02*
G37*
G36*
X44550Y47350D02*
X44200D01*
Y48650D01*
X44550D01*
Y47350D01*
D02*
G37*
G36*
X43000Y48650D02*
Y47350D01*
X42650Y47350D01*
Y48650D01*
X43000Y48650D01*
D02*
G37*
G36*
X41050Y47350D02*
X40700D01*
Y48650D01*
X41050D01*
Y47350D01*
D02*
G37*
G36*
X39500Y48650D02*
Y47350D01*
X39150Y47350D01*
Y48650D01*
X39500Y48650D01*
D02*
G37*
G36*
X37550Y47350D02*
X37200D01*
Y48650D01*
X37550D01*
Y47350D01*
D02*
G37*
G36*
X36000Y48650D02*
Y47350D01*
X35650Y47350D01*
Y48650D01*
X36000Y48650D01*
D02*
G37*
G36*
X33950Y47350D02*
X33600Y47350D01*
Y48650D01*
X33950Y48650D01*
Y47350D01*
D02*
G37*
G36*
X32400D02*
X32050D01*
Y48650D01*
X32400D01*
Y47350D01*
D02*
G37*
G36*
X19650Y46100D02*
X18350D01*
X18350Y46450D01*
X19650D01*
X19650Y46100D01*
D02*
G37*
G36*
X19650Y44550D02*
X18350D01*
Y44900D01*
X19650D01*
Y44550D01*
D02*
G37*
G36*
X79150Y44100D02*
X78800D01*
Y45900D01*
X79150D01*
Y44100D01*
D02*
G37*
G36*
X78200D02*
X77850D01*
Y45900D01*
X78200D01*
Y44100D01*
D02*
G37*
G36*
X71150D02*
X70800D01*
Y45900D01*
X71150D01*
Y44100D01*
D02*
G37*
G36*
X70200D02*
X69850D01*
Y45900D01*
X70200D01*
Y44100D01*
D02*
G37*
G36*
X79150Y40600D02*
X78800D01*
Y42400D01*
X79150D01*
Y40600D01*
D02*
G37*
G36*
X78200D02*
X77850D01*
Y42400D01*
X78200D01*
Y40600D01*
D02*
G37*
G36*
X71150D02*
X70800D01*
Y42400D01*
X71150D01*
Y40600D01*
D02*
G37*
G36*
X70200D02*
X69850D01*
Y42400D01*
X70200D01*
Y40600D01*
D02*
G37*
G36*
X27150Y30100D02*
X25850D01*
X25850Y30450D01*
X27150D01*
X27150Y30100D01*
D02*
G37*
G36*
X27150Y28550D02*
X25850D01*
Y28900D01*
X27150D01*
Y28550D01*
D02*
G37*
G36*
Y25100D02*
X26800D01*
Y26900D01*
X27150D01*
Y25100D01*
D02*
G37*
G36*
X26200D02*
X25850D01*
Y26900D01*
X26200D01*
Y25100D01*
D02*
G37*
G36*
X118650Y37550D02*
X117350D01*
Y37900D01*
X118650D01*
Y37550D01*
D02*
G37*
G36*
X111150Y36100D02*
X110800D01*
Y37900D01*
X111150D01*
Y36100D01*
D02*
G37*
G36*
X110200D02*
X109850D01*
Y37900D01*
X110200D01*
Y36100D01*
D02*
G37*
G36*
X100300Y34700D02*
X97900D01*
Y37100D01*
X100300Y34700D01*
D02*
G37*
G36*
X105450Y28350D02*
X105100D01*
Y29650D01*
X105450D01*
Y28350D01*
D02*
G37*
G36*
X103900Y29650D02*
Y28350D01*
X103550Y28350D01*
Y29650D01*
X103900Y29650D01*
D02*
G37*
G36*
X100950Y28350D02*
X100600D01*
Y29650D01*
X100950D01*
Y28350D01*
D02*
G37*
G36*
X99400Y29650D02*
Y28350D01*
X99050Y28350D01*
Y29650D01*
X99400Y29650D01*
D02*
G37*
G36*
X120400Y14300D02*
X118600D01*
Y14650D01*
X120400D01*
Y14300D01*
D02*
G37*
G36*
Y13350D02*
X118600D01*
Y13700D01*
X120400D01*
Y13350D01*
D02*
G37*
G36*
X124000Y5850D02*
X123650D01*
Y7150D01*
X124000D01*
Y5850D01*
D02*
G37*
G36*
X122450Y7150D02*
Y5850D01*
X122100Y5850D01*
Y7150D01*
X122450Y7150D01*
D02*
G37*
G36*
X120500Y5850D02*
X120150Y5850D01*
Y7150D01*
X120500Y7150D01*
Y5850D01*
D02*
G37*
G36*
X118950D02*
X118600D01*
Y7150D01*
X118950D01*
Y5850D01*
D02*
G37*
G36*
X125650Y7150D02*
Y6800D01*
X127450D01*
Y7150D01*
X125650D01*
D02*
G37*
G36*
X127450Y5850D02*
Y6200D01*
X125650D01*
Y5850D01*
X127450D01*
D02*
G37*
G36*
X129100Y7150D02*
Y5850D01*
X129450Y5850D01*
Y7150D01*
X129100Y7150D01*
D02*
G37*
G36*
X131000Y5850D02*
Y7150D01*
X130650D01*
Y5850D01*
X131000D01*
D02*
G37*
G36*
X132600Y7150D02*
Y5850D01*
X132950D01*
Y7150D01*
X132600D01*
D02*
G37*
G36*
X134500Y5850D02*
Y7150D01*
X134150Y7150D01*
Y5850D01*
X134500Y5850D01*
D02*
G37*
G36*
X136100Y7150D02*
Y5850D01*
X136450Y5850D01*
Y7150D01*
X136100Y7150D01*
D02*
G37*
G36*
X148450Y6800D02*
X146650D01*
Y7150D01*
X148450D01*
Y6800D01*
D02*
G37*
G36*
X144950D02*
X143150D01*
Y7150D01*
X144950D01*
Y6800D01*
D02*
G37*
G36*
X148450Y5850D02*
X146650D01*
Y6200D01*
X148450D01*
Y5850D01*
D02*
G37*
G36*
X144950D02*
X143150D01*
Y6200D01*
X144950D01*
Y5850D01*
D02*
G37*
G36*
X141500D02*
X141150D01*
Y7150D01*
X141500D01*
Y5850D01*
D02*
G37*
G36*
X139950Y7150D02*
Y5850D01*
X139600Y5850D01*
Y7150D01*
X139950Y7150D01*
D02*
G37*
G36*
X138000Y5850D02*
X137650D01*
Y7150D01*
X138000D01*
Y5850D01*
D02*
G37*
G36*
X104500Y76000D02*
X101500D01*
Y77500D01*
X104500D01*
Y76000D01*
D02*
G37*
G36*
Y66500D02*
X101500D01*
Y68000D01*
X104500D01*
Y66500D01*
D02*
G37*
G36*
X120950Y60350D02*
X120600Y60350D01*
Y61650D01*
X120950Y61650D01*
Y60350D01*
D02*
G37*
G36*
X119400D02*
X119050D01*
Y61650D01*
X119400D01*
Y60350D01*
D02*
G37*
G36*
X116950D02*
X116600Y60350D01*
Y61650D01*
X116950Y61650D01*
Y60350D01*
D02*
G37*
G36*
X115400D02*
X115050D01*
Y61650D01*
X115400D01*
Y60350D01*
D02*
G37*
G36*
X106700Y59600D02*
X106200D01*
Y64400D01*
X106700D01*
Y59600D01*
D02*
G37*
G36*
X104800D02*
X104300D01*
Y64400D01*
X104800D01*
Y59600D01*
D02*
G37*
G36*
X96900Y57800D02*
X95100D01*
Y58150D01*
X96900D01*
Y57800D01*
D02*
G37*
G36*
Y56850D02*
X95100D01*
Y57200D01*
X96900D01*
Y56850D01*
D02*
G37*
G36*
X106500Y53450D02*
X105900D01*
Y54650D01*
X104500D01*
Y55350D01*
X105900D01*
Y56550D01*
X106500D01*
Y53450D01*
D02*
G37*
G36*
X120950Y51850D02*
X120600Y51850D01*
Y53150D01*
X120950Y53150D01*
Y51850D01*
D02*
G37*
G36*
X119400D02*
X119050D01*
Y53150D01*
X119400D01*
Y51850D01*
D02*
G37*
G36*
X116950D02*
X116600Y51850D01*
Y53150D01*
X116950Y53150D01*
Y51850D01*
D02*
G37*
G36*
X115400D02*
X115050D01*
Y53150D01*
X115400D01*
Y51850D01*
D02*
G37*
G36*
X96900Y50300D02*
X95100D01*
Y50650D01*
X96900D01*
Y50300D01*
D02*
G37*
G36*
Y49350D02*
X95100D01*
Y49700D01*
X96900D01*
Y49350D01*
D02*
G37*
G36*
X106500Y47450D02*
X105900D01*
Y48650D01*
X104500D01*
Y49350D01*
X105900D01*
Y50550D01*
X106500D01*
Y47450D01*
D02*
G37*
G36*
X120950Y43350D02*
X120600D01*
Y44650D01*
X120950D01*
Y43350D01*
D02*
G37*
G36*
X119400Y44650D02*
Y43350D01*
X119050Y43350D01*
Y44650D01*
X119400Y44650D01*
D02*
G37*
G36*
X116950Y43350D02*
X116600D01*
Y44650D01*
X116950D01*
Y43350D01*
D02*
G37*
G36*
X115400Y44650D02*
Y43350D01*
X115050Y43350D01*
Y44650D01*
X115400Y44650D01*
D02*
G37*
G36*
X111150Y43100D02*
X110800D01*
Y44900D01*
X111150D01*
Y43100D01*
D02*
G37*
G36*
X110200D02*
X109850D01*
Y44900D01*
X110200D01*
Y43100D01*
D02*
G37*
G36*
X111150Y39600D02*
X110800D01*
Y41400D01*
X111150D01*
Y39600D01*
D02*
G37*
G36*
X110200D02*
X109850D01*
Y41400D01*
X110200D01*
Y39600D01*
D02*
G37*
G36*
X118650Y39100D02*
X117350D01*
X117350Y39450D01*
X118650D01*
X118650Y39100D01*
D02*
G37*
G36*
X121779Y99454D02*
Y98996D01*
X120420Y98206D01*
Y98742D01*
X121331Y99223D01*
X120420Y99708D01*
Y100239D01*
X121779Y99454D01*
D02*
G37*
G36*
X121423Y94589D02*
X120328D01*
X120370Y94556D01*
X120407Y94524D01*
X120434Y94487D01*
X120462Y94446D01*
X120504Y94362D01*
X120531Y94279D01*
X120545Y94205D01*
X120554Y94173D01*
Y94141D01*
X120559Y94117D01*
Y94085D01*
X120554Y93988D01*
X120536Y93896D01*
X120513Y93817D01*
X120485Y93743D01*
X120453Y93688D01*
X120430Y93646D01*
X120411Y93619D01*
X120407Y93614D01*
Y93609D01*
X120346Y93540D01*
X120277Y93475D01*
X120208Y93420D01*
X120143Y93378D01*
X120083Y93346D01*
X120032Y93318D01*
X120018Y93309D01*
X120005Y93304D01*
X119995Y93300D01*
X119991D01*
X119889Y93263D01*
X119788Y93240D01*
X119686Y93221D01*
X119593Y93207D01*
X119510Y93198D01*
X119478D01*
X119446Y93194D01*
X119422D01*
X119404D01*
X119395D01*
X119390D01*
X119293Y93198D01*
X119196Y93203D01*
X119113Y93212D01*
X119030Y93226D01*
X118951Y93244D01*
X118882Y93263D01*
X118817Y93281D01*
X118762Y93300D01*
X118706Y93318D01*
X118665Y93337D01*
X118623Y93355D01*
X118591Y93374D01*
X118568Y93388D01*
X118549Y93397D01*
X118540Y93406D01*
X118535D01*
X118480Y93448D01*
X118434Y93494D01*
X118392Y93545D01*
X118355Y93595D01*
X118323Y93651D01*
X118300Y93702D01*
X118263Y93808D01*
X118240Y93900D01*
X118230Y93942D01*
X118226Y93979D01*
X118221Y94007D01*
Y94048D01*
X118226Y94117D01*
X118235Y94187D01*
X118249Y94247D01*
X118263Y94298D01*
X118277Y94344D01*
X118291Y94376D01*
X118300Y94395D01*
X118305Y94404D01*
X118337Y94459D01*
X118374Y94510D01*
X118415Y94547D01*
X118452Y94575D01*
X118485Y94598D01*
X118512Y94612D01*
X118531Y94616D01*
X118535Y94621D01*
X118272Y94644D01*
Y95129D01*
X121363D01*
X121423Y94589D01*
D02*
G37*
G36*
X119538Y92722D02*
X119626Y92718D01*
X119709Y92704D01*
X119788Y92685D01*
X119861Y92667D01*
X119926Y92644D01*
X119991Y92621D01*
X120046Y92598D01*
X120092Y92570D01*
X120139Y92547D01*
X120176Y92524D01*
X120203Y92505D01*
X120226Y92487D01*
X120245Y92473D01*
X120254Y92468D01*
X120259Y92463D01*
X120309Y92413D01*
X120356Y92357D01*
X120397Y92302D01*
X120434Y92246D01*
X120462Y92186D01*
X120485Y92126D01*
X120522Y92015D01*
X120536Y91960D01*
X120545Y91914D01*
X120550Y91868D01*
X120554Y91831D01*
X120559Y91798D01*
Y91757D01*
X120554Y91641D01*
X120536Y91540D01*
X120513Y91443D01*
X120485Y91364D01*
X120453Y91299D01*
X120430Y91249D01*
X120420Y91230D01*
X120411Y91216D01*
X120407Y91211D01*
Y91207D01*
X120346Y91124D01*
X120277Y91054D01*
X120208Y90994D01*
X120139Y90943D01*
X120079Y90902D01*
X120032Y90874D01*
X120014Y90865D01*
X120000Y90856D01*
X119991Y90851D01*
X119986D01*
X119885Y90810D01*
X119778Y90782D01*
X119681Y90759D01*
X119589Y90745D01*
X119510Y90736D01*
X119473D01*
X119446Y90731D01*
X119422D01*
X119404D01*
X119395D01*
X119390D01*
X119293Y90736D01*
X119201Y90745D01*
X119113Y90759D01*
X119034Y90777D01*
X118956Y90796D01*
X118887Y90819D01*
X118822Y90847D01*
X118766Y90874D01*
X118716Y90897D01*
X118669Y90925D01*
X118632Y90948D01*
X118600Y90971D01*
X118572Y90985D01*
X118554Y90999D01*
X118545Y91008D01*
X118540Y91013D01*
X118485Y91068D01*
X118434Y91128D01*
X118392Y91193D01*
X118355Y91258D01*
X118323Y91327D01*
X118300Y91392D01*
X118277Y91456D01*
X118263Y91521D01*
X118249Y91581D01*
X118240Y91637D01*
X118230Y91683D01*
X118226Y91729D01*
X118221Y91761D01*
Y91812D01*
X118226Y91895D01*
X118230Y91978D01*
X118244Y92052D01*
X118258Y92117D01*
X118268Y92172D01*
X118281Y92214D01*
X118286Y92242D01*
X118291Y92251D01*
X118318Y92330D01*
X118355Y92399D01*
X118392Y92468D01*
X118429Y92524D01*
X118462Y92570D01*
X118489Y92607D01*
X118508Y92625D01*
X118512Y92634D01*
X118840Y92408D01*
X118803Y92348D01*
X118776Y92288D01*
X118748Y92237D01*
X118729Y92196D01*
X118711Y92159D01*
X118702Y92131D01*
X118697Y92112D01*
X118693Y92108D01*
X118669Y92011D01*
X118660Y91965D01*
X118656Y91923D01*
Y91886D01*
X118651Y91854D01*
Y91831D01*
X118656Y91747D01*
X118674Y91678D01*
X118697Y91613D01*
X118725Y91558D01*
X118748Y91512D01*
X118771Y91479D01*
X118790Y91461D01*
X118794Y91452D01*
X118854Y91401D01*
X118919Y91364D01*
X118988Y91336D01*
X119053Y91313D01*
X119113Y91299D01*
X119159Y91290D01*
X119178D01*
X119192Y91285D01*
X119196D01*
X119201D01*
Y92708D01*
X119289Y92718D01*
X119330Y92722D01*
X119367Y92727D01*
X119399D01*
X119422D01*
X119441D01*
X119446D01*
X119538Y92722D01*
D02*
G37*
G36*
X119238Y90288D02*
X119339Y90264D01*
X119427Y90237D01*
X119496Y90200D01*
X119552Y90163D01*
X119589Y90135D01*
X119612Y90112D01*
X119621Y90103D01*
X119677Y90029D01*
X119723Y89950D01*
X119755Y89876D01*
X119778Y89802D01*
X119792Y89742D01*
X119801Y89692D01*
X119806Y89673D01*
Y89650D01*
X119815Y89724D01*
X119838Y89793D01*
X119866Y89858D01*
X119898Y89909D01*
X119931Y89955D01*
X119954Y89987D01*
X119972Y90006D01*
X119982Y90015D01*
X120051Y90066D01*
X120120Y90107D01*
X120194Y90135D01*
X120259Y90153D01*
X120319Y90163D01*
X120370Y90172D01*
X120388D01*
X120402D01*
X120407D01*
X120411D01*
X120485Y90167D01*
X120550Y90158D01*
X120615Y90144D01*
X120670Y90126D01*
X120725Y90103D01*
X120772Y90075D01*
X120813Y90047D01*
X120850Y90020D01*
X120882Y89992D01*
X120910Y89964D01*
X120956Y89913D01*
X120970Y89895D01*
X120979Y89881D01*
X120989Y89872D01*
Y89867D01*
X121049Y89747D01*
X121090Y89618D01*
X121123Y89493D01*
X121141Y89373D01*
X121150Y89317D01*
X121155Y89267D01*
X121160Y89220D01*
Y89183D01*
X121164Y89151D01*
Y88292D01*
X118272D01*
Y89156D01*
X118281Y89331D01*
X118291Y89414D01*
X118305Y89488D01*
X118318Y89562D01*
X118332Y89627D01*
X118351Y89692D01*
X118369Y89747D01*
X118388Y89798D01*
X118406Y89839D01*
X118420Y89881D01*
X118434Y89909D01*
X118448Y89936D01*
X118457Y89955D01*
X118466Y89964D01*
Y89969D01*
X118508Y90029D01*
X118549Y90075D01*
X118600Y90121D01*
X118651Y90158D01*
X118706Y90191D01*
X118762Y90218D01*
X118817Y90237D01*
X118868Y90255D01*
X118965Y90278D01*
X119011Y90288D01*
X119048Y90292D01*
X119081Y90297D01*
X119104D01*
X119118D01*
X119122D01*
X119238Y90288D01*
D02*
G37*
G36*
X118771Y87520D02*
X118734Y87442D01*
X118706Y87368D01*
X118688Y87294D01*
X118674Y87234D01*
X118665Y87178D01*
X118660Y87141D01*
Y87104D01*
X118665Y87040D01*
X118674Y86989D01*
X118683Y86943D01*
X118697Y86906D01*
X118711Y86878D01*
X118725Y86860D01*
X118729Y86850D01*
X118734Y86846D01*
X118766Y86818D01*
X118803Y86799D01*
X118840Y86786D01*
X118882Y86776D01*
X118914Y86772D01*
X118942Y86767D01*
X118960D01*
X118970D01*
X120088D01*
Y87442D01*
X120504Y87497D01*
Y86767D01*
X121039D01*
X120979Y86231D01*
X120504D01*
Y85751D01*
X120088D01*
Y86231D01*
X118965D01*
X118900Y86236D01*
X118840Y86240D01*
X118734Y86264D01*
X118642Y86296D01*
X118563Y86337D01*
X118503Y86374D01*
X118457Y86407D01*
X118429Y86430D01*
X118425Y86439D01*
X118420D01*
X118383Y86481D01*
X118355Y86527D01*
X118305Y86624D01*
X118272Y86721D01*
X118244Y86818D01*
X118230Y86906D01*
X118226Y86943D01*
Y86975D01*
X118221Y87003D01*
Y87109D01*
X118230Y87174D01*
X118235Y87234D01*
X118244Y87284D01*
X118254Y87331D01*
X118258Y87363D01*
X118268Y87382D01*
Y87391D01*
X118286Y87455D01*
X118309Y87511D01*
X118332Y87566D01*
X118355Y87612D01*
X118378Y87650D01*
X118392Y87682D01*
X118406Y87700D01*
X118411Y87705D01*
X118771Y87520D01*
D02*
G37*
G36*
X119492Y85238D02*
X119584Y85233D01*
X119672Y85219D01*
X119750Y85201D01*
X119824Y85182D01*
X119894Y85159D01*
X119958Y85136D01*
X120018Y85113D01*
X120069Y85085D01*
X120111Y85062D01*
X120152Y85039D01*
X120185Y85021D01*
X120208Y85002D01*
X120226Y84988D01*
X120236Y84984D01*
X120240Y84979D01*
X120296Y84928D01*
X120346Y84873D01*
X120388Y84813D01*
X120425Y84753D01*
X120457Y84688D01*
X120481Y84628D01*
X120504Y84563D01*
X120517Y84508D01*
X120531Y84452D01*
X120540Y84397D01*
X120550Y84351D01*
X120554Y84309D01*
X120559Y84277D01*
Y84231D01*
X120554Y84143D01*
X120545Y84060D01*
X120531Y83981D01*
X120508Y83912D01*
X120485Y83843D01*
X120457Y83783D01*
X120430Y83727D01*
X120397Y83676D01*
X120370Y83630D01*
X120337Y83588D01*
X120309Y83556D01*
X120286Y83528D01*
X120263Y83505D01*
X120249Y83491D01*
X120240Y83482D01*
X120236Y83478D01*
X120176Y83431D01*
X120106Y83390D01*
X120042Y83353D01*
X119968Y83325D01*
X119898Y83297D01*
X119829Y83274D01*
X119695Y83242D01*
X119630Y83233D01*
X119575Y83223D01*
X119524Y83219D01*
X119478Y83214D01*
X119441Y83210D01*
X119413D01*
X119395D01*
X119390D01*
X119289Y83214D01*
X119196Y83219D01*
X119108Y83233D01*
X119025Y83251D01*
X118947Y83270D01*
X118877Y83293D01*
X118813Y83316D01*
X118753Y83344D01*
X118702Y83367D01*
X118660Y83390D01*
X118619Y83413D01*
X118586Y83431D01*
X118563Y83450D01*
X118545Y83464D01*
X118535Y83468D01*
X118531Y83473D01*
X118475Y83524D01*
X118429Y83584D01*
X118388Y83644D01*
X118351Y83704D01*
X118323Y83769D01*
X118295Y83829D01*
X118258Y83949D01*
X118249Y84004D01*
X118240Y84060D01*
X118230Y84106D01*
X118226Y84148D01*
X118221Y84180D01*
Y84226D01*
X118226Y84314D01*
X118235Y84397D01*
X118249Y84475D01*
X118272Y84545D01*
X118295Y84614D01*
X118323Y84674D01*
X118351Y84730D01*
X118378Y84781D01*
X118406Y84827D01*
X118438Y84864D01*
X118462Y84896D01*
X118485Y84924D01*
X118508Y84947D01*
X118522Y84961D01*
X118531Y84970D01*
X118535Y84974D01*
X118596Y85021D01*
X118665Y85062D01*
X118734Y85099D01*
X118803Y85132D01*
X118877Y85155D01*
X118947Y85178D01*
X119085Y85210D01*
X119150Y85219D01*
X119205Y85229D01*
X119261Y85233D01*
X119307Y85238D01*
X119344Y85242D01*
X119372D01*
X119390D01*
X119395D01*
X119492Y85238D01*
D02*
G37*
G36*
X121164Y82147D02*
X120018D01*
Y81311D01*
X121164D01*
Y80752D01*
X118272D01*
Y81311D01*
X119552D01*
Y82147D01*
X118272D01*
Y82706D01*
X121164D01*
Y82147D01*
D02*
G37*
G36*
X26125Y97704D02*
Y97246D01*
X24767Y96456D01*
Y96992D01*
X25677Y97473D01*
X24767Y97958D01*
Y98489D01*
X26125Y97704D01*
D02*
G37*
G36*
X25511Y92950D02*
X24194D01*
X24074D01*
X23963Y92954D01*
X23866D01*
X23778Y92959D01*
X23709Y92964D01*
X23681D01*
X23658D01*
X23635Y92968D01*
X23621D01*
X23617D01*
X23612D01*
X23519Y92978D01*
X23432Y92982D01*
X23349Y92992D01*
X23275Y93001D01*
X23210Y93005D01*
X23159Y93010D01*
X23141D01*
X23127Y93015D01*
X23122D01*
X23118D01*
X25511Y92188D01*
Y91499D01*
X22619D01*
Y92003D01*
X23935D01*
X24111Y91998D01*
X24291Y91993D01*
X24471Y91984D01*
X24559Y91975D01*
X24642Y91970D01*
X24716Y91966D01*
X24790Y91957D01*
X24850Y91952D01*
X24905Y91947D01*
X24952Y91943D01*
X24984D01*
X25003Y91938D01*
X25012D01*
X22619Y92765D01*
Y93454D01*
X25511D01*
Y92950D01*
D02*
G37*
G36*
Y89088D02*
X25072D01*
Y89697D01*
X23057D01*
Y89088D01*
X22619D01*
Y90866D01*
X23057D01*
Y90256D01*
X25072D01*
Y90866D01*
X25511D01*
Y89088D01*
D02*
G37*
G36*
X22328Y86417D02*
X21875D01*
Y88538D01*
X22328D01*
Y86417D01*
D02*
G37*
G36*
X23270Y85881D02*
X23228Y85821D01*
X23187Y85761D01*
X23159Y85710D01*
X23131Y85664D01*
X23113Y85623D01*
X23095Y85595D01*
X23090Y85576D01*
X23085Y85572D01*
X23067Y85516D01*
X23053Y85461D01*
X23039Y85405D01*
X23034Y85355D01*
X23030Y85308D01*
X23025Y85271D01*
Y85239D01*
X23030Y85179D01*
X23034Y85119D01*
X23062Y85017D01*
X23104Y84925D01*
X23150Y84846D01*
X23196Y84786D01*
X23238Y84740D01*
X23265Y84712D01*
X23270Y84708D01*
X23275Y84703D01*
X23325Y84666D01*
X23381Y84639D01*
X23506Y84588D01*
X23635Y84551D01*
X23764Y84528D01*
X23829Y84518D01*
X23885Y84509D01*
X23935Y84504D01*
X23981D01*
X24018Y84500D01*
X24046D01*
X24065D01*
X24069D01*
X24171Y84504D01*
X24263Y84509D01*
X24347Y84518D01*
X24425Y84532D01*
X24499Y84546D01*
X24564Y84565D01*
X24624Y84583D01*
X24675Y84601D01*
X24721Y84620D01*
X24762Y84639D01*
X24795Y84657D01*
X24822Y84671D01*
X24841Y84685D01*
X24855Y84694D01*
X24864Y84703D01*
X24869D01*
X24915Y84745D01*
X24952Y84786D01*
X24984Y84828D01*
X25012Y84874D01*
X25058Y84962D01*
X25086Y85045D01*
X25104Y85124D01*
X25109Y85151D01*
X25113Y85179D01*
X25118Y85202D01*
Y85290D01*
X25109Y85350D01*
X25086Y85456D01*
X25053Y85558D01*
X25016Y85646D01*
X24975Y85720D01*
X24956Y85747D01*
X24942Y85775D01*
X24929Y85794D01*
X24919Y85807D01*
X24915Y85817D01*
X24910Y85821D01*
X25247Y86103D01*
X25308Y86029D01*
X25358Y85955D01*
X25405Y85891D01*
X25437Y85826D01*
X25460Y85775D01*
X25478Y85738D01*
X25488Y85710D01*
X25492Y85706D01*
Y85701D01*
X25515Y85623D01*
X25534Y85539D01*
X25548Y85456D01*
X25557Y85382D01*
X25561Y85318D01*
X25566Y85262D01*
Y85216D01*
X25557Y85087D01*
X25539Y84962D01*
X25511Y84851D01*
X25478Y84754D01*
X25460Y84712D01*
X25441Y84671D01*
X25428Y84639D01*
X25414Y84611D01*
X25405Y84588D01*
X25395Y84574D01*
X25386Y84565D01*
Y84560D01*
X25312Y84454D01*
X25234Y84361D01*
X25146Y84283D01*
X25063Y84218D01*
X24989Y84163D01*
X24956Y84144D01*
X24929Y84126D01*
X24905Y84112D01*
X24887Y84103D01*
X24878Y84093D01*
X24873D01*
X24744Y84038D01*
X24605Y83996D01*
X24471Y83964D01*
X24347Y83946D01*
X24286Y83936D01*
X24236Y83932D01*
X24189Y83927D01*
X24148D01*
X24115Y83922D01*
X24092D01*
X24074D01*
X24069D01*
X23898Y83932D01*
X23741Y83950D01*
X23667Y83959D01*
X23603Y83973D01*
X23538Y83992D01*
X23483Y84006D01*
X23432Y84019D01*
X23385Y84038D01*
X23344Y84052D01*
X23312Y84061D01*
X23289Y84075D01*
X23265Y84079D01*
X23256Y84089D01*
X23252D01*
X23131Y84158D01*
X23030Y84232D01*
X22942Y84306D01*
X22868Y84384D01*
X22813Y84449D01*
X22771Y84500D01*
X22757Y84523D01*
X22748Y84537D01*
X22739Y84546D01*
Y84551D01*
X22683Y84666D01*
X22642Y84782D01*
X22609Y84893D01*
X22591Y84999D01*
X22582Y85045D01*
X22577Y85087D01*
X22572Y85124D01*
Y85156D01*
X22568Y85184D01*
Y85221D01*
X22572Y85322D01*
X22582Y85419D01*
X22600Y85512D01*
X22623Y85599D01*
X22651Y85683D01*
X22683Y85756D01*
X22716Y85830D01*
X22753Y85891D01*
X22785Y85951D01*
X22817Y86001D01*
X22850Y86043D01*
X22877Y86080D01*
X22900Y86108D01*
X22919Y86126D01*
X22928Y86140D01*
X22933Y86145D01*
X23270Y85881D01*
D02*
G37*
G36*
X24231Y83580D02*
X24365Y83567D01*
X24490Y83548D01*
X24601Y83525D01*
X24702Y83497D01*
X24795Y83460D01*
X24878Y83428D01*
X24947Y83391D01*
X25007Y83354D01*
X25063Y83322D01*
X25104Y83289D01*
X25141Y83257D01*
X25169Y83234D01*
X25187Y83215D01*
X25197Y83202D01*
X25201Y83197D01*
X25257Y83123D01*
X25303Y83045D01*
X25344Y82961D01*
X25381Y82878D01*
X25409Y82795D01*
X25437Y82712D01*
X25474Y82550D01*
X25483Y82476D01*
X25492Y82407D01*
X25501Y82347D01*
X25506Y82292D01*
X25511Y82250D01*
Y81502D01*
X22619D01*
Y82231D01*
X22623Y82338D01*
X22633Y82439D01*
X22646Y82536D01*
X22669Y82629D01*
X22693Y82712D01*
X22720Y82795D01*
X22748Y82864D01*
X22780Y82934D01*
X22808Y82994D01*
X22836Y83045D01*
X22863Y83091D01*
X22887Y83128D01*
X22910Y83160D01*
X22923Y83179D01*
X22933Y83192D01*
X22937Y83197D01*
X23002Y83266D01*
X23081Y83326D01*
X23164Y83377D01*
X23252Y83423D01*
X23349Y83460D01*
X23441Y83493D01*
X23538Y83516D01*
X23630Y83539D01*
X23723Y83553D01*
X23806Y83567D01*
X23885Y83571D01*
X23949Y83580D01*
X24005D01*
X24046Y83585D01*
X24074D01*
X24083D01*
X24231Y83580D01*
D02*
G37*
G36*
X73779Y99039D02*
Y98582D01*
X72420Y97792D01*
Y98328D01*
X73331Y98808D01*
X72420Y99293D01*
Y99825D01*
X73779Y99039D01*
D02*
G37*
G36*
X71995Y94710D02*
X72092Y94692D01*
X72180Y94669D01*
X72250Y94636D01*
X72305Y94604D01*
X72347Y94581D01*
X72370Y94562D01*
X72379Y94553D01*
X72439Y94488D01*
X72485Y94410D01*
X72517Y94331D01*
X72536Y94253D01*
X72550Y94183D01*
X72554Y94156D01*
Y94128D01*
X72559Y94109D01*
Y94077D01*
X72554Y94003D01*
X72545Y93929D01*
X72531Y93865D01*
X72517Y93809D01*
X72499Y93758D01*
X72485Y93721D01*
X72476Y93698D01*
X72471Y93689D01*
X72439Y93629D01*
X72402Y93574D01*
X72360Y93532D01*
X72323Y93500D01*
X72291Y93477D01*
X72263Y93463D01*
X72245Y93454D01*
X72240Y93449D01*
X73418D01*
X73358Y92908D01*
X70272D01*
Y93449D01*
X71843D01*
X71921Y93518D01*
X71958Y93550D01*
X71986Y93583D01*
X72009Y93615D01*
X72028Y93638D01*
X72037Y93652D01*
X72042Y93657D01*
X72069Y93703D01*
X72092Y93749D01*
X72106Y93791D01*
X72120Y93832D01*
X72125Y93865D01*
X72129Y93888D01*
Y93911D01*
X72125Y93962D01*
X72120Y94003D01*
X72106Y94040D01*
X72092Y94068D01*
X72079Y94086D01*
X72069Y94105D01*
X72060Y94109D01*
X72055Y94114D01*
X72023Y94137D01*
X71986Y94151D01*
X71908Y94170D01*
X71871Y94174D01*
X71838Y94179D01*
X71820D01*
X71811D01*
X70272D01*
Y94719D01*
X71880D01*
X71995Y94710D01*
D02*
G37*
G36*
X72319Y92206D02*
X72365Y92137D01*
X72402Y92072D01*
X72434Y92003D01*
X72467Y91938D01*
X72490Y91869D01*
X72522Y91749D01*
X72536Y91693D01*
X72545Y91642D01*
X72550Y91596D01*
X72554Y91555D01*
X72559Y91522D01*
Y91481D01*
X72554Y91361D01*
X72536Y91245D01*
X72508Y91148D01*
X72480Y91060D01*
X72453Y90991D01*
X72439Y90963D01*
X72425Y90940D01*
X72416Y90917D01*
X72407Y90903D01*
X72402Y90899D01*
Y90894D01*
X72342Y90806D01*
X72273Y90728D01*
X72203Y90663D01*
X72134Y90612D01*
X72074Y90571D01*
X72028Y90538D01*
X72009Y90529D01*
X71995Y90520D01*
X71986Y90515D01*
X71982D01*
X71880Y90474D01*
X71774Y90441D01*
X71672Y90418D01*
X71580Y90404D01*
X71496Y90395D01*
X71464Y90390D01*
X71432Y90386D01*
X71409D01*
X71390D01*
X71381D01*
X71376D01*
X71279Y90390D01*
X71187Y90400D01*
X71104Y90413D01*
X71025Y90432D01*
X70947Y90451D01*
X70877Y90478D01*
X70817Y90501D01*
X70757Y90529D01*
X70706Y90557D01*
X70665Y90580D01*
X70623Y90608D01*
X70591Y90626D01*
X70568Y90645D01*
X70549Y90658D01*
X70540Y90668D01*
X70535Y90672D01*
X70480Y90728D01*
X70434Y90792D01*
X70392Y90852D01*
X70355Y90922D01*
X70323Y90986D01*
X70300Y91056D01*
X70263Y91185D01*
X70249Y91245D01*
X70240Y91300D01*
X70231Y91347D01*
X70226Y91393D01*
X70221Y91425D01*
Y91476D01*
X70226Y91555D01*
X70231Y91633D01*
X70244Y91707D01*
X70258Y91772D01*
X70267Y91823D01*
X70281Y91864D01*
X70286Y91892D01*
X70291Y91901D01*
X70323Y91975D01*
X70355Y92049D01*
X70397Y92109D01*
X70434Y92164D01*
X70466Y92211D01*
X70494Y92243D01*
X70512Y92261D01*
X70517Y92271D01*
X70859Y92031D01*
X70794Y91924D01*
X70748Y91823D01*
X70716Y91730D01*
X70692Y91652D01*
X70679Y91582D01*
X70674Y91532D01*
X70669Y91513D01*
Y91490D01*
X70679Y91402D01*
X70697Y91324D01*
X70720Y91254D01*
X70753Y91199D01*
X70785Y91157D01*
X70808Y91125D01*
X70827Y91102D01*
X70836Y91097D01*
X70868Y91074D01*
X70905Y91051D01*
X70993Y91014D01*
X71081Y90991D01*
X71168Y90973D01*
X71252Y90963D01*
X71284Y90959D01*
X71316D01*
X71339Y90954D01*
X71358D01*
X71372D01*
X71376D01*
X71446D01*
X71510Y90959D01*
X71626Y90977D01*
X71718Y91000D01*
X71797Y91028D01*
X71857Y91051D01*
X71903Y91074D01*
X71926Y91093D01*
X71935Y91097D01*
X71995Y91157D01*
X72042Y91217D01*
X72074Y91287D01*
X72092Y91347D01*
X72106Y91402D01*
X72111Y91448D01*
X72115Y91467D01*
Y91490D01*
X72106Y91587D01*
X72088Y91679D01*
X72060Y91772D01*
X72028Y91855D01*
X71991Y91924D01*
X71977Y91952D01*
X71963Y91980D01*
X71954Y91998D01*
X71945Y92012D01*
X71935Y92021D01*
Y92026D01*
X72268Y92271D01*
X72319Y92206D01*
D02*
G37*
G36*
X70771Y89605D02*
X70734Y89526D01*
X70706Y89452D01*
X70688Y89379D01*
X70674Y89319D01*
X70665Y89263D01*
X70660Y89226D01*
Y89189D01*
X70665Y89125D01*
X70674Y89074D01*
X70683Y89028D01*
X70697Y88990D01*
X70711Y88963D01*
X70725Y88944D01*
X70730Y88935D01*
X70734Y88930D01*
X70767Y88903D01*
X70803Y88884D01*
X70840Y88870D01*
X70882Y88861D01*
X70914Y88857D01*
X70942Y88852D01*
X70960D01*
X70970D01*
X72088D01*
Y89526D01*
X72504Y89582D01*
Y88852D01*
X73040D01*
X72979Y88316D01*
X72504D01*
Y87836D01*
X72088D01*
Y88316D01*
X70965D01*
X70900Y88321D01*
X70840Y88325D01*
X70734Y88348D01*
X70642Y88381D01*
X70563Y88422D01*
X70503Y88459D01*
X70457Y88492D01*
X70429Y88515D01*
X70425Y88524D01*
X70420D01*
X70383Y88565D01*
X70355Y88612D01*
X70305Y88709D01*
X70272Y88806D01*
X70244Y88903D01*
X70231Y88990D01*
X70226Y89028D01*
Y89060D01*
X70221Y89088D01*
Y89194D01*
X70231Y89258D01*
X70235Y89319D01*
X70244Y89369D01*
X70254Y89416D01*
X70258Y89448D01*
X70267Y89466D01*
Y89476D01*
X70286Y89540D01*
X70309Y89596D01*
X70332Y89651D01*
X70355Y89697D01*
X70378Y89734D01*
X70392Y89767D01*
X70406Y89785D01*
X70411Y89790D01*
X70771Y89605D01*
D02*
G37*
G36*
X73280Y86648D02*
X73326Y86639D01*
X73363Y86620D01*
X73395Y86607D01*
X73423Y86588D01*
X73441Y86570D01*
X73455Y86560D01*
X73460Y86556D01*
X73492Y86519D01*
X73515Y86477D01*
X73534Y86436D01*
X73543Y86399D01*
X73552Y86366D01*
X73557Y86339D01*
Y86311D01*
X73552Y86260D01*
X73543Y86209D01*
X73529Y86168D01*
X73511Y86135D01*
X73492Y86103D01*
X73478Y86085D01*
X73469Y86071D01*
X73465Y86066D01*
X73428Y86034D01*
X73391Y86011D01*
X73349Y85997D01*
X73317Y85988D01*
X73284Y85978D01*
X73257Y85974D01*
X73238D01*
X73233D01*
X73183Y85978D01*
X73137Y85988D01*
X73095Y86001D01*
X73063Y86020D01*
X73035Y86038D01*
X73016Y86052D01*
X73002Y86062D01*
X72998Y86066D01*
X72966Y86103D01*
X72943Y86145D01*
X72929Y86186D01*
X72919Y86223D01*
X72910Y86260D01*
X72905Y86288D01*
Y86311D01*
X72910Y86362D01*
X72919Y86413D01*
X72933Y86454D01*
X72952Y86491D01*
X72970Y86519D01*
X72984Y86537D01*
X72993Y86551D01*
X72998Y86556D01*
X73035Y86588D01*
X73076Y86611D01*
X73113Y86630D01*
X73150Y86639D01*
X73183Y86648D01*
X73210Y86653D01*
X73229D01*
X73233D01*
X73280Y86648D01*
D02*
G37*
G36*
X70683Y86667D02*
X72504D01*
Y85507D01*
X72088D01*
Y86131D01*
X70683D01*
Y85489D01*
X70272D01*
Y87258D01*
X70683D01*
Y86667D01*
D02*
G37*
G36*
X72504Y84528D02*
X70637Y84334D01*
X72231Y84098D01*
Y83571D01*
X70637Y83313D01*
X72504Y83114D01*
Y82596D01*
X70272Y82966D01*
Y83594D01*
X71801Y83821D01*
X70272Y84029D01*
Y84671D01*
X72504Y85031D01*
Y84528D01*
D02*
G37*
G36*
X71178Y82366D02*
X71242Y82361D01*
X71358Y82333D01*
X71460Y82301D01*
X71538Y82259D01*
X71603Y82218D01*
X71649Y82181D01*
X71677Y82153D01*
X71686Y82148D01*
Y82144D01*
X71760Y82051D01*
X71824Y81950D01*
X71880Y81843D01*
X71926Y81742D01*
X71963Y81649D01*
X71977Y81608D01*
X71991Y81576D01*
X72000Y81548D01*
X72009Y81525D01*
X72014Y81511D01*
Y81506D01*
X72042Y81418D01*
X72069Y81340D01*
X72092Y81270D01*
X72111Y81215D01*
X72129Y81173D01*
X72143Y81141D01*
X72148Y81123D01*
X72153Y81118D01*
X72176Y81072D01*
X72199Y81030D01*
X72222Y80998D01*
X72240Y80975D01*
X72259Y80952D01*
X72268Y80938D01*
X72277Y80933D01*
X72282Y80929D01*
X72309Y80910D01*
X72337Y80901D01*
X72393Y80882D01*
X72416D01*
X72434Y80878D01*
X72443D01*
X72448D01*
X72504Y80882D01*
X72550Y80896D01*
X72591Y80919D01*
X72624Y80942D01*
X72651Y80961D01*
X72670Y80984D01*
X72679Y80998D01*
X72684Y81003D01*
X72711Y81053D01*
X72735Y81109D01*
X72748Y81169D01*
X72762Y81224D01*
X72767Y81270D01*
X72772Y81308D01*
Y81344D01*
X72767Y81414D01*
X72762Y81478D01*
X72735Y81603D01*
X72693Y81714D01*
X72647Y81816D01*
X72624Y81857D01*
X72601Y81899D01*
X72582Y81931D01*
X72559Y81959D01*
X72545Y81982D01*
X72531Y82000D01*
X72527Y82010D01*
X72522Y82014D01*
X72846Y82301D01*
X72910Y82222D01*
X72970Y82144D01*
X73021Y82061D01*
X73063Y81977D01*
X73100Y81899D01*
X73127Y81816D01*
X73155Y81737D01*
X73173Y81659D01*
X73187Y81589D01*
X73201Y81525D01*
X73210Y81465D01*
X73215Y81414D01*
Y81372D01*
X73220Y81344D01*
Y81317D01*
X73215Y81211D01*
X73206Y81113D01*
X73187Y81026D01*
X73169Y80952D01*
X73150Y80887D01*
X73132Y80841D01*
X73127Y80822D01*
X73123Y80809D01*
X73118Y80804D01*
Y80799D01*
X73076Y80721D01*
X73035Y80647D01*
X72989Y80587D01*
X72943Y80536D01*
X72901Y80494D01*
X72869Y80462D01*
X72846Y80444D01*
X72836Y80439D01*
X72767Y80397D01*
X72698Y80365D01*
X72624Y80342D01*
X72559Y80328D01*
X72504Y80319D01*
X72462Y80310D01*
X72443D01*
X72430D01*
X72425D01*
X72420D01*
X72360Y80314D01*
X72300Y80319D01*
X72199Y80347D01*
X72106Y80383D01*
X72028Y80425D01*
X71968Y80467D01*
X71921Y80504D01*
X71894Y80531D01*
X71889Y80536D01*
X71885Y80541D01*
X71847Y80587D01*
X71815Y80638D01*
X71746Y80748D01*
X71690Y80864D01*
X71640Y80980D01*
X71617Y81035D01*
X71598Y81086D01*
X71584Y81132D01*
X71570Y81169D01*
X71557Y81201D01*
X71547Y81229D01*
X71543Y81243D01*
Y81247D01*
X71520Y81326D01*
X71496Y81395D01*
X71473Y81455D01*
X71455Y81502D01*
X71436Y81543D01*
X71422Y81566D01*
X71418Y81585D01*
X71413Y81589D01*
X71390Y81631D01*
X71362Y81663D01*
X71339Y81691D01*
X71316Y81709D01*
X71298Y81728D01*
X71284Y81737D01*
X71275Y81746D01*
X71270D01*
X71210Y81774D01*
X71150Y81788D01*
X71122Y81793D01*
X71099D01*
X71085D01*
X71081D01*
X71011Y81788D01*
X70947Y81770D01*
X70896Y81746D01*
X70850Y81719D01*
X70817Y81686D01*
X70790Y81663D01*
X70776Y81645D01*
X70771Y81640D01*
X70734Y81580D01*
X70711Y81515D01*
X70692Y81451D01*
X70679Y81391D01*
X70669Y81335D01*
X70665Y81294D01*
Y81252D01*
X70669Y81169D01*
X70679Y81095D01*
X70692Y81016D01*
X70711Y80947D01*
X70762Y80813D01*
X70785Y80753D01*
X70817Y80698D01*
X70845Y80651D01*
X70868Y80605D01*
X70896Y80568D01*
X70919Y80536D01*
X70937Y80508D01*
X70951Y80490D01*
X70960Y80480D01*
X70965Y80476D01*
X70628Y80176D01*
X70559Y80254D01*
X70494Y80337D01*
X70438Y80425D01*
X70392Y80518D01*
X70355Y80605D01*
X70323Y80693D01*
X70295Y80781D01*
X70272Y80869D01*
X70254Y80947D01*
X70244Y81021D01*
X70235Y81086D01*
X70226Y81141D01*
Y81187D01*
X70221Y81224D01*
Y81252D01*
X70226Y81377D01*
X70240Y81488D01*
X70254Y81589D01*
X70277Y81677D01*
X70295Y81751D01*
X70305Y81779D01*
X70309Y81802D01*
X70318Y81820D01*
X70323Y81839D01*
X70328Y81843D01*
Y81848D01*
X70374Y81936D01*
X70425Y82014D01*
X70475Y82084D01*
X70526Y82139D01*
X70568Y82181D01*
X70605Y82213D01*
X70628Y82231D01*
X70637Y82236D01*
X70716Y82282D01*
X70799Y82315D01*
X70877Y82338D01*
X70951Y82352D01*
X71011Y82366D01*
X71062Y82370D01*
X71081D01*
X71095D01*
X71104D01*
X71108D01*
X71178Y82366D01*
D02*
G37*
G36*
X68804Y19471D02*
X70414D01*
Y18583D01*
X68804D01*
Y16937D01*
X67833D01*
Y18583D01*
X66205D01*
Y19471D01*
X67833D01*
Y21118D01*
X68804D01*
Y19471D01*
D02*
G37*
G36*
X86262Y18216D02*
X82738D01*
Y19132D01*
X86262D01*
Y18216D01*
D02*
G37*
G36*
X67385Y3179D02*
X61615D01*
Y14821D01*
X67385D01*
Y3179D01*
D02*
G37*
%LPC*%
G36*
X119922Y94589D02*
X119917D01*
X118923D01*
X118873Y94556D01*
X118831Y94519D01*
X118794Y94487D01*
X118762Y94450D01*
X118734Y94413D01*
X118711Y94381D01*
X118679Y94311D01*
X118656Y94256D01*
X118646Y94210D01*
X118642Y94191D01*
Y94168D01*
X118651Y94099D01*
X118674Y94034D01*
X118711Y93979D01*
X118757Y93933D01*
X118817Y93896D01*
X118877Y93863D01*
X118947Y93836D01*
X119016Y93813D01*
X119085Y93794D01*
X119155Y93785D01*
X119215Y93776D01*
X119275Y93766D01*
X119321D01*
X119358Y93762D01*
X119381D01*
X119390D01*
X119459D01*
X119524Y93766D01*
X119584Y93771D01*
X119640Y93780D01*
X119691Y93789D01*
X119737Y93799D01*
X119815Y93822D01*
X119875Y93840D01*
X119917Y93859D01*
X119940Y93873D01*
X119949Y93877D01*
X120009Y93923D01*
X120055Y93979D01*
X120088Y94030D01*
X120106Y94085D01*
X120120Y94131D01*
X120125Y94168D01*
X120129Y94196D01*
Y94247D01*
X120120Y94288D01*
X120097Y94367D01*
X120060Y94432D01*
X120023Y94487D01*
X119986Y94529D01*
X119949Y94561D01*
X119926Y94584D01*
X119922Y94589D01*
D02*
G37*
G36*
X119612Y92200D02*
X119598D01*
X119593D01*
X119589D01*
Y91281D01*
X119681Y91295D01*
X119760Y91313D01*
X119829Y91336D01*
X119889Y91364D01*
X119935Y91387D01*
X119968Y91410D01*
X119991Y91424D01*
X119995Y91429D01*
X120046Y91479D01*
X120083Y91535D01*
X120106Y91590D01*
X120125Y91641D01*
X120134Y91687D01*
X120143Y91724D01*
Y91757D01*
X120139Y91831D01*
X120120Y91895D01*
X120097Y91951D01*
X120069Y91992D01*
X120037Y92029D01*
X120014Y92057D01*
X119995Y92071D01*
X119991Y92075D01*
X119931Y92112D01*
X119866Y92145D01*
X119797Y92168D01*
X119737Y92182D01*
X119677Y92191D01*
X119630Y92196D01*
X119612Y92200D01*
D02*
G37*
G36*
X120407Y89608D02*
X120384D01*
X120374D01*
X120305Y89604D01*
X120245Y89590D01*
X120194Y89576D01*
X120152Y89557D01*
X120125Y89534D01*
X120102Y89521D01*
X120088Y89507D01*
X120083Y89502D01*
X120055Y89456D01*
X120032Y89405D01*
X120018Y89350D01*
X120005Y89299D01*
X120000Y89248D01*
X119995Y89211D01*
Y88846D01*
X120730D01*
Y89146D01*
X120725Y89230D01*
X120716Y89299D01*
X120702Y89359D01*
X120688Y89410D01*
X120675Y89447D01*
X120661Y89470D01*
X120651Y89488D01*
X120647Y89493D01*
X120610Y89530D01*
X120568Y89557D01*
X120522Y89581D01*
X120481Y89595D01*
X120439Y89604D01*
X120407Y89608D01*
D02*
G37*
G36*
X119164Y89719D02*
X119131D01*
X119127D01*
X119122D01*
X119053Y89715D01*
X118988Y89696D01*
X118933Y89668D01*
X118887Y89636D01*
X118850Y89595D01*
X118817Y89553D01*
X118790Y89502D01*
X118766Y89456D01*
X118748Y89405D01*
X118739Y89354D01*
X118729Y89313D01*
X118720Y89271D01*
Y89239D01*
X118716Y89211D01*
Y88846D01*
X119561D01*
Y89206D01*
X119556Y89294D01*
X119547Y89368D01*
X119529Y89433D01*
X119515Y89488D01*
X119496Y89530D01*
X119478Y89562D01*
X119469Y89581D01*
X119464Y89585D01*
X119422Y89631D01*
X119372Y89664D01*
X119312Y89687D01*
X119256Y89701D01*
X119205Y89715D01*
X119164Y89719D01*
D02*
G37*
G36*
X119455Y84679D02*
X119432D01*
X119413D01*
X119399D01*
X119395D01*
X119325D01*
X119256Y84674D01*
X119196Y84670D01*
X119141Y84660D01*
X119090Y84651D01*
X119039Y84642D01*
X118998Y84633D01*
X118960Y84623D01*
X118900Y84600D01*
X118854Y84582D01*
X118831Y84568D01*
X118822Y84563D01*
X118762Y84517D01*
X118720Y84466D01*
X118688Y84406D01*
X118669Y84355D01*
X118656Y84305D01*
X118651Y84263D01*
X118646Y84235D01*
Y84226D01*
X118656Y84148D01*
X118674Y84078D01*
X118702Y84023D01*
X118734Y83977D01*
X118766Y83935D01*
X118794Y83912D01*
X118813Y83893D01*
X118822Y83889D01*
X118859Y83870D01*
X118896Y83852D01*
X118984Y83824D01*
X119081Y83806D01*
X119173Y83792D01*
X119256Y83783D01*
X119293D01*
X119325Y83778D01*
X119353D01*
X119372D01*
X119386D01*
X119390D01*
X119459D01*
X119524Y83783D01*
X119584Y83787D01*
X119640Y83796D01*
X119691Y83806D01*
X119737Y83815D01*
X119815Y83833D01*
X119875Y83852D01*
X119917Y83870D01*
X119940Y83884D01*
X119949Y83889D01*
X120009Y83935D01*
X120051Y83990D01*
X120083Y84046D01*
X120102Y84101D01*
X120115Y84152D01*
X120120Y84194D01*
X120125Y84221D01*
Y84231D01*
X120115Y84309D01*
X120097Y84378D01*
X120069Y84434D01*
X120037Y84480D01*
X120005Y84517D01*
X119977Y84545D01*
X119958Y84559D01*
X119949Y84563D01*
X119912Y84582D01*
X119875Y84600D01*
X119788Y84628D01*
X119695Y84651D01*
X119607Y84665D01*
X119524Y84674D01*
X119487D01*
X119455Y84679D01*
D02*
G37*
G36*
X24139Y83003D02*
X24111D01*
X24088D01*
X24083D01*
X23991D01*
X23903Y82994D01*
X23820Y82985D01*
X23741Y82971D01*
X23672Y82957D01*
X23607Y82938D01*
X23543Y82915D01*
X23487Y82892D01*
X23385Y82837D01*
X23302Y82777D01*
X23238Y82712D01*
X23182Y82643D01*
X23141Y82573D01*
X23108Y82509D01*
X23085Y82449D01*
X23071Y82393D01*
X23062Y82347D01*
X23053Y82315D01*
Y82060D01*
X25067D01*
Y82338D01*
X25058Y82393D01*
X25035Y82499D01*
X25003Y82587D01*
X24966Y82666D01*
X24929Y82726D01*
X24896Y82767D01*
X24873Y82795D01*
X24869Y82804D01*
X24864D01*
X24822Y82841D01*
X24771Y82869D01*
X24716Y82897D01*
X24656Y82920D01*
X24531Y82957D01*
X24397Y82980D01*
X24337Y82985D01*
X24277Y82994D01*
X24226Y82998D01*
X24176D01*
X24139Y83003D01*
D02*
G37*
G36*
X65507Y13821D02*
Y12976D01*
X63077D01*
Y13821D01*
X62615D01*
Y11557D01*
X65507D01*
Y13821D01*
D02*
G37*
G36*
X65558Y11188D02*
X64389D01*
D01*
X65558D01*
D02*
G37*
G36*
X64389D02*
X64334D01*
X64306Y11183D01*
X64269D01*
X64190Y11174D01*
X64098Y11160D01*
X64001Y11137D01*
X63895Y11109D01*
X63793Y11067D01*
X63788D01*
X63779Y11063D01*
X63765Y11054D01*
X63747Y11044D01*
X63701Y11017D01*
X63641Y10975D01*
X63571Y10924D01*
X63502Y10864D01*
X63433Y10795D01*
X63373Y10712D01*
Y10707D01*
X63368Y10702D01*
X63359Y10689D01*
X63350Y10670D01*
X63327Y10619D01*
X63294Y10555D01*
X63266Y10476D01*
X63243Y10379D01*
X63225Y10277D01*
X63220Y10162D01*
Y11188D01*
D01*
Y9192D01*
X65558D01*
X64412D01*
X64449Y9196D01*
X64491Y9201D01*
X64578Y9210D01*
Y10633D01*
X64583D01*
X64588D01*
X64602Y10628D01*
X64620D01*
X64666Y10619D01*
X64726Y10605D01*
X64791Y10582D01*
X64860Y10555D01*
X64925Y10518D01*
X64985Y10467D01*
X64990Y10458D01*
X65008Y10439D01*
X65031Y10407D01*
X65054Y10361D01*
X65082Y10305D01*
X65105Y10240D01*
X65124Y10171D01*
X65128Y10088D01*
Y10065D01*
X65124Y10033D01*
Y9996D01*
X65119Y9954D01*
X65110Y9908D01*
X65087Y9811D01*
X65082Y9806D01*
X65078Y9788D01*
X65068Y9760D01*
X65050Y9723D01*
X65031Y9681D01*
X65004Y9631D01*
X64976Y9571D01*
X64939Y9510D01*
X65267Y9284D01*
X65272Y9293D01*
X65290Y9312D01*
X65318Y9349D01*
X65350Y9395D01*
X65387Y9450D01*
X65424Y9520D01*
X65461Y9589D01*
X65489Y9668D01*
X65493Y9677D01*
X65498Y9704D01*
X65512Y9746D01*
X65521Y9802D01*
X65535Y9866D01*
X65549Y9940D01*
X65553Y10023D01*
X65558Y10107D01*
Y10157D01*
X65553Y10190D01*
X65549Y10236D01*
X65539Y10282D01*
X65530Y10338D01*
X65516Y10397D01*
X65503Y10462D01*
X65479Y10527D01*
X65456Y10592D01*
X65424Y10661D01*
X65387Y10726D01*
X65346Y10790D01*
X65295Y10850D01*
X65239Y10906D01*
X65235Y10910D01*
X65225Y10920D01*
X65207Y10933D01*
X65179Y10947D01*
X65147Y10970D01*
X65110Y10994D01*
X65064Y11021D01*
X65013Y11044D01*
X64957Y11072D01*
X64893Y11100D01*
X64823Y11123D01*
X64745Y11141D01*
X64666Y11160D01*
X64578Y11174D01*
X64486Y11183D01*
X64389Y11188D01*
D02*
G37*
G36*
X65507Y8785D02*
X63276D01*
Y8365D01*
X63507Y8342D01*
X63502D01*
X63484Y8332D01*
X63460Y8323D01*
X63433Y8305D01*
X63400Y8286D01*
X63363Y8258D01*
X63331Y8226D01*
X63299Y8185D01*
X63294Y8180D01*
X63285Y8166D01*
X63276Y8138D01*
X63257Y8106D01*
X63243Y8064D01*
X63234Y8018D01*
X63225Y7967D01*
X63220Y7907D01*
Y7880D01*
X63225Y7857D01*
X63234Y7806D01*
X63253Y7741D01*
X63285Y7676D01*
X63308Y7644D01*
X63331Y7612D01*
X63363Y7584D01*
X63400Y7561D01*
X63442Y7538D01*
X63488Y7524D01*
X63484Y7519D01*
X63470Y7515D01*
X63447Y7501D01*
X63419Y7482D01*
X63391Y7459D01*
X63359Y7431D01*
X63327Y7395D01*
X63299Y7353D01*
X63294Y7348D01*
X63285Y7330D01*
X63276Y7307D01*
X63257Y7270D01*
X63243Y7228D01*
X63234Y7177D01*
X63225Y7127D01*
X63220Y7067D01*
Y7030D01*
X63230Y6993D01*
X63239Y6942D01*
X63257Y6886D01*
X63285Y6831D01*
X63322Y6775D01*
X63373Y6725D01*
X63377Y6720D01*
X63400Y6706D01*
X63437Y6683D01*
X63488Y6660D01*
X63557Y6641D01*
X63645Y6618D01*
X63747Y6605D01*
X63802Y6600D01*
X63220D01*
D01*
X65507D01*
Y8785D01*
D02*
G37*
G36*
X66385Y6096D02*
X63276D01*
Y5621D01*
X63548Y5602D01*
X63544Y5597D01*
X63525Y5588D01*
X63498Y5574D01*
X63465Y5547D01*
X63424Y5514D01*
X63387Y5477D01*
X63350Y5426D01*
X63313Y5366D01*
X63308Y5357D01*
X63299Y5339D01*
X63285Y5302D01*
X63266Y5255D01*
X63248Y5200D01*
X63234Y5140D01*
X63225Y5071D01*
X63220Y5001D01*
Y5098D01*
Y4964D01*
X63230Y4927D01*
X63239Y4872D01*
X63257Y4812D01*
X63280Y4743D01*
X63317Y4669D01*
X63363Y4590D01*
X63428Y4512D01*
X63502Y4438D01*
X63548Y4405D01*
X63599Y4368D01*
X63655Y4336D01*
X63710Y4308D01*
X63775Y4281D01*
X63844Y4253D01*
X63918Y4234D01*
X64001Y4216D01*
X64089Y4197D01*
X64181Y4188D01*
X64278Y4179D01*
X63220D01*
D01*
X66385D01*
D01*
X64435D01*
X64472Y4184D01*
X64518D01*
X64569Y4193D01*
X64625Y4197D01*
X64689Y4207D01*
X64823Y4234D01*
X64967Y4276D01*
X65036Y4299D01*
X65105Y4332D01*
X65170Y4364D01*
X65235Y4405D01*
X65239Y4410D01*
X65248Y4415D01*
X65262Y4428D01*
X65285Y4447D01*
X65308Y4470D01*
X65336Y4498D01*
X65364Y4530D01*
X65396Y4567D01*
X65424Y4613D01*
X65456Y4659D01*
X65484Y4715D01*
X65507Y4770D01*
X65530Y4835D01*
X65544Y4904D01*
X65553Y4974D01*
X65558Y5052D01*
Y5085D01*
X65553Y5108D01*
X65549Y5140D01*
X65544Y5172D01*
X65530Y5246D01*
X65503Y5329D01*
X65461Y5413D01*
X65433Y5454D01*
X65401Y5491D01*
X65369Y5523D01*
X65327Y5556D01*
X66329D01*
X66385Y6096D01*
D02*
G37*
%LPD*%
G36*
X65507Y11557D02*
X62615D01*
X63077Y11613D01*
Y12416D01*
X65507D01*
Y11557D01*
D02*
G37*
G36*
X64190Y9718D02*
X64186D01*
X64181D01*
X64167D01*
X64149Y9723D01*
X64103Y9728D01*
X64043Y9737D01*
X63983Y9751D01*
X63913Y9774D01*
X63849Y9806D01*
X63788Y9843D01*
X63784Y9848D01*
X63765Y9862D01*
X63742Y9889D01*
X63710Y9926D01*
X63682Y9968D01*
X63659Y10023D01*
X63641Y10088D01*
X63636Y10162D01*
Y10194D01*
X63645Y10231D01*
X63655Y10277D01*
X63673Y10328D01*
X63696Y10384D01*
X63733Y10439D01*
X63784Y10490D01*
X63788Y10495D01*
X63812Y10508D01*
X63844Y10531D01*
X63890Y10555D01*
X63950Y10582D01*
X64020Y10605D01*
X64098Y10624D01*
X64190Y10638D01*
Y9718D01*
D02*
G37*
G36*
X63225Y10088D02*
X63230Y10051D01*
X63234Y10005D01*
X63243Y9959D01*
X63257Y9903D01*
X63294Y9792D01*
X63317Y9732D01*
X63345Y9672D01*
X63382Y9617D01*
X63424Y9561D01*
X63470Y9506D01*
X63521Y9455D01*
X63525Y9450D01*
X63534Y9446D01*
X63553Y9432D01*
X63576Y9414D01*
X63604Y9395D01*
X63641Y9372D01*
X63687Y9349D01*
X63733Y9321D01*
X63788Y9298D01*
X63853Y9275D01*
X63918Y9252D01*
X63992Y9233D01*
X64070Y9215D01*
X64153Y9201D01*
X64241Y9196D01*
X64334Y9192D01*
X63220D01*
Y10120D01*
X63225Y10088D01*
D02*
G37*
G36*
X65507Y7917D02*
X63932D01*
X63923D01*
X63904D01*
X63876D01*
X63839Y7921D01*
X63765Y7926D01*
X63733Y7931D01*
X63710Y7940D01*
X63705D01*
X63701Y7944D01*
X63682Y7958D01*
X63664Y7981D01*
X63655Y8000D01*
Y8023D01*
X63659Y8046D01*
X63664Y8074D01*
X63678Y8111D01*
X63701Y8152D01*
X63733Y8198D01*
X63779Y8249D01*
X63839Y8295D01*
X65507D01*
Y7917D01*
D02*
G37*
G36*
Y7085D02*
X63932D01*
X63923D01*
X63904D01*
X63876D01*
X63839Y7090D01*
X63765Y7094D01*
X63733Y7099D01*
X63710Y7108D01*
X63705D01*
X63701Y7113D01*
X63682Y7127D01*
X63664Y7150D01*
X63655Y7168D01*
Y7191D01*
X63659Y7214D01*
X63664Y7242D01*
X63678Y7279D01*
X63701Y7321D01*
X63733Y7367D01*
X63779Y7418D01*
X63839Y7464D01*
X65507D01*
Y7085D01*
D02*
G37*
G36*
X64925Y5551D02*
X64948Y5528D01*
X64985Y5500D01*
X65022Y5454D01*
X65059Y5403D01*
X65096Y5334D01*
X65119Y5260D01*
X65124Y5218D01*
X65128Y5172D01*
Y5163D01*
X65124Y5135D01*
X65119Y5098D01*
X65105Y5052D01*
X65087Y5001D01*
X65054Y4946D01*
X65013Y4900D01*
X64957Y4854D01*
X64948Y4849D01*
X64925Y4835D01*
X64879Y4817D01*
X64819Y4798D01*
X64782Y4789D01*
X64740Y4780D01*
X64694Y4770D01*
X64643Y4761D01*
X64588Y4752D01*
X64528Y4747D01*
X64458Y4743D01*
X64389D01*
X64385D01*
X64371D01*
X64352D01*
X64324D01*
X64292Y4747D01*
X64255D01*
X64167Y4756D01*
X64075Y4766D01*
X63983Y4784D01*
X63895Y4807D01*
X63853Y4821D01*
X63821Y4840D01*
X63812Y4844D01*
X63793Y4858D01*
X63765Y4881D01*
X63733Y4914D01*
X63705Y4951D01*
X63678Y5001D01*
X63659Y5061D01*
X63650Y5126D01*
Y5149D01*
X63655Y5172D01*
X63659Y5205D01*
X63668Y5242D01*
X63682Y5283D01*
X63701Y5325D01*
X63728Y5366D01*
X63733Y5371D01*
X63742Y5385D01*
X63761Y5403D01*
X63784Y5431D01*
X63812Y5463D01*
X63844Y5491D01*
X63885Y5523D01*
X63927Y5556D01*
X64916D01*
X64925Y5551D01*
D02*
G37*
D10*
X198340Y40951D02*
G03*
X199697Y43483I-13840J9049D01*
G01*
X184500Y33465D02*
G03*
X193442Y36091I0J16535D01*
G01*
X199697Y56517D02*
G03*
X198340Y59049I-15197J-6517D01*
G01*
X193442Y63909D02*
G03*
X184500Y66535I-8942J-13909D01*
G01*
X167500Y70276D02*
X175043D01*
X167500Y29724D02*
X175043D01*
X155957D02*
X159000D01*
X155957Y70276D02*
X159000D01*
X183224Y29724D02*
X184500D01*
X183224Y70276D02*
X184500D01*
X199657Y43483D02*
Y56517D01*
X184500Y66535D02*
Y70276D01*
Y29724D02*
Y33465D01*
X36300Y1900D02*
Y8000D01*
D25*
X20300Y52000D02*
G03*
X20300Y52000I-300J0D01*
G01*
X35150Y73216D02*
Y75250D01*
Y55550D02*
Y57585D01*
X52816Y55550D02*
X54850D01*
Y73216D02*
Y75250D01*
X35150D02*
X37185D01*
X35150Y55550D02*
X37185D01*
X52816Y75250D02*
X54850D01*
Y55550D02*
Y57585D01*
X102100Y34700D02*
Y45300D01*
X97900D02*
X102100D01*
X97900Y34700D02*
X102100D01*
X97900D02*
Y45300D01*
X101500Y66500D02*
X117500D01*
X101500D02*
Y68000D01*
X104500Y66500D02*
Y68000D01*
X101500D02*
X104500D01*
X117500Y66500D02*
Y68000D01*
Y76000D02*
Y77500D01*
X101500Y76000D02*
X104500D01*
X101500Y77500D02*
X117500D01*
X101500Y76000D02*
Y77500D01*
X104500Y76000D02*
Y77500D01*
D102*
X31992Y59400D02*
G03*
X31992Y59400I-492J0D01*
G01*
X113925Y21543D02*
G03*
X113925Y21543I-492J0D01*
G01*
X78768Y47717D02*
G03*
X78768Y47717I-492J0D01*
G01*
D103*
X33950Y47350D02*
Y48650D01*
X33600Y48650D02*
X33950Y48650D01*
X33600Y47350D02*
Y48650D01*
Y47350D02*
X33950Y47350D01*
X32050Y48650D02*
X32400D01*
Y47350D02*
Y48650D01*
X32050Y47350D02*
X32400D01*
X32050D02*
Y48650D01*
X37550Y47350D02*
Y48650D01*
X37200D02*
X37550D01*
X37200Y47350D02*
Y48650D01*
Y47350D02*
X37550D01*
X35650Y48650D02*
X36000Y48650D01*
Y47350D02*
Y48650D01*
X35650Y47350D02*
X36000Y47350D01*
X35650Y47350D02*
Y48650D01*
X117350Y39450D02*
X118650D01*
X117350D02*
X117350Y39100D01*
X118650D01*
X118650Y39450D01*
X117350Y37550D02*
Y37900D01*
X118650D01*
Y37550D02*
Y37900D01*
X117350Y37550D02*
X118650D01*
X103550Y28350D02*
Y29650D01*
Y28350D02*
X103900Y28350D01*
Y29650D01*
X103550Y29650D02*
X103900Y29650D01*
X105100Y28350D02*
X105450D01*
X105100D02*
Y29650D01*
X105450D01*
Y28350D02*
Y29650D01*
X148450Y5850D02*
Y6200D01*
X146650Y5850D02*
Y6200D01*
X148450D01*
X146650Y5850D02*
X148450D01*
X146650Y7150D02*
X148450D01*
X146650Y6800D02*
X148450D01*
Y7150D01*
X146650Y6800D02*
Y7150D01*
X144950Y5850D02*
Y6200D01*
X143150Y5850D02*
Y6200D01*
X144950D01*
X143150Y5850D02*
X144950D01*
X143150Y7150D02*
X144950D01*
X143150Y6800D02*
X144950D01*
Y7150D01*
X143150Y6800D02*
Y7150D01*
X125650Y6800D02*
Y7150D01*
X127450Y6800D02*
Y7150D01*
X125650Y6800D02*
X127450D01*
X125650Y7150D02*
X127450D01*
X125650Y5850D02*
X127450D01*
X125650Y6200D02*
X127450D01*
X125650Y5850D02*
Y6200D01*
X127450Y5850D02*
Y6200D01*
X139600Y5850D02*
Y7150D01*
Y5850D02*
X139950Y5850D01*
Y7150D01*
X139600Y7150D02*
X139950Y7150D01*
X141150Y5850D02*
X141500D01*
X141150D02*
Y7150D01*
X141500D01*
Y5850D02*
Y7150D01*
X136100Y5850D02*
Y7150D01*
Y5850D02*
X136450Y5850D01*
Y7150D01*
X136100Y7150D02*
X136450Y7150D01*
X137650Y5850D02*
X138000D01*
X137650D02*
Y7150D01*
X138000D01*
Y5850D02*
Y7150D01*
X134500Y5850D02*
Y7150D01*
X134150Y7150D02*
X134500Y7150D01*
X134150Y5850D02*
Y7150D01*
Y5850D02*
X134500Y5850D01*
X132600Y7150D02*
X132950D01*
Y5850D02*
Y7150D01*
X132600Y5850D02*
X132950D01*
X132600D02*
Y7150D01*
X129100Y5850D02*
Y7150D01*
Y5850D02*
X129450Y5850D01*
Y7150D01*
X129100Y7150D02*
X129450Y7150D01*
X130650Y5850D02*
X131000D01*
X130650D02*
Y7150D01*
X131000D01*
Y5850D02*
Y7150D01*
X122100Y5850D02*
Y7150D01*
Y5850D02*
X122450Y5850D01*
Y7150D01*
X122100Y7150D02*
X122450Y7150D01*
X123650Y5850D02*
X124000D01*
X123650D02*
Y7150D01*
X124000D01*
Y5850D02*
Y7150D01*
X120500Y5850D02*
Y7150D01*
X120150Y7150D02*
X120500Y7150D01*
X120150Y5850D02*
Y7150D01*
Y5850D02*
X120500Y5850D01*
X118600Y7150D02*
X118950D01*
Y5850D02*
Y7150D01*
X118600Y5850D02*
X118950D01*
X118600D02*
Y7150D01*
X70800Y42400D02*
X71150D01*
X70800Y40600D02*
X71150D01*
X70800D02*
Y42400D01*
X71150Y40600D02*
Y42400D01*
X69850Y40600D02*
Y42400D01*
X70200Y40600D02*
Y42400D01*
X69850D02*
X70200D01*
X69850Y40600D02*
X70200D01*
X70800Y45900D02*
X71150D01*
X70800Y44100D02*
X71150D01*
X70800D02*
Y45900D01*
X71150Y44100D02*
Y45900D01*
X69850Y44100D02*
Y45900D01*
X70200Y44100D02*
Y45900D01*
X69850D02*
X70200D01*
X69850Y44100D02*
X70200D01*
X17950Y55850D02*
Y57150D01*
X17600Y57150D02*
X17950Y57150D01*
X17600Y55850D02*
Y57150D01*
Y55850D02*
X17950Y55850D01*
X16050Y57150D02*
X16400D01*
Y55850D02*
Y57150D01*
X16050Y55850D02*
X16400D01*
X16050D02*
Y57150D01*
X23850Y63450D02*
X25150D01*
X23850D02*
X23850Y63100D01*
X25150D01*
X25150Y63450D01*
X23850Y61550D02*
Y61900D01*
X25150D01*
Y61550D02*
Y61900D01*
X23850Y61550D02*
X25150D01*
X116950Y60350D02*
Y61650D01*
X116600Y61650D02*
X116950Y61650D01*
X116600Y60350D02*
Y61650D01*
Y60350D02*
X116950Y60350D01*
X115050Y61650D02*
X115400D01*
Y60350D02*
Y61650D01*
X115050Y60350D02*
X115400D01*
X115050D02*
Y61650D01*
X116950Y51850D02*
Y53150D01*
X116600Y53150D02*
X116950Y53150D01*
X116600Y51850D02*
Y53150D01*
Y51850D02*
X116950Y51850D01*
X115050Y53150D02*
X115400D01*
Y51850D02*
Y53150D01*
X115050Y51850D02*
X115400D01*
X115050D02*
Y53150D01*
X120950Y51850D02*
Y53150D01*
X120600Y53150D02*
X120950Y53150D01*
X120600Y51850D02*
Y53150D01*
Y51850D02*
X120950Y51850D01*
X119050Y53150D02*
X119400D01*
Y51850D02*
Y53150D01*
X119050Y51850D02*
X119400D01*
X119050D02*
Y53150D01*
Y43350D02*
Y44650D01*
Y43350D02*
X119400Y43350D01*
Y44650D01*
X119050Y44650D02*
X119400Y44650D01*
X120600Y43350D02*
X120950D01*
X120600D02*
Y44650D01*
X120950D01*
Y43350D02*
Y44650D01*
X115050Y43350D02*
Y44650D01*
Y43350D02*
X115400Y43350D01*
Y44650D01*
X115050Y44650D02*
X115400Y44650D01*
X116600Y43350D02*
X116950D01*
X116600D02*
Y44650D01*
X116950D01*
Y43350D02*
Y44650D01*
X120950Y60350D02*
Y61650D01*
X120600Y61650D02*
X120950Y61650D01*
X120600Y60350D02*
Y61650D01*
Y60350D02*
X120950Y60350D01*
X119050Y61650D02*
X119400D01*
Y60350D02*
Y61650D01*
X119050Y60350D02*
X119400D01*
X119050D02*
Y61650D01*
X104300Y64400D02*
X104800D01*
X104300Y59600D02*
X104800D01*
Y64400D01*
X104300Y59600D02*
Y64400D01*
X106700Y59600D02*
Y64400D01*
X106200Y59600D02*
Y64400D01*
Y59600D02*
X106700D01*
X106200Y64400D02*
X106700D01*
X62350Y52050D02*
X63650D01*
X63650Y52400D02*
X63650Y52050D01*
X62350Y52400D02*
X63650D01*
X62350Y52050D02*
X62350Y52400D01*
X63650Y53600D02*
Y53950D01*
X62350Y53600D02*
X63650D01*
X62350D02*
Y53950D01*
X63650D01*
X99050Y28350D02*
Y29650D01*
Y28350D02*
X99400Y28350D01*
Y29650D01*
X99050Y29650D02*
X99400Y29650D01*
X100600Y28350D02*
X100950D01*
X100600D02*
Y29650D01*
X100950D01*
Y28350D02*
Y29650D01*
X46150Y47350D02*
Y48650D01*
Y47350D02*
X46500Y47350D01*
Y48650D01*
X46150Y48650D02*
X46500Y48650D01*
X47700Y47350D02*
X48050D01*
X47700D02*
Y48650D01*
X48050D01*
Y47350D02*
Y48650D01*
X62350Y60950D02*
X63650D01*
X62350D02*
X62350Y60600D01*
X63650D01*
X63650Y60950D01*
X62350Y59050D02*
Y59400D01*
X63650D01*
Y59050D02*
Y59400D01*
X62350Y59050D02*
X63650D01*
X42650Y47350D02*
Y48650D01*
Y47350D02*
X43000Y47350D01*
Y48650D01*
X42650Y48650D02*
X43000Y48650D01*
X44200Y47350D02*
X44550D01*
X44200D02*
Y48650D01*
X44550D01*
Y47350D02*
Y48650D01*
X18350Y46450D02*
X19650D01*
X18350D02*
X18350Y46100D01*
X19650D01*
X19650Y46450D01*
X18350Y44550D02*
Y44900D01*
X19650D01*
Y44550D02*
Y44900D01*
X18350Y44550D02*
X19650D01*
X118600Y14300D02*
Y14650D01*
X120400Y14300D02*
Y14650D01*
X118600Y14300D02*
X120400D01*
X118600Y14650D02*
X120400D01*
X118600Y13350D02*
X120400D01*
X118600Y13700D02*
X120400D01*
X118600Y13350D02*
Y13700D01*
X120400Y13350D02*
Y13700D01*
X109850Y39600D02*
X110200D01*
X109850Y41400D02*
X110200D01*
Y39600D02*
Y41400D01*
X109850Y39600D02*
Y41400D01*
X111150Y39600D02*
Y41400D01*
X110800Y39600D02*
Y41400D01*
Y39600D02*
X111150D01*
X110800Y41400D02*
X111150D01*
X63300Y57400D02*
X63650D01*
X63300Y55600D02*
X63650D01*
X63300D02*
Y57400D01*
X63650Y55600D02*
Y57400D01*
X62350Y55600D02*
Y57400D01*
X62700Y55600D02*
Y57400D01*
X62350D02*
X62700D01*
X62350Y55600D02*
X62700D01*
X18350Y50450D02*
X19650D01*
X18350D02*
X18350Y50100D01*
X19650D01*
X19650Y50450D01*
X18350Y48550D02*
Y48900D01*
X19650D01*
Y48550D02*
Y48900D01*
X18350Y48550D02*
X19650D01*
X25850Y25100D02*
X26200D01*
X25850Y26900D02*
X26200D01*
Y25100D02*
Y26900D01*
X25850Y25100D02*
Y26900D01*
X27150Y25100D02*
Y26900D01*
X26800Y25100D02*
Y26900D01*
Y25100D02*
X27150D01*
X26800Y26900D02*
X27150D01*
X109850Y36100D02*
X110200D01*
X109850Y37900D02*
X110200D01*
Y36100D02*
Y37900D01*
X109850Y36100D02*
Y37900D01*
X111150Y36100D02*
Y37900D01*
X110800Y36100D02*
Y37900D01*
Y36100D02*
X111150D01*
X110800Y37900D02*
X111150D01*
X109850Y43100D02*
X110200D01*
X109850Y44900D02*
X110200D01*
Y43100D02*
Y44900D01*
X109850Y43100D02*
Y44900D01*
X111150Y43100D02*
Y44900D01*
X110800Y43100D02*
Y44900D01*
Y43100D02*
X111150D01*
X110800Y44900D02*
X111150D01*
X55000Y47350D02*
Y47700D01*
X53200Y47350D02*
Y47700D01*
X55000D01*
X53200Y47350D02*
X55000D01*
X53200Y48650D02*
X55000D01*
X53200Y48300D02*
X55000D01*
Y48650D01*
X53200Y48300D02*
Y48650D01*
X96900Y49350D02*
Y49700D01*
X95100Y49350D02*
Y49700D01*
X96900D01*
X95100Y49350D02*
X96900D01*
X95100Y50650D02*
X96900D01*
X95100Y50300D02*
X96900D01*
Y50650D01*
X95100Y50300D02*
Y50650D01*
X58500Y47350D02*
Y47700D01*
X56700Y47350D02*
Y47700D01*
X58500D01*
X56700Y47350D02*
X58500D01*
X56700Y48650D02*
X58500D01*
X56700Y48300D02*
X58500D01*
Y48650D01*
X56700Y48300D02*
Y48650D01*
X70800Y53900D02*
X71150D01*
X70800Y52100D02*
X71150D01*
X70800D02*
Y53900D01*
X71150Y52100D02*
Y53900D01*
X69850Y52100D02*
Y53900D01*
X70200Y52100D02*
Y53900D01*
X69850D02*
X70200D01*
X69850Y52100D02*
X70200D01*
X78800Y42400D02*
X79150D01*
X78800Y40600D02*
X79150D01*
X78800D02*
Y42400D01*
X79150Y40600D02*
Y42400D01*
X77850Y40600D02*
Y42400D01*
X78200Y40600D02*
Y42400D01*
X77850D02*
X78200D01*
X77850Y40600D02*
X78200D01*
X78800Y45900D02*
X79150D01*
X78800Y44100D02*
X79150D01*
X78800D02*
Y45900D01*
X79150Y44100D02*
Y45900D01*
X77850Y44100D02*
Y45900D01*
X78200Y44100D02*
Y45900D01*
X77850D02*
X78200D01*
X77850Y44100D02*
X78200D01*
X91550Y56850D02*
Y58150D01*
Y56850D02*
X91900Y56850D01*
Y58150D01*
X91550Y58150D02*
X91900Y58150D01*
X93100Y56850D02*
X93450D01*
X93100D02*
Y58150D01*
X93450D01*
Y56850D02*
Y58150D01*
X70800Y50400D02*
X71150D01*
X70800Y48600D02*
X71150D01*
X70800D02*
Y50400D01*
X71150Y48600D02*
Y50400D01*
X69850Y48600D02*
Y50400D01*
X70200Y48600D02*
Y50400D01*
X69850D02*
X70200D01*
X69850Y48600D02*
X70200D01*
X69850Y60950D02*
X71150D01*
X69850D02*
X69850Y60600D01*
X71150D01*
X71150Y60950D01*
X69850Y59050D02*
Y59400D01*
X71150D01*
Y59050D02*
Y59400D01*
X69850Y59050D02*
X71150D01*
X25850Y30450D02*
X27150D01*
X25850D02*
X25850Y30100D01*
X27150D01*
X27150Y30450D01*
X25850Y28550D02*
Y28900D01*
X27150D01*
Y28550D02*
Y28900D01*
X25850Y28550D02*
X27150D01*
X39150Y47350D02*
Y48650D01*
Y47350D02*
X39500Y47350D01*
Y48650D01*
X39150Y48650D02*
X39500Y48650D01*
X40700Y47350D02*
X41050D01*
X40700D02*
Y48650D01*
X41050D01*
Y47350D02*
Y48650D01*
X69850Y55550D02*
X71150D01*
X71150Y55900D02*
X71150Y55550D01*
X69850Y55900D02*
X71150D01*
X69850Y55550D02*
X69850Y55900D01*
X71150Y57100D02*
Y57450D01*
X69850Y57100D02*
X71150D01*
X69850D02*
Y57450D01*
X71150D01*
X51550Y47350D02*
Y48650D01*
X51200Y48650D02*
X51550Y48650D01*
X51200Y47350D02*
Y48650D01*
Y47350D02*
X51550Y47350D01*
X49650Y48650D02*
X50000D01*
Y47350D02*
Y48650D01*
X49650Y47350D02*
X50000D01*
X49650D02*
Y48650D01*
X96900Y56850D02*
Y57200D01*
X95100Y56850D02*
Y57200D01*
X96900D01*
X95100Y56850D02*
X96900D01*
X95100Y58150D02*
X96900D01*
X95100Y57800D02*
X96900D01*
Y58150D01*
X95100Y57800D02*
Y58150D01*
X27550Y70850D02*
Y72150D01*
Y70850D02*
X27900Y70850D01*
Y72150D01*
X27550Y72150D02*
X27900Y72150D01*
X29100Y70850D02*
X29450D01*
X29100D02*
Y72150D01*
X29450D01*
Y70850D02*
Y72150D01*
D104*
X107724Y658D02*
Y20343D01*
X98276Y658D02*
Y20343D01*
X107724D01*
X98276Y658D02*
X107724D01*
X109571Y23283D02*
Y25055D01*
Y31945D02*
Y33730D01*
Y33716D02*
X114886D01*
X109571Y23283D02*
X114886D01*
X22614Y59346D02*
X24386D01*
X22614Y52653D02*
X24386D01*
X91831Y47445D02*
Y47543D01*
Y40457D02*
Y40555D01*
X83169Y40457D02*
X91831D01*
X83169Y47445D02*
Y47543D01*
Y40457D02*
Y40555D01*
Y47543D02*
X91831D01*
X85957Y21398D02*
Y24744D01*
Y21398D02*
X90287D01*
X85957Y30256D02*
Y33602D01*
X90287D01*
X74150Y62244D02*
X92850D01*
Y75925D02*
Y77756D01*
Y62244D02*
Y64075D01*
X74150Y77756D02*
X92850D01*
X74150Y75925D02*
Y77756D01*
Y62244D02*
Y64075D01*
D105*
X98500Y57500D02*
X112500D01*
X98500Y52500D02*
Y57500D01*
Y52500D02*
X112500D01*
Y57500D01*
X102500Y52500D02*
Y57500D01*
X98500Y51500D02*
X112500D01*
X98500Y46500D02*
Y51500D01*
Y46500D02*
X112500D01*
Y51500D01*
X102500Y46500D02*
Y51500D01*
X62500Y63000D02*
Y77000D01*
Y63000D02*
X67500D01*
Y77000D01*
X62500D02*
X67500D01*
X62500Y67000D02*
X67500D01*
D106*
X32721Y16295D02*
X34295Y14720D01*
X60280Y40705D02*
Y42279D01*
X32721D02*
X34295D01*
X32721Y40705D02*
Y42279D01*
X58705D02*
X60280D01*
X58705Y14720D02*
X60280D01*
Y16295D01*
M02*
