G04*
G04 #@! TF.GenerationSoftware,Altium Limited,Altium Designer,21.6.1 (37)*
G04*
G04 Layer_Physical_Order=3*
G04 Layer_Color=16440176*
%FSLAX25Y25*%
%MOIN*%
G70*
G04*
G04 #@! TF.SameCoordinates,AC17BD28-DEAC-4D96-B394-8643799D6FE3*
G04*
G04*
G04 #@! TF.FilePolarity,Positive*
G04*
G01*
G75*
%ADD26C,0.19685*%
%ADD27O,0.08268X0.03937*%
%ADD28O,0.06299X0.03937*%
%ADD30C,0.01800*%
%ADD31C,0.03937*%
G36*
X191124Y101254D02*
X192708Y100874D01*
X194213Y100250D01*
X195602Y99399D01*
X196841Y98341D01*
X197899Y97102D01*
X198750Y95713D01*
X199374Y94208D01*
X199754Y92624D01*
X199881Y91013D01*
X199878Y91000D01*
Y77903D01*
X199536Y75681D01*
X198602Y67148D01*
X198040Y58582D01*
X197853Y50000D01*
X198040Y41418D01*
X198602Y32852D01*
X199536Y24319D01*
X199878Y22097D01*
Y11500D01*
X199881Y11487D01*
X199754Y9876D01*
X199374Y8292D01*
X198750Y6787D01*
X197899Y5398D01*
X196841Y4159D01*
X195602Y3101D01*
X194213Y2250D01*
X192708Y1626D01*
X191124Y1246D01*
X189513Y1119D01*
X189500Y1122D01*
X60500D01*
Y10500D01*
X23500D01*
Y1122D01*
X11500D01*
X11487Y1119D01*
X9876Y1246D01*
X8292Y1626D01*
X6787Y2250D01*
X5398Y3101D01*
X4159Y4159D01*
X3101Y5398D01*
X2250Y6787D01*
X1626Y8292D01*
X1246Y9876D01*
X1119Y11487D01*
X1122Y11500D01*
Y91000D01*
X1119Y91013D01*
X1246Y92624D01*
X1626Y94208D01*
X2250Y95713D01*
X3101Y97102D01*
X4159Y98341D01*
X5398Y99399D01*
X6787Y100250D01*
X8292Y100874D01*
X9876Y101254D01*
X11487Y101381D01*
X11500Y101378D01*
X189500D01*
X189513Y101381D01*
X191124Y101254D01*
D02*
G37*
%LPC*%
G36*
X136500Y99649D02*
X101500D01*
X101041Y99459D01*
X100851Y99000D01*
Y80000D01*
X101041Y79541D01*
X101500Y79351D01*
X136500Y79351D01*
X136959Y79541D01*
X137149Y80000D01*
Y99000D01*
X136959Y99459D01*
X136500Y99649D01*
D02*
G37*
G36*
X88500D02*
X53500D01*
X53041Y99459D01*
X52851Y99000D01*
Y80000D01*
X53041Y79541D01*
X53500Y79351D01*
X88500Y79351D01*
X88959Y79541D01*
X89149Y80000D01*
Y99000D01*
X88959Y99459D01*
X88500Y99649D01*
D02*
G37*
G36*
X41398Y77900D02*
X40802D01*
X40250Y77672D01*
X39828Y77250D01*
X39600Y76698D01*
Y76102D01*
X39828Y75550D01*
X40250Y75128D01*
X40802Y74900D01*
X41398D01*
X41950Y75128D01*
X42372Y75550D01*
X42600Y76102D01*
Y76698D01*
X42372Y77250D01*
X41950Y77672D01*
X41398Y77900D01*
D02*
G37*
G36*
X28798Y76100D02*
X28202D01*
X27650Y75872D01*
X27228Y75450D01*
X27000Y74898D01*
Y74302D01*
X27228Y73750D01*
X27650Y73328D01*
X28202Y73100D01*
X28798D01*
X29350Y73328D01*
X29772Y73750D01*
X30000Y74302D01*
Y74898D01*
X29772Y75450D01*
X29350Y75872D01*
X28798Y76100D01*
D02*
G37*
G36*
X29898Y68200D02*
X29302D01*
X28750Y67972D01*
X28328Y67550D01*
X28100Y66998D01*
Y66402D01*
X28328Y65850D01*
X28750Y65428D01*
X29302Y65200D01*
X29898D01*
X30450Y65428D01*
X30872Y65850D01*
X31100Y66402D01*
Y66998D01*
X30872Y67550D01*
X30450Y67972D01*
X29898Y68200D01*
D02*
G37*
G36*
X12298Y69900D02*
X11702D01*
X11150Y69672D01*
X10728Y69250D01*
X10500Y68698D01*
Y68102D01*
X10728Y67550D01*
X11129Y67150D01*
X10728Y66750D01*
X10500Y66198D01*
Y65602D01*
X10728Y65050D01*
X11150Y64628D01*
X11702Y64400D01*
X12298D01*
X12850Y64628D01*
X13272Y65050D01*
X13500Y65602D01*
Y66198D01*
X13272Y66750D01*
X12871Y67150D01*
X13272Y67550D01*
X13500Y68102D01*
Y68698D01*
X13272Y69250D01*
X12850Y69672D01*
X12298Y69900D01*
D02*
G37*
G36*
X65298Y67900D02*
X64702D01*
X64150Y67672D01*
X63728Y67250D01*
X63500Y66698D01*
Y66102D01*
X63728Y65550D01*
X64129Y65150D01*
X63728Y64750D01*
X63500Y64198D01*
Y63602D01*
X63728Y63050D01*
X64150Y62628D01*
X64702Y62400D01*
X65298D01*
X65850Y62628D01*
X66272Y63050D01*
X66500Y63602D01*
Y64198D01*
X66272Y64750D01*
X65871Y65150D01*
X66272Y65550D01*
X66500Y66102D01*
Y66698D01*
X66272Y67250D01*
X65850Y67672D01*
X65298Y67900D01*
D02*
G37*
G36*
X31698Y64000D02*
X31102D01*
X30550Y63772D01*
X30128Y63350D01*
X29900Y62798D01*
Y62202D01*
X30128Y61650D01*
X30550Y61228D01*
X31102Y61000D01*
X31698D01*
X32250Y61228D01*
X32672Y61650D01*
X32900Y62202D01*
Y62798D01*
X32672Y63350D01*
X32250Y63772D01*
X31698Y64000D01*
D02*
G37*
G36*
X19232Y64758D02*
X18484D01*
X17794Y64471D01*
X17265Y63943D01*
X16979Y63252D01*
Y62504D01*
X17265Y61813D01*
X17794Y61285D01*
X18484Y60998D01*
X19232D01*
X19923Y61285D01*
X20452Y61813D01*
X20738Y62504D01*
Y63252D01*
X20452Y63943D01*
X19923Y64471D01*
X19232Y64758D01*
D02*
G37*
G36*
X14298Y62500D02*
X13702D01*
X13150Y62272D01*
X12728Y61850D01*
X12500Y61298D01*
Y60702D01*
X12728Y60150D01*
X13150Y59728D01*
X13702Y59500D01*
X14298D01*
X14850Y59728D01*
X15272Y60150D01*
X15500Y60702D01*
Y61298D01*
X15272Y61850D01*
X14850Y62272D01*
X14298Y62500D01*
D02*
G37*
G36*
X167277Y65561D02*
X166290D01*
X165336Y65305D01*
X164481Y64811D01*
X163783Y64113D01*
X163289Y63258D01*
X163034Y62305D01*
Y61317D01*
X163289Y60364D01*
X163783Y59509D01*
X164481Y58811D01*
X165336Y58317D01*
X166290Y58061D01*
X167277D01*
X168231Y58317D01*
X169086Y58811D01*
X169784Y59509D01*
X170278Y60364D01*
X170533Y61317D01*
Y62305D01*
X170278Y63258D01*
X169784Y64113D01*
X169086Y64811D01*
X168231Y65305D01*
X167277Y65561D01*
D02*
G37*
G36*
X20098Y60500D02*
X19502D01*
X18950Y60272D01*
X18528Y59850D01*
X18300Y59298D01*
Y58702D01*
X18528Y58150D01*
X18950Y57728D01*
X19502Y57500D01*
X20098D01*
X20650Y57728D01*
X21072Y58150D01*
X21300Y58702D01*
Y59298D01*
X21072Y59850D01*
X20650Y60272D01*
X20098Y60500D01*
D02*
G37*
G36*
X16498Y59200D02*
X15902D01*
X15350Y58972D01*
X14928Y58550D01*
X14700Y57998D01*
Y57402D01*
X14928Y56850D01*
X15350Y56428D01*
X15902Y56200D01*
X16498D01*
X17050Y56428D01*
X17472Y56850D01*
X17700Y57402D01*
Y57998D01*
X17472Y58550D01*
X17050Y58972D01*
X16498Y59200D01*
D02*
G37*
G36*
X7298Y58000D02*
X6702D01*
X6150Y57772D01*
X5728Y57350D01*
X5500Y56798D01*
Y56202D01*
X5728Y55650D01*
X6150Y55228D01*
X6702Y55000D01*
X7298D01*
X7850Y55228D01*
X8272Y55650D01*
X8500Y56202D01*
Y56798D01*
X8272Y57350D01*
X7850Y57772D01*
X7298Y58000D01*
D02*
G37*
G36*
X33998Y56800D02*
X33402D01*
X32850Y56572D01*
X32428Y56150D01*
X32200Y55598D01*
Y55002D01*
X32428Y54450D01*
X32850Y54028D01*
X33402Y53800D01*
X33998D01*
X34550Y54028D01*
X34972Y54450D01*
X35200Y55002D01*
Y55598D01*
X34972Y56150D01*
X34550Y56572D01*
X33998Y56800D01*
D02*
G37*
G36*
X68798Y58700D02*
X68202D01*
X67650Y58472D01*
X67228Y58050D01*
X67000Y57498D01*
Y56902D01*
X67228Y56350D01*
X67604Y55975D01*
X67228Y55600D01*
X67000Y55048D01*
Y54452D01*
X67228Y53900D01*
X67650Y53478D01*
X68202Y53250D01*
X68798D01*
X69350Y53478D01*
X69772Y53900D01*
X70000Y54452D01*
Y55048D01*
X69772Y55600D01*
X69396Y55975D01*
X69772Y56350D01*
X70000Y56902D01*
Y57498D01*
X69772Y58050D01*
X69350Y58472D01*
X68798Y58700D01*
D02*
G37*
G36*
X55398Y55000D02*
X54802D01*
X54250Y54772D01*
X53828Y54350D01*
X53600Y53798D01*
Y53202D01*
X53828Y52650D01*
X54250Y52228D01*
X54802Y52000D01*
X55398D01*
X55950Y52228D01*
X56372Y52650D01*
X56600Y53202D01*
Y53798D01*
X56372Y54350D01*
X55950Y54772D01*
X55398Y55000D01*
D02*
G37*
G36*
X113798Y53300D02*
X113202D01*
X112650Y53072D01*
X112228Y52650D01*
X112000Y52098D01*
Y51502D01*
X112228Y50950D01*
X112650Y50528D01*
X113202Y50300D01*
X113798D01*
X114350Y50528D01*
X114772Y50950D01*
X115000Y51502D01*
Y52098D01*
X114772Y52650D01*
X114350Y53072D01*
X113798Y53300D01*
D02*
G37*
G36*
X76058Y52760D02*
X75462D01*
X74910Y52531D01*
X74488Y52109D01*
X74260Y51558D01*
Y50962D01*
X74488Y50410D01*
X74910Y49988D01*
X75462Y49760D01*
X76058D01*
X76609Y49988D01*
X77031Y50410D01*
X77260Y50962D01*
Y51558D01*
X77031Y52109D01*
X76609Y52531D01*
X76058Y52760D01*
D02*
G37*
G36*
X86398Y52700D02*
X85802D01*
X85250Y52472D01*
X84828Y52050D01*
X84600Y51498D01*
Y50902D01*
X84828Y50350D01*
X85250Y49928D01*
X85802Y49700D01*
X86398D01*
X86950Y49928D01*
X87372Y50350D01*
X87600Y50902D01*
Y51498D01*
X87372Y52050D01*
X86950Y52472D01*
X86398Y52700D01*
D02*
G37*
G36*
X45298Y54700D02*
X44702D01*
X44150Y54472D01*
X43728Y54050D01*
X43500Y53498D01*
Y52902D01*
X43728Y52350D01*
X44150Y51928D01*
X44702Y51700D01*
X45298D01*
X45850Y51928D01*
X46382Y51797D01*
X46550Y51628D01*
X47102Y51400D01*
X47422D01*
X47629Y50900D01*
X47578Y50850D01*
X47350Y50298D01*
Y49702D01*
X47578Y49150D01*
X48000Y48728D01*
X48552Y48500D01*
X49148D01*
X49700Y48728D01*
X50122Y49150D01*
X50350Y49702D01*
Y50298D01*
X50122Y50850D01*
X49700Y51272D01*
X49148Y51500D01*
X48828D01*
X48621Y52000D01*
X48672Y52050D01*
X48900Y52602D01*
Y53198D01*
X48672Y53750D01*
X48250Y54172D01*
X47698Y54400D01*
X47102D01*
X46550Y54172D01*
X46018Y54303D01*
X45850Y54472D01*
X45298Y54700D01*
D02*
G37*
G36*
X15398Y51000D02*
X14802D01*
X14250Y50772D01*
X13828Y50350D01*
X13600Y49798D01*
Y49202D01*
X13828Y48650D01*
X14250Y48228D01*
X14802Y48000D01*
X15398D01*
X15950Y48228D01*
X16372Y48650D01*
X16600Y49202D01*
Y49798D01*
X16372Y50350D01*
X15950Y50772D01*
X15398Y51000D01*
D02*
G37*
G36*
X37398Y50500D02*
X36802D01*
X36250Y50272D01*
X35828Y49850D01*
X35600Y49298D01*
Y48702D01*
X35828Y48150D01*
X36250Y47728D01*
X36802Y47500D01*
X37398D01*
X37950Y47728D01*
X38372Y48150D01*
X38600Y48702D01*
Y49298D01*
X38372Y49850D01*
X37950Y50272D01*
X37398Y50500D01*
D02*
G37*
G36*
X7298Y50000D02*
X6702D01*
X6150Y49772D01*
X5728Y49350D01*
X5500Y48798D01*
Y48202D01*
X5728Y47650D01*
X6150Y47228D01*
X6702Y47000D01*
X7298D01*
X7850Y47228D01*
X8272Y47650D01*
X8500Y48202D01*
Y48798D01*
X8272Y49350D01*
X7850Y49772D01*
X7298Y50000D01*
D02*
G37*
G36*
X95598Y48900D02*
X95002D01*
X94450Y48672D01*
X94028Y48250D01*
X93800Y47698D01*
Y47102D01*
X94028Y46550D01*
X94450Y46128D01*
X95002Y45900D01*
X95598D01*
X96150Y46128D01*
X96572Y46550D01*
X96800Y47102D01*
Y47698D01*
X96572Y48250D01*
X96150Y48672D01*
X95598Y48900D01*
D02*
G37*
G36*
X67798Y46400D02*
X67202D01*
X66650Y46172D01*
X66228Y45750D01*
X66169Y45606D01*
X66162Y45601D01*
X65595Y45527D01*
X65350Y45772D01*
X64798Y46000D01*
X64202D01*
X63650Y45772D01*
X63228Y45350D01*
X63000Y44798D01*
Y44202D01*
X63228Y43650D01*
X63650Y43228D01*
X64202Y43000D01*
X64798D01*
X65350Y43228D01*
X65772Y43650D01*
X65831Y43794D01*
X65838Y43799D01*
X66405Y43873D01*
X66650Y43628D01*
X67202Y43400D01*
X67798D01*
X68350Y43628D01*
X68772Y44050D01*
X69000Y44602D01*
Y45198D01*
X68772Y45750D01*
X68350Y46172D01*
X67798Y46400D01*
D02*
G37*
G36*
X43898Y48500D02*
X43302D01*
X42750Y48272D01*
X42328Y47850D01*
X42100Y47298D01*
Y46702D01*
X42328Y46150D01*
X42750Y45728D01*
X43302Y45500D01*
X43898D01*
X44450Y45728D01*
X44872Y46150D01*
X44959Y46360D01*
X45500D01*
X45628Y46050D01*
X46050Y45628D01*
X46602Y45400D01*
X47198D01*
X47750Y45628D01*
X48172Y46050D01*
X48400Y46602D01*
Y47198D01*
X48172Y47750D01*
X47750Y48172D01*
X47198Y48400D01*
X46602D01*
X46050Y48172D01*
X45628Y47750D01*
X45541Y47539D01*
X45000D01*
X44872Y47850D01*
X44450Y48272D01*
X43898Y48500D01*
D02*
G37*
G36*
X40398Y48300D02*
X39802D01*
X39250Y48072D01*
X38828Y47650D01*
X38600Y47098D01*
Y46502D01*
X38828Y45950D01*
X39250Y45528D01*
X39802Y45300D01*
X40398D01*
X40950Y45528D01*
X41372Y45950D01*
X41600Y46502D01*
Y47098D01*
X41372Y47650D01*
X40950Y48072D01*
X40398Y48300D01*
D02*
G37*
G36*
X20298Y46900D02*
X19702D01*
X19150Y46672D01*
X18728Y46250D01*
X18500Y45698D01*
Y45102D01*
X18728Y44550D01*
X19150Y44128D01*
X19702Y43900D01*
X20298D01*
X20850Y44128D01*
X21272Y44550D01*
X21500Y45102D01*
Y45698D01*
X21272Y46250D01*
X20850Y46672D01*
X20298Y46900D01*
D02*
G37*
G36*
X71898Y46400D02*
X71302D01*
X70750Y46172D01*
X70328Y45750D01*
X70100Y45198D01*
Y44602D01*
X70328Y44050D01*
X70750Y43628D01*
X71302Y43400D01*
X71898D01*
X72450Y43628D01*
X72872Y44050D01*
X73100Y44602D01*
Y45198D01*
X72872Y45750D01*
X72450Y46172D01*
X71898Y46400D01*
D02*
G37*
G36*
X161298Y45500D02*
X160702D01*
X160150Y45272D01*
X159728Y44850D01*
X159500Y44298D01*
Y43702D01*
X159728Y43150D01*
X160150Y42728D01*
X160702Y42500D01*
X161298D01*
X161850Y42728D01*
X162272Y43150D01*
X162500Y43702D01*
Y44298D01*
X162272Y44850D01*
X161850Y45272D01*
X161298Y45500D01*
D02*
G37*
G36*
X35598Y46500D02*
X35002D01*
X34450Y46272D01*
X34028Y45850D01*
X33800Y45298D01*
Y44702D01*
X34028Y44150D01*
X34450Y43728D01*
X35002Y43500D01*
X35598D01*
X35678Y43533D01*
X36148Y43186D01*
X36328Y42750D01*
X36750Y42328D01*
X37302Y42100D01*
X37898D01*
X38450Y42328D01*
X38872Y42750D01*
X39100Y43302D01*
Y43898D01*
X38872Y44450D01*
X38450Y44872D01*
X37898Y45100D01*
X37302D01*
X37222Y45067D01*
X36752Y45414D01*
X36572Y45850D01*
X36150Y46272D01*
X35598Y46500D01*
D02*
G37*
G36*
X86198Y47000D02*
X85602D01*
X85050Y46772D01*
X84628Y46350D01*
X84400Y45798D01*
Y45202D01*
X84628Y44650D01*
X84802Y44477D01*
X85002Y44150D01*
X84802Y43823D01*
X84628Y43650D01*
X84400Y43098D01*
Y42502D01*
X84628Y41950D01*
X85050Y41528D01*
X85602Y41300D01*
X86198D01*
X86750Y41528D01*
X87172Y41950D01*
X87400Y42502D01*
Y43098D01*
X87172Y43650D01*
X86998Y43823D01*
X86798Y44150D01*
X86998Y44477D01*
X87172Y44650D01*
X87400Y45202D01*
Y45798D01*
X87172Y46350D01*
X86750Y46772D01*
X86198Y47000D01*
D02*
G37*
G36*
X7298Y42500D02*
X6702D01*
X6150Y42272D01*
X5728Y41850D01*
X5500Y41298D01*
Y40702D01*
X5728Y40150D01*
X6150Y39728D01*
X6702Y39500D01*
X7298D01*
X7850Y39728D01*
X8272Y40150D01*
X8500Y40702D01*
Y41298D01*
X8272Y41850D01*
X7850Y42272D01*
X7298Y42500D01*
D02*
G37*
G36*
X72498Y42000D02*
X71902D01*
X71350Y41772D01*
X70928Y41350D01*
X70700Y40798D01*
Y40202D01*
X70928Y39650D01*
X71350Y39228D01*
X71902Y39000D01*
X72498D01*
X73050Y39228D01*
X73472Y39650D01*
X73700Y40202D01*
Y40798D01*
X73472Y41350D01*
X73050Y41772D01*
X72498Y42000D01*
D02*
G37*
G36*
X68798Y41700D02*
X68202D01*
X67650Y41472D01*
X67228Y41050D01*
X67000Y40498D01*
Y39902D01*
X67228Y39350D01*
X67650Y38928D01*
X68202Y38700D01*
X68798D01*
X69350Y38928D01*
X69772Y39350D01*
X70000Y39902D01*
Y40498D01*
X69772Y41050D01*
X69350Y41472D01*
X68798Y41700D01*
D02*
G37*
G36*
X33298Y41600D02*
X32702D01*
X32150Y41372D01*
X31728Y40950D01*
X31500Y40398D01*
Y39802D01*
X31728Y39250D01*
X32150Y38828D01*
X32702Y38600D01*
X33298D01*
X33850Y38828D01*
X34272Y39250D01*
X34500Y39802D01*
Y40398D01*
X34272Y40950D01*
X33850Y41372D01*
X33298Y41600D01*
D02*
G37*
G36*
X19232Y42002D02*
X18484D01*
X17794Y41715D01*
X17265Y41187D01*
X16979Y40496D01*
Y39748D01*
X17265Y39057D01*
X17794Y38529D01*
X18484Y38243D01*
X19232D01*
X19923Y38529D01*
X20452Y39057D01*
X20738Y39748D01*
Y40496D01*
X20452Y41187D01*
X19923Y41715D01*
X19232Y42002D01*
D02*
G37*
G36*
X115698Y40500D02*
X115102D01*
X114550Y40272D01*
X114128Y39850D01*
X113900Y39298D01*
Y38702D01*
X114128Y38150D01*
X114550Y37728D01*
X115102Y37500D01*
X115698D01*
X116250Y37728D01*
X116672Y38150D01*
X116900Y38702D01*
Y39298D01*
X116672Y39850D01*
X116250Y40272D01*
X115698Y40500D01*
D02*
G37*
G36*
X54998Y40400D02*
X54402D01*
X53850Y40172D01*
X53428Y39750D01*
X53200Y39198D01*
Y38602D01*
X53428Y38050D01*
X53850Y37628D01*
X54402Y37400D01*
X54998D01*
X55550Y37628D01*
X55972Y38050D01*
X56200Y38602D01*
Y39198D01*
X55972Y39750D01*
X55550Y40172D01*
X54998Y40400D01*
D02*
G37*
G36*
X42798Y40300D02*
X42202D01*
X41650Y40072D01*
X41228Y39650D01*
X41000Y39098D01*
Y38502D01*
X41228Y37950D01*
X41650Y37528D01*
X42202Y37300D01*
X42798D01*
X43350Y37528D01*
X43772Y37950D01*
X44000Y38502D01*
Y39098D01*
X43772Y39650D01*
X43350Y40072D01*
X42798Y40300D01*
D02*
G37*
G36*
X104998Y41900D02*
X104402D01*
X103850Y41672D01*
X103428Y41250D01*
X103200Y40698D01*
Y40102D01*
X103428Y39550D01*
X103679Y39300D01*
X103428Y39050D01*
X103200Y38498D01*
Y37902D01*
X103428Y37350D01*
X103850Y36928D01*
X104402Y36700D01*
X104998D01*
X105550Y36928D01*
X105972Y37350D01*
X106200Y37902D01*
Y38498D01*
X105972Y39050D01*
X105721Y39300D01*
X105972Y39550D01*
X106200Y40102D01*
Y40698D01*
X105972Y41250D01*
X105550Y41672D01*
X104998Y41900D01*
D02*
G37*
G36*
X30298Y38400D02*
X29702D01*
X29150Y38172D01*
X28728Y37750D01*
X28500Y37198D01*
Y36602D01*
X28728Y36050D01*
X29150Y35628D01*
X29702Y35400D01*
X30298D01*
X30850Y35628D01*
X31272Y36050D01*
X31500Y36602D01*
Y37198D01*
X31272Y37750D01*
X30850Y38172D01*
X30298Y38400D01*
D02*
G37*
G36*
X167277Y41939D02*
X166290D01*
X165336Y41683D01*
X164481Y41189D01*
X163783Y40491D01*
X163289Y39636D01*
X163034Y38683D01*
Y37695D01*
X163289Y36742D01*
X163783Y35887D01*
X164481Y35188D01*
X165336Y34695D01*
X166290Y34439D01*
X167277D01*
X168231Y34695D01*
X169086Y35188D01*
X169784Y35887D01*
X170278Y36742D01*
X170533Y37695D01*
Y38683D01*
X170278Y39636D01*
X169784Y40491D01*
X169086Y41189D01*
X168231Y41683D01*
X167277Y41939D01*
D02*
G37*
G36*
X169798Y33500D02*
X169202D01*
X168650Y33272D01*
X168228Y32850D01*
X168000Y32298D01*
Y31702D01*
X168228Y31150D01*
X168650Y30728D01*
X169202Y30500D01*
X169798D01*
X170350Y30728D01*
X170772Y31150D01*
X171000Y31702D01*
Y32298D01*
X170772Y32850D01*
X170350Y33272D01*
X169798Y33500D01*
D02*
G37*
G36*
X171298Y26000D02*
X170702D01*
X170150Y25772D01*
X169728Y25350D01*
X169500Y24798D01*
Y24202D01*
X169728Y23650D01*
X170150Y23228D01*
X170702Y23000D01*
X171298D01*
X171850Y23228D01*
X172272Y23650D01*
X172500Y24202D01*
Y24798D01*
X172272Y25350D01*
X171850Y25772D01*
X171298Y26000D01*
D02*
G37*
G36*
X26798Y25200D02*
X26202D01*
X25650Y24972D01*
X25228Y24550D01*
X25000Y23998D01*
Y23402D01*
X25228Y22850D01*
X25650Y22428D01*
X26202Y22200D01*
X26798D01*
X27350Y22428D01*
X27772Y22850D01*
X28000Y23402D01*
Y23998D01*
X27772Y24550D01*
X27350Y24972D01*
X26798Y25200D01*
D02*
G37*
G36*
X88357Y21641D02*
X87761D01*
X87209Y21413D01*
X86787Y20991D01*
X86559Y20439D01*
Y19843D01*
X86787Y19291D01*
X87209Y18869D01*
X87761Y18641D01*
X88357D01*
X88909Y18869D01*
X89331Y19291D01*
X89559Y19843D01*
Y20439D01*
X89331Y20991D01*
X88909Y21413D01*
X88357Y21641D01*
D02*
G37*
G36*
X79098Y21300D02*
X78502D01*
X77950Y21072D01*
X77528Y20650D01*
X77300Y20098D01*
Y19502D01*
X77528Y18950D01*
X77950Y18528D01*
X78502Y18300D01*
X79098D01*
X79650Y18528D01*
X80072Y18950D01*
X80300Y19502D01*
Y20098D01*
X80072Y20650D01*
X79650Y21072D01*
X79098Y21300D01*
D02*
G37*
G36*
X119198Y21200D02*
X118602D01*
X118050Y20972D01*
X117628Y20550D01*
X117400Y19998D01*
Y19402D01*
X117628Y18850D01*
X118050Y18428D01*
X118602Y18200D01*
X119198D01*
X119750Y18428D01*
X120172Y18850D01*
X120400Y19402D01*
Y19998D01*
X120172Y20550D01*
X119750Y20972D01*
X119198Y21200D01*
D02*
G37*
G36*
X101798Y21000D02*
X101202D01*
X100650Y20772D01*
X100228Y20350D01*
X100000Y19798D01*
Y19202D01*
X100228Y18650D01*
X100650Y18228D01*
X101202Y18000D01*
X101798D01*
X102350Y18228D01*
X102772Y18650D01*
X103000Y19202D01*
Y19798D01*
X102772Y20350D01*
X102350Y20772D01*
X101798Y21000D01*
D02*
G37*
G36*
X52098Y14200D02*
X51502D01*
X50950Y13972D01*
X50777Y13798D01*
X50450Y13598D01*
X50123Y13798D01*
X49950Y13972D01*
X49398Y14200D01*
X48802D01*
X48250Y13972D01*
X47828Y13550D01*
X47600Y12998D01*
Y12402D01*
X47828Y11850D01*
X48250Y11428D01*
X48802Y11200D01*
X49398D01*
X49950Y11428D01*
X50123Y11602D01*
X50450Y11802D01*
X50777Y11602D01*
X50950Y11428D01*
X51502Y11200D01*
X52098D01*
X52650Y11428D01*
X53072Y11850D01*
X53300Y12402D01*
Y12998D01*
X53072Y13550D01*
X52650Y13972D01*
X52098Y14200D01*
D02*
G37*
G36*
X163500Y98649D02*
X146500D01*
X146041Y98459D01*
X145851Y98000D01*
Y86269D01*
X131041Y71459D01*
X130851Y71000D01*
Y16000D01*
X131041Y15541D01*
X133041Y13541D01*
X133500Y13351D01*
X147500D01*
X147959Y13541D01*
X149959Y15541D01*
X150149Y16000D01*
Y64731D01*
X163959Y78541D01*
X164149Y79000D01*
Y98000D01*
X163959Y98459D01*
X163500Y98649D01*
D02*
G37*
G36*
X64798Y16500D02*
X64202D01*
X63650Y16272D01*
X63228Y15850D01*
X63000Y15298D01*
Y14702D01*
X63228Y14150D01*
X63650Y13728D01*
X64202Y13500D01*
X64365D01*
X64500Y13298D01*
Y12702D01*
X64728Y12150D01*
X65150Y11728D01*
X65702Y11500D01*
X66298D01*
X66850Y11728D01*
X67272Y12150D01*
X67500Y12702D01*
Y13298D01*
X67272Y13850D01*
X66850Y14272D01*
X66298Y14500D01*
X66135D01*
X66000Y14702D01*
Y15298D01*
X65772Y15850D01*
X65350Y16272D01*
X64798Y16500D01*
D02*
G37*
G36*
X119698Y14300D02*
X119102D01*
X118550Y14072D01*
X118128Y13650D01*
X117900Y13098D01*
Y12502D01*
X118128Y11950D01*
X118550Y11528D01*
X119102Y11300D01*
X119698D01*
X120250Y11528D01*
X120672Y11950D01*
X120900Y12502D01*
Y13098D01*
X120672Y13650D01*
X120250Y14072D01*
X119698Y14300D01*
D02*
G37*
G36*
X147898Y11200D02*
X147302D01*
X146750Y10972D01*
X146328Y10550D01*
X146100Y9998D01*
Y9402D01*
X146328Y8850D01*
X146750Y8428D01*
X147302Y8200D01*
X147898D01*
X148450Y8428D01*
X148872Y8850D01*
X149100Y9402D01*
Y9998D01*
X148872Y10550D01*
X148450Y10972D01*
X147898Y11200D01*
D02*
G37*
G36*
X144398D02*
X143802D01*
X143250Y10972D01*
X142828Y10550D01*
X142600Y9998D01*
Y9402D01*
X142828Y8850D01*
X143250Y8428D01*
X143802Y8200D01*
X144398D01*
X144950Y8428D01*
X145372Y8850D01*
X145600Y9402D01*
Y9998D01*
X145372Y10550D01*
X144950Y10972D01*
X144398Y11200D01*
D02*
G37*
G36*
X140898D02*
X140302D01*
X139750Y10972D01*
X139328Y10550D01*
X139100Y9998D01*
Y9402D01*
X139328Y8850D01*
X139750Y8428D01*
X140302Y8200D01*
X140898D01*
X141450Y8428D01*
X141872Y8850D01*
X142100Y9402D01*
Y9998D01*
X141872Y10550D01*
X141450Y10972D01*
X140898Y11200D01*
D02*
G37*
G36*
X137398D02*
X136802D01*
X136250Y10972D01*
X135828Y10550D01*
X135600Y9998D01*
Y9402D01*
X135828Y8850D01*
X136250Y8428D01*
X136802Y8200D01*
X137398D01*
X137950Y8428D01*
X138372Y8850D01*
X138600Y9402D01*
Y9998D01*
X138372Y10550D01*
X137950Y10972D01*
X137398Y11200D01*
D02*
G37*
G36*
X130398D02*
X129802D01*
X129250Y10972D01*
X128828Y10550D01*
X128600Y9998D01*
Y9402D01*
X128828Y8850D01*
X129250Y8428D01*
X129802Y8200D01*
X130398D01*
X130950Y8428D01*
X131372Y8850D01*
X131600Y9402D01*
Y9998D01*
X131372Y10550D01*
X130950Y10972D01*
X130398Y11200D01*
D02*
G37*
G36*
X126798D02*
X126202D01*
X125650Y10972D01*
X125228Y10550D01*
X125000Y9998D01*
Y9402D01*
X125228Y8850D01*
X125650Y8428D01*
X126202Y8200D01*
X126798D01*
X127350Y8428D01*
X127772Y8850D01*
X128000Y9402D01*
Y9998D01*
X127772Y10550D01*
X127350Y10972D01*
X126798Y11200D01*
D02*
G37*
G36*
X123298D02*
X122702D01*
X122150Y10972D01*
X121728Y10550D01*
X121500Y9998D01*
Y9402D01*
X121728Y8850D01*
X122150Y8428D01*
X122702Y8200D01*
X123298D01*
X123850Y8428D01*
X124272Y8850D01*
X124500Y9402D01*
Y9998D01*
X124272Y10550D01*
X123850Y10972D01*
X123298Y11200D01*
D02*
G37*
G36*
X119898Y9000D02*
X119302D01*
X118750Y8772D01*
X118328Y8350D01*
X118100Y7798D01*
Y7202D01*
X118328Y6650D01*
X118750Y6228D01*
X119302Y6000D01*
X119898D01*
X120450Y6228D01*
X120872Y6650D01*
X121100Y7202D01*
Y7798D01*
X120872Y8350D01*
X120450Y8772D01*
X119898Y9000D01*
D02*
G37*
G36*
X104098Y8200D02*
X103502D01*
X102950Y7972D01*
X102528Y7550D01*
X102300Y6998D01*
Y6402D01*
X102528Y5850D01*
X102950Y5428D01*
X103502Y5200D01*
X104098D01*
X104650Y5428D01*
X105072Y5850D01*
X105109Y5940D01*
X105650D01*
X105728Y5750D01*
X106150Y5328D01*
X106702Y5100D01*
X107298D01*
X107850Y5328D01*
X108272Y5750D01*
X108500Y6302D01*
Y6898D01*
X108272Y7450D01*
X107850Y7872D01*
X107298Y8100D01*
X106702D01*
X106150Y7872D01*
X105728Y7450D01*
X105691Y7360D01*
X105150D01*
X105072Y7550D01*
X104650Y7972D01*
X104098Y8200D01*
D02*
G37*
G36*
X82298Y7500D02*
X81702D01*
X81150Y7272D01*
X80728Y6850D01*
X80500Y6298D01*
Y5702D01*
X80728Y5150D01*
X81150Y4728D01*
X81702Y4500D01*
X82298D01*
X82850Y4728D01*
X83272Y5150D01*
X83500Y5702D01*
Y6298D01*
X83272Y6850D01*
X82850Y7272D01*
X82298Y7500D01*
D02*
G37*
G36*
X72198D02*
X71602D01*
X71050Y7272D01*
X70628Y6850D01*
X70400Y6298D01*
Y5702D01*
X70628Y5150D01*
X71050Y4728D01*
X71602Y4500D01*
X72198D01*
X72750Y4728D01*
X73172Y5150D01*
X73400Y5702D01*
Y6298D01*
X73172Y6850D01*
X72750Y7272D01*
X72198Y7500D01*
D02*
G37*
G36*
X137398Y6900D02*
X136802D01*
X136250Y6672D01*
X135828Y6250D01*
X135600Y5698D01*
Y5102D01*
X135828Y4550D01*
X136250Y4128D01*
X136802Y3900D01*
X137398D01*
X137950Y4128D01*
X138372Y4550D01*
X138600Y5102D01*
Y5698D01*
X138372Y6250D01*
X137950Y6672D01*
X137398Y6900D01*
D02*
G37*
%LPD*%
G36*
X136500Y80000D02*
X101500Y80000D01*
Y99000D01*
X136500D01*
Y80000D01*
D02*
G37*
G36*
X88500D02*
X53500Y80000D01*
Y99000D01*
X88500D01*
Y80000D01*
D02*
G37*
G36*
X163500Y79000D02*
X149500Y65000D01*
Y16000D01*
X147500Y14000D01*
X133500D01*
X131500Y16000D01*
Y71000D01*
X146500Y86000D01*
Y98000D01*
X163500D01*
Y79000D01*
D02*
G37*
D26*
X11500Y11500D02*
D03*
Y91000D02*
D03*
X189500D02*
D03*
Y11500D02*
D03*
D27*
X20827Y68528D02*
D03*
Y34472D02*
D03*
D28*
X5079Y68528D02*
D03*
Y34472D02*
D03*
D30*
X84500Y20000D02*
D03*
X82000D02*
D03*
X92500Y25500D02*
D03*
Y28000D02*
D03*
X119500Y27500D02*
D03*
X116500D02*
D03*
X119500Y25000D02*
D03*
X116500D02*
D03*
X119500Y22500D02*
D03*
X116500D02*
D03*
X122500Y27500D02*
D03*
X125000D02*
D03*
Y25000D02*
D03*
X122500D02*
D03*
X125000Y22500D02*
D03*
X122500D02*
D03*
X77000Y55000D02*
D03*
X80000D02*
D03*
X165000Y21500D02*
D03*
Y24000D02*
D03*
Y26500D02*
D03*
Y29000D02*
D03*
X155700Y11600D02*
D03*
X153200D02*
D03*
X127500Y17500D02*
D03*
X125000D02*
D03*
Y20000D02*
D03*
X127500D02*
D03*
X122500D02*
D03*
X116500Y17500D02*
D03*
X62000Y2000D02*
D03*
Y4500D02*
D03*
Y7000D02*
D03*
X42000Y11500D02*
D03*
X39000D02*
D03*
X36000D02*
D03*
X33000D02*
D03*
X30000D02*
D03*
Y14000D02*
D03*
Y16500D02*
D03*
X21500Y3000D02*
D03*
X23500Y19000D02*
D03*
Y16000D02*
D03*
Y13000D02*
D03*
X16000Y46500D02*
D03*
X24000Y25000D02*
D03*
X92600Y39400D02*
D03*
X90200D02*
D03*
X87900D02*
D03*
X104700Y20700D02*
D03*
X100500Y16500D02*
D03*
X61900Y42100D02*
D03*
X159000Y49500D02*
D03*
Y52500D02*
D03*
Y55500D02*
D03*
X75500Y41500D02*
D03*
X126500Y5500D02*
D03*
X107500Y17000D02*
D03*
X124000Y49445D02*
D03*
X126500D02*
D03*
X129000D02*
D03*
X124000Y46945D02*
D03*
X126500D02*
D03*
X129000D02*
D03*
X124000Y44445D02*
D03*
X126500D02*
D03*
X129000D02*
D03*
X124000Y41945D02*
D03*
X126500D02*
D03*
X129000D02*
D03*
X124000Y39445D02*
D03*
X126500D02*
D03*
X129000D02*
D03*
Y56500D02*
D03*
X126500D02*
D03*
Y59000D02*
D03*
X129000D02*
D03*
X124000D02*
D03*
X129000Y61500D02*
D03*
X126500D02*
D03*
X124000D02*
D03*
X129000Y64000D02*
D03*
X126500D02*
D03*
X124000D02*
D03*
X129000Y66500D02*
D03*
X126500D02*
D03*
X124000D02*
D03*
X129000Y69000D02*
D03*
X126500D02*
D03*
X124000D02*
D03*
X129000Y71500D02*
D03*
X126500D02*
D03*
X124000D02*
D03*
X113000Y39500D02*
D03*
Y42000D02*
D03*
X108000Y48500D02*
D03*
Y51000D02*
D03*
X105500Y48500D02*
D03*
Y51000D02*
D03*
Y53500D02*
D03*
Y56000D02*
D03*
Y58500D02*
D03*
X102500D02*
D03*
Y61000D02*
D03*
X105500D02*
D03*
Y63500D02*
D03*
X102500D02*
D03*
X83000Y52500D02*
D03*
Y55000D02*
D03*
Y57500D02*
D03*
Y60000D02*
D03*
X72000Y66500D02*
D03*
X75000D02*
D03*
X78500D02*
D03*
X82000D02*
D03*
X85000D02*
D03*
Y69500D02*
D03*
X82000D02*
D03*
X78500D02*
D03*
X75000D02*
D03*
X72000D02*
D03*
X85000Y72500D02*
D03*
X82000D02*
D03*
X78500D02*
D03*
X75000D02*
D03*
X72000D02*
D03*
X32000Y48500D02*
D03*
X30000Y40000D02*
D03*
Y42500D02*
D03*
X61000Y50000D02*
D03*
X58000Y54000D02*
D03*
Y57000D02*
D03*
X58500Y65000D02*
D03*
X59000Y69500D02*
D03*
Y72500D02*
D03*
X42500Y64500D02*
D03*
X46500D02*
D03*
Y68000D02*
D03*
X42500D02*
D03*
X45500Y25000D02*
D03*
X41500D02*
D03*
Y29000D02*
D03*
X45500D02*
D03*
X49500D02*
D03*
Y33000D02*
D03*
X45500D02*
D03*
X41500D02*
D03*
D31*
X149500Y89000D02*
D03*
X41500Y96000D02*
D03*
X31500D02*
D03*
X36500D02*
D03*
Y90000D02*
D03*
X31500D02*
D03*
X41500D02*
D03*
X36500Y84000D02*
D03*
X31500D02*
D03*
X41500D02*
D03*
X68500Y96000D02*
D03*
X58500Y84000D02*
D03*
X73500Y96000D02*
D03*
X58500Y90000D02*
D03*
X78500Y84000D02*
D03*
X63500D02*
D03*
X78500Y96000D02*
D03*
X73500Y90000D02*
D03*
X68500Y84000D02*
D03*
X83500Y96000D02*
D03*
X63500Y90000D02*
D03*
X73500Y84000D02*
D03*
X83500Y90000D02*
D03*
X63500Y96000D02*
D03*
X58500D02*
D03*
X83500Y84000D02*
D03*
X68500Y90000D02*
D03*
X78500D02*
D03*
X126500D02*
D03*
X116500D02*
D03*
X131500Y84000D02*
D03*
X106500Y96000D02*
D03*
X111500D02*
D03*
X131500Y90000D02*
D03*
X121500Y84000D02*
D03*
X111500Y90000D02*
D03*
X131500Y96000D02*
D03*
X116500Y84000D02*
D03*
X121500Y90000D02*
D03*
X126500Y96000D02*
D03*
X111500Y84000D02*
D03*
X126500D02*
D03*
X106500Y90000D02*
D03*
X121500Y96000D02*
D03*
X106500Y84000D02*
D03*
X116500Y96000D02*
D03*
X145500Y17000D02*
D03*
X135500D02*
D03*
X140500D02*
D03*
X145500Y43000D02*
D03*
X135500D02*
D03*
X140500D02*
D03*
X145500Y49000D02*
D03*
X135500D02*
D03*
X140500D02*
D03*
X145500Y57000D02*
D03*
X135500D02*
D03*
X140500D02*
D03*
X145500Y65000D02*
D03*
X135500D02*
D03*
X140500D02*
D03*
X145500Y71000D02*
D03*
X135500D02*
D03*
X140500D02*
D03*
X154500Y77000D02*
D03*
X144500D02*
D03*
X149500D02*
D03*
X159500Y83000D02*
D03*
X149500D02*
D03*
X154500D02*
D03*
X159500Y89000D02*
D03*
X154500D02*
D03*
Y95000D02*
D03*
X149500D02*
D03*
X159500D02*
D03*
M02*
