G04*
G04 #@! TF.GenerationSoftware,Altium Limited,Altium Designer,21.6.1 (37)*
G04*
G04 Layer_Color=16711935*
%FSLAX25Y25*%
%MOIN*%
G70*
G04*
G04 #@! TF.SameCoordinates,93F7CD1F-D677-4927-938F-0EEAFF98D495*
G04*
G04*
G04 #@! TF.FilePolarity,Positive*
G04*
G01*
G75*
%ADD109C,0.00394*%
%ADD110C,0.00200*%
D109*
X109299Y16799D02*
G03*
X109299Y16799I-1969J0D01*
G01*
X110874Y658D02*
Y20343D01*
X95126Y658D02*
Y20343D01*
X110874D01*
X95126Y658D02*
X110874D01*
X85957Y21398D02*
X93043D01*
X85957Y33602D02*
X93043D01*
X85957Y21398D02*
Y33602D01*
X93043Y21398D02*
Y33602D01*
X79457Y61102D02*
X86543D01*
Y48898D02*
Y61102D01*
X79457Y48898D02*
Y61102D01*
Y48898D02*
X86543D01*
D110*
X32016Y49968D02*
X33984D01*
X32016Y46031D02*
X33984D01*
X32016D02*
Y49968D01*
X33984Y46031D02*
Y49968D01*
X32400Y48000D02*
X33600D01*
X33000Y47400D02*
Y48600D01*
X36600Y47400D02*
Y48600D01*
X36000Y48000D02*
X37200D01*
X35616Y46031D02*
Y49968D01*
X37584Y46031D02*
Y49968D01*
X35616D02*
X37584D01*
X35616Y46031D02*
X37584D01*
X116032Y37516D02*
Y39484D01*
X119968Y37516D02*
Y39484D01*
X116032Y37516D02*
X119968D01*
X116032Y39484D02*
X119968D01*
X118000Y37900D02*
Y39100D01*
X117400Y38500D02*
X118600D01*
X103516Y27031D02*
X105484D01*
X103516Y30968D02*
X105484D01*
X105484Y27031D02*
Y30968D01*
X103516Y27031D02*
Y30968D01*
X103900Y29000D02*
X105100D01*
X104500Y28400D02*
Y29600D01*
X147550Y5900D02*
Y7100D01*
X146950Y6500D02*
X148150D01*
X148534Y4532D02*
Y8468D01*
X146566Y4532D02*
Y8468D01*
X146566Y4532D02*
X148534D01*
X146566Y8468D02*
X148534D01*
X144050Y5900D02*
Y7100D01*
X143450Y6500D02*
X144650D01*
X145034Y4532D02*
Y8468D01*
X143066Y4532D02*
Y8468D01*
X143066Y4532D02*
X145034D01*
X143066Y8468D02*
X145034D01*
X126550Y5900D02*
Y7100D01*
X125950Y6500D02*
X127150D01*
X125566Y4532D02*
Y8468D01*
X127534Y4532D02*
Y8468D01*
X125566D02*
X127534D01*
X125566Y4532D02*
X127534D01*
X139566D02*
X141534D01*
X139566Y8468D02*
X141534D01*
X141534Y4532D02*
Y8468D01*
X139566Y4532D02*
Y8468D01*
X139950Y6500D02*
X141150D01*
X140550Y5900D02*
Y7100D01*
X136066Y4532D02*
X138034D01*
X136066Y8468D02*
X138034D01*
X138034Y4532D02*
Y8468D01*
X136066Y4532D02*
Y8468D01*
X136450Y6500D02*
X137650D01*
X137050Y5900D02*
Y7100D01*
X132566Y8468D02*
X134534D01*
X132566Y4532D02*
X134534D01*
X132566D02*
Y8468D01*
X134534Y4532D02*
Y8468D01*
X132950Y6500D02*
X134150D01*
X133550Y5900D02*
Y7100D01*
X129066Y4532D02*
X131034D01*
X129066Y8468D02*
X131034D01*
X131034Y4532D02*
Y8468D01*
X129066Y4532D02*
Y8468D01*
X129450Y6500D02*
X130650D01*
X130050Y5900D02*
Y7100D01*
X122066Y4532D02*
X124034D01*
X122066Y8468D02*
X124034D01*
X124034Y4532D02*
Y8468D01*
X122066Y4532D02*
Y8468D01*
X122450Y6500D02*
X123650D01*
X123050Y5900D02*
Y7100D01*
X118566Y8468D02*
X120534D01*
X118566Y4532D02*
X120534D01*
X118566D02*
Y8468D01*
X120534Y4532D02*
Y8468D01*
X118950Y6500D02*
X120150D01*
X119550Y5900D02*
Y7100D01*
X69900Y41500D02*
X71100D01*
X70500Y40900D02*
Y42100D01*
X68532Y42484D02*
X72469D01*
X68532Y40516D02*
X72469D01*
Y40516D02*
Y42484D01*
X68532Y40516D02*
Y42484D01*
X69900Y45000D02*
X71100D01*
X70500Y44400D02*
Y45600D01*
X68532Y45984D02*
X72469D01*
X68532Y44016D02*
X72469D01*
Y44016D02*
Y45984D01*
X68532Y44016D02*
Y45984D01*
X16016Y58469D02*
X17984D01*
X16016Y54532D02*
X17984D01*
X16016D02*
Y58469D01*
X17984Y54532D02*
Y58469D01*
X16400Y56500D02*
X17600D01*
X17000Y55900D02*
Y57100D01*
X22532Y61516D02*
Y63484D01*
X26469Y61516D02*
Y63484D01*
X22532Y61516D02*
X26469D01*
X22532Y63484D02*
X26469D01*
X24500Y61900D02*
Y63100D01*
X23900Y62500D02*
X25100D01*
X115016Y62968D02*
X116984D01*
X115016Y59031D02*
X116984D01*
X115016D02*
Y62968D01*
X116984Y59031D02*
Y62968D01*
X115400Y61000D02*
X116600D01*
X116000Y60400D02*
Y61600D01*
X115016Y54469D02*
X116984D01*
X115016Y50532D02*
X116984D01*
X115016D02*
Y54469D01*
X116984Y50532D02*
Y54469D01*
X115400Y52500D02*
X116600D01*
X116000Y51900D02*
Y53100D01*
X119016Y54469D02*
X120984D01*
X119016Y50532D02*
X120984D01*
X119016D02*
Y54469D01*
X120984Y50532D02*
Y54469D01*
X119400Y52500D02*
X120600D01*
X120000Y51900D02*
Y53100D01*
X119016Y42031D02*
X120984D01*
X119016Y45968D02*
X120984D01*
X120984Y42031D02*
Y45968D01*
X119016Y42031D02*
Y45968D01*
X119400Y44000D02*
X120600D01*
X120000Y43400D02*
Y44600D01*
X115016Y42031D02*
X116984D01*
X115016Y45968D02*
X116984D01*
X116984Y42031D02*
Y45968D01*
X115016Y42031D02*
Y45968D01*
X115400Y44000D02*
X116600D01*
X116000Y43400D02*
Y44600D01*
X119016Y62968D02*
X120984D01*
X119016Y59031D02*
X120984D01*
X119016D02*
Y62968D01*
X120984Y59031D02*
Y62968D01*
X119400Y61000D02*
X120600D01*
X120000Y60400D02*
Y61600D01*
X101563Y59539D02*
Y64461D01*
X109437Y59539D02*
Y64461D01*
X101563Y59539D02*
X109437D01*
X101563Y64461D02*
X109437D01*
X104500Y62000D02*
X106500D01*
X105500Y61000D02*
Y63000D01*
X64969Y52016D02*
Y53984D01*
X61032Y52016D02*
Y53984D01*
Y53984D02*
X64969D01*
X61032Y52016D02*
X64969D01*
X63000Y52400D02*
Y53600D01*
X62400Y53000D02*
X63600D01*
X99016Y27031D02*
X100984D01*
X99016Y30968D02*
X100984D01*
X100984Y27031D02*
Y30968D01*
X99016Y27031D02*
Y30968D01*
X99400Y29000D02*
X100600D01*
X100000Y28400D02*
Y29600D01*
X46116Y46031D02*
X48084D01*
X46116Y49968D02*
X48084D01*
X48084Y46031D02*
Y49968D01*
X46116Y46031D02*
Y49968D01*
X46500Y48000D02*
X47700D01*
X47100Y47400D02*
Y48600D01*
X61032Y59016D02*
Y60984D01*
X64969Y59016D02*
Y60984D01*
X61032Y59016D02*
X64969D01*
X61032Y60984D02*
X64969D01*
X63000Y59400D02*
Y60600D01*
X62400Y60000D02*
X63600D01*
X42616Y46031D02*
X44584D01*
X42616Y49968D02*
X44584D01*
X44584Y46031D02*
Y49968D01*
X42616Y46031D02*
Y49968D01*
X43000Y48000D02*
X44200D01*
X43600Y47400D02*
Y48600D01*
X17031Y44516D02*
Y46484D01*
X20968Y44516D02*
Y46484D01*
X17031Y44516D02*
X20968D01*
X17031Y46484D02*
X20968D01*
X19000Y44900D02*
Y46100D01*
X18400Y45500D02*
X19600D01*
X119500Y13400D02*
Y14600D01*
X118900Y14000D02*
X120100D01*
X118516Y12032D02*
Y15969D01*
X120484Y12032D02*
Y15969D01*
X118516D02*
X120484D01*
X118516Y12032D02*
X120484D01*
X109900Y40500D02*
X111100D01*
X110500Y39900D02*
Y41100D01*
X108531Y39516D02*
X112469D01*
X108531Y41484D02*
X112469D01*
X108531Y39516D02*
Y41484D01*
X112469Y39516D02*
Y41484D01*
X62400Y56500D02*
X63600D01*
X63000Y55900D02*
Y57100D01*
X61032Y57484D02*
X64969D01*
X61032Y55516D02*
X64969D01*
Y55516D02*
Y57484D01*
X61032Y55516D02*
Y57484D01*
X17031Y48516D02*
Y50484D01*
X20968Y48516D02*
Y50484D01*
X17031Y48516D02*
X20968D01*
X17031Y50484D02*
X20968D01*
X19000Y48900D02*
Y50100D01*
X18400Y49500D02*
X19600D01*
X25900Y26000D02*
X27100D01*
X26500Y25400D02*
Y26600D01*
X24532Y25016D02*
X28468D01*
X24532Y26984D02*
X28468D01*
X24532Y25016D02*
Y26984D01*
X28468Y25016D02*
Y26984D01*
X109900Y37000D02*
X111100D01*
X110500Y36400D02*
Y37600D01*
X108531Y36016D02*
X112469D01*
X108531Y37984D02*
X112469D01*
X108531Y36016D02*
Y37984D01*
X112469Y36016D02*
Y37984D01*
X109900Y44000D02*
X111100D01*
X110500Y43400D02*
Y44600D01*
X108531Y43016D02*
X112469D01*
X108531Y44984D02*
X112469D01*
X108531Y43016D02*
Y44984D01*
X112469Y43016D02*
Y44984D01*
X100000Y39000D02*
Y41000D01*
X99000Y40000D02*
X101000D01*
X54100Y47400D02*
Y48600D01*
X53500Y48000D02*
X54700D01*
X55084Y46031D02*
Y49968D01*
X53116Y46031D02*
Y49968D01*
X53116Y46031D02*
X55084D01*
X53116Y49968D02*
X55084D01*
X96000Y49400D02*
Y50600D01*
X95400Y50000D02*
X96600D01*
X96984Y48031D02*
Y51968D01*
X95016Y48031D02*
Y51968D01*
X95016Y48031D02*
X96984D01*
X95016Y51968D02*
X96984D01*
X57600Y47400D02*
Y48600D01*
X57000Y48000D02*
X58200D01*
X58584Y46031D02*
Y49968D01*
X56616Y46031D02*
Y49968D01*
X56616Y46031D02*
X58584D01*
X56616Y49968D02*
X58584D01*
X69900Y53000D02*
X71100D01*
X70500Y52400D02*
Y53600D01*
X68532Y53984D02*
X72469D01*
X68532Y52016D02*
X72469D01*
Y52016D02*
Y53984D01*
X68532Y52016D02*
Y53984D01*
X77900Y41500D02*
X79100D01*
X78500Y40900D02*
Y42100D01*
X76531Y42484D02*
X80468D01*
X76531Y40516D02*
X80468D01*
Y40516D02*
Y42484D01*
X76531Y40516D02*
Y42484D01*
X77900Y45000D02*
X79100D01*
X78500Y44400D02*
Y45600D01*
X76531Y45984D02*
X80468D01*
X76531Y44016D02*
X80468D01*
Y44016D02*
Y45984D01*
X76531Y44016D02*
Y45984D01*
X91516Y55532D02*
X93484D01*
X91516Y59469D02*
X93484D01*
X93484Y55532D02*
Y59469D01*
X91516Y55532D02*
Y59469D01*
X91900Y57500D02*
X93100D01*
X92500Y56900D02*
Y58100D01*
X69900Y49500D02*
X71100D01*
X70500Y48900D02*
Y50100D01*
X68532Y50484D02*
X72469D01*
X68532Y48516D02*
X72469D01*
Y48516D02*
Y50484D01*
X68532Y48516D02*
Y50484D01*
Y59016D02*
Y60984D01*
X72469Y59016D02*
Y60984D01*
X68532Y59016D02*
X72469D01*
X68532Y60984D02*
X72469D01*
X70500Y59400D02*
Y60600D01*
X69900Y60000D02*
X71100D01*
X24532Y28516D02*
Y30484D01*
X28468Y28516D02*
Y30484D01*
X24532Y28516D02*
X28468D01*
X24532Y30484D02*
X28468D01*
X26500Y28900D02*
Y30100D01*
X25900Y29500D02*
X27100D01*
X39116Y46031D02*
X41084D01*
X39116Y49968D02*
X41084D01*
X41084Y46031D02*
Y49968D01*
X39116Y46031D02*
Y49968D01*
X39500Y48000D02*
X40700D01*
X40100Y47400D02*
Y48600D01*
X72469Y55516D02*
Y57484D01*
X68532Y55516D02*
Y57484D01*
Y57484D02*
X72469D01*
X68532Y55516D02*
X72469D01*
X70500Y55900D02*
Y57100D01*
X69900Y56500D02*
X71100D01*
X49616Y49968D02*
X51584D01*
X49616Y46031D02*
X51584D01*
X49616D02*
Y49968D01*
X51584Y46031D02*
Y49968D01*
X50000Y48000D02*
X51200D01*
X50600Y47400D02*
Y48600D01*
X96000Y56900D02*
Y58100D01*
X95400Y57500D02*
X96600D01*
X96984Y55532D02*
Y59469D01*
X95016Y55532D02*
Y59469D01*
X95016Y55532D02*
X96984D01*
X95016Y59469D02*
X96984D01*
X27516Y69532D02*
X29484D01*
X27516Y73469D02*
X29484D01*
X29484Y69532D02*
Y73469D01*
X27516Y69532D02*
Y73469D01*
X27900Y71500D02*
X29100D01*
X28500Y70900D02*
Y72100D01*
X109501Y70999D02*
Y72999D01*
X108501Y71999D02*
X110501D01*
X99659Y77314D02*
X119344D01*
Y66684D02*
Y77314D01*
X99659Y66684D02*
Y77314D01*
Y66684D02*
X119344D01*
M02*
