G04*
G04 #@! TF.GenerationSoftware,Altium Limited,Altium Designer,21.6.1 (37)*
G04*
G04 Layer_Color=2752767*
%FSLAX25Y25*%
%MOIN*%
G70*
G04*
G04 #@! TF.SameCoordinates,93F7CD1F-D677-4927-938F-0EEAFF98D495*
G04*
G04*
G04 #@! TF.FilePolarity,Positive*
G04*
G01*
G75*
%ADD10C,0.01000*%
%ADD24C,0.01500*%
%ADD110C,0.00200*%
%ADD111C,0.01600*%
%ADD112C,0.01400*%
D10*
X14096Y196028D02*
G03*
X14096Y196028I-3333J0D01*
G01*
X9096Y254361D02*
X10763Y252694D01*
X7429Y254361D02*
X9096D01*
X7429D02*
X9096Y256028D01*
X7429Y257694D02*
X9096Y256028D01*
X7429Y257694D02*
X9096D01*
X10763Y259361D01*
X12429Y257694D01*
X14096D01*
X12429Y256028D02*
X14096Y257694D01*
X12429Y256028D02*
X14096Y254361D01*
X12429D02*
X14096D01*
X10763Y252694D02*
X12429Y254361D01*
X10763Y237694D02*
X14096Y244361D01*
X7429D02*
X14096D01*
X7429D02*
X10763Y237694D01*
X7429Y222694D02*
X10763Y224361D01*
X14096Y222694D01*
X12429Y226027D02*
X14096Y222694D01*
X12429Y226027D02*
X14096Y229361D01*
X10763Y227694D02*
X14096Y229361D01*
X7429D02*
X10763Y227694D01*
X7429Y229361D02*
X9096Y226027D01*
X7429Y222694D02*
X9096Y226027D01*
X7429Y209361D02*
X9096D01*
X7429D02*
Y212694D01*
X9096D01*
Y214361D01*
X12429D01*
Y212694D02*
Y214361D01*
Y212694D02*
X14096D01*
Y209361D02*
Y212694D01*
X12429Y209361D02*
X14096D01*
X12429Y207694D02*
Y209361D01*
X9096Y207694D02*
X12429D01*
X9096D02*
Y209361D01*
X7429Y177694D02*
X14096D01*
Y184361D01*
X7429D02*
X14096D01*
X7429Y177694D02*
Y184361D01*
Y162694D02*
Y164361D01*
X9096Y166027D01*
X7429Y167694D02*
X9096Y166027D01*
X7429Y167694D02*
Y169361D01*
X9096D01*
X10763Y167694D01*
X12429Y169361D01*
X14096D01*
Y167694D02*
Y169361D01*
X12429Y166027D02*
X14096Y167694D01*
X12429Y166027D02*
X14096Y164361D01*
Y162694D02*
Y164361D01*
X12429Y162694D02*
X14096D01*
X10763Y164361D02*
X12429Y162694D01*
X9096D02*
X10763Y164361D01*
X7429Y162694D02*
X9096D01*
X1193517Y252694D02*
X1189518D01*
X1193517Y256693D01*
Y257693D01*
X1192517Y258692D01*
X1190518D01*
X1189518Y257693D01*
X1195516D02*
X1196516Y258692D01*
X1198515D01*
X1199515Y257693D01*
Y256693D01*
X1198515Y255693D01*
X1197516D01*
X1198515D01*
X1199515Y254694D01*
Y253694D01*
X1198515Y252694D01*
X1196516D01*
X1195516Y253694D01*
X1201514Y252694D02*
Y253694D01*
X1202514D01*
Y252694D01*
X1201514D01*
X1210511Y258692D02*
X1208512Y257693D01*
X1206513Y255693D01*
Y253694D01*
X1207512Y252694D01*
X1209512D01*
X1210511Y253694D01*
Y254694D01*
X1209512Y255693D01*
X1206513D01*
X1216509Y252694D02*
X1212511D01*
X1216509Y256693D01*
Y257693D01*
X1215510Y258692D01*
X1213510D01*
X1212511Y257693D01*
X1218509Y252694D02*
Y256693D01*
X1219508D01*
X1220508Y255693D01*
Y252694D01*
Y255693D01*
X1221508Y256693D01*
X1222507Y255693D01*
Y252694D01*
X1224507D02*
X1226506D01*
X1225506D01*
Y256693D01*
X1224507D01*
X1229505Y252694D02*
X1231505D01*
X1230505D01*
Y258692D01*
X1229505D01*
X1242501Y252694D02*
X1240502Y254694D01*
Y256693D01*
X1242501Y258692D01*
X1245500Y257693D02*
X1246500Y258692D01*
X1248499D01*
X1249499Y257693D01*
Y253694D01*
X1248499Y252694D01*
X1246500D01*
X1245500Y253694D01*
Y257693D01*
X1251498Y252694D02*
Y253694D01*
X1252498D01*
Y252694D01*
X1251498D01*
X1260495Y258692D02*
X1258496Y257693D01*
X1256497Y255693D01*
Y253694D01*
X1257496Y252694D01*
X1259496D01*
X1260495Y253694D01*
Y254694D01*
X1259496Y255693D01*
X1256497D01*
X1262494Y257693D02*
X1263494Y258692D01*
X1265494D01*
X1266493Y257693D01*
Y253694D01*
X1265494Y252694D01*
X1263494D01*
X1262494Y253694D01*
Y257693D01*
X1268493D02*
X1269492Y258692D01*
X1271492D01*
X1272491Y257693D01*
Y253694D01*
X1271492Y252694D01*
X1269492D01*
X1268493Y253694D01*
Y257693D01*
X1274491Y252694D02*
Y256693D01*
X1275490D01*
X1276490Y255693D01*
Y252694D01*
Y255693D01*
X1277490Y256693D01*
X1278489Y255693D01*
Y252694D01*
X1280489D02*
Y256693D01*
X1281488D01*
X1282488Y255693D01*
Y252694D01*
Y255693D01*
X1283488Y256693D01*
X1284487Y255693D01*
Y252694D01*
X1286487D02*
X1288486Y254694D01*
Y256693D01*
X1286487Y258692D01*
X1192517Y237694D02*
Y243692D01*
X1189518Y240693D01*
X1193517D01*
X1195516Y242692D02*
X1196516Y243692D01*
X1198515D01*
X1199515Y242692D01*
Y241693D01*
X1198515Y240693D01*
X1197516D01*
X1198515D01*
X1199515Y239693D01*
Y238694D01*
X1198515Y237694D01*
X1196516D01*
X1195516Y238694D01*
X1201514Y237694D02*
Y238694D01*
X1202514D01*
Y237694D01*
X1201514D01*
X1206513Y242692D02*
X1207512Y243692D01*
X1209512D01*
X1210511Y242692D01*
Y241693D01*
X1209512Y240693D01*
X1208512D01*
X1209512D01*
X1210511Y239693D01*
Y238694D01*
X1209512Y237694D01*
X1207512D01*
X1206513Y238694D01*
X1212511Y237694D02*
X1214510D01*
X1213510D01*
Y243692D01*
X1212511Y242692D01*
X1217509Y237694D02*
Y241693D01*
X1218509D01*
X1219508Y240693D01*
Y237694D01*
Y240693D01*
X1220508Y241693D01*
X1221508Y240693D01*
Y237694D01*
X1223507D02*
X1225506D01*
X1224507D01*
Y241693D01*
X1223507D01*
X1228506Y237694D02*
X1230505D01*
X1229505D01*
Y243692D01*
X1228506D01*
X1241501Y237694D02*
X1239502Y239693D01*
Y241693D01*
X1241501Y243692D01*
X1244500Y237694D02*
X1246500D01*
X1245500D01*
Y243692D01*
X1244500Y242692D01*
X1249499Y237694D02*
Y238694D01*
X1250498D01*
Y237694D01*
X1249499D01*
X1254497D02*
X1256497D01*
X1255497D01*
Y243692D01*
X1254497Y242692D01*
X1259496D02*
X1260495Y243692D01*
X1262494D01*
X1263494Y242692D01*
Y238694D01*
X1262494Y237694D01*
X1260495D01*
X1259496Y238694D01*
Y242692D01*
X1265494D02*
X1266493Y243692D01*
X1268493D01*
X1269492Y242692D01*
Y238694D01*
X1268493Y237694D01*
X1266493D01*
X1265494Y238694D01*
Y242692D01*
X1271492Y237694D02*
Y241693D01*
X1272491D01*
X1273491Y240693D01*
Y237694D01*
Y240693D01*
X1274491Y241693D01*
X1275490Y240693D01*
Y237694D01*
X1277490D02*
Y241693D01*
X1278489D01*
X1279489Y240693D01*
Y237694D01*
Y240693D01*
X1280489Y241693D01*
X1281488Y240693D01*
Y237694D01*
X1283488D02*
X1285487Y239693D01*
Y241693D01*
X1283488Y243692D01*
X1189518Y225693D02*
X1193517D01*
X1189518Y210693D02*
X1193517D01*
X1189518Y195693D02*
X1193517D01*
X1189518Y180693D02*
X1193517D01*
X1189518Y165693D02*
X1193517D01*
X1083549Y252694D02*
Y258692D01*
X1080550Y255693D01*
X1084549D01*
X1086548Y258692D02*
X1090547D01*
Y257693D01*
X1086548Y253694D01*
Y252694D01*
X1092546D02*
Y253694D01*
X1093546D01*
Y252694D01*
X1092546D01*
X1101543D02*
X1097544D01*
X1101543Y256693D01*
Y257693D01*
X1100543Y258692D01*
X1098544D01*
X1097544Y257693D01*
X1106542Y252694D02*
Y258692D01*
X1103542Y255693D01*
X1107541D01*
X1109540Y252694D02*
Y256693D01*
X1110540D01*
X1111540Y255693D01*
Y252694D01*
Y255693D01*
X1112539Y256693D01*
X1113539Y255693D01*
Y252694D01*
X1115539D02*
X1117538D01*
X1116538D01*
Y256693D01*
X1115539D01*
X1120537Y252694D02*
X1122536D01*
X1121537D01*
Y258692D01*
X1120537D01*
X1133533Y252694D02*
X1131533Y254694D01*
Y256693D01*
X1133533Y258692D01*
X1136532Y252694D02*
X1138531D01*
X1137531D01*
Y258692D01*
X1136532Y257693D01*
X1141530Y252694D02*
Y253694D01*
X1142530D01*
Y252694D01*
X1141530D01*
X1150527D02*
X1146529D01*
X1150527Y256693D01*
Y257693D01*
X1149527Y258692D01*
X1147528D01*
X1146529Y257693D01*
X1152527D02*
X1153526Y258692D01*
X1155526D01*
X1156525Y257693D01*
Y253694D01*
X1155526Y252694D01*
X1153526D01*
X1152527Y253694D01*
Y257693D01*
X1158525D02*
X1159524Y258692D01*
X1161524D01*
X1162523Y257693D01*
Y253694D01*
X1161524Y252694D01*
X1159524D01*
X1158525Y253694D01*
Y257693D01*
X1164523Y252694D02*
Y256693D01*
X1165522D01*
X1166522Y255693D01*
Y252694D01*
Y255693D01*
X1167522Y256693D01*
X1168521Y255693D01*
Y252694D01*
X1170521D02*
Y256693D01*
X1171520D01*
X1172520Y255693D01*
Y252694D01*
Y255693D01*
X1173520Y256693D01*
X1174520Y255693D01*
Y252694D01*
X1176519D02*
X1178518Y254694D01*
Y256693D01*
X1176519Y258692D01*
X1084549Y243692D02*
X1082549Y242692D01*
X1080550Y240693D01*
Y238694D01*
X1081550Y237694D01*
X1083549D01*
X1084549Y238694D01*
Y239693D01*
X1083549Y240693D01*
X1080550D01*
X1090547Y243692D02*
X1088547Y242692D01*
X1086548Y240693D01*
Y238694D01*
X1087548Y237694D01*
X1089547D01*
X1090547Y238694D01*
Y239693D01*
X1089547Y240693D01*
X1086548D01*
X1092546Y237694D02*
Y238694D01*
X1093546D01*
Y237694D01*
X1092546D01*
X1097544Y238694D02*
X1098544Y237694D01*
X1100543D01*
X1101543Y238694D01*
Y242692D01*
X1100543Y243692D01*
X1098544D01*
X1097544Y242692D01*
Y241693D01*
X1098544Y240693D01*
X1101543D01*
X1103542Y242692D02*
X1104542Y243692D01*
X1106542D01*
X1107541Y242692D01*
Y241693D01*
X1106542Y240693D01*
X1105542D01*
X1106542D01*
X1107541Y239693D01*
Y238694D01*
X1106542Y237694D01*
X1104542D01*
X1103542Y238694D01*
X1109540Y237694D02*
Y241693D01*
X1110540D01*
X1111540Y240693D01*
Y237694D01*
Y240693D01*
X1112539Y241693D01*
X1113539Y240693D01*
Y237694D01*
X1115539D02*
X1117538D01*
X1116538D01*
Y241693D01*
X1115539D01*
X1120537Y237694D02*
X1122536D01*
X1121537D01*
Y243692D01*
X1120537D01*
X1133533Y237694D02*
X1131533Y239693D01*
Y241693D01*
X1133533Y243692D01*
X1136532Y237694D02*
X1138531D01*
X1137531D01*
Y243692D01*
X1136532Y242692D01*
X1141530Y237694D02*
Y238694D01*
X1142530D01*
Y237694D01*
X1141530D01*
X1146529Y243692D02*
X1150527D01*
Y242692D01*
X1146529Y238694D01*
Y237694D01*
X1152527Y242692D02*
X1153526Y243692D01*
X1155526D01*
X1156525Y242692D01*
Y238694D01*
X1155526Y237694D01*
X1153526D01*
X1152527Y238694D01*
Y242692D01*
X1158525D02*
X1159524Y243692D01*
X1161524D01*
X1162523Y242692D01*
Y238694D01*
X1161524Y237694D01*
X1159524D01*
X1158525Y238694D01*
Y242692D01*
X1164523Y237694D02*
Y241693D01*
X1165522D01*
X1166522Y240693D01*
Y237694D01*
Y240693D01*
X1167522Y241693D01*
X1168521Y240693D01*
Y237694D01*
X1170521D02*
Y241693D01*
X1171520D01*
X1172520Y240693D01*
Y237694D01*
Y240693D01*
X1173520Y241693D01*
X1174520Y240693D01*
Y237694D01*
X1176519D02*
X1178518Y239693D01*
Y241693D01*
X1176519Y243692D01*
X1080550Y225693D02*
X1084549D01*
X1080550Y210693D02*
X1084549D01*
X1080550Y195693D02*
X1084549D01*
X1080550Y180693D02*
X1084549D01*
X1080550Y165693D02*
X1084549D01*
X609487Y256693D02*
Y252694D01*
Y254694D01*
X610487Y255693D01*
X611486Y256693D01*
X612486D01*
X615485Y252694D02*
X617484D01*
X616485D01*
Y258692D01*
X615485Y257693D01*
X624482Y258692D02*
X622483Y257693D01*
X620483Y255693D01*
Y253694D01*
X621483Y252694D01*
X623482D01*
X624482Y253694D01*
Y254694D01*
X623482Y255693D01*
X620483D01*
X626481Y257693D02*
X627481Y258692D01*
X629481D01*
X630480Y257693D01*
Y253694D01*
X629481Y252694D01*
X627481D01*
X626481Y253694D01*
Y257693D01*
X632479Y251694D02*
X636478D01*
X638478Y252694D02*
X640477D01*
X639477D01*
Y258692D01*
X638478Y257693D01*
X643476D02*
X644476Y258692D01*
X646475D01*
X647475Y257693D01*
Y253694D01*
X646475Y252694D01*
X644476D01*
X643476Y253694D01*
Y257693D01*
X649474D02*
X650474Y258692D01*
X652473D01*
X653473Y257693D01*
Y253694D01*
X652473Y252694D01*
X650474D01*
X649474Y253694D01*
Y257693D01*
X655472Y258692D02*
Y252694D01*
Y255693D01*
X656472Y256693D01*
X658471D01*
X659471Y255693D01*
Y252694D01*
X665469Y258692D02*
X663470Y257693D01*
X661470Y255693D01*
Y253694D01*
X662470Y252694D01*
X664469D01*
X665469Y253694D01*
Y254694D01*
X664469Y255693D01*
X661470D01*
X667468Y257693D02*
X668468Y258692D01*
X670467D01*
X671467Y257693D01*
Y253694D01*
X670467Y252694D01*
X668468D01*
X667468Y253694D01*
Y257693D01*
X673466Y251694D02*
X677465D01*
X679464Y252694D02*
X681464D01*
X680464D01*
Y258692D01*
X679464Y257693D01*
X688461Y252694D02*
X684463D01*
X688461Y256693D01*
Y257693D01*
X687462Y258692D01*
X685462D01*
X684463Y257693D01*
X690461D02*
X691460Y258692D01*
X693460D01*
X694459Y257693D01*
Y253694D01*
X693460Y252694D01*
X691460D01*
X690461Y253694D01*
Y257693D01*
X696459Y256693D02*
Y252694D01*
Y254694D01*
X697459Y255693D01*
X698458Y256693D01*
X699458D01*
X702457Y252694D02*
X704456D01*
X703456D01*
Y258692D01*
X702457Y257693D01*
X707455D02*
X708455Y258692D01*
X710454D01*
X711454Y257693D01*
Y253694D01*
X710454Y252694D01*
X708455D01*
X707455Y253694D01*
Y257693D01*
X713453D02*
X714453Y258692D01*
X716452D01*
X717452Y257693D01*
Y253694D01*
X716452Y252694D01*
X714453D01*
X713453Y253694D01*
Y257693D01*
X609487Y241693D02*
Y237694D01*
Y239693D01*
X610487Y240693D01*
X611486Y241693D01*
X612486D01*
X619484Y237694D02*
X615485D01*
X619484Y241693D01*
Y242692D01*
X618484Y243692D01*
X616485D01*
X615485Y242692D01*
X621483Y237694D02*
X623482D01*
X622483D01*
Y243692D01*
X621483Y242692D01*
X626481D02*
X627481Y243692D01*
X629481D01*
X630480Y242692D01*
Y238694D01*
X629481Y237694D01*
X627481D01*
X626481Y238694D01*
Y242692D01*
X632479Y236695D02*
X636478D01*
X638478Y237694D02*
X640477D01*
X639477D01*
Y243692D01*
X638478Y242692D01*
X643476D02*
X644476Y243692D01*
X646475D01*
X647475Y242692D01*
Y238694D01*
X646475Y237694D01*
X644476D01*
X643476Y238694D01*
Y242692D01*
X649474D02*
X650474Y243692D01*
X652473D01*
X653473Y242692D01*
Y238694D01*
X652473Y237694D01*
X650474D01*
X649474Y238694D01*
Y242692D01*
X655472Y243692D02*
Y237694D01*
Y240693D01*
X656472Y241693D01*
X658471D01*
X659471Y240693D01*
Y237694D01*
X665469Y243692D02*
X663470Y242692D01*
X661470Y240693D01*
Y238694D01*
X662470Y237694D01*
X664469D01*
X665469Y238694D01*
Y239693D01*
X664469Y240693D01*
X661470D01*
X667468Y242692D02*
X668468Y243692D01*
X670467D01*
X671467Y242692D01*
Y238694D01*
X670467Y237694D01*
X668468D01*
X667468Y238694D01*
Y242692D01*
X673466Y236695D02*
X677465D01*
X679464Y237694D02*
X681464D01*
X680464D01*
Y243692D01*
X679464Y242692D01*
X684463Y243692D02*
X688461D01*
Y242692D01*
X684463Y238694D01*
Y237694D01*
X690461Y242692D02*
X691460Y243692D01*
X693460D01*
X694459Y242692D01*
Y238694D01*
X693460Y237694D01*
X691460D01*
X690461Y238694D01*
Y242692D01*
X696459Y241693D02*
Y237694D01*
Y239693D01*
X697459Y240693D01*
X698458Y241693D01*
X699458D01*
X702457Y237694D02*
X704456D01*
X703456D01*
Y243692D01*
X702457Y242692D01*
X707455D02*
X708455Y243692D01*
X710454D01*
X711454Y242692D01*
Y238694D01*
X710454Y237694D01*
X708455D01*
X707455Y238694D01*
Y242692D01*
X713453D02*
X714453Y243692D01*
X716452D01*
X717452Y242692D01*
Y238694D01*
X716452Y237694D01*
X714453D01*
X713453Y238694D01*
Y242692D01*
X613486Y226693D02*
X610487D01*
X609487Y225693D01*
Y223694D01*
X610487Y222694D01*
X613486D01*
X619484Y228692D02*
X617484Y227693D01*
X615485Y225693D01*
Y223694D01*
X616485Y222694D01*
X618484D01*
X619484Y223694D01*
Y224693D01*
X618484Y225693D01*
X615485D01*
X625482Y228692D02*
X621483D01*
Y225693D01*
X623482Y226693D01*
X624482D01*
X625482Y225693D01*
Y223694D01*
X624482Y222694D01*
X622483D01*
X621483Y223694D01*
X627481Y228692D02*
Y222694D01*
Y225693D01*
X628481Y226693D01*
X630480D01*
X631480Y225693D01*
Y222694D01*
X637478Y228692D02*
X635478Y227693D01*
X633479Y225693D01*
Y223694D01*
X634479Y222694D01*
X636478D01*
X637478Y223694D01*
Y224693D01*
X636478Y225693D01*
X633479D01*
X643476Y228692D02*
X639477D01*
Y225693D01*
X641477Y226693D01*
X642476D01*
X643476Y225693D01*
Y223694D01*
X642476Y222694D01*
X640477D01*
X639477Y223694D01*
X609487Y211693D02*
X611486Y207694D01*
X613486Y211693D01*
X615485Y207694D02*
X617484D01*
X616485D01*
Y213692D01*
X615485Y212692D01*
X624482Y213692D02*
X622483Y212692D01*
X620483Y210693D01*
Y208694D01*
X621483Y207694D01*
X623482D01*
X624482Y208694D01*
Y209694D01*
X623482Y210693D01*
X620483D01*
X626481Y212692D02*
X627481Y213692D01*
X629481D01*
X630480Y212692D01*
Y208694D01*
X629481Y207694D01*
X627481D01*
X626481Y208694D01*
Y212692D01*
X632479Y213692D02*
Y207694D01*
Y210693D01*
X633479Y211693D01*
X635478D01*
X636478Y210693D01*
Y207694D01*
X638478D02*
X640477D01*
X639477D01*
Y213692D01*
X638478Y212692D01*
X647475Y213692D02*
X645475Y212692D01*
X643476Y210693D01*
Y208694D01*
X644476Y207694D01*
X646475D01*
X647475Y208694D01*
Y209694D01*
X646475Y210693D01*
X643476D01*
X649474Y212692D02*
X650474Y213692D01*
X652473D01*
X653473Y212692D01*
Y208694D01*
X652473Y207694D01*
X650474D01*
X649474Y208694D01*
Y212692D01*
X613486Y196693D02*
X610487D01*
X609487Y195693D01*
Y193694D01*
X610487Y192694D01*
X613486D01*
X619484Y198692D02*
X615485D01*
Y195693D01*
X617484Y196693D01*
X618484D01*
X619484Y195693D01*
Y193694D01*
X618484Y192694D01*
X616485D01*
X615485Y193694D01*
X621483Y197693D02*
X622483Y198692D01*
X624482D01*
X625482Y197693D01*
Y193694D01*
X624482Y192694D01*
X622483D01*
X621483Y193694D01*
Y197693D01*
X627481D02*
X628481Y198692D01*
X630480D01*
X631480Y197693D01*
Y193694D01*
X630480Y192694D01*
X628481D01*
X627481Y193694D01*
Y197693D01*
X633479Y198692D02*
Y192694D01*
Y195693D01*
X634479Y196693D01*
X636478D01*
X637478Y195693D01*
Y192694D01*
X639477Y197693D02*
X640477Y198692D01*
X642476D01*
X643476Y197693D01*
Y196693D01*
X642476Y195693D01*
X641477D01*
X642476D01*
X643476Y194694D01*
Y193694D01*
X642476Y192694D01*
X640477D01*
X639477Y193694D01*
X645475Y197693D02*
X646475Y198692D01*
X648474D01*
X649474Y197693D01*
Y193694D01*
X648474Y192694D01*
X646475D01*
X645475Y193694D01*
Y197693D01*
X651473D02*
X652473Y198692D01*
X654472D01*
X655472Y197693D01*
Y193694D01*
X654472Y192694D01*
X652473D01*
X651473Y193694D01*
Y197693D01*
X609487Y181693D02*
X611486Y177694D01*
X613486Y181693D01*
X615485Y177694D02*
X617484D01*
X616485D01*
Y183692D01*
X615485Y182693D01*
X620483D02*
X621483Y183692D01*
X623482D01*
X624482Y182693D01*
Y178694D01*
X623482Y177694D01*
X621483D01*
X620483Y178694D01*
Y182693D01*
X626481D02*
X627481Y183692D01*
X629481D01*
X630480Y182693D01*
Y178694D01*
X629481Y177694D01*
X627481D01*
X626481Y178694D01*
Y182693D01*
X632479Y183692D02*
Y177694D01*
Y180693D01*
X633479Y181693D01*
X635478D01*
X636478Y180693D01*
Y177694D01*
X642476Y183692D02*
X638478D01*
Y180693D01*
X640477Y181693D01*
X641477D01*
X642476Y180693D01*
Y178694D01*
X641477Y177694D01*
X639477D01*
X638478Y178694D01*
X644476Y182693D02*
X645475Y183692D01*
X647475D01*
X648474Y182693D01*
Y178694D01*
X647475Y177694D01*
X645475D01*
X644476Y178694D01*
Y182693D01*
X650474Y177694D02*
Y181693D01*
X651473D01*
X652473Y180693D01*
Y177694D01*
Y180693D01*
X653473Y181693D01*
X654472Y180693D01*
Y177694D01*
X656472Y182693D02*
X657471Y183692D01*
X659471D01*
X660470Y182693D01*
Y178694D01*
X659471Y177694D01*
X657471D01*
X656472Y178694D01*
Y182693D01*
X662470Y177694D02*
Y181693D01*
X663470D01*
X664469Y180693D01*
Y177694D01*
Y180693D01*
X665469Y181693D01*
X666468Y180693D01*
Y177694D01*
X668468Y181693D02*
X672467Y177694D01*
X670467Y179693D01*
X672467Y181693D01*
X668468Y177694D01*
X674466Y182693D02*
X675466Y183692D01*
X677465D01*
X678465Y182693D01*
Y178694D01*
X677465Y177694D01*
X675466D01*
X674466Y178694D01*
Y182693D01*
X609487Y166693D02*
X611486Y162694D01*
X613486Y166693D01*
X618484Y162694D02*
Y168692D01*
X615485Y165693D01*
X619484D01*
X625482Y168692D02*
X623482Y167693D01*
X621483Y165693D01*
Y163694D01*
X622483Y162694D01*
X624482D01*
X625482Y163694D01*
Y164693D01*
X624482Y165693D01*
X621483D01*
X627481Y168692D02*
Y162694D01*
Y165693D01*
X628481Y166693D01*
X630480D01*
X631480Y165693D01*
Y162694D01*
X637478D02*
X633479D01*
X637478Y166693D01*
Y167693D01*
X636478Y168692D01*
X634479D01*
X633479Y167693D01*
X643476Y168692D02*
X639477D01*
Y165693D01*
X641477Y166693D01*
X642476D01*
X643476Y165693D01*
Y163694D01*
X642476Y162694D01*
X640477D01*
X639477Y163694D01*
X645475Y162694D02*
Y166693D01*
X646475D01*
X647475Y165693D01*
Y162694D01*
Y165693D01*
X648474Y166693D01*
X649474Y165693D01*
Y162694D01*
X651473Y167693D02*
X652473Y168692D01*
X654472D01*
X655472Y167693D01*
Y163694D01*
X654472Y162694D01*
X652473D01*
X651473Y163694D01*
Y167693D01*
X657471Y162694D02*
Y166693D01*
X658471D01*
X659471Y165693D01*
Y162694D01*
Y165693D01*
X660470Y166693D01*
X661470Y165693D01*
Y162694D01*
X663470Y166693D02*
X667468Y162694D01*
X665469Y164693D01*
X667468Y166693D01*
X663470Y162694D01*
X669467Y167693D02*
X670467Y168692D01*
X672467D01*
X673466Y167693D01*
Y163694D01*
X672467Y162694D01*
X670467D01*
X669467Y163694D01*
Y167693D01*
X534907Y252694D02*
Y258692D01*
X537906D01*
X538906Y257693D01*
Y255693D01*
X537906Y254694D01*
X534907D01*
X536906D02*
X538906Y252694D01*
X541905D02*
X543904D01*
X544904Y253694D01*
Y255693D01*
X543904Y256693D01*
X541905D01*
X540905Y255693D01*
Y253694D01*
X541905Y252694D01*
X546903Y256693D02*
Y253694D01*
X547903Y252694D01*
X550902D01*
Y256693D01*
X552901Y252694D02*
Y256693D01*
X555900D01*
X556900Y255693D01*
Y252694D01*
X562898Y258692D02*
Y252694D01*
X559899D01*
X558899Y253694D01*
Y255693D01*
X559899Y256693D01*
X562898D01*
X567897Y252694D02*
X565897D01*
X564897Y253694D01*
Y255693D01*
X565897Y256693D01*
X567897D01*
X568896Y255693D01*
Y254694D01*
X564897D01*
X574894Y258692D02*
Y252694D01*
X571895D01*
X570895Y253694D01*
Y255693D01*
X571895Y256693D01*
X574894D01*
X534907Y237694D02*
Y243692D01*
X537906D01*
X538906Y242692D01*
Y240693D01*
X537906Y239693D01*
X534907D01*
X536906D02*
X538906Y237694D01*
X541905D02*
X543904D01*
X544904Y238694D01*
Y240693D01*
X543904Y241693D01*
X541905D01*
X540905Y240693D01*
Y238694D01*
X541905Y237694D01*
X546903Y241693D02*
Y238694D01*
X547903Y237694D01*
X550902D01*
Y241693D01*
X552901Y237694D02*
Y241693D01*
X555900D01*
X556900Y240693D01*
Y237694D01*
X562898Y243692D02*
Y237694D01*
X559899D01*
X558899Y238694D01*
Y240693D01*
X559899Y241693D01*
X562898D01*
X567897Y237694D02*
X565897D01*
X564897Y238694D01*
Y240693D01*
X565897Y241693D01*
X567897D01*
X568896Y240693D01*
Y239693D01*
X564897D01*
X574894Y243692D02*
Y237694D01*
X571895D01*
X570895Y238694D01*
Y240693D01*
X571895Y241693D01*
X574894D01*
X534907Y222694D02*
Y228692D01*
X537906D01*
X538906Y227693D01*
Y225693D01*
X537906Y224693D01*
X534907D01*
X536906D02*
X538906Y222694D01*
X541905D02*
X543904D01*
X544904Y223694D01*
Y225693D01*
X543904Y226693D01*
X541905D01*
X540905Y225693D01*
Y223694D01*
X541905Y222694D01*
X546903Y226693D02*
Y223694D01*
X547903Y222694D01*
X550902D01*
Y226693D01*
X552901Y222694D02*
Y226693D01*
X555900D01*
X556900Y225693D01*
Y222694D01*
X562898Y228692D02*
Y222694D01*
X559899D01*
X558899Y223694D01*
Y225693D01*
X559899Y226693D01*
X562898D01*
X567897Y222694D02*
X565897D01*
X564897Y223694D01*
Y225693D01*
X565897Y226693D01*
X567897D01*
X568896Y225693D01*
Y224693D01*
X564897D01*
X574894Y228692D02*
Y222694D01*
X571895D01*
X570895Y223694D01*
Y225693D01*
X571895Y226693D01*
X574894D01*
X534907Y207694D02*
Y213692D01*
X537906D01*
X538906Y212692D01*
Y210693D01*
X537906Y209694D01*
X534907D01*
X536906D02*
X538906Y207694D01*
X541905D02*
X543904D01*
X544904Y208694D01*
Y210693D01*
X543904Y211693D01*
X541905D01*
X540905Y210693D01*
Y208694D01*
X541905Y207694D01*
X546903Y211693D02*
Y208694D01*
X547903Y207694D01*
X550902D01*
Y211693D01*
X552901Y207694D02*
Y211693D01*
X555900D01*
X556900Y210693D01*
Y207694D01*
X562898Y213692D02*
Y207694D01*
X559899D01*
X558899Y208694D01*
Y210693D01*
X559899Y211693D01*
X562898D01*
X567897Y207694D02*
X565897D01*
X564897Y208694D01*
Y210693D01*
X565897Y211693D01*
X567897D01*
X568896Y210693D01*
Y209694D01*
X564897D01*
X574894Y213692D02*
Y207694D01*
X571895D01*
X570895Y208694D01*
Y210693D01*
X571895Y211693D01*
X574894D01*
X534907Y192694D02*
Y198692D01*
X537906D01*
X538906Y197693D01*
Y195693D01*
X537906Y194694D01*
X534907D01*
X536906D02*
X538906Y192694D01*
X541905D02*
X543904D01*
X544904Y193694D01*
Y195693D01*
X543904Y196693D01*
X541905D01*
X540905Y195693D01*
Y193694D01*
X541905Y192694D01*
X546903Y196693D02*
Y193694D01*
X547903Y192694D01*
X550902D01*
Y196693D01*
X552901Y192694D02*
Y196693D01*
X555900D01*
X556900Y195693D01*
Y192694D01*
X562898Y198692D02*
Y192694D01*
X559899D01*
X558899Y193694D01*
Y195693D01*
X559899Y196693D01*
X562898D01*
X567897Y192694D02*
X565897D01*
X564897Y193694D01*
Y195693D01*
X565897Y196693D01*
X567897D01*
X568896Y195693D01*
Y194694D01*
X564897D01*
X574894Y198692D02*
Y192694D01*
X571895D01*
X570895Y193694D01*
Y195693D01*
X571895Y196693D01*
X574894D01*
X534907Y177694D02*
Y183692D01*
X537906D01*
X538906Y182693D01*
Y180693D01*
X537906Y179693D01*
X534907D01*
X536906D02*
X538906Y177694D01*
X541905D02*
X543904D01*
X544904Y178694D01*
Y180693D01*
X543904Y181693D01*
X541905D01*
X540905Y180693D01*
Y178694D01*
X541905Y177694D01*
X546903Y181693D02*
Y178694D01*
X547903Y177694D01*
X550902D01*
Y181693D01*
X552901Y177694D02*
Y181693D01*
X555900D01*
X556900Y180693D01*
Y177694D01*
X562898Y183692D02*
Y177694D01*
X559899D01*
X558899Y178694D01*
Y180693D01*
X559899Y181693D01*
X562898D01*
X567897Y177694D02*
X565897D01*
X564897Y178694D01*
Y180693D01*
X565897Y181693D01*
X567897D01*
X568896Y180693D01*
Y179693D01*
X564897D01*
X574894Y183692D02*
Y177694D01*
X571895D01*
X570895Y178694D01*
Y180693D01*
X571895Y181693D01*
X574894D01*
X534907Y162694D02*
Y168692D01*
X537906D01*
X538906Y167693D01*
Y165693D01*
X537906Y164693D01*
X534907D01*
X536906D02*
X538906Y162694D01*
X541905D02*
X543904D01*
X544904Y163694D01*
Y165693D01*
X543904Y166693D01*
X541905D01*
X540905Y165693D01*
Y163694D01*
X541905Y162694D01*
X546903Y166693D02*
Y163694D01*
X547903Y162694D01*
X550902D01*
Y166693D01*
X552901Y162694D02*
Y166693D01*
X555900D01*
X556900Y165693D01*
Y162694D01*
X562898Y168692D02*
Y162694D01*
X559899D01*
X558899Y163694D01*
Y165693D01*
X559899Y166693D01*
X562898D01*
X567897Y162694D02*
X565897D01*
X564897Y163694D01*
Y165693D01*
X565897Y166693D01*
X567897D01*
X568896Y165693D01*
Y164693D01*
X564897D01*
X574894Y168692D02*
Y162694D01*
X571895D01*
X570895Y163694D01*
Y165693D01*
X571895Y166693D01*
X574894D01*
X475922Y252694D02*
Y258692D01*
X478921D01*
X479921Y257693D01*
Y255693D01*
X478921Y254694D01*
X475922D01*
X482920Y256693D02*
X484919D01*
X485919Y255693D01*
Y252694D01*
X482920D01*
X481920Y253694D01*
X482920Y254694D01*
X485919D01*
X491917Y258692D02*
Y252694D01*
X488918D01*
X487918Y253694D01*
Y255693D01*
X488918Y256693D01*
X491917D01*
X475922Y237694D02*
Y243692D01*
X478921D01*
X479921Y242692D01*
Y240693D01*
X478921Y239693D01*
X475922D01*
X482920Y241693D02*
X484919D01*
X485919Y240693D01*
Y237694D01*
X482920D01*
X481920Y238694D01*
X482920Y239693D01*
X485919D01*
X491917Y243692D02*
Y237694D01*
X488918D01*
X487918Y238694D01*
Y240693D01*
X488918Y241693D01*
X491917D01*
X475922Y222694D02*
Y228692D01*
X478921D01*
X479921Y227693D01*
Y225693D01*
X478921Y224693D01*
X475922D01*
X482920Y226693D02*
X484919D01*
X485919Y225693D01*
Y222694D01*
X482920D01*
X481920Y223694D01*
X482920Y224693D01*
X485919D01*
X491917Y228692D02*
Y222694D01*
X488918D01*
X487918Y223694D01*
Y225693D01*
X488918Y226693D01*
X491917D01*
X475922Y213692D02*
Y209694D01*
X477922Y207694D01*
X479921Y209694D01*
Y213692D01*
X481920Y207694D02*
X483920D01*
X482920D01*
Y211693D01*
X481920D01*
X487918D02*
X489918D01*
X490917Y210693D01*
Y207694D01*
X487918D01*
X486919Y208694D01*
X487918Y209694D01*
X490917D01*
X475922Y192694D02*
Y198692D01*
X478921D01*
X479921Y197693D01*
Y195693D01*
X478921Y194694D01*
X475922D01*
X482920Y196693D02*
X484919D01*
X485919Y195693D01*
Y192694D01*
X482920D01*
X481920Y193694D01*
X482920Y194694D01*
X485919D01*
X491917Y198692D02*
Y192694D01*
X488918D01*
X487918Y193694D01*
Y195693D01*
X488918Y196693D01*
X491917D01*
X475922Y183692D02*
Y179693D01*
X477922Y177694D01*
X479921Y179693D01*
Y183692D01*
X481920Y177694D02*
X483920D01*
X482920D01*
Y181693D01*
X481920D01*
X487918D02*
X489918D01*
X490917Y180693D01*
Y177694D01*
X487918D01*
X486919Y178694D01*
X487918Y179693D01*
X490917D01*
X475922Y168692D02*
Y164693D01*
X477922Y162694D01*
X479921Y164693D01*
Y168692D01*
X481920Y162694D02*
X483920D01*
X482920D01*
Y166693D01*
X481920D01*
X487918D02*
X489918D01*
X490917Y165693D01*
Y162694D01*
X487918D01*
X486919Y163694D01*
X487918Y164693D01*
X490917D01*
X356957Y258692D02*
X360956D01*
X358956D01*
Y252694D01*
X363955D02*
X365954D01*
X366954Y253694D01*
Y255693D01*
X365954Y256693D01*
X363955D01*
X362955Y255693D01*
Y253694D01*
X363955Y252694D01*
X368953Y250695D02*
Y256693D01*
X371952D01*
X372952Y255693D01*
Y253694D01*
X371952Y252694D01*
X368953D01*
X374951D02*
X376950D01*
X375951D01*
Y258692D01*
X374951Y257693D01*
X385947Y255693D02*
X389946D01*
X397944Y258692D02*
Y252694D01*
X400943D01*
X401942Y253694D01*
Y254694D01*
X400943Y255693D01*
X397944D01*
X400943D01*
X401942Y256693D01*
Y257693D01*
X400943Y258692D01*
X397944D01*
X404941Y252694D02*
X406941D01*
X407940Y253694D01*
Y255693D01*
X406941Y256693D01*
X404941D01*
X403942Y255693D01*
Y253694D01*
X404941Y252694D01*
X410939Y257693D02*
Y256693D01*
X409940D01*
X411939D01*
X410939D01*
Y253694D01*
X411939Y252694D01*
X415938Y257693D02*
Y256693D01*
X414938D01*
X416937D01*
X415938D01*
Y253694D01*
X416937Y252694D01*
X420936D02*
X422935D01*
X423935Y253694D01*
Y255693D01*
X422935Y256693D01*
X420936D01*
X419936Y255693D01*
Y253694D01*
X420936Y252694D01*
X425935D02*
Y256693D01*
X426934D01*
X427934Y255693D01*
Y252694D01*
Y255693D01*
X428933Y256693D01*
X429933Y255693D01*
Y252694D01*
X434932D02*
Y258692D01*
X431932Y255693D01*
X435931D01*
X356957Y243692D02*
X360956D01*
X358956D01*
Y237694D01*
X363955D02*
X365954D01*
X366954Y238694D01*
Y240693D01*
X365954Y241693D01*
X363955D01*
X362955Y240693D01*
Y238694D01*
X363955Y237694D01*
X368953Y235695D02*
Y241693D01*
X371952D01*
X372952Y240693D01*
Y238694D01*
X371952Y237694D01*
X368953D01*
X374951D02*
X376950D01*
X375951D01*
Y243692D01*
X374951Y242692D01*
X385947Y240693D02*
X389946D01*
X397944Y243692D02*
Y237694D01*
X400943D01*
X401942Y238694D01*
Y239693D01*
X400943Y240693D01*
X397944D01*
X400943D01*
X401942Y241693D01*
Y242692D01*
X400943Y243692D01*
X397944D01*
X404941Y237694D02*
X406941D01*
X407940Y238694D01*
Y240693D01*
X406941Y241693D01*
X404941D01*
X403942Y240693D01*
Y238694D01*
X404941Y237694D01*
X410939Y242692D02*
Y241693D01*
X409940D01*
X411939D01*
X410939D01*
Y238694D01*
X411939Y237694D01*
X415938Y242692D02*
Y241693D01*
X414938D01*
X416937D01*
X415938D01*
Y238694D01*
X416937Y237694D01*
X420936D02*
X422935D01*
X423935Y238694D01*
Y240693D01*
X422935Y241693D01*
X420936D01*
X419936Y240693D01*
Y238694D01*
X420936Y237694D01*
X425935D02*
Y241693D01*
X426934D01*
X427934Y240693D01*
Y237694D01*
Y240693D01*
X428933Y241693D01*
X429933Y240693D01*
Y237694D01*
X434932D02*
Y243692D01*
X431932Y240693D01*
X435931D01*
X356957Y228692D02*
X360956D01*
X358956D01*
Y222694D01*
X363955D02*
X365954D01*
X366954Y223694D01*
Y225693D01*
X365954Y226693D01*
X363955D01*
X362955Y225693D01*
Y223694D01*
X363955Y222694D01*
X368953Y220695D02*
Y226693D01*
X371952D01*
X372952Y225693D01*
Y223694D01*
X371952Y222694D01*
X368953D01*
X374951D02*
X376950D01*
X375951D01*
Y228692D01*
X374951Y227693D01*
X385947Y225693D02*
X389946D01*
X397944Y228692D02*
Y222694D01*
X400943D01*
X401942Y223694D01*
Y224693D01*
X400943Y225693D01*
X397944D01*
X400943D01*
X401942Y226693D01*
Y227693D01*
X400943Y228692D01*
X397944D01*
X404941Y222694D02*
X406941D01*
X407940Y223694D01*
Y225693D01*
X406941Y226693D01*
X404941D01*
X403942Y225693D01*
Y223694D01*
X404941Y222694D01*
X410939Y227693D02*
Y226693D01*
X409940D01*
X411939D01*
X410939D01*
Y223694D01*
X411939Y222694D01*
X415938Y227693D02*
Y226693D01*
X414938D01*
X416937D01*
X415938D01*
Y223694D01*
X416937Y222694D01*
X420936D02*
X422935D01*
X423935Y223694D01*
Y225693D01*
X422935Y226693D01*
X420936D01*
X419936Y225693D01*
Y223694D01*
X420936Y222694D01*
X425935D02*
Y226693D01*
X426934D01*
X427934Y225693D01*
Y222694D01*
Y225693D01*
X428933Y226693D01*
X429933Y225693D01*
Y222694D01*
X434932D02*
Y228692D01*
X431932Y225693D01*
X435931D01*
X356957Y213692D02*
X360956D01*
X358956D01*
Y207694D01*
X363955D02*
X365954D01*
X366954Y208694D01*
Y210693D01*
X365954Y211693D01*
X363955D01*
X362955Y210693D01*
Y208694D01*
X363955Y207694D01*
X368953Y205695D02*
Y211693D01*
X371952D01*
X372952Y210693D01*
Y208694D01*
X371952Y207694D01*
X368953D01*
X374951D02*
X376950D01*
X375951D01*
Y213692D01*
X374951Y212692D01*
X385947Y210693D02*
X389946D01*
X397944Y213692D02*
Y207694D01*
X400943D01*
X401942Y208694D01*
Y209694D01*
X400943Y210693D01*
X397944D01*
X400943D01*
X401942Y211693D01*
Y212692D01*
X400943Y213692D01*
X397944D01*
X404941Y207694D02*
X406941D01*
X407940Y208694D01*
Y210693D01*
X406941Y211693D01*
X404941D01*
X403942Y210693D01*
Y208694D01*
X404941Y207694D01*
X410939Y212692D02*
Y211693D01*
X409940D01*
X411939D01*
X410939D01*
Y208694D01*
X411939Y207694D01*
X415938Y212692D02*
Y211693D01*
X414938D01*
X416937D01*
X415938D01*
Y208694D01*
X416937Y207694D01*
X420936D02*
X422935D01*
X423935Y208694D01*
Y210693D01*
X422935Y211693D01*
X420936D01*
X419936Y210693D01*
Y208694D01*
X420936Y207694D01*
X425935D02*
Y211693D01*
X426934D01*
X427934Y210693D01*
Y207694D01*
Y210693D01*
X428933Y211693D01*
X429933Y210693D01*
Y207694D01*
X434932D02*
Y213692D01*
X431932Y210693D01*
X435931D01*
X356957Y198692D02*
X360956D01*
X358956D01*
Y192694D01*
X363955D02*
X365954D01*
X366954Y193694D01*
Y195693D01*
X365954Y196693D01*
X363955D01*
X362955Y195693D01*
Y193694D01*
X363955Y192694D01*
X368953Y190695D02*
Y196693D01*
X371952D01*
X372952Y195693D01*
Y193694D01*
X371952Y192694D01*
X368953D01*
X374951D02*
X376950D01*
X375951D01*
Y198692D01*
X374951Y197693D01*
X385947Y195693D02*
X389946D01*
X397944Y198692D02*
Y192694D01*
X400943D01*
X401942Y193694D01*
Y194694D01*
X400943Y195693D01*
X397944D01*
X400943D01*
X401942Y196693D01*
Y197693D01*
X400943Y198692D01*
X397944D01*
X404941Y192694D02*
X406941D01*
X407940Y193694D01*
Y195693D01*
X406941Y196693D01*
X404941D01*
X403942Y195693D01*
Y193694D01*
X404941Y192694D01*
X410939Y197693D02*
Y196693D01*
X409940D01*
X411939D01*
X410939D01*
Y193694D01*
X411939Y192694D01*
X415938Y197693D02*
Y196693D01*
X414938D01*
X416937D01*
X415938D01*
Y193694D01*
X416937Y192694D01*
X420936D02*
X422935D01*
X423935Y193694D01*
Y195693D01*
X422935Y196693D01*
X420936D01*
X419936Y195693D01*
Y193694D01*
X420936Y192694D01*
X425935D02*
Y196693D01*
X426934D01*
X427934Y195693D01*
Y192694D01*
Y195693D01*
X428933Y196693D01*
X429933Y195693D01*
Y192694D01*
X434932D02*
Y198692D01*
X431932Y195693D01*
X435931D01*
X356957Y183692D02*
X360956D01*
X358956D01*
Y177694D01*
X363955D02*
X365954D01*
X366954Y178694D01*
Y180693D01*
X365954Y181693D01*
X363955D01*
X362955Y180693D01*
Y178694D01*
X363955Y177694D01*
X368953Y175695D02*
Y181693D01*
X371952D01*
X372952Y180693D01*
Y178694D01*
X371952Y177694D01*
X368953D01*
X374951D02*
X376950D01*
X375951D01*
Y183692D01*
X374951Y182693D01*
X385947Y180693D02*
X389946D01*
X397944Y183692D02*
Y177694D01*
X400943D01*
X401942Y178694D01*
Y179693D01*
X400943Y180693D01*
X397944D01*
X400943D01*
X401942Y181693D01*
Y182693D01*
X400943Y183692D01*
X397944D01*
X404941Y177694D02*
X406941D01*
X407940Y178694D01*
Y180693D01*
X406941Y181693D01*
X404941D01*
X403942Y180693D01*
Y178694D01*
X404941Y177694D01*
X410939Y182693D02*
Y181693D01*
X409940D01*
X411939D01*
X410939D01*
Y178694D01*
X411939Y177694D01*
X415938Y182693D02*
Y181693D01*
X414938D01*
X416937D01*
X415938D01*
Y178694D01*
X416937Y177694D01*
X420936D02*
X422935D01*
X423935Y178694D01*
Y180693D01*
X422935Y181693D01*
X420936D01*
X419936Y180693D01*
Y178694D01*
X420936Y177694D01*
X425935D02*
Y181693D01*
X426934D01*
X427934Y180693D01*
Y177694D01*
Y180693D01*
X428933Y181693D01*
X429933Y180693D01*
Y177694D01*
X434932D02*
Y183692D01*
X431932Y180693D01*
X435931D01*
X356957Y168692D02*
X360956D01*
X358956D01*
Y162694D01*
X363955D02*
X365954D01*
X366954Y163694D01*
Y165693D01*
X365954Y166693D01*
X363955D01*
X362955Y165693D01*
Y163694D01*
X363955Y162694D01*
X368953Y160695D02*
Y166693D01*
X371952D01*
X372952Y165693D01*
Y163694D01*
X371952Y162694D01*
X368953D01*
X374951D02*
X376950D01*
X375951D01*
Y168692D01*
X374951Y167693D01*
X385947Y165693D02*
X389946D01*
X397944Y168692D02*
Y162694D01*
X400943D01*
X401942Y163694D01*
Y164693D01*
X400943Y165693D01*
X397944D01*
X400943D01*
X401942Y166693D01*
Y167693D01*
X400943Y168692D01*
X397944D01*
X404941Y162694D02*
X406941D01*
X407940Y163694D01*
Y165693D01*
X406941Y166693D01*
X404941D01*
X403942Y165693D01*
Y163694D01*
X404941Y162694D01*
X410939Y167693D02*
Y166693D01*
X409940D01*
X411939D01*
X410939D01*
Y163694D01*
X411939Y162694D01*
X415938Y167693D02*
Y166693D01*
X414938D01*
X416937D01*
X415938D01*
Y163694D01*
X416937Y162694D01*
X420936D02*
X422935D01*
X423935Y163694D01*
Y165693D01*
X422935Y166693D01*
X420936D01*
X419936Y165693D01*
Y163694D01*
X420936Y162694D01*
X425935D02*
Y166693D01*
X426934D01*
X427934Y165693D01*
Y162694D01*
Y165693D01*
X428933Y166693D01*
X429933Y165693D01*
Y162694D01*
X434932D02*
Y168692D01*
X431932Y165693D01*
X435931D01*
X287575Y257693D02*
X286576Y258692D01*
X284576D01*
X283577Y257693D01*
Y256693D01*
X284576Y255693D01*
X286576D01*
X287575Y254694D01*
Y253694D01*
X286576Y252694D01*
X284576D01*
X283577Y253694D01*
X289575Y252694D02*
X291574D01*
X290574D01*
Y258692D01*
X289575D01*
X295573Y252694D02*
X297572D01*
X298572Y253694D01*
Y255693D01*
X297572Y256693D01*
X295573D01*
X294573Y255693D01*
Y253694D01*
X295573Y252694D01*
X301571Y257693D02*
Y256693D01*
X300571D01*
X302571D01*
X301571D01*
Y253694D01*
X302571Y252694D01*
X287575Y242692D02*
X286576Y243692D01*
X284576D01*
X283577Y242692D01*
Y241693D01*
X284576Y240693D01*
X286576D01*
X287575Y239693D01*
Y238694D01*
X286576Y237694D01*
X284576D01*
X283577Y238694D01*
X289575Y237694D02*
X291574D01*
X290574D01*
Y243692D01*
X289575D01*
X295573Y237694D02*
X297572D01*
X298572Y238694D01*
Y240693D01*
X297572Y241693D01*
X295573D01*
X294573Y240693D01*
Y238694D01*
X295573Y237694D01*
X301571Y242692D02*
Y241693D01*
X300571D01*
X302571D01*
X301571D01*
Y238694D01*
X302571Y237694D01*
X283577Y222694D02*
Y228692D01*
X286576D01*
X287575Y227693D01*
Y225693D01*
X286576Y224693D01*
X283577D01*
X285576D02*
X287575Y222694D01*
X290574D02*
X292574D01*
X293573Y223694D01*
Y225693D01*
X292574Y226693D01*
X290574D01*
X289575Y225693D01*
Y223694D01*
X290574Y222694D01*
X295573Y226693D02*
Y223694D01*
X296572Y222694D01*
X299571D01*
Y226693D01*
X301571Y222694D02*
Y226693D01*
X304570D01*
X305570Y225693D01*
Y222694D01*
X311568Y228692D02*
Y222694D01*
X308569D01*
X307569Y223694D01*
Y225693D01*
X308569Y226693D01*
X311568D01*
X283577Y207694D02*
Y213692D01*
X286576D01*
X287575Y212692D01*
Y210693D01*
X286576Y209694D01*
X283577D01*
X285576D02*
X287575Y207694D01*
X290574D02*
X292574D01*
X293573Y208694D01*
Y210693D01*
X292574Y211693D01*
X290574D01*
X289575Y210693D01*
Y208694D01*
X290574Y207694D01*
X295573Y211693D02*
Y208694D01*
X296572Y207694D01*
X299571D01*
Y211693D01*
X301571Y207694D02*
Y211693D01*
X304570D01*
X305570Y210693D01*
Y207694D01*
X311568Y213692D02*
Y207694D01*
X308569D01*
X307569Y208694D01*
Y210693D01*
X308569Y211693D01*
X311568D01*
X283577Y192694D02*
Y198692D01*
X286576D01*
X287575Y197693D01*
Y195693D01*
X286576Y194694D01*
X283577D01*
X285576D02*
X287575Y192694D01*
X290574D02*
X292574D01*
X293573Y193694D01*
Y195693D01*
X292574Y196693D01*
X290574D01*
X289575Y195693D01*
Y193694D01*
X290574Y192694D01*
X295573Y196693D02*
Y193694D01*
X296572Y192694D01*
X299571D01*
Y196693D01*
X301571Y192694D02*
Y196693D01*
X304570D01*
X305570Y195693D01*
Y192694D01*
X311568Y198692D02*
Y192694D01*
X308569D01*
X307569Y193694D01*
Y195693D01*
X308569Y196693D01*
X311568D01*
X283577Y177694D02*
Y183692D01*
X286576D01*
X287575Y182693D01*
Y180693D01*
X286576Y179693D01*
X283577D01*
X285576D02*
X287575Y177694D01*
X290574D02*
X292574D01*
X293573Y178694D01*
Y180693D01*
X292574Y181693D01*
X290574D01*
X289575Y180693D01*
Y178694D01*
X290574Y177694D01*
X295573Y181693D02*
Y178694D01*
X296572Y177694D01*
X299571D01*
Y181693D01*
X301571Y177694D02*
Y181693D01*
X304570D01*
X305570Y180693D01*
Y177694D01*
X311568Y183692D02*
Y177694D01*
X308569D01*
X307569Y178694D01*
Y180693D01*
X308569Y181693D01*
X311568D01*
X283577Y162694D02*
Y168692D01*
X286576D01*
X287575Y167693D01*
Y165693D01*
X286576Y164693D01*
X283577D01*
X285576D02*
X287575Y162694D01*
X290574D02*
X292574D01*
X293573Y163694D01*
Y165693D01*
X292574Y166693D01*
X290574D01*
X289575Y165693D01*
Y163694D01*
X290574Y162694D01*
X295573Y166693D02*
Y163694D01*
X296572Y162694D01*
X299571D01*
Y166693D01*
X301571Y162694D02*
Y166693D01*
X304570D01*
X305570Y165693D01*
Y162694D01*
X311568Y168692D02*
Y162694D01*
X308569D01*
X307569Y163694D01*
Y165693D01*
X308569Y166693D01*
X311568D01*
X232989Y252694D02*
Y258692D01*
X235988D01*
X236988Y257693D01*
Y255693D01*
X235988Y254694D01*
X232989D01*
X238987Y258692D02*
X242986D01*
X240986D01*
Y252694D01*
X244985Y258692D02*
Y252694D01*
Y255693D01*
X248984D01*
Y258692D01*
Y252694D01*
X232989Y237694D02*
Y243692D01*
X235988D01*
X236988Y242692D01*
Y240693D01*
X235988Y239693D01*
X232989D01*
X238987Y243692D02*
X242986D01*
X240986D01*
Y237694D01*
X244985Y243692D02*
Y237694D01*
Y240693D01*
X248984D01*
Y243692D01*
Y237694D01*
X232989Y222694D02*
Y228692D01*
X235988D01*
X236988Y227693D01*
Y225693D01*
X235988Y224693D01*
X232989D01*
X238987Y228692D02*
X242986D01*
X240986D01*
Y222694D01*
X244985Y228692D02*
Y222694D01*
Y225693D01*
X248984D01*
Y228692D01*
Y222694D01*
X232989Y207694D02*
Y213692D01*
X235988D01*
X236988Y212692D01*
Y210693D01*
X235988Y209694D01*
X232989D01*
X238987Y213692D02*
X242986D01*
X240986D01*
Y207694D01*
X244985Y213692D02*
Y207694D01*
Y210693D01*
X248984D01*
Y213692D01*
Y207694D01*
X232989Y192694D02*
Y198692D01*
X235988D01*
X236988Y197693D01*
Y195693D01*
X235988Y194694D01*
X232989D01*
X238987Y198692D02*
X242986D01*
X240986D01*
Y192694D01*
X244985Y198692D02*
Y192694D01*
Y195693D01*
X248984D01*
Y198692D01*
Y192694D01*
X232989Y177694D02*
Y183692D01*
X235988D01*
X236988Y182693D01*
Y180693D01*
X235988Y179693D01*
X232989D01*
X238987Y183692D02*
X242986D01*
X240986D01*
Y177694D01*
X244985Y183692D02*
Y177694D01*
Y180693D01*
X248984D01*
Y183692D01*
Y177694D01*
X232989Y162694D02*
Y168692D01*
X235988D01*
X236988Y167693D01*
Y165693D01*
X235988Y164693D01*
X232989D01*
X238987Y168692D02*
X242986D01*
X240986D01*
Y162694D01*
X244985Y168692D02*
Y162694D01*
Y165693D01*
X248984D01*
Y168692D01*
Y162694D01*
X125020Y252694D02*
X121022D01*
X125020Y256693D01*
Y257693D01*
X124021Y258692D01*
X122021D01*
X121022Y257693D01*
X127020D02*
X128019Y258692D01*
X130019D01*
X131018Y257693D01*
Y256693D01*
X130019Y255693D01*
X129019D01*
X130019D01*
X131018Y254694D01*
Y253694D01*
X130019Y252694D01*
X128019D01*
X127020Y253694D01*
X133018Y252694D02*
Y253694D01*
X134018D01*
Y252694D01*
X133018D01*
X142015Y258692D02*
X140016Y257693D01*
X138016Y255693D01*
Y253694D01*
X139016Y252694D01*
X141015D01*
X142015Y253694D01*
Y254694D01*
X141015Y255693D01*
X138016D01*
X148013Y252694D02*
X144014D01*
X148013Y256693D01*
Y257693D01*
X147013Y258692D01*
X145014D01*
X144014Y257693D01*
X150012Y252694D02*
Y256693D01*
X151012D01*
X152012Y255693D01*
Y252694D01*
Y255693D01*
X153011Y256693D01*
X154011Y255693D01*
Y252694D01*
X156010D02*
X158010D01*
X157010D01*
Y256693D01*
X156010D01*
X161009Y252694D02*
X163008D01*
X162009D01*
Y258692D01*
X161009D01*
X174005Y252694D02*
X172005Y254694D01*
Y256693D01*
X174005Y258692D01*
X177004Y257693D02*
X178003Y258692D01*
X180003D01*
X181002Y257693D01*
Y253694D01*
X180003Y252694D01*
X178003D01*
X177004Y253694D01*
Y257693D01*
X183002Y252694D02*
Y253694D01*
X184001D01*
Y252694D01*
X183002D01*
X191999Y258692D02*
X189999Y257693D01*
X188000Y255693D01*
Y253694D01*
X189000Y252694D01*
X190999D01*
X191999Y253694D01*
Y254694D01*
X190999Y255693D01*
X188000D01*
X193998Y257693D02*
X194998Y258692D01*
X196997D01*
X197997Y257693D01*
Y253694D01*
X196997Y252694D01*
X194998D01*
X193998Y253694D01*
Y257693D01*
X199996D02*
X200996Y258692D01*
X202995D01*
X203995Y257693D01*
Y253694D01*
X202995Y252694D01*
X200996D01*
X199996Y253694D01*
Y257693D01*
X205994Y252694D02*
Y256693D01*
X206994D01*
X207994Y255693D01*
Y252694D01*
Y255693D01*
X208993Y256693D01*
X209993Y255693D01*
Y252694D01*
X211992D02*
Y256693D01*
X212992D01*
X213992Y255693D01*
Y252694D01*
Y255693D01*
X214991Y256693D01*
X215991Y255693D01*
Y252694D01*
X217990D02*
X219990Y254694D01*
Y256693D01*
X217990Y258692D01*
X125020Y237694D02*
X121022D01*
X125020Y241693D01*
Y242692D01*
X124021Y243692D01*
X122021D01*
X121022Y242692D01*
X127020D02*
X128019Y243692D01*
X130019D01*
X131018Y242692D01*
Y241693D01*
X130019Y240693D01*
X129019D01*
X130019D01*
X131018Y239693D01*
Y238694D01*
X130019Y237694D01*
X128019D01*
X127020Y238694D01*
X133018Y237694D02*
Y238694D01*
X134018D01*
Y237694D01*
X133018D01*
X142015Y243692D02*
X140016Y242692D01*
X138016Y240693D01*
Y238694D01*
X139016Y237694D01*
X141015D01*
X142015Y238694D01*
Y239693D01*
X141015Y240693D01*
X138016D01*
X148013Y237694D02*
X144014D01*
X148013Y241693D01*
Y242692D01*
X147013Y243692D01*
X145014D01*
X144014Y242692D01*
X150012Y237694D02*
Y241693D01*
X151012D01*
X152012Y240693D01*
Y237694D01*
Y240693D01*
X153011Y241693D01*
X154011Y240693D01*
Y237694D01*
X156010D02*
X158010D01*
X157010D01*
Y241693D01*
X156010D01*
X161009Y237694D02*
X163008D01*
X162009D01*
Y243692D01*
X161009D01*
X174005Y237694D02*
X172005Y239693D01*
Y241693D01*
X174005Y243692D01*
X177004Y242692D02*
X178003Y243692D01*
X180003D01*
X181002Y242692D01*
Y238694D01*
X180003Y237694D01*
X178003D01*
X177004Y238694D01*
Y242692D01*
X183002Y237694D02*
Y238694D01*
X184001D01*
Y237694D01*
X183002D01*
X191999Y243692D02*
X189999Y242692D01*
X188000Y240693D01*
Y238694D01*
X189000Y237694D01*
X190999D01*
X191999Y238694D01*
Y239693D01*
X190999Y240693D01*
X188000D01*
X193998Y242692D02*
X194998Y243692D01*
X196997D01*
X197997Y242692D01*
Y238694D01*
X196997Y237694D01*
X194998D01*
X193998Y238694D01*
Y242692D01*
X199996D02*
X200996Y243692D01*
X202995D01*
X203995Y242692D01*
Y238694D01*
X202995Y237694D01*
X200996D01*
X199996Y238694D01*
Y242692D01*
X205994Y237694D02*
Y241693D01*
X206994D01*
X207994Y240693D01*
Y237694D01*
Y240693D01*
X208993Y241693D01*
X209993Y240693D01*
Y237694D01*
X211992D02*
Y241693D01*
X212992D01*
X213992Y240693D01*
Y237694D01*
Y240693D01*
X214991Y241693D01*
X215991Y240693D01*
Y237694D01*
X217990D02*
X219990Y239693D01*
Y241693D01*
X217990Y243692D01*
X125020Y222694D02*
X121022D01*
X125020Y226693D01*
Y227693D01*
X124021Y228692D01*
X122021D01*
X121022Y227693D01*
X131018Y228692D02*
X127020D01*
Y225693D01*
X129019Y226693D01*
X130019D01*
X131018Y225693D01*
Y223694D01*
X130019Y222694D01*
X128019D01*
X127020Y223694D01*
X133018Y222694D02*
Y223694D01*
X134018D01*
Y222694D01*
X133018D01*
X142015Y228692D02*
X138016D01*
Y225693D01*
X140016Y226693D01*
X141015D01*
X142015Y225693D01*
Y223694D01*
X141015Y222694D01*
X139016D01*
X138016Y223694D01*
X144014D02*
X145014Y222694D01*
X147013D01*
X148013Y223694D01*
Y227693D01*
X147013Y228692D01*
X145014D01*
X144014Y227693D01*
Y226693D01*
X145014Y225693D01*
X148013D01*
X150012Y222694D02*
Y226693D01*
X151012D01*
X152012Y225693D01*
Y222694D01*
Y225693D01*
X153011Y226693D01*
X154011Y225693D01*
Y222694D01*
X156010D02*
X158010D01*
X157010D01*
Y226693D01*
X156010D01*
X161009Y222694D02*
X163008D01*
X162009D01*
Y228692D01*
X161009D01*
X174005Y222694D02*
X172005Y224693D01*
Y226693D01*
X174005Y228692D01*
X177004Y227693D02*
X178003Y228692D01*
X180003D01*
X181002Y227693D01*
Y223694D01*
X180003Y222694D01*
X178003D01*
X177004Y223694D01*
Y227693D01*
X183002Y222694D02*
Y223694D01*
X184001D01*
Y222694D01*
X183002D01*
X191999Y228692D02*
X189999Y227693D01*
X188000Y225693D01*
Y223694D01*
X189000Y222694D01*
X190999D01*
X191999Y223694D01*
Y224693D01*
X190999Y225693D01*
X188000D01*
X197997Y228692D02*
X193998D01*
Y225693D01*
X195998Y226693D01*
X196997D01*
X197997Y225693D01*
Y223694D01*
X196997Y222694D01*
X194998D01*
X193998Y223694D01*
X199996Y227693D02*
X200996Y228692D01*
X202995D01*
X203995Y227693D01*
Y223694D01*
X202995Y222694D01*
X200996D01*
X199996Y223694D01*
Y227693D01*
X205994Y222694D02*
Y226693D01*
X206994D01*
X207994Y225693D01*
Y222694D01*
Y225693D01*
X208993Y226693D01*
X209993Y225693D01*
Y222694D01*
X211992D02*
Y226693D01*
X212992D01*
X213992Y225693D01*
Y222694D01*
Y225693D01*
X214991Y226693D01*
X215991Y225693D01*
Y222694D01*
X217990D02*
X219990Y224693D01*
Y226693D01*
X217990Y228692D01*
X125020Y213692D02*
X123021Y212692D01*
X121022Y210693D01*
Y208694D01*
X122021Y207694D01*
X124021D01*
X125020Y208694D01*
Y209694D01*
X124021Y210693D01*
X121022D01*
X131018Y207694D02*
X127020D01*
X131018Y211693D01*
Y212692D01*
X130019Y213692D01*
X128019D01*
X127020Y212692D01*
X133018Y207694D02*
Y208694D01*
X134018D01*
Y207694D01*
X133018D01*
X138016Y208694D02*
X139016Y207694D01*
X141015D01*
X142015Y208694D01*
Y212692D01*
X141015Y213692D01*
X139016D01*
X138016Y212692D01*
Y211693D01*
X139016Y210693D01*
X142015D01*
X144014Y208694D02*
X145014Y207694D01*
X147013D01*
X148013Y208694D01*
Y212692D01*
X147013Y213692D01*
X145014D01*
X144014Y212692D01*
Y211693D01*
X145014Y210693D01*
X148013D01*
X150012Y207694D02*
Y211693D01*
X151012D01*
X152012Y210693D01*
Y207694D01*
Y210693D01*
X153011Y211693D01*
X154011Y210693D01*
Y207694D01*
X156010D02*
X158010D01*
X157010D01*
Y211693D01*
X156010D01*
X161009Y207694D02*
X163008D01*
X162009D01*
Y213692D01*
X161009D01*
X174005Y207694D02*
X172005Y209694D01*
Y211693D01*
X174005Y213692D01*
X177004Y207694D02*
X179003D01*
X178003D01*
Y213692D01*
X177004Y212692D01*
X182002Y207694D02*
Y208694D01*
X183002D01*
Y207694D01*
X182002D01*
X190999Y213692D02*
X189000Y212692D01*
X187000Y210693D01*
Y208694D01*
X188000Y207694D01*
X189999D01*
X190999Y208694D01*
Y209694D01*
X189999Y210693D01*
X187000D01*
X192998Y212692D02*
X193998Y213692D01*
X195998D01*
X196997Y212692D01*
Y208694D01*
X195998Y207694D01*
X193998D01*
X192998Y208694D01*
Y212692D01*
X198996D02*
X199996Y213692D01*
X201995D01*
X202995Y212692D01*
Y208694D01*
X201995Y207694D01*
X199996D01*
X198996Y208694D01*
Y212692D01*
X204995Y207694D02*
Y211693D01*
X205994D01*
X206994Y210693D01*
Y207694D01*
Y210693D01*
X207994Y211693D01*
X208993Y210693D01*
Y207694D01*
X210993D02*
Y211693D01*
X211992D01*
X212992Y210693D01*
Y207694D01*
Y210693D01*
X213992Y211693D01*
X214991Y210693D01*
Y207694D01*
X216991D02*
X218990Y209694D01*
Y211693D01*
X216991Y213692D01*
X121022Y192694D02*
X123021D01*
X122021D01*
Y198692D01*
X121022Y197693D01*
X126020Y192694D02*
X128019D01*
X127020D01*
Y198692D01*
X126020Y197693D01*
X131018D02*
X132018Y198692D01*
X134018D01*
X135017Y197693D01*
Y196693D01*
X134018Y195693D01*
X135017Y194694D01*
Y193694D01*
X134018Y192694D01*
X132018D01*
X131018Y193694D01*
Y194694D01*
X132018Y195693D01*
X131018Y196693D01*
Y197693D01*
X132018Y195693D02*
X134018D01*
X137016Y192694D02*
Y193694D01*
X138016D01*
Y192694D01*
X137016D01*
X142015D02*
X144014D01*
X143015D01*
Y198692D01*
X142015Y197693D01*
X147013Y192694D02*
X149013D01*
X148013D01*
Y198692D01*
X147013Y197693D01*
X152012Y192694D02*
Y196693D01*
X153011D01*
X154011Y195693D01*
Y192694D01*
Y195693D01*
X155011Y196693D01*
X156010Y195693D01*
Y192694D01*
X158010D02*
X160009D01*
X159009D01*
Y196693D01*
X158010D01*
X163008Y192694D02*
X165007D01*
X164008D01*
Y198692D01*
X163008D01*
X176004Y192694D02*
X174005Y194694D01*
Y196693D01*
X176004Y198692D01*
X179003Y197693D02*
X180003Y198692D01*
X182002D01*
X183002Y197693D01*
Y196693D01*
X182002Y195693D01*
X181002D01*
X182002D01*
X183002Y194694D01*
Y193694D01*
X182002Y192694D01*
X180003D01*
X179003Y193694D01*
X185001Y192694D02*
Y193694D01*
X186001D01*
Y192694D01*
X185001D01*
X189999Y197693D02*
X190999Y198692D01*
X192998D01*
X193998Y197693D01*
Y193694D01*
X192998Y192694D01*
X190999D01*
X189999Y193694D01*
Y197693D01*
X195997D02*
X196997Y198692D01*
X198996D01*
X199996Y197693D01*
Y193694D01*
X198996Y192694D01*
X196997D01*
X195997Y193694D01*
Y197693D01*
X201995D02*
X202995Y198692D01*
X204995D01*
X205994Y197693D01*
Y193694D01*
X204995Y192694D01*
X202995D01*
X201995Y193694D01*
Y197693D01*
X207994Y192694D02*
Y196693D01*
X208993D01*
X209993Y195693D01*
Y192694D01*
Y195693D01*
X210993Y196693D01*
X211992Y195693D01*
Y192694D01*
X213992D02*
Y196693D01*
X214991D01*
X215991Y195693D01*
Y192694D01*
Y195693D01*
X216991Y196693D01*
X217990Y195693D01*
Y192694D01*
X219990D02*
X221989Y194694D01*
Y196693D01*
X219990Y198692D01*
X121022Y177694D02*
X123021D01*
X122021D01*
Y183692D01*
X121022Y182693D01*
X126020Y178694D02*
X127020Y177694D01*
X129019D01*
X130019Y178694D01*
Y182693D01*
X129019Y183692D01*
X127020D01*
X126020Y182693D01*
Y181693D01*
X127020Y180693D01*
X130019D01*
X132018Y177694D02*
Y178694D01*
X133018D01*
Y177694D01*
X132018D01*
X141015Y183692D02*
X139016Y182693D01*
X137016Y180693D01*
Y178694D01*
X138016Y177694D01*
X140016D01*
X141015Y178694D01*
Y179693D01*
X140016Y180693D01*
X137016D01*
X143015Y178694D02*
X144014Y177694D01*
X146014D01*
X147013Y178694D01*
Y182693D01*
X146014Y183692D01*
X144014D01*
X143015Y182693D01*
Y181693D01*
X144014Y180693D01*
X147013D01*
X149013Y177694D02*
Y181693D01*
X150012D01*
X151012Y180693D01*
Y177694D01*
Y180693D01*
X152012Y181693D01*
X153011Y180693D01*
Y177694D01*
X155011D02*
X157010D01*
X156010D01*
Y181693D01*
X155011D01*
X160009Y177694D02*
X162008D01*
X161009D01*
Y183692D01*
X160009D01*
X173005Y177694D02*
X171005Y179693D01*
Y181693D01*
X173005Y183692D01*
X176004Y182693D02*
X177004Y183692D01*
X179003D01*
X180003Y182693D01*
Y178694D01*
X179003Y177694D01*
X177004D01*
X176004Y178694D01*
Y182693D01*
X182002Y177694D02*
Y178694D01*
X183002D01*
Y177694D01*
X182002D01*
X190999Y183692D02*
X187000D01*
Y180693D01*
X189000Y181693D01*
X189999D01*
X190999Y180693D01*
Y178694D01*
X189999Y177694D01*
X188000D01*
X187000Y178694D01*
X192998Y182693D02*
X193998Y183692D01*
X195998D01*
X196997Y182693D01*
Y178694D01*
X195998Y177694D01*
X193998D01*
X192998Y178694D01*
Y182693D01*
X198996D02*
X199996Y183692D01*
X201995D01*
X202995Y182693D01*
Y178694D01*
X201995Y177694D01*
X199996D01*
X198996Y178694D01*
Y182693D01*
X204995Y177694D02*
Y181693D01*
X205994D01*
X206994Y180693D01*
Y177694D01*
Y180693D01*
X207994Y181693D01*
X208993Y180693D01*
Y177694D01*
X210993D02*
Y181693D01*
X211992D01*
X212992Y180693D01*
Y177694D01*
Y180693D01*
X213992Y181693D01*
X214991Y180693D01*
Y177694D01*
X216991D02*
X218990Y179693D01*
Y181693D01*
X216991Y183692D01*
X121022Y162694D02*
X123021D01*
X122021D01*
Y168692D01*
X121022Y167693D01*
X126020D02*
X127020Y168692D01*
X129019D01*
X130019Y167693D01*
Y163694D01*
X129019Y162694D01*
X127020D01*
X126020Y163694D01*
Y167693D01*
X132018Y162694D02*
Y163694D01*
X133018D01*
Y162694D01*
X132018D01*
X137016Y167693D02*
X138016Y168692D01*
X140016D01*
X141015Y167693D01*
Y163694D01*
X140016Y162694D01*
X138016D01*
X137016Y163694D01*
Y167693D01*
X143015D02*
X144014Y168692D01*
X146014D01*
X147013Y167693D01*
Y163694D01*
X146014Y162694D01*
X144014D01*
X143015Y163694D01*
Y167693D01*
X149013Y162694D02*
Y166693D01*
X150012D01*
X151012Y165693D01*
Y162694D01*
Y165693D01*
X152012Y166693D01*
X153011Y165693D01*
Y162694D01*
X155011D02*
X157010D01*
X156010D01*
Y166693D01*
X155011D01*
X160009Y162694D02*
X162008D01*
X161009D01*
Y168692D01*
X160009D01*
X173005Y162694D02*
X171005Y164693D01*
Y166693D01*
X173005Y168692D01*
X176004Y167693D02*
X177004Y168692D01*
X179003D01*
X180003Y167693D01*
Y163694D01*
X179003Y162694D01*
X177004D01*
X176004Y163694D01*
Y167693D01*
X182002Y162694D02*
Y163694D01*
X183002D01*
Y162694D01*
X182002D01*
X190999D02*
X187000D01*
X190999Y166693D01*
Y167693D01*
X189999Y168692D01*
X188000D01*
X187000Y167693D01*
X196997Y168692D02*
X192998D01*
Y165693D01*
X194998Y166693D01*
X195998D01*
X196997Y165693D01*
Y163694D01*
X195998Y162694D01*
X193998D01*
X192998Y163694D01*
X201995Y162694D02*
Y168692D01*
X198996Y165693D01*
X202995D01*
X204995Y162694D02*
Y166693D01*
X205994D01*
X206994Y165693D01*
Y162694D01*
Y165693D01*
X207994Y166693D01*
X208993Y165693D01*
Y162694D01*
X210993D02*
Y166693D01*
X211992D01*
X212992Y165693D01*
Y162694D01*
Y165693D01*
X213992Y166693D01*
X214991Y165693D01*
Y162694D01*
X216991D02*
X218990Y164693D01*
Y166693D01*
X216991Y168692D01*
X61038Y152693D02*
X62037Y153692D01*
X64037D01*
X65036Y152693D01*
Y151693D01*
X64037Y150693D01*
X63037D01*
X64037D01*
X65036Y149694D01*
Y148694D01*
X64037Y147694D01*
X62037D01*
X61038Y148694D01*
X67036Y152693D02*
X68035Y153692D01*
X70035D01*
X71034Y152693D01*
Y148694D01*
X70035Y147694D01*
X68035D01*
X67036Y148694D01*
Y152693D01*
X73034D02*
X74033Y153692D01*
X76033D01*
X77032Y152693D01*
Y151693D01*
X76033Y150693D01*
X77032Y149694D01*
Y148694D01*
X76033Y147694D01*
X74033D01*
X73034Y148694D01*
Y149694D01*
X74033Y150693D01*
X73034Y151693D01*
Y152693D01*
X74033Y150693D02*
X76033D01*
X85030Y153692D02*
X89029D01*
X87029D01*
Y147694D01*
X92027D02*
X94027D01*
X95027Y148694D01*
Y150693D01*
X94027Y151693D01*
X92027D01*
X91028Y150693D01*
Y148694D01*
X92027Y147694D01*
X98026Y152693D02*
Y151693D01*
X97026D01*
X99025D01*
X98026D01*
Y148694D01*
X99025Y147694D01*
X103024Y151693D02*
X105023D01*
X106023Y150693D01*
Y147694D01*
X103024D01*
X102024Y148694D01*
X103024Y149694D01*
X106023D01*
X108022Y147694D02*
X110022D01*
X109022D01*
Y153692D01*
X108022D01*
X65036Y252694D02*
X61038D01*
X65036Y256693D01*
Y257693D01*
X64037Y258692D01*
X62037D01*
X61038Y257693D01*
X65036Y237694D02*
X61038D01*
X65036Y241693D01*
Y242692D01*
X64037Y243692D01*
X62037D01*
X61038Y242692D01*
X65036Y222694D02*
X61038D01*
X65036Y226693D01*
Y227693D01*
X64037Y228692D01*
X62037D01*
X61038Y227693D01*
X65036Y207694D02*
X61038D01*
X65036Y211693D01*
Y212692D01*
X64037Y213692D01*
X62037D01*
X61038Y212692D01*
X64037Y192694D02*
Y198692D01*
X61038Y195693D01*
X65036D01*
X61038Y183692D02*
X65036D01*
Y182693D01*
X61038Y178694D01*
Y177694D01*
X71034Y183692D02*
X67036D01*
Y180693D01*
X69035Y181693D01*
X70035D01*
X71034Y180693D01*
Y178694D01*
X70035Y177694D01*
X68035D01*
X67036Y178694D01*
X65036Y162694D02*
X61038D01*
X65036Y166693D01*
Y167693D01*
X64037Y168692D01*
X62037D01*
X61038Y167693D01*
X71034Y162694D02*
X67036D01*
X71034Y166693D01*
Y167693D01*
X70035Y168692D01*
X68035D01*
X67036Y167693D01*
X73034Y162694D02*
X75033D01*
X74033D01*
Y168692D01*
X73034Y167693D01*
X188997Y125199D02*
X192996D01*
X188997Y127198D02*
X192996D01*
X200993Y123199D02*
Y129197D01*
X203992D01*
X204992Y128198D01*
Y126198D01*
X203992Y125199D01*
X200993D01*
X202992D02*
X204992Y123199D01*
X207991D02*
X209990D01*
X210990Y124199D01*
Y126198D01*
X209990Y127198D01*
X207991D01*
X206991Y126198D01*
Y124199D01*
X207991Y123199D01*
X212989Y127198D02*
Y124199D01*
X213989Y123199D01*
X216988D01*
Y127198D01*
X219987Y128198D02*
Y127198D01*
X218987D01*
X220987D01*
X219987D01*
Y124199D01*
X220987Y123199D01*
X226985D02*
X224985D01*
X223986Y124199D01*
Y126198D01*
X224985Y127198D01*
X226985D01*
X227984Y126198D01*
Y125199D01*
X223986D01*
X233982Y129197D02*
Y123199D01*
X230983D01*
X229984Y124199D01*
Y126198D01*
X230983Y127198D01*
X233982D01*
X241980Y123199D02*
Y129197D01*
X244979D01*
X245978Y128198D01*
Y126198D01*
X244979Y125199D01*
X241980D01*
X248978Y127198D02*
X250977D01*
X251977Y126198D01*
Y123199D01*
X248978D01*
X247978Y124199D01*
X248978Y125199D01*
X251977D01*
X254976Y128198D02*
Y127198D01*
X253976D01*
X255975D01*
X254976D01*
Y124199D01*
X255975Y123199D01*
X258974Y129197D02*
Y123199D01*
Y126198D01*
X259974Y127198D01*
X261973D01*
X262973Y126198D01*
Y123199D01*
X270970Y129197D02*
Y123199D01*
X274969D01*
X279967D02*
X277968D01*
X276969Y124199D01*
Y126198D01*
X277968Y127198D01*
X279967D01*
X280967Y126198D01*
Y125199D01*
X276969D01*
X282967Y123199D02*
Y127198D01*
X285966D01*
X286965Y126198D01*
Y123199D01*
X290964Y121200D02*
X291964D01*
X292963Y122200D01*
Y127198D01*
X289964D01*
X288965Y126198D01*
Y124199D01*
X289964Y123199D01*
X292963D01*
X295962Y128198D02*
Y127198D01*
X294963D01*
X296962D01*
X295962D01*
Y124199D01*
X296962Y123199D01*
X299961Y129197D02*
Y123199D01*
Y126198D01*
X300961Y127198D01*
X302960D01*
X303960Y126198D01*
Y123199D01*
X311957Y126198D02*
X315956D01*
X313956Y128198D02*
Y124199D01*
X323953Y129197D02*
X327952D01*
X325953D01*
Y123199D01*
X330951D02*
X332950D01*
X333950Y124199D01*
Y126198D01*
X332950Y127198D01*
X330951D01*
X329951Y126198D01*
Y124199D01*
X330951Y123199D01*
X336949D02*
X338948D01*
X339948Y124199D01*
Y126198D01*
X338948Y127198D01*
X336949D01*
X335949Y126198D01*
Y124199D01*
X336949Y123199D01*
X341948D02*
X343947D01*
X342947D01*
Y129197D01*
X341948D01*
X356943Y128198D02*
X355943Y129197D01*
X353944D01*
X352944Y128198D01*
Y127198D01*
X353944Y126198D01*
X355943D01*
X356943Y125199D01*
Y124199D01*
X355943Y123199D01*
X353944D01*
X352944Y124199D01*
X358942Y123199D02*
X360941D01*
X359942D01*
Y127198D01*
X358942D01*
X363940D02*
X367939D01*
X363940Y123199D01*
X367939D01*
X372937D02*
X370938D01*
X369938Y124199D01*
Y126198D01*
X370938Y127198D01*
X372937D01*
X373937Y126198D01*
Y125199D01*
X369938D01*
X381934D02*
X385933D01*
X381934Y127198D02*
X385933D01*
X397929Y128198D02*
X396930Y129197D01*
X394930D01*
X393931Y128198D01*
Y127198D01*
X394930Y126198D01*
X396930D01*
X397929Y125199D01*
Y124199D01*
X396930Y123199D01*
X394930D01*
X393931Y124199D01*
X399929Y123199D02*
X401928D01*
X400928D01*
Y129197D01*
X399929D01*
X405927Y123199D02*
X407926D01*
X408926Y124199D01*
Y126198D01*
X407926Y127198D01*
X405927D01*
X404927Y126198D01*
Y124199D01*
X405927Y123199D01*
X411925Y128198D02*
Y127198D01*
X410925D01*
X412924D01*
X411925D01*
Y124199D01*
X412924Y123199D01*
X421922D02*
X423921D01*
X422921D01*
Y129197D01*
X421922D01*
X429919Y123199D02*
X427920D01*
X426920Y124199D01*
Y126198D01*
X427920Y127198D01*
X429919D01*
X430919Y126198D01*
Y125199D01*
X426920D01*
X432918Y123199D02*
Y127198D01*
X435917D01*
X436917Y126198D01*
Y123199D01*
X440915Y121200D02*
X441915D01*
X442915Y122200D01*
Y127198D01*
X439916D01*
X438916Y126198D01*
Y124199D01*
X439916Y123199D01*
X442915D01*
X445914Y128198D02*
Y127198D01*
X444914D01*
X446913D01*
X445914D01*
Y124199D01*
X446913Y123199D01*
X449913Y129197D02*
Y123199D01*
Y126198D01*
X450912Y127198D01*
X452912D01*
X453911Y126198D01*
Y123199D01*
X462908Y127198D02*
X464908D01*
X465907Y126198D01*
Y123199D01*
X462908D01*
X461909Y124199D01*
X462908Y125199D01*
X465907D01*
X467907Y123199D02*
X470906D01*
X471905Y124199D01*
X470906Y125199D01*
X468906D01*
X467907Y126198D01*
X468906Y127198D01*
X471905D01*
X483902Y129197D02*
Y123199D01*
X480902D01*
X479903Y124199D01*
Y126198D01*
X480902Y127198D01*
X483902D01*
X488900Y123199D02*
X486901D01*
X485901Y124199D01*
Y126198D01*
X486901Y127198D01*
X488900D01*
X489900Y126198D01*
Y125199D01*
X485901D01*
X492899Y123199D02*
Y128198D01*
Y126198D01*
X491899D01*
X493898D01*
X492899D01*
Y128198D01*
X493898Y129197D01*
X496897Y123199D02*
X498897D01*
X497897D01*
Y127198D01*
X496897D01*
X501896Y123199D02*
Y127198D01*
X504895D01*
X505894Y126198D01*
Y123199D01*
X510893D02*
X508893D01*
X507894Y124199D01*
Y126198D01*
X508893Y127198D01*
X510893D01*
X511893Y126198D01*
Y125199D01*
X507894D01*
X517891Y129197D02*
Y123199D01*
X514891D01*
X513892Y124199D01*
Y126198D01*
X514891Y127198D01*
X517891D01*
X525888Y123199D02*
X527887D01*
X526888D01*
Y127198D01*
X525888D01*
X530886Y123199D02*
Y127198D01*
X533885D01*
X534885Y126198D01*
Y123199D01*
X543882Y128198D02*
Y127198D01*
X542882D01*
X544882D01*
X543882D01*
Y124199D01*
X544882Y123199D01*
X547881Y129197D02*
Y123199D01*
Y126198D01*
X548880Y127198D01*
X550880D01*
X551880Y126198D01*
Y123199D01*
X556878D02*
X554879D01*
X553879Y124199D01*
Y126198D01*
X554879Y127198D01*
X556878D01*
X557878Y126198D01*
Y125199D01*
X553879D01*
X565875Y123199D02*
Y129197D01*
X568874D01*
X569874Y128198D01*
Y126198D01*
X568874Y125199D01*
X565875D01*
X575872Y128198D02*
X574872Y129197D01*
X572873D01*
X571873Y128198D01*
Y124199D01*
X572873Y123199D01*
X574872D01*
X575872Y124199D01*
X577871Y129197D02*
Y123199D01*
X580870D01*
X581870Y124199D01*
Y125199D01*
X580870Y126198D01*
X577871D01*
X580870D01*
X581870Y127198D01*
Y128198D01*
X580870Y129197D01*
X577871D01*
X589867Y123199D02*
X591867D01*
X590867D01*
Y129197D01*
X589867D01*
X595865Y127198D02*
X597865D01*
X598864Y126198D01*
Y123199D01*
X595865D01*
X594866Y124199D01*
X595865Y125199D01*
X598864D01*
X600864Y127198D02*
Y124199D01*
X601863Y123199D01*
X604862D01*
Y122200D01*
X603863Y121200D01*
X602863D01*
X604862Y123199D02*
Y127198D01*
X607861Y123199D02*
X609861D01*
X610860Y124199D01*
Y126198D01*
X609861Y127198D01*
X607861D01*
X606862Y126198D01*
Y124199D01*
X607861Y123199D01*
X612860Y127198D02*
Y124199D01*
X613860Y123199D01*
X616858D01*
Y127198D01*
X619858Y128198D02*
Y127198D01*
X618858D01*
X620857D01*
X619858D01*
Y124199D01*
X620857Y123199D01*
X223986Y135196D02*
X227984D01*
X223986Y137196D02*
X227984D01*
X239981Y138195D02*
X238981Y139195D01*
X236981D01*
X235982Y138195D01*
Y134196D01*
X236981Y133197D01*
X238981D01*
X239981Y134196D01*
X242980Y137196D02*
X244979D01*
X245978Y136196D01*
Y133197D01*
X242980D01*
X241980Y134196D01*
X242980Y135196D01*
X245978D01*
X247978Y133197D02*
X249977D01*
X248978D01*
Y139195D01*
X247978D01*
X256975Y137196D02*
X253976D01*
X252976Y136196D01*
Y134196D01*
X253976Y133197D01*
X256975D01*
X258974Y137196D02*
Y134196D01*
X259974Y133197D01*
X262973D01*
Y137196D01*
X264972Y133197D02*
X266972D01*
X265972D01*
Y139195D01*
X264972D01*
X270970Y137196D02*
X272970D01*
X273970Y136196D01*
Y133197D01*
X270970D01*
X269971Y134196D01*
X270970Y135196D01*
X273970D01*
X276969Y138195D02*
Y137196D01*
X275969D01*
X277968D01*
X276969D01*
Y134196D01*
X277968Y133197D01*
X283966D02*
X281967D01*
X280967Y134196D01*
Y136196D01*
X281967Y137196D01*
X283966D01*
X284966Y136196D01*
Y135196D01*
X280967D01*
X290964Y139195D02*
Y133197D01*
X287965D01*
X286965Y134196D01*
Y136196D01*
X287965Y137196D01*
X290964D01*
X299961Y133197D02*
Y138195D01*
Y136196D01*
X298961D01*
X300961D01*
X299961D01*
Y138195D01*
X300961Y139195D01*
X303960Y137196D02*
Y133197D01*
Y135196D01*
X304959Y136196D01*
X305959Y137196D01*
X306959D01*
X310958Y133197D02*
X312957D01*
X313956Y134196D01*
Y136196D01*
X312957Y137196D01*
X310958D01*
X309958Y136196D01*
Y134196D01*
X310958Y133197D01*
X315956D02*
Y137196D01*
X316955D01*
X317955Y136196D01*
Y133197D01*
Y136196D01*
X318955Y137196D01*
X319955Y136196D01*
Y133197D01*
X328952Y138195D02*
Y137196D01*
X327952D01*
X329951D01*
X328952D01*
Y134196D01*
X329951Y133197D01*
X333950D02*
X335949D01*
X336949Y134196D01*
Y136196D01*
X335949Y137196D01*
X333950D01*
X332950Y136196D01*
Y134196D01*
X333950Y133197D01*
X339948D02*
X341948D01*
X342947Y134196D01*
Y136196D01*
X341948Y137196D01*
X339948D01*
X338948Y136196D01*
Y134196D01*
X339948Y133197D01*
X344947D02*
X346946D01*
X345946D01*
Y139195D01*
X344947D01*
X355943Y133197D02*
X358942D01*
X359942Y134196D01*
X358942Y135196D01*
X356943D01*
X355943Y136196D01*
X356943Y137196D01*
X359942D01*
X362941Y138195D02*
Y137196D01*
X361941D01*
X363940D01*
X362941D01*
Y134196D01*
X363940Y133197D01*
X367939Y137196D02*
X369938D01*
X370938Y136196D01*
Y133197D01*
X367939D01*
X366939Y134196D01*
X367939Y135196D01*
X370938D01*
X372937Y137196D02*
Y133197D01*
Y135196D01*
X373937Y136196D01*
X374937Y137196D01*
X375937D01*
X379935Y138195D02*
Y137196D01*
X378936D01*
X380935D01*
X379935D01*
Y134196D01*
X380935Y133197D01*
X393931Y137196D02*
X390932D01*
X389932Y136196D01*
Y134196D01*
X390932Y133197D01*
X393931D01*
X398929D02*
X396930D01*
X395930Y134196D01*
Y136196D01*
X396930Y137196D01*
X398929D01*
X399929Y136196D01*
Y135196D01*
X395930D01*
X401928Y133197D02*
Y137196D01*
X404927D01*
X405927Y136196D01*
Y133197D01*
X408926Y138195D02*
Y137196D01*
X407926D01*
X409926D01*
X408926D01*
Y134196D01*
X409926Y133197D01*
X412924Y137196D02*
Y133197D01*
Y135196D01*
X413924Y136196D01*
X414924Y137196D01*
X415924D01*
X421922Y133197D02*
X419922D01*
X418923Y134196D01*
Y136196D01*
X419922Y137196D01*
X421922D01*
X422921Y136196D01*
Y135196D01*
X418923D01*
X430919Y131197D02*
Y137196D01*
X433918D01*
X434917Y136196D01*
Y134196D01*
X433918Y133197D01*
X430919D01*
X437916D02*
X439916D01*
X440915Y134196D01*
Y136196D01*
X439916Y137196D01*
X437916D01*
X436917Y136196D01*
Y134196D01*
X437916Y133197D01*
X442915D02*
X445914D01*
X446913Y134196D01*
X445914Y135196D01*
X443915D01*
X442915Y136196D01*
X443915Y137196D01*
X446913D01*
X448913Y133197D02*
X450912D01*
X449913D01*
Y137196D01*
X448913D01*
X454911Y138195D02*
Y137196D01*
X453911D01*
X455911D01*
X454911D01*
Y134196D01*
X455911Y133197D01*
X458910D02*
X460909D01*
X459909D01*
Y137196D01*
X458910D01*
X464908Y133197D02*
X466907D01*
X467907Y134196D01*
Y136196D01*
X466907Y137196D01*
X464908D01*
X463908Y136196D01*
Y134196D01*
X464908Y133197D01*
X469906D02*
Y137196D01*
X472905D01*
X473905Y136196D01*
Y133197D01*
X482902Y138195D02*
Y137196D01*
X481902D01*
X483902D01*
X482902D01*
Y134196D01*
X483902Y133197D01*
X487900D02*
X489900D01*
X490899Y134196D01*
Y136196D01*
X489900Y137196D01*
X487900D01*
X486901Y136196D01*
Y134196D01*
X487900Y133197D01*
X499896Y138195D02*
Y137196D01*
X498897D01*
X500896D01*
X499896D01*
Y134196D01*
X500896Y133197D01*
X504895D02*
X506894D01*
X507894Y134196D01*
Y136196D01*
X506894Y137196D01*
X504895D01*
X503895Y136196D01*
Y134196D01*
X504895Y133197D01*
X510893D02*
X512892D01*
X513892Y134196D01*
Y136196D01*
X512892Y137196D01*
X510893D01*
X509893Y136196D01*
Y134196D01*
X510893Y133197D01*
X515891D02*
X517891D01*
X516891D01*
Y139195D01*
X515891D01*
X529887Y133197D02*
X527887D01*
X526888Y134196D01*
Y136196D01*
X527887Y137196D01*
X529887D01*
X530886Y136196D01*
Y135196D01*
X526888D01*
X532886Y133197D02*
Y137196D01*
X535885D01*
X536884Y136196D01*
Y133197D01*
X542882Y139195D02*
Y133197D01*
X539883D01*
X538884Y134196D01*
Y136196D01*
X539883Y137196D01*
X542882D01*
X554879D02*
X551880D01*
X550880Y136196D01*
Y134196D01*
X551880Y133197D01*
X554879D01*
X559877D02*
X557878D01*
X556878Y134196D01*
Y136196D01*
X557878Y137196D01*
X559877D01*
X560877Y136196D01*
Y135196D01*
X556878D01*
X562876Y133197D02*
Y137196D01*
X565875D01*
X566875Y136196D01*
Y133197D01*
X569874Y138195D02*
Y137196D01*
X568874D01*
X570873D01*
X569874D01*
Y134196D01*
X570873Y133197D01*
X573872Y137196D02*
Y133197D01*
Y135196D01*
X574872Y136196D01*
X575872Y137196D01*
X576871D01*
X582869Y133197D02*
X580870D01*
X579871Y134196D01*
Y136196D01*
X580870Y137196D01*
X582869D01*
X583869Y136196D01*
Y135196D01*
X579871D01*
X591867Y131197D02*
Y137196D01*
X594866D01*
X595865Y136196D01*
Y134196D01*
X594866Y133197D01*
X591867D01*
X598864D02*
X600864D01*
X601863Y134196D01*
Y136196D01*
X600864Y137196D01*
X598864D01*
X597865Y136196D01*
Y134196D01*
X598864Y133197D01*
X603863D02*
X606862D01*
X607861Y134196D01*
X606862Y135196D01*
X604862D01*
X603863Y136196D01*
X604862Y137196D01*
X607861D01*
X609861Y133197D02*
X611860D01*
X610860D01*
Y137196D01*
X609861D01*
X615859Y138195D02*
Y137196D01*
X614859D01*
X616858D01*
X615859D01*
Y134196D01*
X616858Y133197D01*
X619858D02*
X621857D01*
X620857D01*
Y137196D01*
X619858D01*
X625856Y133197D02*
X627855D01*
X628855Y134196D01*
Y136196D01*
X627855Y137196D01*
X625856D01*
X624856Y136196D01*
Y134196D01*
X625856Y133197D01*
X630854D02*
Y137196D01*
X633853D01*
X634853Y136196D01*
Y133197D01*
X636852D02*
Y134196D01*
X637852D01*
Y133197D01*
X636852D01*
D24*
X1450Y263194D02*
X1325278D01*
X1450Y158194D02*
X1325278D01*
X1450Y143194D02*
X1325278D01*
Y278194D01*
X1450D02*
X1325278D01*
X1450Y143194D02*
Y278194D01*
X1185018Y143194D02*
Y278194D01*
X1076050Y143194D02*
Y278194D01*
X942689Y143194D02*
Y278194D01*
X809328Y143194D02*
Y278194D01*
X723952Y143194D02*
Y278194D01*
X604987Y143194D02*
Y278194D01*
X530407Y143194D02*
Y278194D01*
X471422Y143194D02*
Y278194D01*
X352457Y143194D02*
Y278194D01*
X279077Y143194D02*
Y278194D01*
X228489Y143194D02*
Y278194D01*
X116522Y143194D02*
Y278194D01*
X56538Y143194D02*
Y278194D01*
D110*
X190500Y11500D02*
G03*
X190500Y11500I-1000J0D01*
G01*
Y91000D02*
G03*
X190500Y91000I-1000J0D01*
G01*
X12500D02*
G03*
X12500Y91000I-1000J0D01*
G01*
Y11500D02*
G03*
X12500Y11500I-1000J0D01*
G01*
X158500Y94000D02*
X160500D01*
Y96000D01*
X158500D02*
X160500D01*
X158500Y94000D02*
Y96000D01*
X148500Y94000D02*
X150500D01*
Y96000D01*
X148500D02*
X150500D01*
X148500Y94000D02*
Y96000D01*
X153500Y94000D02*
X155500D01*
Y96000D01*
X153500D02*
X155500D01*
X153500Y94000D02*
Y96000D01*
Y88000D02*
X155500D01*
Y90000D01*
X153500D02*
X155500D01*
X153500Y88000D02*
Y90000D01*
X158500Y88000D02*
X160500D01*
Y90000D01*
X158500D02*
X160500D01*
X158500Y88000D02*
Y90000D01*
X153500Y82000D02*
X155500D01*
Y84000D01*
X153500D02*
X155500D01*
X153500Y82000D02*
Y84000D01*
X148500Y82000D02*
X150500D01*
Y84000D01*
X148500D02*
X150500D01*
X148500Y82000D02*
Y84000D01*
X158500Y82000D02*
X160500D01*
Y84000D01*
X158500D02*
X160500D01*
X158500Y82000D02*
Y84000D01*
X148500Y76000D02*
X150500D01*
Y78000D01*
X148500D02*
X150500D01*
X148500Y76000D02*
Y78000D01*
X143500Y76000D02*
X145500D01*
Y78000D01*
X143500D02*
X145500D01*
X143500Y76000D02*
Y78000D01*
X153500Y76000D02*
X155500D01*
Y78000D01*
X153500D02*
X155500D01*
X153500Y76000D02*
Y78000D01*
X139500Y70000D02*
X141500D01*
Y72000D01*
X139500D02*
X141500D01*
X139500Y70000D02*
Y72000D01*
X134500Y70000D02*
X136500D01*
Y72000D01*
X134500D02*
X136500D01*
X134500Y70000D02*
Y72000D01*
X144500Y70000D02*
X146500D01*
Y72000D01*
X144500D02*
X146500D01*
X144500Y70000D02*
Y72000D01*
X139500Y64000D02*
X141500D01*
Y66000D01*
X139500D02*
X141500D01*
X139500Y64000D02*
Y66000D01*
X134500Y64000D02*
X136500D01*
Y66000D01*
X134500D02*
X136500D01*
X134500Y64000D02*
Y66000D01*
X144500Y64000D02*
X146500D01*
Y66000D01*
X144500D02*
X146500D01*
X144500Y64000D02*
Y66000D01*
X139500Y56000D02*
X141500D01*
Y58000D01*
X139500D02*
X141500D01*
X139500Y56000D02*
Y58000D01*
X134500Y56000D02*
X136500D01*
Y58000D01*
X134500D02*
X136500D01*
X134500Y56000D02*
Y58000D01*
X144500Y56000D02*
X146500D01*
Y58000D01*
X144500D02*
X146500D01*
X144500Y56000D02*
Y58000D01*
X139500Y48000D02*
X141500D01*
Y50000D01*
X139500D02*
X141500D01*
X139500Y48000D02*
Y50000D01*
X134500Y48000D02*
X136500D01*
Y50000D01*
X134500D02*
X136500D01*
X134500Y48000D02*
Y50000D01*
X144500Y48000D02*
X146500D01*
Y50000D01*
X144500D02*
X146500D01*
X144500Y48000D02*
Y50000D01*
X139500Y42000D02*
X141500D01*
Y44000D01*
X139500D02*
X141500D01*
X139500Y42000D02*
Y44000D01*
X134500Y42000D02*
X136500D01*
Y44000D01*
X134500D02*
X136500D01*
X134500Y42000D02*
Y44000D01*
X144500Y42000D02*
X146500D01*
Y44000D01*
X144500D02*
X146500D01*
X144500Y42000D02*
Y44000D01*
X139500Y16000D02*
X141500D01*
Y18000D01*
X139500D02*
X141500D01*
X139500Y16000D02*
Y18000D01*
X134500Y16000D02*
X136500D01*
Y18000D01*
X134500D02*
X136500D01*
X134500Y16000D02*
Y18000D01*
X144500Y16000D02*
X146500D01*
Y18000D01*
X144500D02*
X146500D01*
X144500Y16000D02*
Y18000D01*
X115500Y95000D02*
X117500D01*
Y97000D01*
X115500D02*
X117500D01*
X115500Y95000D02*
Y97000D01*
X105500Y83000D02*
X107500D01*
Y85000D01*
X105500D02*
X107500D01*
X105500Y83000D02*
Y85000D01*
X120500Y95000D02*
X122500D01*
Y97000D01*
X120500D02*
X122500D01*
X120500Y95000D02*
Y97000D01*
X105500Y89000D02*
X107500D01*
Y91000D01*
X105500D02*
X107500D01*
X105500Y89000D02*
Y91000D01*
X125500Y83000D02*
X127500D01*
Y85000D01*
X125500D02*
X127500D01*
X125500Y83000D02*
Y85000D01*
X110500Y83000D02*
X112500D01*
Y85000D01*
X110500D02*
X112500D01*
X110500Y83000D02*
Y85000D01*
X125500Y95000D02*
X127500D01*
Y97000D01*
X125500D02*
X127500D01*
X125500Y95000D02*
Y97000D01*
X120500Y89000D02*
X122500D01*
Y91000D01*
X120500D02*
X122500D01*
X120500Y89000D02*
Y91000D01*
X115500Y83000D02*
X117500D01*
Y85000D01*
X115500D02*
X117500D01*
X115500Y83000D02*
Y85000D01*
X130500Y95000D02*
X132500D01*
Y97000D01*
X130500D02*
X132500D01*
X130500Y95000D02*
Y97000D01*
X110500Y89000D02*
X112500D01*
Y91000D01*
X110500D02*
X112500D01*
X110500Y89000D02*
Y91000D01*
X120500Y83000D02*
X122500D01*
Y85000D01*
X120500D02*
X122500D01*
X120500Y83000D02*
Y85000D01*
X130500Y89000D02*
X132500D01*
Y91000D01*
X130500D02*
X132500D01*
X130500Y89000D02*
Y91000D01*
X110500Y95000D02*
X112500D01*
Y97000D01*
X110500D02*
X112500D01*
X110500Y95000D02*
Y97000D01*
X105500Y95000D02*
X107500D01*
Y97000D01*
X105500D02*
X107500D01*
X105500Y95000D02*
Y97000D01*
X130500Y83000D02*
X132500D01*
Y85000D01*
X130500D02*
X132500D01*
X130500Y83000D02*
Y85000D01*
X115500Y89000D02*
X117500D01*
Y91000D01*
X115500D02*
X117500D01*
X115500Y89000D02*
Y91000D01*
X125500Y89000D02*
X127500D01*
Y91000D01*
X125500D02*
X127500D01*
X125500Y89000D02*
Y91000D01*
X77500Y89000D02*
X79500D01*
Y91000D01*
X77500D02*
X79500D01*
X77500Y89000D02*
Y91000D01*
X67500Y89000D02*
X69500D01*
Y91000D01*
X67500D02*
X69500D01*
X67500Y89000D02*
Y91000D01*
X82500Y83000D02*
X84500D01*
Y85000D01*
X82500D02*
X84500D01*
X82500Y83000D02*
Y85000D01*
X57500Y95000D02*
X59500D01*
Y97000D01*
X57500D02*
X59500D01*
X57500Y95000D02*
Y97000D01*
X62500Y95000D02*
X64500D01*
Y97000D01*
X62500D02*
X64500D01*
X62500Y95000D02*
Y97000D01*
X82500Y89000D02*
X84500D01*
Y91000D01*
X82500D02*
X84500D01*
X82500Y89000D02*
Y91000D01*
X72500Y83000D02*
X74500D01*
Y85000D01*
X72500D02*
X74500D01*
X72500Y83000D02*
Y85000D01*
X62500Y89000D02*
X64500D01*
Y91000D01*
X62500D02*
X64500D01*
X62500Y89000D02*
Y91000D01*
X82500Y95000D02*
X84500D01*
Y97000D01*
X82500D02*
X84500D01*
X82500Y95000D02*
Y97000D01*
X67500Y83000D02*
X69500D01*
Y85000D01*
X67500D02*
X69500D01*
X67500Y83000D02*
Y85000D01*
X72500Y89000D02*
X74500D01*
Y91000D01*
X72500D02*
X74500D01*
X72500Y89000D02*
Y91000D01*
X77500Y95000D02*
X79500D01*
Y97000D01*
X77500D02*
X79500D01*
X77500Y95000D02*
Y97000D01*
X62500Y83000D02*
X64500D01*
Y85000D01*
X62500D02*
X64500D01*
X62500Y83000D02*
Y85000D01*
X77500Y83000D02*
X79500D01*
Y85000D01*
X77500D02*
X79500D01*
X77500Y83000D02*
Y85000D01*
X57500Y89000D02*
X59500D01*
Y91000D01*
X57500D02*
X59500D01*
X57500Y89000D02*
Y91000D01*
X72500Y95000D02*
X74500D01*
Y97000D01*
X72500D02*
X74500D01*
X72500Y95000D02*
Y97000D01*
X57500Y83000D02*
X59500D01*
Y85000D01*
X57500D02*
X59500D01*
X57500Y83000D02*
Y85000D01*
X67500Y95000D02*
X69500D01*
Y97000D01*
X67500D02*
X69500D01*
X67500Y95000D02*
Y97000D01*
X40500Y83000D02*
X42500D01*
Y85000D01*
X40500D02*
X42500D01*
X40500Y83000D02*
Y85000D01*
X30500Y83000D02*
X32500D01*
Y85000D01*
X30500D02*
X32500D01*
X30500Y83000D02*
Y85000D01*
X35500Y83000D02*
X37500D01*
Y85000D01*
X35500D02*
X37500D01*
X35500Y83000D02*
Y85000D01*
X40500Y89000D02*
X42500D01*
Y91000D01*
X40500D02*
X42500D01*
X40500Y89000D02*
Y91000D01*
X30500Y89000D02*
X32500D01*
Y91000D01*
X30500D02*
X32500D01*
X30500Y89000D02*
Y91000D01*
X35500Y89000D02*
X37500D01*
Y91000D01*
X35500D02*
X37500D01*
X35500Y89000D02*
Y91000D01*
Y95000D02*
X37500D01*
Y97000D01*
X35500D02*
X37500D01*
X35500Y95000D02*
Y97000D01*
X30500Y95000D02*
X32500D01*
Y97000D01*
X30500D02*
X32500D01*
X30500Y95000D02*
Y97000D01*
X40500Y95000D02*
X42500D01*
Y97000D01*
X40500D02*
X42500D01*
X40500Y95000D02*
Y97000D01*
X44000Y52200D02*
Y52700D01*
X44500Y53200D01*
X44000Y53700D02*
X44500Y53200D01*
X44000Y53700D02*
Y54200D01*
X44500D01*
X45000Y53700D01*
X45500Y54200D01*
X46000D01*
Y53700D02*
Y54200D01*
X45500Y53200D02*
X46000Y53700D01*
X45500Y53200D02*
X46000Y52700D01*
Y52200D02*
Y52700D01*
X45500Y52200D02*
X46000D01*
X45000Y52700D02*
X45500Y52200D01*
X44500D02*
X45000Y52700D01*
X44000Y52200D02*
X44500D01*
X46400Y51900D02*
Y52400D01*
X46900Y52900D01*
X46400Y53400D02*
X46900Y52900D01*
X46400Y53400D02*
Y53900D01*
X46900D01*
X47400Y53400D01*
X47900Y53900D01*
X48400D01*
Y53400D02*
Y53900D01*
X47900Y52900D02*
X48400Y53400D01*
X47900Y52900D02*
X48400Y52400D01*
Y51900D02*
Y52400D01*
X47900Y51900D02*
X48400D01*
X47400Y52400D02*
X47900Y51900D01*
X46900D02*
X47400Y52400D01*
X46400Y51900D02*
X46900D01*
X47850Y49000D02*
Y49500D01*
X48350Y50000D01*
X47850Y50500D02*
X48350Y50000D01*
X47850Y50500D02*
Y51000D01*
X48350D01*
X48850Y50500D01*
X49350Y51000D01*
X49850D01*
Y50500D02*
Y51000D01*
X49350Y50000D02*
X49850Y50500D01*
X49350Y50000D02*
X49850Y49500D01*
Y49000D02*
Y49500D01*
X49350Y49000D02*
X49850D01*
X48850Y49500D02*
X49350Y49000D01*
X48350D02*
X48850Y49500D01*
X47850Y49000D02*
X48350D01*
X14100Y48500D02*
Y49000D01*
X14600Y49500D01*
X14100Y50000D02*
X14600Y49500D01*
X14100Y50000D02*
Y50500D01*
X14600D01*
X15100Y50000D01*
X15600Y50500D01*
X16100D01*
Y50000D02*
Y50500D01*
X15600Y49500D02*
X16100Y50000D01*
X15600Y49500D02*
X16100Y49000D01*
Y48500D02*
Y49000D01*
X15600Y48500D02*
X16100D01*
X15100Y49000D02*
X15600Y48500D01*
X14600D02*
X15100Y49000D01*
X14100Y48500D02*
X14600D01*
X19000Y44400D02*
Y44900D01*
X19500Y45400D01*
X19000Y45900D02*
X19500Y45400D01*
X19000Y45900D02*
Y46400D01*
X19500D01*
X20000Y45900D01*
X20500Y46400D01*
X21000D01*
Y45900D02*
Y46400D01*
X20500Y45400D02*
X21000Y45900D01*
X20500Y45400D02*
X21000Y44900D01*
Y44400D02*
Y44900D01*
X20500Y44400D02*
X21000D01*
X20000Y44900D02*
X20500Y44400D01*
X19500D02*
X20000Y44900D01*
X19000Y44400D02*
X19500D01*
X28600Y65700D02*
Y66200D01*
X29100Y66700D01*
X28600Y67200D02*
X29100Y66700D01*
X28600Y67200D02*
Y67700D01*
X29100D01*
X29600Y67200D01*
X30100Y67700D01*
X30600D01*
Y67200D02*
Y67700D01*
X30100Y66700D02*
X30600Y67200D01*
X30100Y66700D02*
X30600Y66200D01*
Y65700D02*
Y66200D01*
X30100Y65700D02*
X30600D01*
X29600Y66200D02*
X30100Y65700D01*
X29100D02*
X29600Y66200D01*
X28600Y65700D02*
X29100D01*
X30400Y61500D02*
Y62000D01*
X30900Y62500D01*
X30400Y63000D02*
X30900Y62500D01*
X30400Y63000D02*
Y63500D01*
X30900D01*
X31400Y63000D01*
X31900Y63500D01*
X32400D01*
Y63000D02*
Y63500D01*
X31900Y62500D02*
X32400Y63000D01*
X31900Y62500D02*
X32400Y62000D01*
Y61500D02*
Y62000D01*
X31900Y61500D02*
X32400D01*
X31400Y62000D02*
X31900Y61500D01*
X30900D02*
X31400Y62000D01*
X30400Y61500D02*
X30900D01*
X13000Y60000D02*
Y60500D01*
X13500Y61000D01*
X13000Y61500D02*
X13500Y61000D01*
X13000Y61500D02*
Y62000D01*
X13500D01*
X14000Y61500D01*
X14500Y62000D01*
X15000D01*
Y61500D02*
Y62000D01*
X14500Y61000D02*
X15000Y61500D01*
X14500Y61000D02*
X15000Y60500D01*
Y60000D02*
Y60500D01*
X14500Y60000D02*
X15000D01*
X14000Y60500D02*
X14500Y60000D01*
X13500D02*
X14000Y60500D01*
X13000Y60000D02*
X13500D01*
X48100Y11700D02*
Y12200D01*
X48600Y12700D01*
X48100Y13200D02*
X48600Y12700D01*
X48100Y13200D02*
Y13700D01*
X48600D01*
X49100Y13200D01*
X49600Y13700D01*
X50100D01*
Y13200D02*
Y13700D01*
X49600Y12700D02*
X50100Y13200D01*
X49600Y12700D02*
X50100Y12200D01*
Y11700D02*
Y12200D01*
X49600Y11700D02*
X50100D01*
X49100Y12200D02*
X49600Y11700D01*
X48600D02*
X49100Y12200D01*
X48100Y11700D02*
X48600D01*
X50800D02*
Y12200D01*
X51300Y12700D01*
X50800Y13200D02*
X51300Y12700D01*
X50800Y13200D02*
Y13700D01*
X51300D01*
X51800Y13200D01*
X52300Y13700D01*
X52800D01*
Y13200D02*
Y13700D01*
X52300Y12700D02*
X52800Y13200D01*
X52300Y12700D02*
X52800Y12200D01*
Y11700D02*
Y12200D01*
X52300Y11700D02*
X52800D01*
X51800Y12200D02*
X52300Y11700D01*
X51300D02*
X51800Y12200D01*
X50800Y11700D02*
X51300D01*
X39100Y45800D02*
Y46300D01*
X39600Y46800D01*
X39100Y47300D02*
X39600Y46800D01*
X39100Y47300D02*
Y47800D01*
X39600D01*
X40100Y47300D01*
X40600Y47800D01*
X41100D01*
Y47300D02*
Y47800D01*
X40600Y46800D02*
X41100Y47300D01*
X40600Y46800D02*
X41100Y46300D01*
Y45800D02*
Y46300D01*
X40600Y45800D02*
X41100D01*
X40100Y46300D02*
X40600Y45800D01*
X39600D02*
X40100Y46300D01*
X39100Y45800D02*
X39600D01*
X146600Y8700D02*
Y9200D01*
X147100Y9700D01*
X146600Y10200D02*
X147100Y9700D01*
X146600Y10200D02*
Y10700D01*
X147100D01*
X147600Y10200D01*
X148100Y10700D01*
X148600D01*
Y10200D02*
Y10700D01*
X148100Y9700D02*
X148600Y10200D01*
X148100Y9700D02*
X148600Y9200D01*
Y8700D02*
Y9200D01*
X148100Y8700D02*
X148600D01*
X147600Y9200D02*
X148100Y8700D01*
X147100D02*
X147600Y9200D01*
X146600Y8700D02*
X147100D01*
X143100D02*
Y9200D01*
X143600Y9700D01*
X143100Y10200D02*
X143600Y9700D01*
X143100Y10200D02*
Y10700D01*
X143600D01*
X144100Y10200D01*
X144600Y10700D01*
X145100D01*
Y10200D02*
Y10700D01*
X144600Y9700D02*
X145100Y10200D01*
X144600Y9700D02*
X145100Y9200D01*
Y8700D02*
Y9200D01*
X144600Y8700D02*
X145100D01*
X144100Y9200D02*
X144600Y8700D01*
X143600D02*
X144100Y9200D01*
X143100Y8700D02*
X143600D01*
X139600D02*
Y9200D01*
X140100Y9700D01*
X139600Y10200D02*
X140100Y9700D01*
X139600Y10200D02*
Y10700D01*
X140100D01*
X140600Y10200D01*
X141100Y10700D01*
X141600D01*
Y10200D02*
Y10700D01*
X141100Y9700D02*
X141600Y10200D01*
X141100Y9700D02*
X141600Y9200D01*
Y8700D02*
Y9200D01*
X141100Y8700D02*
X141600D01*
X140600Y9200D02*
X141100Y8700D01*
X140100D02*
X140600Y9200D01*
X139600Y8700D02*
X140100D01*
X136100D02*
Y9200D01*
X136600Y9700D01*
X136100Y10200D02*
X136600Y9700D01*
X136100Y10200D02*
Y10700D01*
X136600D01*
X137100Y10200D01*
X137600Y10700D01*
X138100D01*
Y10200D02*
Y10700D01*
X137600Y9700D02*
X138100Y10200D01*
X137600Y9700D02*
X138100Y9200D01*
Y8700D02*
Y9200D01*
X137600Y8700D02*
X138100D01*
X137100Y9200D02*
X137600Y8700D01*
X136600D02*
X137100Y9200D01*
X136100Y8700D02*
X136600D01*
X129100D02*
Y9200D01*
X129600Y9700D01*
X129100Y10200D02*
X129600Y9700D01*
X129100Y10200D02*
Y10700D01*
X129600D01*
X130100Y10200D01*
X130600Y10700D01*
X131100D01*
Y10200D02*
Y10700D01*
X130600Y9700D02*
X131100Y10200D01*
X130600Y9700D02*
X131100Y9200D01*
Y8700D02*
Y9200D01*
X130600Y8700D02*
X131100D01*
X130100Y9200D02*
X130600Y8700D01*
X129600D02*
X130100Y9200D01*
X129100Y8700D02*
X129600D01*
X125500D02*
Y9200D01*
X126000Y9700D01*
X125500Y10200D02*
X126000Y9700D01*
X125500Y10200D02*
Y10700D01*
X126000D01*
X126500Y10200D01*
X127000Y10700D01*
X127500D01*
Y10200D02*
Y10700D01*
X127000Y9700D02*
X127500Y10200D01*
X127000Y9700D02*
X127500Y9200D01*
Y8700D02*
Y9200D01*
X127000Y8700D02*
X127500D01*
X126500Y9200D02*
X127000Y8700D01*
X126000D02*
X126500Y9200D01*
X125500Y8700D02*
X126000D01*
X122000D02*
Y9200D01*
X122500Y9700D01*
X122000Y10200D02*
X122500Y9700D01*
X122000Y10200D02*
Y10700D01*
X122500D01*
X123000Y10200D01*
X123500Y10700D01*
X124000D01*
Y10200D02*
Y10700D01*
X123500Y9700D02*
X124000Y10200D01*
X123500Y9700D02*
X124000Y9200D01*
Y8700D02*
Y9200D01*
X123500Y8700D02*
X124000D01*
X123000Y9200D02*
X123500Y8700D01*
X122500D02*
X123000Y9200D01*
X122000Y8700D02*
X122500D01*
X118600Y6500D02*
Y7000D01*
X119100Y7500D01*
X118600Y8000D02*
X119100Y7500D01*
X118600Y8000D02*
Y8500D01*
X119100D01*
X119600Y8000D01*
X120100Y8500D01*
X120600D01*
Y8000D02*
Y8500D01*
X120100Y7500D02*
X120600Y8000D01*
X120100Y7500D02*
X120600Y7000D01*
Y6500D02*
Y7000D01*
X120100Y6500D02*
X120600D01*
X119600Y7000D02*
X120100Y6500D01*
X119100D02*
X119600Y7000D01*
X118600Y6500D02*
X119100D01*
X117900Y18700D02*
Y19200D01*
X118400Y19700D01*
X117900Y20200D02*
X118400Y19700D01*
X117900Y20200D02*
Y20700D01*
X118400D01*
X118900Y20200D01*
X119400Y20700D01*
X119900D01*
Y20200D02*
Y20700D01*
X119400Y19700D02*
X119900Y20200D01*
X119400Y19700D02*
X119900Y19200D01*
Y18700D02*
Y19200D01*
X119400Y18700D02*
X119900D01*
X118900Y19200D02*
X119400Y18700D01*
X118400D02*
X118900Y19200D01*
X117900Y18700D02*
X118400D01*
X136100Y4400D02*
Y4900D01*
X136600Y5400D01*
X136100Y5900D02*
X136600Y5400D01*
X136100Y5900D02*
Y6400D01*
X136600D01*
X137100Y5900D01*
X137600Y6400D01*
X138100D01*
Y5900D02*
Y6400D01*
X137600Y5400D02*
X138100Y5900D01*
X137600Y5400D02*
X138100Y4900D01*
Y4400D02*
Y4900D01*
X137600Y4400D02*
X138100D01*
X137100Y4900D02*
X137600Y4400D01*
X136600D02*
X137100Y4900D01*
X136100Y4400D02*
X136600D01*
X87059Y19141D02*
Y19641D01*
X87559Y20141D01*
X87059Y20641D02*
X87559Y20141D01*
X87059Y20641D02*
Y21141D01*
X87559D01*
X88059Y20641D01*
X88559Y21141D01*
X89059D01*
Y20641D02*
Y21141D01*
X88559Y20141D02*
X89059Y20641D01*
X88559Y20141D02*
X89059Y19641D01*
Y19141D02*
Y19641D01*
X88559Y19141D02*
X89059D01*
X88059Y19641D02*
X88559Y19141D01*
X87559D02*
X88059Y19641D01*
X87059Y19141D02*
X87559D01*
X66500Y43900D02*
Y44400D01*
X67000Y44900D01*
X66500Y45400D02*
X67000Y44900D01*
X66500Y45400D02*
Y45900D01*
X67000D01*
X67500Y45400D01*
X68000Y45900D01*
X68500D01*
Y45400D02*
Y45900D01*
X68000Y44900D02*
X68500Y45400D01*
X68000Y44900D02*
X68500Y44400D01*
Y43900D02*
Y44400D01*
X68000Y43900D02*
X68500D01*
X67500Y44400D02*
X68000Y43900D01*
X67000D02*
X67500Y44400D01*
X66500Y43900D02*
X67000D01*
X70600D02*
Y44400D01*
X71100Y44900D01*
X70600Y45400D02*
X71100Y44900D01*
X70600Y45400D02*
Y45900D01*
X71100D01*
X71600Y45400D01*
X72100Y45900D01*
X72600D01*
Y45400D02*
Y45900D01*
X72100Y44900D02*
X72600Y45400D01*
X72100Y44900D02*
X72600Y44400D01*
Y43900D02*
Y44400D01*
X72100Y43900D02*
X72600D01*
X71600Y44400D02*
X72100Y43900D01*
X71100D02*
X71600Y44400D01*
X70600Y43900D02*
X71100D01*
X67500Y39200D02*
Y39700D01*
X68000Y40200D01*
X67500Y40700D02*
X68000Y40200D01*
X67500Y40700D02*
Y41200D01*
X68000D01*
X68500Y40700D01*
X69000Y41200D01*
X69500D01*
Y40700D02*
Y41200D01*
X69000Y40200D02*
X69500Y40700D01*
X69000Y40200D02*
X69500Y39700D01*
Y39200D02*
Y39700D01*
X69000Y39200D02*
X69500D01*
X68500Y39700D02*
X69000Y39200D01*
X68000D02*
X68500Y39700D01*
X67500Y39200D02*
X68000D01*
X71200Y39500D02*
Y40000D01*
X71700Y40500D01*
X71200Y41000D02*
X71700Y40500D01*
X71200Y41000D02*
Y41500D01*
X71700D01*
X72200Y41000D01*
X72700Y41500D01*
X73200D01*
Y41000D02*
Y41500D01*
X72700Y40500D02*
X73200Y41000D01*
X72700Y40500D02*
X73200Y40000D01*
Y39500D02*
Y40000D01*
X72700Y39500D02*
X73200D01*
X72200Y40000D02*
X72700Y39500D01*
X71700D02*
X72200Y40000D01*
X71200Y39500D02*
X71700D01*
X112500Y50800D02*
Y51300D01*
X113000Y51800D01*
X112500Y52300D02*
X113000Y51800D01*
X112500Y52300D02*
Y52800D01*
X113000D01*
X113500Y52300D01*
X114000Y52800D01*
X114500D01*
Y52300D02*
Y52800D01*
X114000Y51800D02*
X114500Y52300D01*
X114000Y51800D02*
X114500Y51300D01*
Y50800D02*
Y51300D01*
X114000Y50800D02*
X114500D01*
X113500Y51300D02*
X114000Y50800D01*
X113000D02*
X113500Y51300D01*
X112500Y50800D02*
X113000D01*
X85100Y50200D02*
Y50700D01*
X85600Y51200D01*
X85100Y51700D02*
X85600Y51200D01*
X85100Y51700D02*
Y52200D01*
X85600D01*
X86100Y51700D01*
X86600Y52200D01*
X87100D01*
Y51700D02*
Y52200D01*
X86600Y51200D02*
X87100Y51700D01*
X86600Y51200D02*
X87100Y50700D01*
Y50200D02*
Y50700D01*
X86600Y50200D02*
X87100D01*
X86100Y50700D02*
X86600Y50200D01*
X85600D02*
X86100Y50700D01*
X85100Y50200D02*
X85600D01*
X67500Y53750D02*
Y54250D01*
X68000Y54750D01*
X67500Y55250D02*
X68000Y54750D01*
X67500Y55250D02*
Y55750D01*
X68000D01*
X68500Y55250D01*
X69000Y55750D01*
X69500D01*
Y55250D02*
Y55750D01*
X69000Y54750D02*
X69500Y55250D01*
X69000Y54750D02*
X69500Y54250D01*
Y53750D02*
Y54250D01*
X69000Y53750D02*
X69500D01*
X68500Y54250D02*
X69000Y53750D01*
X68000D02*
X68500Y54250D01*
X67500Y53750D02*
X68000D01*
X67500Y56200D02*
Y56700D01*
X68000Y57200D01*
X67500Y57700D02*
X68000Y57200D01*
X67500Y57700D02*
Y58200D01*
X68000D01*
X68500Y57700D01*
X69000Y58200D01*
X69500D01*
Y57700D02*
Y58200D01*
X69000Y57200D02*
X69500Y57700D01*
X69000Y57200D02*
X69500Y56700D01*
Y56200D02*
Y56700D01*
X69000Y56200D02*
X69500D01*
X68500Y56700D02*
X69000Y56200D01*
X68000D02*
X68500Y56700D01*
X67500Y56200D02*
X68000D01*
X64000Y62900D02*
Y63400D01*
X64500Y63900D01*
X64000Y64400D02*
X64500Y63900D01*
X64000Y64400D02*
Y64900D01*
X64500D01*
X65000Y64400D01*
X65500Y64900D01*
X66000D01*
Y64400D02*
Y64900D01*
X65500Y63900D02*
X66000Y64400D01*
X65500Y63900D02*
X66000Y63400D01*
Y62900D02*
Y63400D01*
X65500Y62900D02*
X66000D01*
X65000Y63400D02*
X65500Y62900D01*
X64500D02*
X65000Y63400D01*
X64000Y62900D02*
X64500D01*
X64000Y65400D02*
Y65900D01*
X64500Y66400D01*
X64000Y66900D02*
X64500Y66400D01*
X64000Y66900D02*
Y67400D01*
X64500D01*
X65000Y66900D01*
X65500Y67400D01*
X66000D01*
Y66900D02*
Y67400D01*
X65500Y66400D02*
X66000Y66900D01*
X65500Y66400D02*
X66000Y65900D01*
Y65400D02*
Y65900D01*
X65500Y65400D02*
X66000D01*
X65000Y65900D02*
X65500Y65400D01*
X64500D02*
X65000Y65900D01*
X64000Y65400D02*
X64500D01*
X40100Y75400D02*
Y75900D01*
X40600Y76400D01*
X40100Y76900D02*
X40600Y76400D01*
X40100Y76900D02*
Y77400D01*
X40600D01*
X41100Y76900D01*
X41600Y77400D01*
X42100D01*
Y76900D02*
Y77400D01*
X41600Y76400D02*
X42100Y76900D01*
X41600Y76400D02*
X42100Y75900D01*
Y75400D02*
Y75900D01*
X41600Y75400D02*
X42100D01*
X41100Y75900D02*
X41600Y75400D01*
X40600D02*
X41100Y75900D01*
X40100Y75400D02*
X40600D01*
X27500Y73600D02*
Y74100D01*
X28000Y74600D01*
X27500Y75100D02*
X28000Y74600D01*
X27500Y75100D02*
Y75600D01*
X28000D01*
X28500Y75100D01*
X29000Y75600D01*
X29500D01*
Y75100D02*
Y75600D01*
X29000Y74600D02*
X29500Y75100D01*
X29000Y74600D02*
X29500Y74100D01*
Y73600D02*
Y74100D01*
X29000Y73600D02*
X29500D01*
X28500Y74100D02*
X29000Y73600D01*
X28000D02*
X28500Y74100D01*
X27500Y73600D02*
X28000D01*
X11000Y64900D02*
Y65400D01*
X11500Y65900D01*
X11000Y66400D02*
X11500Y65900D01*
X11000Y66400D02*
Y66900D01*
X11500D01*
X12000Y66400D01*
X12500Y66900D01*
X13000D01*
Y66400D02*
Y66900D01*
X12500Y65900D02*
X13000Y66400D01*
X12500Y65900D02*
X13000Y65400D01*
Y64900D02*
Y65400D01*
X12500Y64900D02*
X13000D01*
X12000Y65400D02*
X12500Y64900D01*
X11500D02*
X12000Y65400D01*
X11000Y64900D02*
X11500D01*
X11000Y67400D02*
Y67900D01*
X11500Y68400D01*
X11000Y68900D02*
X11500Y68400D01*
X11000Y68900D02*
Y69400D01*
X11500D01*
X12000Y68900D01*
X12500Y69400D01*
X13000D01*
Y68900D02*
Y69400D01*
X12500Y68400D02*
X13000Y68900D01*
X12500Y68400D02*
X13000Y67900D01*
Y67400D02*
Y67900D01*
X12500Y67400D02*
X13000D01*
X12000Y67900D02*
X12500Y67400D01*
X11500D02*
X12000Y67900D01*
X11000Y67400D02*
X11500D01*
X32700Y54300D02*
Y54800D01*
X33200Y55300D01*
X32700Y55800D02*
X33200Y55300D01*
X32700Y55800D02*
Y56300D01*
X33200D01*
X33700Y55800D01*
X34200Y56300D01*
X34700D01*
Y55800D02*
Y56300D01*
X34200Y55300D02*
X34700Y55800D01*
X34200Y55300D02*
X34700Y54800D01*
Y54300D02*
Y54800D01*
X34200Y54300D02*
X34700D01*
X33700Y54800D02*
X34200Y54300D01*
X33200D02*
X33700Y54800D01*
X32700Y54300D02*
X33200D01*
X15200Y56700D02*
Y57200D01*
X15700Y57700D01*
X15200Y58200D02*
X15700Y57700D01*
X15200Y58200D02*
Y58700D01*
X15700D01*
X16200Y58200D01*
X16700Y58700D01*
X17200D01*
Y58200D02*
Y58700D01*
X16700Y57700D02*
X17200Y58200D01*
X16700Y57700D02*
X17200Y57200D01*
Y56700D02*
Y57200D01*
X16700Y56700D02*
X17200D01*
X16200Y57200D02*
X16700Y56700D01*
X15700D02*
X16200Y57200D01*
X15200Y56700D02*
X15700D01*
X18800Y58000D02*
Y58500D01*
X19300Y59000D01*
X18800Y59500D02*
X19300Y59000D01*
X18800Y59500D02*
Y60000D01*
X19300D01*
X19800Y59500D01*
X20300Y60000D01*
X20800D01*
Y59500D02*
Y60000D01*
X20300Y59000D02*
X20800Y59500D01*
X20300Y59000D02*
X20800Y58500D01*
Y58000D02*
Y58500D01*
X20300Y58000D02*
X20800D01*
X19800Y58500D02*
X20300Y58000D01*
X19300D02*
X19800Y58500D01*
X18800Y58000D02*
X19300D01*
X42600Y46000D02*
Y46500D01*
X43100Y47000D01*
X42600Y47500D02*
X43100Y47000D01*
X42600Y47500D02*
Y48000D01*
X43100D01*
X43600Y47500D01*
X44100Y48000D01*
X44600D01*
Y47500D02*
Y48000D01*
X44100Y47000D02*
X44600Y47500D01*
X44100Y47000D02*
X44600Y46500D01*
Y46000D02*
Y46500D01*
X44100Y46000D02*
X44600D01*
X43600Y46500D02*
X44100Y46000D01*
X43100D02*
X43600Y46500D01*
X42600Y46000D02*
X43100D01*
X45900Y45900D02*
Y46400D01*
X46400Y46900D01*
X45900Y47400D02*
X46400Y46900D01*
X45900Y47400D02*
Y47900D01*
X46400D01*
X46900Y47400D01*
X47400Y47900D01*
X47900D01*
Y47400D02*
Y47900D01*
X47400Y46900D02*
X47900Y47400D01*
X47400Y46900D02*
X47900Y46400D01*
Y45900D02*
Y46400D01*
X47400Y45900D02*
X47900D01*
X46900Y46400D02*
X47400Y45900D01*
X46400D02*
X46900Y46400D01*
X45900Y45900D02*
X46400D01*
X165784Y61311D02*
X166284D01*
X165784D02*
Y62311D01*
X166284D01*
Y62811D01*
X167283D01*
Y62311D02*
Y62811D01*
Y62311D02*
X167783D01*
Y61311D02*
Y62311D01*
X167283Y61311D02*
X167783D01*
X167283Y60811D02*
Y61311D01*
X166284Y60811D02*
X167283D01*
X166284D02*
Y61311D01*
X165784Y37689D02*
X166284D01*
X165784D02*
Y38689D01*
X166284D01*
Y39189D01*
X167283D01*
Y38689D02*
Y39189D01*
Y38689D02*
X167783D01*
Y37689D02*
Y38689D01*
X167283Y37689D02*
X167783D01*
X167283Y37189D02*
Y37689D01*
X166284Y37189D02*
X167283D01*
X166284D02*
Y37689D01*
X77800Y18800D02*
Y19300D01*
X78300Y19800D01*
X77800Y20300D02*
X78300Y19800D01*
X77800Y20300D02*
Y20800D01*
X78300D01*
X78800Y20300D01*
X79300Y20800D01*
X79800D01*
Y20300D02*
Y20800D01*
X79300Y19800D02*
X79800Y20300D01*
X79300Y19800D02*
X79800Y19300D01*
Y18800D02*
Y19300D01*
X79300Y18800D02*
X79800D01*
X78800Y19300D02*
X79300Y18800D01*
X78300D02*
X78800Y19300D01*
X77800Y18800D02*
X78300D01*
X118400Y11800D02*
Y12300D01*
X118900Y12800D01*
X118400Y13300D02*
X118900Y12800D01*
X118400Y13300D02*
Y13800D01*
X118900D01*
X119400Y13300D01*
X119900Y13800D01*
X120400D01*
Y13300D02*
Y13800D01*
X119900Y12800D02*
X120400Y13300D01*
X119900Y12800D02*
X120400Y12300D01*
Y11800D02*
Y12300D01*
X119900Y11800D02*
X120400D01*
X119400Y12300D02*
X119900Y11800D01*
X118900D02*
X119400Y12300D01*
X118400Y11800D02*
X118900D01*
X103700Y37200D02*
Y37700D01*
X104200Y38200D01*
X103700Y38700D02*
X104200Y38200D01*
X103700Y38700D02*
Y39200D01*
X104200D01*
X104700Y38700D01*
X105200Y39200D01*
X105700D01*
Y38700D02*
Y39200D01*
X105200Y38200D02*
X105700Y38700D01*
X105200Y38200D02*
X105700Y37700D01*
Y37200D02*
Y37700D01*
X105200Y37200D02*
X105700D01*
X104700Y37700D02*
X105200Y37200D01*
X104200D02*
X104700Y37700D01*
X103700Y37200D02*
X104200D01*
X103700Y39400D02*
Y39900D01*
X104200Y40400D01*
X103700Y40900D02*
X104200Y40400D01*
X103700Y40900D02*
Y41400D01*
X104200D01*
X104700Y40900D01*
X105200Y41400D01*
X105700D01*
Y40900D02*
Y41400D01*
X105200Y40400D02*
X105700Y40900D01*
X105200Y40400D02*
X105700Y39900D01*
Y39400D02*
Y39900D01*
X105200Y39400D02*
X105700D01*
X104700Y39900D02*
X105200Y39400D01*
X104200D02*
X104700Y39900D01*
X103700Y39400D02*
X104200D01*
X36600Y42600D02*
Y43100D01*
X37100Y43600D01*
X36600Y44100D02*
X37100Y43600D01*
X36600Y44100D02*
Y44600D01*
X37100D01*
X37600Y44100D01*
X38100Y44600D01*
X38600D01*
Y44100D02*
Y44600D01*
X38100Y43600D02*
X38600Y44100D01*
X38100Y43600D02*
X38600Y43100D01*
Y42600D02*
Y43100D01*
X38100Y42600D02*
X38600D01*
X37600Y43100D02*
X38100Y42600D01*
X37100D02*
X37600Y43100D01*
X36600Y42600D02*
X37100D01*
X53700Y37900D02*
Y38400D01*
X54200Y38900D01*
X53700Y39400D02*
X54200Y38900D01*
X53700Y39400D02*
Y39900D01*
X54200D01*
X54700Y39400D01*
X55200Y39900D01*
X55700D01*
Y39400D02*
Y39900D01*
X55200Y38900D02*
X55700Y39400D01*
X55200Y38900D02*
X55700Y38400D01*
Y37900D02*
Y38400D01*
X55200Y37900D02*
X55700D01*
X54700Y38400D02*
X55200Y37900D01*
X54200D02*
X54700Y38400D01*
X53700Y37900D02*
X54200D01*
X41500Y37800D02*
Y38300D01*
X42000Y38800D01*
X41500Y39300D02*
X42000Y38800D01*
X41500Y39300D02*
Y39800D01*
X42000D01*
X42500Y39300D01*
X43000Y39800D01*
X43500D01*
Y39300D02*
Y39800D01*
X43000Y38800D02*
X43500Y39300D01*
X43000Y38800D02*
X43500Y38300D01*
Y37800D02*
Y38300D01*
X43000Y37800D02*
X43500D01*
X42500Y38300D02*
X43000Y37800D01*
X42000D02*
X42500Y38300D01*
X41500Y37800D02*
X42000D01*
X114400Y38000D02*
Y38500D01*
X114900Y39000D01*
X114400Y39500D02*
X114900Y39000D01*
X114400Y39500D02*
Y40000D01*
X114900D01*
X115400Y39500D01*
X115900Y40000D01*
X116400D01*
Y39500D02*
Y40000D01*
X115900Y39000D02*
X116400Y39500D01*
X115900Y39000D02*
X116400Y38500D01*
Y38000D02*
Y38500D01*
X115900Y38000D02*
X116400D01*
X115400Y38500D02*
X115900Y38000D01*
X114900D02*
X115400Y38500D01*
X114400Y38000D02*
X114900D01*
X94300Y46400D02*
Y46900D01*
X94800Y47400D01*
X94300Y47900D02*
X94800Y47400D01*
X94300Y47900D02*
Y48400D01*
X94800D01*
X95300Y47900D01*
X95800Y48400D01*
X96300D01*
Y47900D02*
Y48400D01*
X95800Y47400D02*
X96300Y47900D01*
X95800Y47400D02*
X96300Y46900D01*
Y46400D02*
Y46900D01*
X95800Y46400D02*
X96300D01*
X95300Y46900D02*
X95800Y46400D01*
X94800D02*
X95300Y46900D01*
X94300Y46400D02*
X94800D01*
X74760Y50260D02*
Y50760D01*
X75260Y51260D01*
X74760Y51760D02*
X75260Y51260D01*
X74760Y51760D02*
Y52260D01*
X75260D01*
X75760Y51760D01*
X76260Y52260D01*
X76760D01*
Y51760D02*
Y52260D01*
X76260Y51260D02*
X76760Y51760D01*
X76260Y51260D02*
X76760Y50760D01*
Y50260D02*
Y50760D01*
X76260Y50260D02*
X76760D01*
X75760Y50760D02*
X76260Y50260D01*
X75260D02*
X75760Y50760D01*
X74760Y50260D02*
X75260D01*
X84900Y44500D02*
Y45000D01*
X85400Y45500D01*
X84900Y46000D02*
X85400Y45500D01*
X84900Y46000D02*
Y46500D01*
X85400D01*
X85900Y46000D01*
X86400Y46500D01*
X86900D01*
Y46000D02*
Y46500D01*
X86400Y45500D02*
X86900Y46000D01*
X86400Y45500D02*
X86900Y45000D01*
Y44500D02*
Y45000D01*
X86400Y44500D02*
X86900D01*
X85900Y45000D02*
X86400Y44500D01*
X85400D02*
X85900Y45000D01*
X84900Y44500D02*
X85400D01*
X84900Y41800D02*
Y42300D01*
X85400Y42800D01*
X84900Y43300D02*
X85400Y42800D01*
X84900Y43300D02*
Y43800D01*
X85400D01*
X85900Y43300D01*
X86400Y43800D01*
X86900D01*
Y43300D02*
Y43800D01*
X86400Y42800D02*
X86900Y43300D01*
X86400Y42800D02*
X86900Y42300D01*
Y41800D02*
Y42300D01*
X86400Y41800D02*
X86900D01*
X85900Y42300D02*
X86400Y41800D01*
X85400D02*
X85900Y42300D01*
X84900Y41800D02*
X85400D01*
X70900Y5000D02*
Y5500D01*
X71400Y6000D01*
X70900Y6500D02*
X71400Y6000D01*
X70900Y6500D02*
Y7000D01*
X71400D01*
X71900Y6500D01*
X72400Y7000D01*
X72900D01*
Y6500D02*
Y7000D01*
X72400Y6000D02*
X72900Y6500D01*
X72400Y6000D02*
X72900Y5500D01*
Y5000D02*
Y5500D01*
X72400Y5000D02*
X72900D01*
X71900Y5500D02*
X72400Y5000D01*
X71400D02*
X71900Y5500D01*
X70900Y5000D02*
X71400D01*
X81000D02*
Y5500D01*
X81500Y6000D01*
X81000Y6500D02*
X81500Y6000D01*
X81000Y6500D02*
Y7000D01*
X81500D01*
X82000Y6500D01*
X82500Y7000D01*
X83000D01*
Y6500D02*
Y7000D01*
X82500Y6000D02*
X83000Y6500D01*
X82500Y6000D02*
X83000Y5500D01*
Y5000D02*
Y5500D01*
X82500Y5000D02*
X83000D01*
X82000Y5500D02*
X82500Y5000D01*
X81500D02*
X82000Y5500D01*
X81000Y5000D02*
X81500D01*
X102800Y5700D02*
Y6200D01*
X103300Y6700D01*
X102800Y7200D02*
X103300Y6700D01*
X102800Y7200D02*
Y7700D01*
X103300D01*
X103800Y7200D01*
X104300Y7700D01*
X104800D01*
Y7200D02*
Y7700D01*
X104300Y6700D02*
X104800Y7200D01*
X104300Y6700D02*
X104800Y6200D01*
Y5700D02*
Y6200D01*
X104300Y5700D02*
X104800D01*
X103800Y6200D02*
X104300Y5700D01*
X103300D02*
X103800Y6200D01*
X102800Y5700D02*
X103300D01*
X106000Y5600D02*
Y6100D01*
X106500Y6600D01*
X106000Y7100D02*
X106500Y6600D01*
X106000Y7100D02*
Y7600D01*
X106500D01*
X107000Y7100D01*
X107500Y7600D01*
X108000D01*
Y7100D02*
Y7600D01*
X107500Y6600D02*
X108000Y7100D01*
X107500Y6600D02*
X108000Y6100D01*
Y5600D02*
Y6100D01*
X107500Y5600D02*
X108000D01*
X107000Y6100D02*
X107500Y5600D01*
X106500D02*
X107000Y6100D01*
X106000Y5600D02*
X106500D01*
X40500Y32000D02*
Y32500D01*
X41000Y33000D01*
X40500Y33500D02*
X41000Y33000D01*
X40500Y33500D02*
Y34000D01*
X41000D01*
X41500Y33500D01*
X42000Y34000D01*
X42500D01*
Y33500D02*
Y34000D01*
X42000Y33000D02*
X42500Y33500D01*
X42000Y33000D02*
X42500Y32500D01*
Y32000D02*
Y32500D01*
X42000Y32000D02*
X42500D01*
X41500Y32500D02*
X42000Y32000D01*
X41000D02*
X41500Y32500D01*
X40500Y32000D02*
X41000D01*
X44500D02*
Y32500D01*
X45000Y33000D01*
X44500Y33500D02*
X45000Y33000D01*
X44500Y33500D02*
Y34000D01*
X45000D01*
X45500Y33500D01*
X46000Y34000D01*
X46500D01*
Y33500D02*
Y34000D01*
X46000Y33000D02*
X46500Y33500D01*
X46000Y33000D02*
X46500Y32500D01*
Y32000D02*
Y32500D01*
X46000Y32000D02*
X46500D01*
X45500Y32500D02*
X46000Y32000D01*
X45000D02*
X45500Y32500D01*
X44500Y32000D02*
X45000D01*
X48500D02*
Y32500D01*
X49000Y33000D01*
X48500Y33500D02*
X49000Y33000D01*
X48500Y33500D02*
Y34000D01*
X49000D01*
X49500Y33500D01*
X50000Y34000D01*
X50500D01*
Y33500D02*
Y34000D01*
X50000Y33000D02*
X50500Y33500D01*
X50000Y33000D02*
X50500Y32500D01*
Y32000D02*
Y32500D01*
X50000Y32000D02*
X50500D01*
X49500Y32500D02*
X50000Y32000D01*
X49000D02*
X49500Y32500D01*
X48500Y32000D02*
X49000D01*
X48500Y28000D02*
Y28500D01*
X49000Y29000D01*
X48500Y29500D02*
X49000Y29000D01*
X48500Y29500D02*
Y30000D01*
X49000D01*
X49500Y29500D01*
X50000Y30000D01*
X50500D01*
Y29500D02*
Y30000D01*
X50000Y29000D02*
X50500Y29500D01*
X50000Y29000D02*
X50500Y28500D01*
Y28000D02*
Y28500D01*
X50000Y28000D02*
X50500D01*
X49500Y28500D02*
X50000Y28000D01*
X49000D02*
X49500Y28500D01*
X48500Y28000D02*
X49000D01*
X44500D02*
Y28500D01*
X45000Y29000D01*
X44500Y29500D02*
X45000Y29000D01*
X44500Y29500D02*
Y30000D01*
X45000D01*
X45500Y29500D01*
X46000Y30000D01*
X46500D01*
Y29500D02*
Y30000D01*
X46000Y29000D02*
X46500Y29500D01*
X46000Y29000D02*
X46500Y28500D01*
Y28000D02*
Y28500D01*
X46000Y28000D02*
X46500D01*
X45500Y28500D02*
X46000Y28000D01*
X45000D02*
X45500Y28500D01*
X44500Y28000D02*
X45000D01*
X40500D02*
Y28500D01*
X41000Y29000D01*
X40500Y29500D02*
X41000Y29000D01*
X40500Y29500D02*
Y30000D01*
X41000D01*
X41500Y29500D01*
X42000Y30000D01*
X42500D01*
Y29500D02*
Y30000D01*
X42000Y29000D02*
X42500Y29500D01*
X42000Y29000D02*
X42500Y28500D01*
Y28000D02*
Y28500D01*
X42000Y28000D02*
X42500D01*
X41500Y28500D02*
X42000Y28000D01*
X41000D02*
X41500Y28500D01*
X40500Y28000D02*
X41000D01*
X40500Y24000D02*
Y24500D01*
X41000Y25000D01*
X40500Y25500D02*
X41000Y25000D01*
X40500Y25500D02*
Y26000D01*
X41000D01*
X41500Y25500D01*
X42000Y26000D01*
X42500D01*
Y25500D02*
Y26000D01*
X42000Y25000D02*
X42500Y25500D01*
X42000Y25000D02*
X42500Y24500D01*
Y24000D02*
Y24500D01*
X42000Y24000D02*
X42500D01*
X41500Y24500D02*
X42000Y24000D01*
X41000D02*
X41500Y24500D01*
X40500Y24000D02*
X41000D01*
X44500D02*
Y24500D01*
X45000Y25000D01*
X44500Y25500D02*
X45000Y25000D01*
X44500Y25500D02*
Y26000D01*
X45000D01*
X45500Y25500D01*
X46000Y26000D01*
X46500D01*
Y25500D02*
Y26000D01*
X46000Y25000D02*
X46500Y25500D01*
X46000Y25000D02*
X46500Y24500D01*
Y24000D02*
Y24500D01*
X46000Y24000D02*
X46500D01*
X45500Y24500D02*
X46000Y24000D01*
X45000D02*
X45500Y24500D01*
X44500Y24000D02*
X45000D01*
X65000Y12000D02*
Y12500D01*
X65500Y13000D01*
X65000Y13500D02*
X65500Y13000D01*
X65000Y13500D02*
Y14000D01*
X65500D01*
X66000Y13500D01*
X66500Y14000D01*
X67000D01*
Y13500D02*
Y14000D01*
X66500Y13000D02*
X67000Y13500D01*
X66500Y13000D02*
X67000Y12500D01*
Y12000D02*
Y12500D01*
X66500Y12000D02*
X67000D01*
X66000Y12500D02*
X66500Y12000D01*
X65500D02*
X66000Y12500D01*
X65000Y12000D02*
X65500D01*
X63500Y14000D02*
Y14500D01*
X64000Y15000D01*
X63500Y15500D02*
X64000Y15000D01*
X63500Y15500D02*
Y16000D01*
X64000D01*
X64500Y15500D01*
X65000Y16000D01*
X65500D01*
Y15500D02*
Y16000D01*
X65000Y15000D02*
X65500Y15500D01*
X65000Y15000D02*
X65500Y14500D01*
Y14000D02*
Y14500D01*
X65000Y14000D02*
X65500D01*
X64500Y14500D02*
X65000Y14000D01*
X64000D02*
X64500Y14500D01*
X63500Y14000D02*
X64000D01*
X41500Y67000D02*
Y67500D01*
X42000Y68000D01*
X41500Y68500D02*
X42000Y68000D01*
X41500Y68500D02*
Y69000D01*
X42000D01*
X42500Y68500D01*
X43000Y69000D01*
X43500D01*
Y68500D02*
Y69000D01*
X43000Y68000D02*
X43500Y68500D01*
X43000Y68000D02*
X43500Y67500D01*
Y67000D02*
Y67500D01*
X43000Y67000D02*
X43500D01*
X42500Y67500D02*
X43000Y67000D01*
X42000D02*
X42500Y67500D01*
X41500Y67000D02*
X42000D01*
X45500D02*
Y67500D01*
X46000Y68000D01*
X45500Y68500D02*
X46000Y68000D01*
X45500Y68500D02*
Y69000D01*
X46000D01*
X46500Y68500D01*
X47000Y69000D01*
X47500D01*
Y68500D02*
Y69000D01*
X47000Y68000D02*
X47500Y68500D01*
X47000Y68000D02*
X47500Y67500D01*
Y67000D02*
Y67500D01*
X47000Y67000D02*
X47500D01*
X46500Y67500D02*
X47000Y67000D01*
X46000D02*
X46500Y67500D01*
X45500Y67000D02*
X46000D01*
X45500Y63500D02*
Y64000D01*
X46000Y64500D01*
X45500Y65000D02*
X46000Y64500D01*
X45500Y65000D02*
Y65500D01*
X46000D01*
X46500Y65000D01*
X47000Y65500D01*
X47500D01*
Y65000D02*
Y65500D01*
X47000Y64500D02*
X47500Y65000D01*
X47000Y64500D02*
X47500Y64000D01*
Y63500D02*
Y64000D01*
X47000Y63500D02*
X47500D01*
X46500Y64000D02*
X47000Y63500D01*
X46000D02*
X46500Y64000D01*
X45500Y63500D02*
X46000D01*
X41500D02*
Y64000D01*
X42000Y64500D01*
X41500Y65000D02*
X42000Y64500D01*
X41500Y65000D02*
Y65500D01*
X42000D01*
X42500Y65000D01*
X43000Y65500D01*
X43500D01*
Y65000D02*
Y65500D01*
X43000Y64500D02*
X43500Y65000D01*
X43000Y64500D02*
X43500Y64000D01*
Y63500D02*
Y64000D01*
X43000Y63500D02*
X43500D01*
X42500Y64000D02*
X43000Y63500D01*
X42000D02*
X42500Y64000D01*
X41500Y63500D02*
X42000D01*
X58000Y71500D02*
Y72000D01*
X58500Y72500D01*
X58000Y73000D02*
X58500Y72500D01*
X58000Y73000D02*
Y73500D01*
X58500D01*
X59000Y73000D01*
X59500Y73500D01*
X60000D01*
Y73000D02*
Y73500D01*
X59500Y72500D02*
X60000Y73000D01*
X59500Y72500D02*
X60000Y72000D01*
Y71500D02*
Y72000D01*
X59500Y71500D02*
X60000D01*
X59000Y72000D02*
X59500Y71500D01*
X58500D02*
X59000Y72000D01*
X58000Y71500D02*
X58500D01*
X58000Y68500D02*
Y69000D01*
X58500Y69500D01*
X58000Y70000D02*
X58500Y69500D01*
X58000Y70000D02*
Y70500D01*
X58500D01*
X59000Y70000D01*
X59500Y70500D01*
X60000D01*
Y70000D02*
Y70500D01*
X59500Y69500D02*
X60000Y70000D01*
X59500Y69500D02*
X60000Y69000D01*
Y68500D02*
Y69000D01*
X59500Y68500D02*
X60000D01*
X59000Y69000D02*
X59500Y68500D01*
X58500D02*
X59000Y69000D01*
X58000Y68500D02*
X58500D01*
X57500Y64000D02*
Y64500D01*
X58000Y65000D01*
X57500Y65500D02*
X58000Y65000D01*
X57500Y65500D02*
Y66000D01*
X58000D01*
X58500Y65500D01*
X59000Y66000D01*
X59500D01*
Y65500D02*
Y66000D01*
X59000Y65000D02*
X59500Y65500D01*
X59000Y65000D02*
X59500Y64500D01*
Y64000D02*
Y64500D01*
X59000Y64000D02*
X59500D01*
X58500Y64500D02*
X59000Y64000D01*
X58000D02*
X58500Y64500D01*
X57500Y64000D02*
X58000D01*
X57000Y56000D02*
Y56500D01*
X57500Y57000D01*
X57000Y57500D02*
X57500Y57000D01*
X57000Y57500D02*
Y58000D01*
X57500D01*
X58000Y57500D01*
X58500Y58000D01*
X59000D01*
Y57500D02*
Y58000D01*
X58500Y57000D02*
X59000Y57500D01*
X58500Y57000D02*
X59000Y56500D01*
Y56000D02*
Y56500D01*
X58500Y56000D02*
X59000D01*
X58000Y56500D02*
X58500Y56000D01*
X57500D02*
X58000Y56500D01*
X57000Y56000D02*
X57500D01*
X57000Y53000D02*
Y53500D01*
X57500Y54000D01*
X57000Y54500D02*
X57500Y54000D01*
X57000Y54500D02*
Y55000D01*
X57500D01*
X58000Y54500D01*
X58500Y55000D01*
X59000D01*
Y54500D02*
Y55000D01*
X58500Y54000D02*
X59000Y54500D01*
X58500Y54000D02*
X59000Y53500D01*
Y53000D02*
Y53500D01*
X58500Y53000D02*
X59000D01*
X58000Y53500D02*
X58500Y53000D01*
X57500D02*
X58000Y53500D01*
X57000Y53000D02*
X57500D01*
X60000Y49000D02*
Y49500D01*
X60500Y50000D01*
X60000Y50500D02*
X60500Y50000D01*
X60000Y50500D02*
Y51000D01*
X60500D01*
X61000Y50500D01*
X61500Y51000D01*
X62000D01*
Y50500D02*
Y51000D01*
X61500Y50000D02*
X62000Y50500D01*
X61500Y50000D02*
X62000Y49500D01*
Y49000D02*
Y49500D01*
X61500Y49000D02*
X62000D01*
X61000Y49500D02*
X61500Y49000D01*
X60500D02*
X61000Y49500D01*
X60000Y49000D02*
X60500D01*
X29000Y39000D02*
Y39500D01*
X29500Y40000D01*
X29000Y40500D02*
X29500Y40000D01*
X29000Y40500D02*
Y41000D01*
X29500D01*
X30000Y40500D01*
X30500Y41000D01*
X31000D01*
Y40500D02*
Y41000D01*
X30500Y40000D02*
X31000Y40500D01*
X30500Y40000D02*
X31000Y39500D01*
Y39000D02*
Y39500D01*
X30500Y39000D02*
X31000D01*
X30000Y39500D02*
X30500Y39000D01*
X29500D02*
X30000Y39500D01*
X29000Y39000D02*
X29500D01*
X71000Y71500D02*
Y72000D01*
X71500Y72500D01*
X71000Y73000D02*
X71500Y72500D01*
X71000Y73000D02*
Y73500D01*
X71500D01*
X72000Y73000D01*
X72500Y73500D01*
X73000D01*
Y73000D02*
Y73500D01*
X72500Y72500D02*
X73000Y73000D01*
X72500Y72500D02*
X73000Y72000D01*
Y71500D02*
Y72000D01*
X72500Y71500D02*
X73000D01*
X72000Y72000D02*
X72500Y71500D01*
X71500D02*
X72000Y72000D01*
X71000Y71500D02*
X71500D01*
X74000D02*
Y72000D01*
X74500Y72500D01*
X74000Y73000D02*
X74500Y72500D01*
X74000Y73000D02*
Y73500D01*
X74500D01*
X75000Y73000D01*
X75500Y73500D01*
X76000D01*
Y73000D02*
Y73500D01*
X75500Y72500D02*
X76000Y73000D01*
X75500Y72500D02*
X76000Y72000D01*
Y71500D02*
Y72000D01*
X75500Y71500D02*
X76000D01*
X75000Y72000D02*
X75500Y71500D01*
X74500D02*
X75000Y72000D01*
X74000Y71500D02*
X74500D01*
X77500D02*
Y72000D01*
X78000Y72500D01*
X77500Y73000D02*
X78000Y72500D01*
X77500Y73000D02*
Y73500D01*
X78000D01*
X78500Y73000D01*
X79000Y73500D01*
X79500D01*
Y73000D02*
Y73500D01*
X79000Y72500D02*
X79500Y73000D01*
X79000Y72500D02*
X79500Y72000D01*
Y71500D02*
Y72000D01*
X79000Y71500D02*
X79500D01*
X78500Y72000D02*
X79000Y71500D01*
X78000D02*
X78500Y72000D01*
X77500Y71500D02*
X78000D01*
X81000D02*
Y72000D01*
X81500Y72500D01*
X81000Y73000D02*
X81500Y72500D01*
X81000Y73000D02*
Y73500D01*
X81500D01*
X82000Y73000D01*
X82500Y73500D01*
X83000D01*
Y73000D02*
Y73500D01*
X82500Y72500D02*
X83000Y73000D01*
X82500Y72500D02*
X83000Y72000D01*
Y71500D02*
Y72000D01*
X82500Y71500D02*
X83000D01*
X82000Y72000D02*
X82500Y71500D01*
X81500D02*
X82000Y72000D01*
X81000Y71500D02*
X81500D01*
X84000D02*
Y72000D01*
X84500Y72500D01*
X84000Y73000D02*
X84500Y72500D01*
X84000Y73000D02*
Y73500D01*
X84500D01*
X85000Y73000D01*
X85500Y73500D01*
X86000D01*
Y73000D02*
Y73500D01*
X85500Y72500D02*
X86000Y73000D01*
X85500Y72500D02*
X86000Y72000D01*
Y71500D02*
Y72000D01*
X85500Y71500D02*
X86000D01*
X85000Y72000D02*
X85500Y71500D01*
X84500D02*
X85000Y72000D01*
X84000Y71500D02*
X84500D01*
X71000Y68500D02*
Y69000D01*
X71500Y69500D01*
X71000Y70000D02*
X71500Y69500D01*
X71000Y70000D02*
Y70500D01*
X71500D01*
X72000Y70000D01*
X72500Y70500D01*
X73000D01*
Y70000D02*
Y70500D01*
X72500Y69500D02*
X73000Y70000D01*
X72500Y69500D02*
X73000Y69000D01*
Y68500D02*
Y69000D01*
X72500Y68500D02*
X73000D01*
X72000Y69000D02*
X72500Y68500D01*
X71500D02*
X72000Y69000D01*
X71000Y68500D02*
X71500D01*
X74000D02*
Y69000D01*
X74500Y69500D01*
X74000Y70000D02*
X74500Y69500D01*
X74000Y70000D02*
Y70500D01*
X74500D01*
X75000Y70000D01*
X75500Y70500D01*
X76000D01*
Y70000D02*
Y70500D01*
X75500Y69500D02*
X76000Y70000D01*
X75500Y69500D02*
X76000Y69000D01*
Y68500D02*
Y69000D01*
X75500Y68500D02*
X76000D01*
X75000Y69000D02*
X75500Y68500D01*
X74500D02*
X75000Y69000D01*
X74000Y68500D02*
X74500D01*
X77500D02*
Y69000D01*
X78000Y69500D01*
X77500Y70000D02*
X78000Y69500D01*
X77500Y70000D02*
Y70500D01*
X78000D01*
X78500Y70000D01*
X79000Y70500D01*
X79500D01*
Y70000D02*
Y70500D01*
X79000Y69500D02*
X79500Y70000D01*
X79000Y69500D02*
X79500Y69000D01*
Y68500D02*
Y69000D01*
X79000Y68500D02*
X79500D01*
X78500Y69000D02*
X79000Y68500D01*
X78000D02*
X78500Y69000D01*
X77500Y68500D02*
X78000D01*
X81000D02*
Y69000D01*
X81500Y69500D01*
X81000Y70000D02*
X81500Y69500D01*
X81000Y70000D02*
Y70500D01*
X81500D01*
X82000Y70000D01*
X82500Y70500D01*
X83000D01*
Y70000D02*
Y70500D01*
X82500Y69500D02*
X83000Y70000D01*
X82500Y69500D02*
X83000Y69000D01*
Y68500D02*
Y69000D01*
X82500Y68500D02*
X83000D01*
X82000Y69000D02*
X82500Y68500D01*
X81500D02*
X82000Y69000D01*
X81000Y68500D02*
X81500D01*
X84000D02*
Y69000D01*
X84500Y69500D01*
X84000Y70000D02*
X84500Y69500D01*
X84000Y70000D02*
Y70500D01*
X84500D01*
X85000Y70000D01*
X85500Y70500D01*
X86000D01*
Y70000D02*
Y70500D01*
X85500Y69500D02*
X86000Y70000D01*
X85500Y69500D02*
X86000Y69000D01*
Y68500D02*
Y69000D01*
X85500Y68500D02*
X86000D01*
X85000Y69000D02*
X85500Y68500D01*
X84500D02*
X85000Y69000D01*
X84000Y68500D02*
X84500D01*
X84000Y65500D02*
Y66000D01*
X84500Y66500D01*
X84000Y67000D02*
X84500Y66500D01*
X84000Y67000D02*
Y67500D01*
X84500D01*
X85000Y67000D01*
X85500Y67500D01*
X86000D01*
Y67000D02*
Y67500D01*
X85500Y66500D02*
X86000Y67000D01*
X85500Y66500D02*
X86000Y66000D01*
Y65500D02*
Y66000D01*
X85500Y65500D02*
X86000D01*
X85000Y66000D02*
X85500Y65500D01*
X84500D02*
X85000Y66000D01*
X84000Y65500D02*
X84500D01*
X81000D02*
Y66000D01*
X81500Y66500D01*
X81000Y67000D02*
X81500Y66500D01*
X81000Y67000D02*
Y67500D01*
X81500D01*
X82000Y67000D01*
X82500Y67500D01*
X83000D01*
Y67000D02*
Y67500D01*
X82500Y66500D02*
X83000Y67000D01*
X82500Y66500D02*
X83000Y66000D01*
Y65500D02*
Y66000D01*
X82500Y65500D02*
X83000D01*
X82000Y66000D02*
X82500Y65500D01*
X81500D02*
X82000Y66000D01*
X81000Y65500D02*
X81500D01*
X77500D02*
Y66000D01*
X78000Y66500D01*
X77500Y67000D02*
X78000Y66500D01*
X77500Y67000D02*
Y67500D01*
X78000D01*
X78500Y67000D01*
X79000Y67500D01*
X79500D01*
Y67000D02*
Y67500D01*
X79000Y66500D02*
X79500Y67000D01*
X79000Y66500D02*
X79500Y66000D01*
Y65500D02*
Y66000D01*
X79000Y65500D02*
X79500D01*
X78500Y66000D02*
X79000Y65500D01*
X78000D02*
X78500Y66000D01*
X77500Y65500D02*
X78000D01*
X74000D02*
Y66000D01*
X74500Y66500D01*
X74000Y67000D02*
X74500Y66500D01*
X74000Y67000D02*
Y67500D01*
X74500D01*
X75000Y67000D01*
X75500Y67500D01*
X76000D01*
Y67000D02*
Y67500D01*
X75500Y66500D02*
X76000Y67000D01*
X75500Y66500D02*
X76000Y66000D01*
Y65500D02*
Y66000D01*
X75500Y65500D02*
X76000D01*
X75000Y66000D02*
X75500Y65500D01*
X74500D02*
X75000Y66000D01*
X74000Y65500D02*
X74500D01*
X71000D02*
Y66000D01*
X71500Y66500D01*
X71000Y67000D02*
X71500Y66500D01*
X71000Y67000D02*
Y67500D01*
X71500D01*
X72000Y67000D01*
X72500Y67500D01*
X73000D01*
Y67000D02*
Y67500D01*
X72500Y66500D02*
X73000Y67000D01*
X72500Y66500D02*
X73000Y66000D01*
Y65500D02*
Y66000D01*
X72500Y65500D02*
X73000D01*
X72000Y66000D02*
X72500Y65500D01*
X71500D02*
X72000Y66000D01*
X71000Y65500D02*
X71500D01*
X82000Y59000D02*
Y59500D01*
X82500Y60000D01*
X82000Y60500D02*
X82500Y60000D01*
X82000Y60500D02*
Y61000D01*
X82500D01*
X83000Y60500D01*
X83500Y61000D01*
X84000D01*
Y60500D02*
Y61000D01*
X83500Y60000D02*
X84000Y60500D01*
X83500Y60000D02*
X84000Y59500D01*
Y59000D02*
Y59500D01*
X83500Y59000D02*
X84000D01*
X83000Y59500D02*
X83500Y59000D01*
X82500D02*
X83000Y59500D01*
X82000Y59000D02*
X82500D01*
X82000Y56500D02*
Y57000D01*
X82500Y57500D01*
X82000Y58000D02*
X82500Y57500D01*
X82000Y58000D02*
Y58500D01*
X82500D01*
X83000Y58000D01*
X83500Y58500D01*
X84000D01*
Y58000D02*
Y58500D01*
X83500Y57500D02*
X84000Y58000D01*
X83500Y57500D02*
X84000Y57000D01*
Y56500D02*
Y57000D01*
X83500Y56500D02*
X84000D01*
X83000Y57000D02*
X83500Y56500D01*
X82500D02*
X83000Y57000D01*
X82000Y56500D02*
X82500D01*
X82000Y54000D02*
Y54500D01*
X82500Y55000D01*
X82000Y55500D02*
X82500Y55000D01*
X82000Y55500D02*
Y56000D01*
X82500D01*
X83000Y55500D01*
X83500Y56000D01*
X84000D01*
Y55500D02*
Y56000D01*
X83500Y55000D02*
X84000Y55500D01*
X83500Y55000D02*
X84000Y54500D01*
Y54000D02*
Y54500D01*
X83500Y54000D02*
X84000D01*
X83000Y54500D02*
X83500Y54000D01*
X82500D02*
X83000Y54500D01*
X82000Y54000D02*
X82500D01*
X82000Y51500D02*
Y52000D01*
X82500Y52500D01*
X82000Y53000D02*
X82500Y52500D01*
X82000Y53000D02*
Y53500D01*
X82500D01*
X83000Y53000D01*
X83500Y53500D01*
X84000D01*
Y53000D02*
Y53500D01*
X83500Y52500D02*
X84000Y53000D01*
X83500Y52500D02*
X84000Y52000D01*
Y51500D02*
Y52000D01*
X83500Y51500D02*
X84000D01*
X83000Y52000D02*
X83500Y51500D01*
X82500D02*
X83000Y52000D01*
X82000Y51500D02*
X82500D01*
X101500Y62500D02*
Y63000D01*
X102000Y63500D01*
X101500Y64000D02*
X102000Y63500D01*
X101500Y64000D02*
Y64500D01*
X102000D01*
X102500Y64000D01*
X103000Y64500D01*
X103500D01*
Y64000D02*
Y64500D01*
X103000Y63500D02*
X103500Y64000D01*
X103000Y63500D02*
X103500Y63000D01*
Y62500D02*
Y63000D01*
X103000Y62500D02*
X103500D01*
X102500Y63000D02*
X103000Y62500D01*
X102000D02*
X102500Y63000D01*
X101500Y62500D02*
X102000D01*
X104500D02*
Y63000D01*
X105000Y63500D01*
X104500Y64000D02*
X105000Y63500D01*
X104500Y64000D02*
Y64500D01*
X105000D01*
X105500Y64000D01*
X106000Y64500D01*
X106500D01*
Y64000D02*
Y64500D01*
X106000Y63500D02*
X106500Y64000D01*
X106000Y63500D02*
X106500Y63000D01*
Y62500D02*
Y63000D01*
X106000Y62500D02*
X106500D01*
X105500Y63000D02*
X106000Y62500D01*
X105000D02*
X105500Y63000D01*
X104500Y62500D02*
X105000D01*
X104500Y60000D02*
Y60500D01*
X105000Y61000D01*
X104500Y61500D02*
X105000Y61000D01*
X104500Y61500D02*
Y62000D01*
X105000D01*
X105500Y61500D01*
X106000Y62000D01*
X106500D01*
Y61500D02*
Y62000D01*
X106000Y61000D02*
X106500Y61500D01*
X106000Y61000D02*
X106500Y60500D01*
Y60000D02*
Y60500D01*
X106000Y60000D02*
X106500D01*
X105500Y60500D02*
X106000Y60000D01*
X105000D02*
X105500Y60500D01*
X104500Y60000D02*
X105000D01*
X101500D02*
Y60500D01*
X102000Y61000D01*
X101500Y61500D02*
X102000Y61000D01*
X101500Y61500D02*
Y62000D01*
X102000D01*
X102500Y61500D01*
X103000Y62000D01*
X103500D01*
Y61500D02*
Y62000D01*
X103000Y61000D02*
X103500Y61500D01*
X103000Y61000D02*
X103500Y60500D01*
Y60000D02*
Y60500D01*
X103000Y60000D02*
X103500D01*
X102500Y60500D02*
X103000Y60000D01*
X102000D02*
X102500Y60500D01*
X101500Y60000D02*
X102000D01*
X101500Y57500D02*
Y58000D01*
X102000Y58500D01*
X101500Y59000D02*
X102000Y58500D01*
X101500Y59000D02*
Y59500D01*
X102000D01*
X102500Y59000D01*
X103000Y59500D01*
X103500D01*
Y59000D02*
Y59500D01*
X103000Y58500D02*
X103500Y59000D01*
X103000Y58500D02*
X103500Y58000D01*
Y57500D02*
Y58000D01*
X103000Y57500D02*
X103500D01*
X102500Y58000D02*
X103000Y57500D01*
X102000D02*
X102500Y58000D01*
X101500Y57500D02*
X102000D01*
X104500D02*
Y58000D01*
X105000Y58500D01*
X104500Y59000D02*
X105000Y58500D01*
X104500Y59000D02*
Y59500D01*
X105000D01*
X105500Y59000D01*
X106000Y59500D01*
X106500D01*
Y59000D02*
Y59500D01*
X106000Y58500D02*
X106500Y59000D01*
X106000Y58500D02*
X106500Y58000D01*
Y57500D02*
Y58000D01*
X106000Y57500D02*
X106500D01*
X105500Y58000D02*
X106000Y57500D01*
X105000D02*
X105500Y58000D01*
X104500Y57500D02*
X105000D01*
X104500Y55000D02*
Y55500D01*
X105000Y56000D01*
X104500Y56500D02*
X105000Y56000D01*
X104500Y56500D02*
Y57000D01*
X105000D01*
X105500Y56500D01*
X106000Y57000D01*
X106500D01*
Y56500D02*
Y57000D01*
X106000Y56000D02*
X106500Y56500D01*
X106000Y56000D02*
X106500Y55500D01*
Y55000D02*
Y55500D01*
X106000Y55000D02*
X106500D01*
X105500Y55500D02*
X106000Y55000D01*
X105000D02*
X105500Y55500D01*
X104500Y55000D02*
X105000D01*
X104500Y52500D02*
Y53000D01*
X105000Y53500D01*
X104500Y54000D02*
X105000Y53500D01*
X104500Y54000D02*
Y54500D01*
X105000D01*
X105500Y54000D01*
X106000Y54500D01*
X106500D01*
Y54000D02*
Y54500D01*
X106000Y53500D02*
X106500Y54000D01*
X106000Y53500D02*
X106500Y53000D01*
Y52500D02*
Y53000D01*
X106000Y52500D02*
X106500D01*
X105500Y53000D02*
X106000Y52500D01*
X105000D02*
X105500Y53000D01*
X104500Y52500D02*
X105000D01*
X104500Y50000D02*
Y50500D01*
X105000Y51000D01*
X104500Y51500D02*
X105000Y51000D01*
X104500Y51500D02*
Y52000D01*
X105000D01*
X105500Y51500D01*
X106000Y52000D01*
X106500D01*
Y51500D02*
Y52000D01*
X106000Y51000D02*
X106500Y51500D01*
X106000Y51000D02*
X106500Y50500D01*
Y50000D02*
Y50500D01*
X106000Y50000D02*
X106500D01*
X105500Y50500D02*
X106000Y50000D01*
X105000D02*
X105500Y50500D01*
X104500Y50000D02*
X105000D01*
X104500Y47500D02*
Y48000D01*
X105000Y48500D01*
X104500Y49000D02*
X105000Y48500D01*
X104500Y49000D02*
Y49500D01*
X105000D01*
X105500Y49000D01*
X106000Y49500D01*
X106500D01*
Y49000D02*
Y49500D01*
X106000Y48500D02*
X106500Y49000D01*
X106000Y48500D02*
X106500Y48000D01*
Y47500D02*
Y48000D01*
X106000Y47500D02*
X106500D01*
X105500Y48000D02*
X106000Y47500D01*
X105000D02*
X105500Y48000D01*
X104500Y47500D02*
X105000D01*
X107000Y50000D02*
Y50500D01*
X107500Y51000D01*
X107000Y51500D02*
X107500Y51000D01*
X107000Y51500D02*
Y52000D01*
X107500D01*
X108000Y51500D01*
X108500Y52000D01*
X109000D01*
Y51500D02*
Y52000D01*
X108500Y51000D02*
X109000Y51500D01*
X108500Y51000D02*
X109000Y50500D01*
Y50000D02*
Y50500D01*
X108500Y50000D02*
X109000D01*
X108000Y50500D02*
X108500Y50000D01*
X107500D02*
X108000Y50500D01*
X107000Y50000D02*
X107500D01*
X107000Y47500D02*
Y48000D01*
X107500Y48500D01*
X107000Y49000D02*
X107500Y48500D01*
X107000Y49000D02*
Y49500D01*
X107500D01*
X108000Y49000D01*
X108500Y49500D01*
X109000D01*
Y49000D02*
Y49500D01*
X108500Y48500D02*
X109000Y49000D01*
X108500Y48500D02*
X109000Y48000D01*
Y47500D02*
Y48000D01*
X108500Y47500D02*
X109000D01*
X108000Y48000D02*
X108500Y47500D01*
X107500D02*
X108000Y48000D01*
X107000Y47500D02*
X107500D01*
X112000Y41000D02*
Y41500D01*
X112500Y42000D01*
X112000Y42500D02*
X112500Y42000D01*
X112000Y42500D02*
Y43000D01*
X112500D01*
X113000Y42500D01*
X113500Y43000D01*
X114000D01*
Y42500D02*
Y43000D01*
X113500Y42000D02*
X114000Y42500D01*
X113500Y42000D02*
X114000Y41500D01*
Y41000D02*
Y41500D01*
X113500Y41000D02*
X114000D01*
X113000Y41500D02*
X113500Y41000D01*
X112500D02*
X113000Y41500D01*
X112000Y41000D02*
X112500D01*
X112000Y38500D02*
Y39000D01*
X112500Y39500D01*
X112000Y40000D02*
X112500Y39500D01*
X112000Y40000D02*
Y40500D01*
X112500D01*
X113000Y40000D01*
X113500Y40500D01*
X114000D01*
Y40000D02*
Y40500D01*
X113500Y39500D02*
X114000Y40000D01*
X113500Y39500D02*
X114000Y39000D01*
Y38500D02*
Y39000D01*
X113500Y38500D02*
X114000D01*
X113000Y39000D02*
X113500Y38500D01*
X112500D02*
X113000Y39000D01*
X112000Y38500D02*
X112500D01*
X123000Y70500D02*
Y71000D01*
X123500Y71500D01*
X123000Y72000D02*
X123500Y71500D01*
X123000Y72000D02*
Y72500D01*
X123500D01*
X124000Y72000D01*
X124500Y72500D01*
X125000D01*
Y72000D02*
Y72500D01*
X124500Y71500D02*
X125000Y72000D01*
X124500Y71500D02*
X125000Y71000D01*
Y70500D02*
Y71000D01*
X124500Y70500D02*
X125000D01*
X124000Y71000D02*
X124500Y70500D01*
X123500D02*
X124000Y71000D01*
X123000Y70500D02*
X123500D01*
X125500D02*
Y71000D01*
X126000Y71500D01*
X125500Y72000D02*
X126000Y71500D01*
X125500Y72000D02*
Y72500D01*
X126000D01*
X126500Y72000D01*
X127000Y72500D01*
X127500D01*
Y72000D02*
Y72500D01*
X127000Y71500D02*
X127500Y72000D01*
X127000Y71500D02*
X127500Y71000D01*
Y70500D02*
Y71000D01*
X127000Y70500D02*
X127500D01*
X126500Y71000D02*
X127000Y70500D01*
X126000D02*
X126500Y71000D01*
X125500Y70500D02*
X126000D01*
X128000D02*
Y71000D01*
X128500Y71500D01*
X128000Y72000D02*
X128500Y71500D01*
X128000Y72000D02*
Y72500D01*
X128500D01*
X129000Y72000D01*
X129500Y72500D01*
X130000D01*
Y72000D02*
Y72500D01*
X129500Y71500D02*
X130000Y72000D01*
X129500Y71500D02*
X130000Y71000D01*
Y70500D02*
Y71000D01*
X129500Y70500D02*
X130000D01*
X129000Y71000D02*
X129500Y70500D01*
X128500D02*
X129000Y71000D01*
X128000Y70500D02*
X128500D01*
X123000Y68000D02*
Y68500D01*
X123500Y69000D01*
X123000Y69500D02*
X123500Y69000D01*
X123000Y69500D02*
Y70000D01*
X123500D01*
X124000Y69500D01*
X124500Y70000D01*
X125000D01*
Y69500D02*
Y70000D01*
X124500Y69000D02*
X125000Y69500D01*
X124500Y69000D02*
X125000Y68500D01*
Y68000D02*
Y68500D01*
X124500Y68000D02*
X125000D01*
X124000Y68500D02*
X124500Y68000D01*
X123500D02*
X124000Y68500D01*
X123000Y68000D02*
X123500D01*
X125500D02*
Y68500D01*
X126000Y69000D01*
X125500Y69500D02*
X126000Y69000D01*
X125500Y69500D02*
Y70000D01*
X126000D01*
X126500Y69500D01*
X127000Y70000D01*
X127500D01*
Y69500D02*
Y70000D01*
X127000Y69000D02*
X127500Y69500D01*
X127000Y69000D02*
X127500Y68500D01*
Y68000D02*
Y68500D01*
X127000Y68000D02*
X127500D01*
X126500Y68500D02*
X127000Y68000D01*
X126000D02*
X126500Y68500D01*
X125500Y68000D02*
X126000D01*
X128000D02*
Y68500D01*
X128500Y69000D01*
X128000Y69500D02*
X128500Y69000D01*
X128000Y69500D02*
Y70000D01*
X128500D01*
X129000Y69500D01*
X129500Y70000D01*
X130000D01*
Y69500D02*
Y70000D01*
X129500Y69000D02*
X130000Y69500D01*
X129500Y69000D02*
X130000Y68500D01*
Y68000D02*
Y68500D01*
X129500Y68000D02*
X130000D01*
X129000Y68500D02*
X129500Y68000D01*
X128500D02*
X129000Y68500D01*
X128000Y68000D02*
X128500D01*
X123000Y65500D02*
Y66000D01*
X123500Y66500D01*
X123000Y67000D02*
X123500Y66500D01*
X123000Y67000D02*
Y67500D01*
X123500D01*
X124000Y67000D01*
X124500Y67500D01*
X125000D01*
Y67000D02*
Y67500D01*
X124500Y66500D02*
X125000Y67000D01*
X124500Y66500D02*
X125000Y66000D01*
Y65500D02*
Y66000D01*
X124500Y65500D02*
X125000D01*
X124000Y66000D02*
X124500Y65500D01*
X123500D02*
X124000Y66000D01*
X123000Y65500D02*
X123500D01*
X125500D02*
Y66000D01*
X126000Y66500D01*
X125500Y67000D02*
X126000Y66500D01*
X125500Y67000D02*
Y67500D01*
X126000D01*
X126500Y67000D01*
X127000Y67500D01*
X127500D01*
Y67000D02*
Y67500D01*
X127000Y66500D02*
X127500Y67000D01*
X127000Y66500D02*
X127500Y66000D01*
Y65500D02*
Y66000D01*
X127000Y65500D02*
X127500D01*
X126500Y66000D02*
X127000Y65500D01*
X126000D02*
X126500Y66000D01*
X125500Y65500D02*
X126000D01*
X128000D02*
Y66000D01*
X128500Y66500D01*
X128000Y67000D02*
X128500Y66500D01*
X128000Y67000D02*
Y67500D01*
X128500D01*
X129000Y67000D01*
X129500Y67500D01*
X130000D01*
Y67000D02*
Y67500D01*
X129500Y66500D02*
X130000Y67000D01*
X129500Y66500D02*
X130000Y66000D01*
Y65500D02*
Y66000D01*
X129500Y65500D02*
X130000D01*
X129000Y66000D02*
X129500Y65500D01*
X128500D02*
X129000Y66000D01*
X128000Y65500D02*
X128500D01*
X123000Y63000D02*
Y63500D01*
X123500Y64000D01*
X123000Y64500D02*
X123500Y64000D01*
X123000Y64500D02*
Y65000D01*
X123500D01*
X124000Y64500D01*
X124500Y65000D01*
X125000D01*
Y64500D02*
Y65000D01*
X124500Y64000D02*
X125000Y64500D01*
X124500Y64000D02*
X125000Y63500D01*
Y63000D02*
Y63500D01*
X124500Y63000D02*
X125000D01*
X124000Y63500D02*
X124500Y63000D01*
X123500D02*
X124000Y63500D01*
X123000Y63000D02*
X123500D01*
X125500D02*
Y63500D01*
X126000Y64000D01*
X125500Y64500D02*
X126000Y64000D01*
X125500Y64500D02*
Y65000D01*
X126000D01*
X126500Y64500D01*
X127000Y65000D01*
X127500D01*
Y64500D02*
Y65000D01*
X127000Y64000D02*
X127500Y64500D01*
X127000Y64000D02*
X127500Y63500D01*
Y63000D02*
Y63500D01*
X127000Y63000D02*
X127500D01*
X126500Y63500D02*
X127000Y63000D01*
X126000D02*
X126500Y63500D01*
X125500Y63000D02*
X126000D01*
X128000D02*
Y63500D01*
X128500Y64000D01*
X128000Y64500D02*
X128500Y64000D01*
X128000Y64500D02*
Y65000D01*
X128500D01*
X129000Y64500D01*
X129500Y65000D01*
X130000D01*
Y64500D02*
Y65000D01*
X129500Y64000D02*
X130000Y64500D01*
X129500Y64000D02*
X130000Y63500D01*
Y63000D02*
Y63500D01*
X129500Y63000D02*
X130000D01*
X129000Y63500D02*
X129500Y63000D01*
X128500D02*
X129000Y63500D01*
X128000Y63000D02*
X128500D01*
X123000Y60500D02*
Y61000D01*
X123500Y61500D01*
X123000Y62000D02*
X123500Y61500D01*
X123000Y62000D02*
Y62500D01*
X123500D01*
X124000Y62000D01*
X124500Y62500D01*
X125000D01*
Y62000D02*
Y62500D01*
X124500Y61500D02*
X125000Y62000D01*
X124500Y61500D02*
X125000Y61000D01*
Y60500D02*
Y61000D01*
X124500Y60500D02*
X125000D01*
X124000Y61000D02*
X124500Y60500D01*
X123500D02*
X124000Y61000D01*
X123000Y60500D02*
X123500D01*
X125500D02*
Y61000D01*
X126000Y61500D01*
X125500Y62000D02*
X126000Y61500D01*
X125500Y62000D02*
Y62500D01*
X126000D01*
X126500Y62000D01*
X127000Y62500D01*
X127500D01*
Y62000D02*
Y62500D01*
X127000Y61500D02*
X127500Y62000D01*
X127000Y61500D02*
X127500Y61000D01*
Y60500D02*
Y61000D01*
X127000Y60500D02*
X127500D01*
X126500Y61000D02*
X127000Y60500D01*
X126000D02*
X126500Y61000D01*
X125500Y60500D02*
X126000D01*
X128000D02*
Y61000D01*
X128500Y61500D01*
X128000Y62000D02*
X128500Y61500D01*
X128000Y62000D02*
Y62500D01*
X128500D01*
X129000Y62000D01*
X129500Y62500D01*
X130000D01*
Y62000D02*
Y62500D01*
X129500Y61500D02*
X130000Y62000D01*
X129500Y61500D02*
X130000Y61000D01*
Y60500D02*
Y61000D01*
X129500Y60500D02*
X130000D01*
X129000Y61000D02*
X129500Y60500D01*
X128500D02*
X129000Y61000D01*
X128000Y60500D02*
X128500D01*
X123000Y58000D02*
Y58500D01*
X123500Y59000D01*
X123000Y59500D02*
X123500Y59000D01*
X123000Y59500D02*
Y60000D01*
X123500D01*
X124000Y59500D01*
X124500Y60000D01*
X125000D01*
Y59500D02*
Y60000D01*
X124500Y59000D02*
X125000Y59500D01*
X124500Y59000D02*
X125000Y58500D01*
Y58000D02*
Y58500D01*
X124500Y58000D02*
X125000D01*
X124000Y58500D02*
X124500Y58000D01*
X123500D02*
X124000Y58500D01*
X123000Y58000D02*
X123500D01*
X128000D02*
Y58500D01*
X128500Y59000D01*
X128000Y59500D02*
X128500Y59000D01*
X128000Y59500D02*
Y60000D01*
X128500D01*
X129000Y59500D01*
X129500Y60000D01*
X130000D01*
Y59500D02*
Y60000D01*
X129500Y59000D02*
X130000Y59500D01*
X129500Y59000D02*
X130000Y58500D01*
Y58000D02*
Y58500D01*
X129500Y58000D02*
X130000D01*
X129000Y58500D02*
X129500Y58000D01*
X128500D02*
X129000Y58500D01*
X128000Y58000D02*
X128500D01*
X125500D02*
Y58500D01*
X126000Y59000D01*
X125500Y59500D02*
X126000Y59000D01*
X125500Y59500D02*
Y60000D01*
X126000D01*
X126500Y59500D01*
X127000Y60000D01*
X127500D01*
Y59500D02*
Y60000D01*
X127000Y59000D02*
X127500Y59500D01*
X127000Y59000D02*
X127500Y58500D01*
Y58000D02*
Y58500D01*
X127000Y58000D02*
X127500D01*
X126500Y58500D02*
X127000Y58000D01*
X126000D02*
X126500Y58500D01*
X125500Y58000D02*
X126000D01*
X125500Y55500D02*
Y56000D01*
X126000Y56500D01*
X125500Y57000D02*
X126000Y56500D01*
X125500Y57000D02*
Y57500D01*
X126000D01*
X126500Y57000D01*
X127000Y57500D01*
X127500D01*
Y57000D02*
Y57500D01*
X127000Y56500D02*
X127500Y57000D01*
X127000Y56500D02*
X127500Y56000D01*
Y55500D02*
Y56000D01*
X127000Y55500D02*
X127500D01*
X126500Y56000D02*
X127000Y55500D01*
X126000D02*
X126500Y56000D01*
X125500Y55500D02*
X126000D01*
X128000D02*
Y56000D01*
X128500Y56500D01*
X128000Y57000D02*
X128500Y56500D01*
X128000Y57000D02*
Y57500D01*
X128500D01*
X129000Y57000D01*
X129500Y57500D01*
X130000D01*
Y57000D02*
Y57500D01*
X129500Y56500D02*
X130000Y57000D01*
X129500Y56500D02*
X130000Y56000D01*
Y55500D02*
Y56000D01*
X129500Y55500D02*
X130000D01*
X129000Y56000D02*
X129500Y55500D01*
X128500D02*
X129000Y56000D01*
X128000Y55500D02*
X128500D01*
X128000Y38445D02*
Y38945D01*
X128500Y39445D01*
X128000Y39945D02*
X128500Y39445D01*
X128000Y39945D02*
Y40445D01*
X128500D01*
X129000Y39945D01*
X129500Y40445D01*
X130000D01*
Y39945D02*
Y40445D01*
X129500Y39445D02*
X130000Y39945D01*
X129500Y39445D02*
X130000Y38945D01*
Y38445D02*
Y38945D01*
X129500Y38445D02*
X130000D01*
X129000Y38945D02*
X129500Y38445D01*
X128500D02*
X129000Y38945D01*
X128000Y38445D02*
X128500D01*
X125500D02*
Y38945D01*
X126000Y39445D01*
X125500Y39945D02*
X126000Y39445D01*
X125500Y39945D02*
Y40445D01*
X126000D01*
X126500Y39945D01*
X127000Y40445D01*
X127500D01*
Y39945D02*
Y40445D01*
X127000Y39445D02*
X127500Y39945D01*
X127000Y39445D02*
X127500Y38945D01*
Y38445D02*
Y38945D01*
X127000Y38445D02*
X127500D01*
X126500Y38945D02*
X127000Y38445D01*
X126000D02*
X126500Y38945D01*
X125500Y38445D02*
X126000D01*
X123000D02*
Y38945D01*
X123500Y39445D01*
X123000Y39945D02*
X123500Y39445D01*
X123000Y39945D02*
Y40445D01*
X123500D01*
X124000Y39945D01*
X124500Y40445D01*
X125000D01*
Y39945D02*
Y40445D01*
X124500Y39445D02*
X125000Y39945D01*
X124500Y39445D02*
X125000Y38945D01*
Y38445D02*
Y38945D01*
X124500Y38445D02*
X125000D01*
X124000Y38945D02*
X124500Y38445D01*
X123500D02*
X124000Y38945D01*
X123000Y38445D02*
X123500D01*
X128000Y40945D02*
Y41445D01*
X128500Y41945D01*
X128000Y42445D02*
X128500Y41945D01*
X128000Y42445D02*
Y42945D01*
X128500D01*
X129000Y42445D01*
X129500Y42945D01*
X130000D01*
Y42445D02*
Y42945D01*
X129500Y41945D02*
X130000Y42445D01*
X129500Y41945D02*
X130000Y41445D01*
Y40945D02*
Y41445D01*
X129500Y40945D02*
X130000D01*
X129000Y41445D02*
X129500Y40945D01*
X128500D02*
X129000Y41445D01*
X128000Y40945D02*
X128500D01*
X125500D02*
Y41445D01*
X126000Y41945D01*
X125500Y42445D02*
X126000Y41945D01*
X125500Y42445D02*
Y42945D01*
X126000D01*
X126500Y42445D01*
X127000Y42945D01*
X127500D01*
Y42445D02*
Y42945D01*
X127000Y41945D02*
X127500Y42445D01*
X127000Y41945D02*
X127500Y41445D01*
Y40945D02*
Y41445D01*
X127000Y40945D02*
X127500D01*
X126500Y41445D02*
X127000Y40945D01*
X126000D02*
X126500Y41445D01*
X125500Y40945D02*
X126000D01*
X123000D02*
Y41445D01*
X123500Y41945D01*
X123000Y42445D02*
X123500Y41945D01*
X123000Y42445D02*
Y42945D01*
X123500D01*
X124000Y42445D01*
X124500Y42945D01*
X125000D01*
Y42445D02*
Y42945D01*
X124500Y41945D02*
X125000Y42445D01*
X124500Y41945D02*
X125000Y41445D01*
Y40945D02*
Y41445D01*
X124500Y40945D02*
X125000D01*
X124000Y41445D02*
X124500Y40945D01*
X123500D02*
X124000Y41445D01*
X123000Y40945D02*
X123500D01*
X128000Y43445D02*
Y43945D01*
X128500Y44445D01*
X128000Y44945D02*
X128500Y44445D01*
X128000Y44945D02*
Y45445D01*
X128500D01*
X129000Y44945D01*
X129500Y45445D01*
X130000D01*
Y44945D02*
Y45445D01*
X129500Y44445D02*
X130000Y44945D01*
X129500Y44445D02*
X130000Y43945D01*
Y43445D02*
Y43945D01*
X129500Y43445D02*
X130000D01*
X129000Y43945D02*
X129500Y43445D01*
X128500D02*
X129000Y43945D01*
X128000Y43445D02*
X128500D01*
X125500D02*
Y43945D01*
X126000Y44445D01*
X125500Y44945D02*
X126000Y44445D01*
X125500Y44945D02*
Y45445D01*
X126000D01*
X126500Y44945D01*
X127000Y45445D01*
X127500D01*
Y44945D02*
Y45445D01*
X127000Y44445D02*
X127500Y44945D01*
X127000Y44445D02*
X127500Y43945D01*
Y43445D02*
Y43945D01*
X127000Y43445D02*
X127500D01*
X126500Y43945D02*
X127000Y43445D01*
X126000D02*
X126500Y43945D01*
X125500Y43445D02*
X126000D01*
X123000D02*
Y43945D01*
X123500Y44445D01*
X123000Y44945D02*
X123500Y44445D01*
X123000Y44945D02*
Y45445D01*
X123500D01*
X124000Y44945D01*
X124500Y45445D01*
X125000D01*
Y44945D02*
Y45445D01*
X124500Y44445D02*
X125000Y44945D01*
X124500Y44445D02*
X125000Y43945D01*
Y43445D02*
Y43945D01*
X124500Y43445D02*
X125000D01*
X124000Y43945D02*
X124500Y43445D01*
X123500D02*
X124000Y43945D01*
X123000Y43445D02*
X123500D01*
X128000Y45945D02*
Y46445D01*
X128500Y46945D01*
X128000Y47445D02*
X128500Y46945D01*
X128000Y47445D02*
Y47945D01*
X128500D01*
X129000Y47445D01*
X129500Y47945D01*
X130000D01*
Y47445D02*
Y47945D01*
X129500Y46945D02*
X130000Y47445D01*
X129500Y46945D02*
X130000Y46445D01*
Y45945D02*
Y46445D01*
X129500Y45945D02*
X130000D01*
X129000Y46445D02*
X129500Y45945D01*
X128500D02*
X129000Y46445D01*
X128000Y45945D02*
X128500D01*
X125500D02*
Y46445D01*
X126000Y46945D01*
X125500Y47445D02*
X126000Y46945D01*
X125500Y47445D02*
Y47945D01*
X126000D01*
X126500Y47445D01*
X127000Y47945D01*
X127500D01*
Y47445D02*
Y47945D01*
X127000Y46945D02*
X127500Y47445D01*
X127000Y46945D02*
X127500Y46445D01*
Y45945D02*
Y46445D01*
X127000Y45945D02*
X127500D01*
X126500Y46445D02*
X127000Y45945D01*
X126000D02*
X126500Y46445D01*
X125500Y45945D02*
X126000D01*
X123000D02*
Y46445D01*
X123500Y46945D01*
X123000Y47445D02*
X123500Y46945D01*
X123000Y47445D02*
Y47945D01*
X123500D01*
X124000Y47445D01*
X124500Y47945D01*
X125000D01*
Y47445D02*
Y47945D01*
X124500Y46945D02*
X125000Y47445D01*
X124500Y46945D02*
X125000Y46445D01*
Y45945D02*
Y46445D01*
X124500Y45945D02*
X125000D01*
X124000Y46445D02*
X124500Y45945D01*
X123500D02*
X124000Y46445D01*
X123000Y45945D02*
X123500D01*
X128000Y48445D02*
Y48945D01*
X128500Y49445D01*
X128000Y49945D02*
X128500Y49445D01*
X128000Y49945D02*
Y50445D01*
X128500D01*
X129000Y49945D01*
X129500Y50445D01*
X130000D01*
Y49945D02*
Y50445D01*
X129500Y49445D02*
X130000Y49945D01*
X129500Y49445D02*
X130000Y48945D01*
Y48445D02*
Y48945D01*
X129500Y48445D02*
X130000D01*
X129000Y48945D02*
X129500Y48445D01*
X128500D02*
X129000Y48945D01*
X128000Y48445D02*
X128500D01*
X125500D02*
Y48945D01*
X126000Y49445D01*
X125500Y49945D02*
X126000Y49445D01*
X125500Y49945D02*
Y50445D01*
X126000D01*
X126500Y49945D01*
X127000Y50445D01*
X127500D01*
Y49945D02*
Y50445D01*
X127000Y49445D02*
X127500Y49945D01*
X127000Y49445D02*
X127500Y48945D01*
Y48445D02*
Y48945D01*
X127000Y48445D02*
X127500D01*
X126500Y48945D02*
X127000Y48445D01*
X126000D02*
X126500Y48945D01*
X125500Y48445D02*
X126000D01*
X123000D02*
Y48945D01*
X123500Y49445D01*
X123000Y49945D02*
X123500Y49445D01*
X123000Y49945D02*
Y50445D01*
X123500D01*
X124000Y49945D01*
X124500Y50445D01*
X125000D01*
Y49945D02*
Y50445D01*
X124500Y49445D02*
X125000Y49945D01*
X124500Y49445D02*
X125000Y48945D01*
Y48445D02*
Y48945D01*
X124500Y48445D02*
X125000D01*
X124000Y48945D02*
X124500Y48445D01*
X123500D02*
X124000Y48945D01*
X123000Y48445D02*
X123500D01*
X106500Y16000D02*
Y16500D01*
X107000Y17000D01*
X106500Y17500D02*
X107000Y17000D01*
X106500Y17500D02*
Y18000D01*
X107000D01*
X107500Y17500D01*
X108000Y18000D01*
X108500D01*
Y17500D02*
Y18000D01*
X108000Y17000D02*
X108500Y17500D01*
X108000Y17000D02*
X108500Y16500D01*
Y16000D02*
Y16500D01*
X108000Y16000D02*
X108500D01*
X107500Y16500D02*
X108000Y16000D01*
X107000D02*
X107500Y16500D01*
X106500Y16000D02*
X107000D01*
X125500Y4500D02*
Y5000D01*
X126000Y5500D01*
X125500Y6000D02*
X126000Y5500D01*
X125500Y6000D02*
Y6500D01*
X126000D01*
X126500Y6000D01*
X127000Y6500D01*
X127500D01*
Y6000D02*
Y6500D01*
X127000Y5500D02*
X127500Y6000D01*
X127000Y5500D02*
X127500Y5000D01*
Y4500D02*
Y5000D01*
X127000Y4500D02*
X127500D01*
X126500Y5000D02*
X127000Y4500D01*
X126000D02*
X126500Y5000D01*
X125500Y4500D02*
X126000D01*
X74500Y40500D02*
Y41000D01*
X75000Y41500D01*
X74500Y42000D02*
X75000Y41500D01*
X74500Y42000D02*
Y42500D01*
X75000D01*
X75500Y42000D01*
X76000Y42500D01*
X76500D01*
Y42000D02*
Y42500D01*
X76000Y41500D02*
X76500Y42000D01*
X76000Y41500D02*
X76500Y41000D01*
Y40500D02*
Y41000D01*
X76000Y40500D02*
X76500D01*
X75500Y41000D02*
X76000Y40500D01*
X75000D02*
X75500Y41000D01*
X74500Y40500D02*
X75000D01*
X158000Y54500D02*
Y55000D01*
X158500Y55500D01*
X158000Y56000D02*
X158500Y55500D01*
X158000Y56000D02*
Y56500D01*
X158500D01*
X159000Y56000D01*
X159500Y56500D01*
X160000D01*
Y56000D02*
Y56500D01*
X159500Y55500D02*
X160000Y56000D01*
X159500Y55500D02*
X160000Y55000D01*
Y54500D02*
Y55000D01*
X159500Y54500D02*
X160000D01*
X159000Y55000D02*
X159500Y54500D01*
X158500D02*
X159000Y55000D01*
X158000Y54500D02*
X158500D01*
X158000Y51500D02*
Y52000D01*
X158500Y52500D01*
X158000Y53000D02*
X158500Y52500D01*
X158000Y53000D02*
Y53500D01*
X158500D01*
X159000Y53000D01*
X159500Y53500D01*
X160000D01*
Y53000D02*
Y53500D01*
X159500Y52500D02*
X160000Y53000D01*
X159500Y52500D02*
X160000Y52000D01*
Y51500D02*
Y52000D01*
X159500Y51500D02*
X160000D01*
X159000Y52000D02*
X159500Y51500D01*
X158500D02*
X159000Y52000D01*
X158000Y51500D02*
X158500D01*
X158000Y48500D02*
Y49000D01*
X158500Y49500D01*
X158000Y50000D02*
X158500Y49500D01*
X158000Y50000D02*
Y50500D01*
X158500D01*
X159000Y50000D01*
X159500Y50500D01*
X160000D01*
Y50000D02*
Y50500D01*
X159500Y49500D02*
X160000Y50000D01*
X159500Y49500D02*
X160000Y49000D01*
Y48500D02*
Y49000D01*
X159500Y48500D02*
X160000D01*
X159000Y49000D02*
X159500Y48500D01*
X158500D02*
X159000Y49000D01*
X158000Y48500D02*
X158500D01*
X63500Y43500D02*
Y44000D01*
X64000Y44500D01*
X63500Y45000D02*
X64000Y44500D01*
X63500Y45000D02*
Y45500D01*
X64000D01*
X64500Y45000D01*
X65000Y45500D01*
X65500D01*
Y45000D02*
Y45500D01*
X65000Y44500D02*
X65500Y45000D01*
X65000Y44500D02*
X65500Y44000D01*
Y43500D02*
Y44000D01*
X65000Y43500D02*
X65500D01*
X64500Y44000D02*
X65000Y43500D01*
X64000D02*
X64500Y44000D01*
X63500Y43500D02*
X64000D01*
X60900Y41100D02*
Y41600D01*
X61400Y42100D01*
X60900Y42600D02*
X61400Y42100D01*
X60900Y42600D02*
Y43100D01*
X61400D01*
X61900Y42600D01*
X62400Y43100D01*
X62900D01*
Y42600D02*
Y43100D01*
X62400Y42100D02*
X62900Y42600D01*
X62400Y42100D02*
X62900Y41600D01*
Y41100D02*
Y41600D01*
X62400Y41100D02*
X62900D01*
X61900Y41600D02*
X62400Y41100D01*
X61400D02*
X61900Y41600D01*
X60900Y41100D02*
X61400D01*
X100500Y18500D02*
Y19000D01*
X101000Y19500D01*
X100500Y20000D02*
X101000Y19500D01*
X100500Y20000D02*
Y20500D01*
X101000D01*
X101500Y20000D01*
X102000Y20500D01*
X102500D01*
Y20000D02*
Y20500D01*
X102000Y19500D02*
X102500Y20000D01*
X102000Y19500D02*
X102500Y19000D01*
Y18500D02*
Y19000D01*
X102000Y18500D02*
X102500D01*
X101500Y19000D02*
X102000Y18500D01*
X101000D02*
X101500Y19000D01*
X100500Y18500D02*
X101000D01*
X99500Y15500D02*
Y16000D01*
X100000Y16500D01*
X99500Y17000D02*
X100000Y16500D01*
X99500Y17000D02*
Y17500D01*
X100000D01*
X100500Y17000D01*
X101000Y17500D01*
X101500D01*
Y17000D02*
Y17500D01*
X101000Y16500D02*
X101500Y17000D01*
X101000Y16500D02*
X101500Y16000D01*
Y15500D02*
Y16000D01*
X101000Y15500D02*
X101500D01*
X100500Y16000D02*
X101000Y15500D01*
X100000D02*
X100500Y16000D01*
X99500Y15500D02*
X100000D01*
X103700Y19700D02*
Y20200D01*
X104200Y20700D01*
X103700Y21200D02*
X104200Y20700D01*
X103700Y21200D02*
Y21700D01*
X104200D01*
X104700Y21200D01*
X105200Y21700D01*
X105700D01*
Y21200D02*
Y21700D01*
X105200Y20700D02*
X105700Y21200D01*
X105200Y20700D02*
X105700Y20200D01*
Y19700D02*
Y20200D01*
X105200Y19700D02*
X105700D01*
X104700Y20200D02*
X105200Y19700D01*
X104200D02*
X104700Y20200D01*
X103700Y19700D02*
X104200D01*
X86900Y38400D02*
Y38900D01*
X87400Y39400D01*
X86900Y39900D02*
X87400Y39400D01*
X86900Y39900D02*
Y40400D01*
X87400D01*
X87900Y39900D01*
X88400Y40400D01*
X88900D01*
Y39900D02*
Y40400D01*
X88400Y39400D02*
X88900Y39900D01*
X88400Y39400D02*
X88900Y38900D01*
Y38400D02*
Y38900D01*
X88400Y38400D02*
X88900D01*
X87900Y38900D02*
X88400Y38400D01*
X87400D02*
X87900Y38900D01*
X86900Y38400D02*
X87400D01*
X89200D02*
Y38900D01*
X89700Y39400D01*
X89200Y39900D02*
X89700Y39400D01*
X89200Y39900D02*
Y40400D01*
X89700D01*
X90200Y39900D01*
X90700Y40400D01*
X91200D01*
Y39900D02*
Y40400D01*
X90700Y39400D02*
X91200Y39900D01*
X90700Y39400D02*
X91200Y38900D01*
Y38400D02*
Y38900D01*
X90700Y38400D02*
X91200D01*
X90200Y38900D02*
X90700Y38400D01*
X89700D02*
X90200Y38900D01*
X89200Y38400D02*
X89700D01*
X91600D02*
Y38900D01*
X92100Y39400D01*
X91600Y39900D02*
X92100Y39400D01*
X91600Y39900D02*
Y40400D01*
X92100D01*
X92600Y39900D01*
X93100Y40400D01*
X93600D01*
Y39900D02*
Y40400D01*
X93100Y39400D02*
X93600Y39900D01*
X93100Y39400D02*
X93600Y38900D01*
Y38400D02*
Y38900D01*
X93100Y38400D02*
X93600D01*
X92600Y38900D02*
X93100Y38400D01*
X92100D02*
X92600Y38900D01*
X91600Y38400D02*
X92100D01*
X23000Y24000D02*
Y24500D01*
X23500Y25000D01*
X23000Y25500D02*
X23500Y25000D01*
X23000Y25500D02*
Y26000D01*
X23500D01*
X24000Y25500D01*
X24500Y26000D01*
X25000D01*
Y25500D02*
Y26000D01*
X24500Y25000D02*
X25000Y25500D01*
X24500Y25000D02*
X25000Y24500D01*
Y24000D02*
Y24500D01*
X24500Y24000D02*
X25000D01*
X24000Y24500D02*
X24500Y24000D01*
X23500D02*
X24000Y24500D01*
X23000Y24000D02*
X23500D01*
X32000Y39100D02*
Y39600D01*
X32500Y40100D01*
X32000Y40600D02*
X32500Y40100D01*
X32000Y40600D02*
Y41100D01*
X32500D01*
X33000Y40600D01*
X33500Y41100D01*
X34000D01*
Y40600D02*
Y41100D01*
X33500Y40100D02*
X34000Y40600D01*
X33500Y40100D02*
X34000Y39600D01*
Y39100D02*
Y39600D01*
X33500Y39100D02*
X34000D01*
X33000Y39600D02*
X33500Y39100D01*
X32500D02*
X33000Y39600D01*
X32000Y39100D02*
X32500D01*
X29000Y35900D02*
Y36400D01*
X29500Y36900D01*
X29000Y37400D02*
X29500Y36900D01*
X29000Y37400D02*
Y37900D01*
X29500D01*
X30000Y37400D01*
X30500Y37900D01*
X31000D01*
Y37400D02*
Y37900D01*
X30500Y36900D02*
X31000Y37400D01*
X30500Y36900D02*
X31000Y36400D01*
Y35900D02*
Y36400D01*
X30500Y35900D02*
X31000D01*
X30000Y36400D02*
X30500Y35900D01*
X29500D02*
X30000Y36400D01*
X29000Y35900D02*
X29500D01*
X25500Y22700D02*
Y23200D01*
X26000Y23700D01*
X25500Y24200D02*
X26000Y23700D01*
X25500Y24200D02*
Y24700D01*
X26000D01*
X26500Y24200D01*
X27000Y24700D01*
X27500D01*
Y24200D02*
Y24700D01*
X27000Y23700D02*
X27500Y24200D01*
X27000Y23700D02*
X27500Y23200D01*
Y22700D02*
Y23200D01*
X27000Y22700D02*
X27500D01*
X26500Y23200D02*
X27000Y22700D01*
X26000D02*
X26500Y23200D01*
X25500Y22700D02*
X26000D01*
X6000Y55500D02*
Y56000D01*
X6500Y56500D01*
X6000Y57000D02*
X6500Y56500D01*
X6000Y57000D02*
Y57500D01*
X6500D01*
X7000Y57000D01*
X7500Y57500D01*
X8000D01*
Y57000D02*
Y57500D01*
X7500Y56500D02*
X8000Y57000D01*
X7500Y56500D02*
X8000Y56000D01*
Y55500D02*
Y56000D01*
X7500Y55500D02*
X8000D01*
X7000Y56000D02*
X7500Y55500D01*
X6500D02*
X7000Y56000D01*
X6000Y55500D02*
X6500D01*
X6000Y47500D02*
Y48000D01*
X6500Y48500D01*
X6000Y49000D02*
X6500Y48500D01*
X6000Y49000D02*
Y49500D01*
X6500D01*
X7000Y49000D01*
X7500Y49500D01*
X8000D01*
Y49000D02*
Y49500D01*
X7500Y48500D02*
X8000Y49000D01*
X7500Y48500D02*
X8000Y48000D01*
Y47500D02*
Y48000D01*
X7500Y47500D02*
X8000D01*
X7000Y48000D02*
X7500Y47500D01*
X6500D02*
X7000Y48000D01*
X6000Y47500D02*
X6500D01*
X6000Y40000D02*
Y40500D01*
X6500Y41000D01*
X6000Y41500D02*
X6500Y41000D01*
X6000Y41500D02*
Y42000D01*
X6500D01*
X7000Y41500D01*
X7500Y42000D01*
X8000D01*
Y41500D02*
Y42000D01*
X7500Y41000D02*
X8000Y41500D01*
X7500Y41000D02*
X8000Y40500D01*
Y40000D02*
Y40500D01*
X7500Y40000D02*
X8000D01*
X7000Y40500D02*
X7500Y40000D01*
X6500D02*
X7000Y40500D01*
X6000Y40000D02*
X6500D01*
X15000Y45500D02*
Y46000D01*
X15500Y46500D01*
X15000Y47000D02*
X15500Y46500D01*
X15000Y47000D02*
Y47500D01*
X15500D01*
X16000Y47000D01*
X16500Y47500D01*
X17000D01*
Y47000D02*
Y47500D01*
X16500Y46500D02*
X17000Y47000D01*
X16500Y46500D02*
X17000Y46000D01*
Y45500D02*
Y46000D01*
X16500Y45500D02*
X17000D01*
X16000Y46000D02*
X16500Y45500D01*
X15500D02*
X16000Y46000D01*
X15000Y45500D02*
X15500D01*
X22500Y12000D02*
Y12500D01*
X23000Y13000D01*
X22500Y13500D02*
X23000Y13000D01*
X22500Y13500D02*
Y14000D01*
X23000D01*
X23500Y13500D01*
X24000Y14000D01*
X24500D01*
Y13500D02*
Y14000D01*
X24000Y13000D02*
X24500Y13500D01*
X24000Y13000D02*
X24500Y12500D01*
Y12000D02*
Y12500D01*
X24000Y12000D02*
X24500D01*
X23500Y12500D02*
X24000Y12000D01*
X23000D02*
X23500Y12500D01*
X22500Y12000D02*
X23000D01*
X22500Y15000D02*
Y15500D01*
X23000Y16000D01*
X22500Y16500D02*
X23000Y16000D01*
X22500Y16500D02*
Y17000D01*
X23000D01*
X23500Y16500D01*
X24000Y17000D01*
X24500D01*
Y16500D02*
Y17000D01*
X24000Y16000D02*
X24500Y16500D01*
X24000Y16000D02*
X24500Y15500D01*
Y15000D02*
Y15500D01*
X24000Y15000D02*
X24500D01*
X23500Y15500D02*
X24000Y15000D01*
X23000D02*
X23500Y15500D01*
X22500Y15000D02*
X23000D01*
X22500Y18000D02*
Y18500D01*
X23000Y19000D01*
X22500Y19500D02*
X23000Y19000D01*
X22500Y19500D02*
Y20000D01*
X23000D01*
X23500Y19500D01*
X24000Y20000D01*
X24500D01*
Y19500D02*
Y20000D01*
X24000Y19000D02*
X24500Y19500D01*
X24000Y19000D02*
X24500Y18500D01*
Y18000D02*
Y18500D01*
X24000Y18000D02*
X24500D01*
X23500Y18500D02*
X24000Y18000D01*
X23000D02*
X23500Y18500D01*
X22500Y18000D02*
X23000D01*
X20500Y2000D02*
Y2500D01*
X21000Y3000D01*
X20500Y3500D02*
X21000Y3000D01*
X20500Y3500D02*
Y4000D01*
X21000D01*
X21500Y3500D01*
X22000Y4000D01*
X22500D01*
Y3500D02*
Y4000D01*
X22000Y3000D02*
X22500Y3500D01*
X22000Y3000D02*
X22500Y2500D01*
Y2000D02*
Y2500D01*
X22000Y2000D02*
X22500D01*
X21500Y2500D02*
X22000Y2000D01*
X21000D02*
X21500Y2500D01*
X20500Y2000D02*
X21000D01*
X29000Y15500D02*
Y16000D01*
X29500Y16500D01*
X29000Y17000D02*
X29500Y16500D01*
X29000Y17000D02*
Y17500D01*
X29500D01*
X30000Y17000D01*
X30500Y17500D01*
X31000D01*
Y17000D02*
Y17500D01*
X30500Y16500D02*
X31000Y17000D01*
X30500Y16500D02*
X31000Y16000D01*
Y15500D02*
Y16000D01*
X30500Y15500D02*
X31000D01*
X30000Y16000D02*
X30500Y15500D01*
X29500D02*
X30000Y16000D01*
X29000Y15500D02*
X29500D01*
X29000Y13000D02*
Y13500D01*
X29500Y14000D01*
X29000Y14500D02*
X29500Y14000D01*
X29000Y14500D02*
Y15000D01*
X29500D01*
X30000Y14500D01*
X30500Y15000D01*
X31000D01*
Y14500D02*
Y15000D01*
X30500Y14000D02*
X31000Y14500D01*
X30500Y14000D02*
X31000Y13500D01*
Y13000D02*
Y13500D01*
X30500Y13000D02*
X31000D01*
X30000Y13500D02*
X30500Y13000D01*
X29500D02*
X30000Y13500D01*
X29000Y13000D02*
X29500D01*
X29000Y10500D02*
Y11000D01*
X29500Y11500D01*
X29000Y12000D02*
X29500Y11500D01*
X29000Y12000D02*
Y12500D01*
X29500D01*
X30000Y12000D01*
X30500Y12500D01*
X31000D01*
Y12000D02*
Y12500D01*
X30500Y11500D02*
X31000Y12000D01*
X30500Y11500D02*
X31000Y11000D01*
Y10500D02*
Y11000D01*
X30500Y10500D02*
X31000D01*
X30000Y11000D02*
X30500Y10500D01*
X29500D02*
X30000Y11000D01*
X29000Y10500D02*
X29500D01*
X32000D02*
Y11000D01*
X32500Y11500D01*
X32000Y12000D02*
X32500Y11500D01*
X32000Y12000D02*
Y12500D01*
X32500D01*
X33000Y12000D01*
X33500Y12500D01*
X34000D01*
Y12000D02*
Y12500D01*
X33500Y11500D02*
X34000Y12000D01*
X33500Y11500D02*
X34000Y11000D01*
Y10500D02*
Y11000D01*
X33500Y10500D02*
X34000D01*
X33000Y11000D02*
X33500Y10500D01*
X32500D02*
X33000Y11000D01*
X32000Y10500D02*
X32500D01*
X35000D02*
Y11000D01*
X35500Y11500D01*
X35000Y12000D02*
X35500Y11500D01*
X35000Y12000D02*
Y12500D01*
X35500D01*
X36000Y12000D01*
X36500Y12500D01*
X37000D01*
Y12000D02*
Y12500D01*
X36500Y11500D02*
X37000Y12000D01*
X36500Y11500D02*
X37000Y11000D01*
Y10500D02*
Y11000D01*
X36500Y10500D02*
X37000D01*
X36000Y11000D02*
X36500Y10500D01*
X35500D02*
X36000Y11000D01*
X35000Y10500D02*
X35500D01*
X38000D02*
Y11000D01*
X38500Y11500D01*
X38000Y12000D02*
X38500Y11500D01*
X38000Y12000D02*
Y12500D01*
X38500D01*
X39000Y12000D01*
X39500Y12500D01*
X40000D01*
Y12000D02*
Y12500D01*
X39500Y11500D02*
X40000Y12000D01*
X39500Y11500D02*
X40000Y11000D01*
Y10500D02*
Y11000D01*
X39500Y10500D02*
X40000D01*
X39000Y11000D02*
X39500Y10500D01*
X38500D02*
X39000Y11000D01*
X38000Y10500D02*
X38500D01*
X41000D02*
Y11000D01*
X41500Y11500D01*
X41000Y12000D02*
X41500Y11500D01*
X41000Y12000D02*
Y12500D01*
X41500D01*
X42000Y12000D01*
X42500Y12500D01*
X43000D01*
Y12000D02*
Y12500D01*
X42500Y11500D02*
X43000Y12000D01*
X42500Y11500D02*
X43000Y11000D01*
Y10500D02*
Y11000D01*
X42500Y10500D02*
X43000D01*
X42000Y11000D02*
X42500Y10500D01*
X41500D02*
X42000Y11000D01*
X41000Y10500D02*
X41500D01*
X61000Y6000D02*
Y6500D01*
X61500Y7000D01*
X61000Y7500D02*
X61500Y7000D01*
X61000Y7500D02*
Y8000D01*
X61500D01*
X62000Y7500D01*
X62500Y8000D01*
X63000D01*
Y7500D02*
Y8000D01*
X62500Y7000D02*
X63000Y7500D01*
X62500Y7000D02*
X63000Y6500D01*
Y6000D02*
Y6500D01*
X62500Y6000D02*
X63000D01*
X62000Y6500D02*
X62500Y6000D01*
X61500D02*
X62000Y6500D01*
X61000Y6000D02*
X61500D01*
X61000Y3500D02*
Y4000D01*
X61500Y4500D01*
X61000Y5000D02*
X61500Y4500D01*
X61000Y5000D02*
Y5500D01*
X61500D01*
X62000Y5000D01*
X62500Y5500D01*
X63000D01*
Y5000D02*
Y5500D01*
X62500Y4500D02*
X63000Y5000D01*
X62500Y4500D02*
X63000Y4000D01*
Y3500D02*
Y4000D01*
X62500Y3500D02*
X63000D01*
X62000Y4000D02*
X62500Y3500D01*
X61500D02*
X62000Y4000D01*
X61000Y3500D02*
X61500D01*
X61000Y1000D02*
Y1500D01*
X61500Y2000D01*
X61000Y2500D02*
X61500Y2000D01*
X61000Y2500D02*
Y3000D01*
X61500D01*
X62000Y2500D01*
X62500Y3000D01*
X63000D01*
Y2500D02*
Y3000D01*
X62500Y2000D02*
X63000Y2500D01*
X62500Y2000D02*
X63000Y1500D01*
Y1000D02*
Y1500D01*
X62500Y1000D02*
X63000D01*
X62000Y1500D02*
X62500Y1000D01*
X61500D02*
X62000Y1500D01*
X61000Y1000D02*
X61500D01*
X115500Y16500D02*
Y17000D01*
X116000Y17500D01*
X115500Y18000D02*
X116000Y17500D01*
X115500Y18000D02*
Y18500D01*
X116000D01*
X116500Y18000D01*
X117000Y18500D01*
X117500D01*
Y18000D02*
Y18500D01*
X117000Y17500D02*
X117500Y18000D01*
X117000Y17500D02*
X117500Y17000D01*
Y16500D02*
Y17000D01*
X117000Y16500D02*
X117500D01*
X116500Y17000D02*
X117000Y16500D01*
X116000D02*
X116500Y17000D01*
X115500Y16500D02*
X116000D01*
X121500Y19000D02*
Y19500D01*
X122000Y20000D01*
X121500Y20500D02*
X122000Y20000D01*
X121500Y20500D02*
Y21000D01*
X122000D01*
X122500Y20500D01*
X123000Y21000D01*
X123500D01*
Y20500D02*
Y21000D01*
X123000Y20000D02*
X123500Y20500D01*
X123000Y20000D02*
X123500Y19500D01*
Y19000D02*
Y19500D01*
X123000Y19000D02*
X123500D01*
X122500Y19500D02*
X123000Y19000D01*
X122000D02*
X122500Y19500D01*
X121500Y19000D02*
X122000D01*
X126500D02*
Y19500D01*
X127000Y20000D01*
X126500Y20500D02*
X127000Y20000D01*
X126500Y20500D02*
Y21000D01*
X127000D01*
X127500Y20500D01*
X128000Y21000D01*
X128500D01*
Y20500D02*
Y21000D01*
X128000Y20000D02*
X128500Y20500D01*
X128000Y20000D02*
X128500Y19500D01*
Y19000D02*
Y19500D01*
X128000Y19000D02*
X128500D01*
X127500Y19500D02*
X128000Y19000D01*
X127000D02*
X127500Y19500D01*
X126500Y19000D02*
X127000D01*
X124000D02*
Y19500D01*
X124500Y20000D01*
X124000Y20500D02*
X124500Y20000D01*
X124000Y20500D02*
Y21000D01*
X124500D01*
X125000Y20500D01*
X125500Y21000D01*
X126000D01*
Y20500D02*
Y21000D01*
X125500Y20000D02*
X126000Y20500D01*
X125500Y20000D02*
X126000Y19500D01*
Y19000D02*
Y19500D01*
X125500Y19000D02*
X126000D01*
X125000Y19500D02*
X125500Y19000D01*
X124500D02*
X125000Y19500D01*
X124000Y19000D02*
X124500D01*
X124000Y16500D02*
Y17000D01*
X124500Y17500D01*
X124000Y18000D02*
X124500Y17500D01*
X124000Y18000D02*
Y18500D01*
X124500D01*
X125000Y18000D01*
X125500Y18500D01*
X126000D01*
Y18000D02*
Y18500D01*
X125500Y17500D02*
X126000Y18000D01*
X125500Y17500D02*
X126000Y17000D01*
Y16500D02*
Y17000D01*
X125500Y16500D02*
X126000D01*
X125000Y17000D02*
X125500Y16500D01*
X124500D02*
X125000Y17000D01*
X124000Y16500D02*
X124500D01*
X126500D02*
Y17000D01*
X127000Y17500D01*
X126500Y18000D02*
X127000Y17500D01*
X126500Y18000D02*
Y18500D01*
X127000D01*
X127500Y18000D01*
X128000Y18500D01*
X128500D01*
Y18000D02*
Y18500D01*
X128000Y17500D02*
X128500Y18000D01*
X128000Y17500D02*
X128500Y17000D01*
Y16500D02*
Y17000D01*
X128000Y16500D02*
X128500D01*
X127500Y17000D02*
X128000Y16500D01*
X127000D02*
X127500Y17000D01*
X126500Y16500D02*
X127000D01*
X152200Y10600D02*
Y11100D01*
X152700Y11600D01*
X152200Y12100D02*
X152700Y11600D01*
X152200Y12100D02*
Y12600D01*
X152700D01*
X153200Y12100D01*
X153700Y12600D01*
X154200D01*
Y12100D02*
Y12600D01*
X153700Y11600D02*
X154200Y12100D01*
X153700Y11600D02*
X154200Y11100D01*
Y10600D02*
Y11100D01*
X153700Y10600D02*
X154200D01*
X153200Y11100D02*
X153700Y10600D01*
X152700D02*
X153200Y11100D01*
X152200Y10600D02*
X152700D01*
X154700D02*
Y11100D01*
X155200Y11600D01*
X154700Y12100D02*
X155200Y11600D01*
X154700Y12100D02*
Y12600D01*
X155200D01*
X155700Y12100D01*
X156200Y12600D01*
X156700D01*
Y12100D02*
Y12600D01*
X156200Y11600D02*
X156700Y12100D01*
X156200Y11600D02*
X156700Y11100D01*
Y10600D02*
Y11100D01*
X156200Y10600D02*
X156700D01*
X155700Y11100D02*
X156200Y10600D01*
X155200D02*
X155700Y11100D01*
X154700Y10600D02*
X155200D01*
X164000Y28000D02*
Y28500D01*
X164500Y29000D01*
X164000Y29500D02*
X164500Y29000D01*
X164000Y29500D02*
Y30000D01*
X164500D01*
X165000Y29500D01*
X165500Y30000D01*
X166000D01*
Y29500D02*
Y30000D01*
X165500Y29000D02*
X166000Y29500D01*
X165500Y29000D02*
X166000Y28500D01*
Y28000D02*
Y28500D01*
X165500Y28000D02*
X166000D01*
X165000Y28500D02*
X165500Y28000D01*
X164500D02*
X165000Y28500D01*
X164000Y28000D02*
X164500D01*
X164000Y25500D02*
Y26000D01*
X164500Y26500D01*
X164000Y27000D02*
X164500Y26500D01*
X164000Y27000D02*
Y27500D01*
X164500D01*
X165000Y27000D01*
X165500Y27500D01*
X166000D01*
Y27000D02*
Y27500D01*
X165500Y26500D02*
X166000Y27000D01*
X165500Y26500D02*
X166000Y26000D01*
Y25500D02*
Y26000D01*
X165500Y25500D02*
X166000D01*
X165000Y26000D02*
X165500Y25500D01*
X164500D02*
X165000Y26000D01*
X164000Y25500D02*
X164500D01*
X164000Y23000D02*
Y23500D01*
X164500Y24000D01*
X164000Y24500D02*
X164500Y24000D01*
X164000Y24500D02*
Y25000D01*
X164500D01*
X165000Y24500D01*
X165500Y25000D01*
X166000D01*
Y24500D02*
Y25000D01*
X165500Y24000D02*
X166000Y24500D01*
X165500Y24000D02*
X166000Y23500D01*
Y23000D02*
Y23500D01*
X165500Y23000D02*
X166000D01*
X165000Y23500D02*
X165500Y23000D01*
X164500D02*
X165000Y23500D01*
X164000Y23000D02*
X164500D01*
X161500D02*
Y23500D01*
X162000Y24000D01*
X161500Y24500D02*
X162000Y24000D01*
X161500Y24500D02*
Y25000D01*
X162000D01*
X162500Y24500D01*
X163000Y25000D01*
X163500D01*
Y24500D02*
Y25000D01*
X163000Y24000D02*
X163500Y24500D01*
X163000Y24000D02*
X163500Y23500D01*
Y23000D02*
Y23500D01*
X163000Y23000D02*
X163500D01*
X162500Y23500D02*
X163000Y23000D01*
X162000D02*
X162500Y23500D01*
X161500Y23000D02*
X162000D01*
X79000Y54000D02*
Y54500D01*
X79500Y55000D01*
X79000Y55500D02*
X79500Y55000D01*
X79000Y55500D02*
Y56000D01*
X79500D01*
X80000Y55500D01*
X80500Y56000D01*
X81000D01*
Y55500D02*
Y56000D01*
X80500Y55000D02*
X81000Y55500D01*
X80500Y55000D02*
X81000Y54500D01*
Y54000D02*
Y54500D01*
X80500Y54000D02*
X81000D01*
X80000Y54500D02*
X80500Y54000D01*
X79500D02*
X80000Y54500D01*
X79000Y54000D02*
X79500D01*
X76000D02*
Y54500D01*
X76500Y55000D01*
X76000Y55500D02*
X76500Y55000D01*
X76000Y55500D02*
Y56000D01*
X76500D01*
X77000Y55500D01*
X77500Y56000D01*
X78000D01*
Y55500D02*
Y56000D01*
X77500Y55000D02*
X78000Y55500D01*
X77500Y55000D02*
X78000Y54500D01*
Y54000D02*
Y54500D01*
X77500Y54000D02*
X78000D01*
X77000Y54500D02*
X77500Y54000D01*
X76500D02*
X77000Y54500D01*
X76000Y54000D02*
X76500D01*
X170000Y23500D02*
Y24000D01*
X170500Y24500D01*
X170000Y25000D02*
X170500Y24500D01*
X170000Y25000D02*
Y25500D01*
X170500D01*
X171000Y25000D01*
X171500Y25500D01*
X172000D01*
Y25000D02*
Y25500D01*
X171500Y24500D02*
X172000Y25000D01*
X171500Y24500D02*
X172000Y24000D01*
Y23500D02*
Y24000D01*
X171500Y23500D02*
X172000D01*
X171000Y24000D02*
X171500Y23500D01*
X170500D02*
X171000Y24000D01*
X170000Y23500D02*
X170500D01*
X168500Y31000D02*
Y31500D01*
X169000Y32000D01*
X168500Y32500D02*
X169000Y32000D01*
X168500Y32500D02*
Y33000D01*
X169000D01*
X169500Y32500D01*
X170000Y33000D01*
X170500D01*
Y32500D02*
Y33000D01*
X170000Y32000D02*
X170500Y32500D01*
X170000Y32000D02*
X170500Y31500D01*
Y31000D02*
Y31500D01*
X170000Y31000D02*
X170500D01*
X169500Y31500D02*
X170000Y31000D01*
X169000D02*
X169500Y31500D01*
X168500Y31000D02*
X169000D01*
X160000Y43000D02*
Y43500D01*
X160500Y44000D01*
X160000Y44500D02*
X160500Y44000D01*
X160000Y44500D02*
Y45000D01*
X160500D01*
X161000Y44500D01*
X161500Y45000D01*
X162000D01*
Y44500D02*
Y45000D01*
X161500Y44000D02*
X162000Y44500D01*
X161500Y44000D02*
X162000Y43500D01*
Y43000D02*
Y43500D01*
X161500Y43000D02*
X162000D01*
X161000Y43500D02*
X161500Y43000D01*
X160500D02*
X161000Y43500D01*
X160000Y43000D02*
X160500D01*
X148500Y88000D02*
X150500D01*
Y90000D01*
X148500D02*
X150500D01*
X148500Y88000D02*
Y90000D01*
X121500Y21500D02*
Y22000D01*
X122000Y22500D01*
X121500Y23000D02*
X122000Y22500D01*
X121500Y23000D02*
Y23500D01*
X122000D01*
X122500Y23000D01*
X123000Y23500D01*
X123500D01*
Y23000D02*
Y23500D01*
X123000Y22500D02*
X123500Y23000D01*
X123000Y22500D02*
X123500Y22000D01*
Y21500D02*
Y22000D01*
X123000Y21500D02*
X123500D01*
X122500Y22000D02*
X123000Y21500D01*
X122000D02*
X122500Y22000D01*
X121500Y21500D02*
X122000D01*
X124000D02*
Y22000D01*
X124500Y22500D01*
X124000Y23000D02*
X124500Y22500D01*
X124000Y23000D02*
Y23500D01*
X124500D01*
X125000Y23000D01*
X125500Y23500D01*
X126000D01*
Y23000D02*
Y23500D01*
X125500Y22500D02*
X126000Y23000D01*
X125500Y22500D02*
X126000Y22000D01*
Y21500D02*
Y22000D01*
X125500Y21500D02*
X126000D01*
X125000Y22000D02*
X125500Y21500D01*
X124500D02*
X125000Y22000D01*
X124000Y21500D02*
X124500D01*
X121500Y24000D02*
Y24500D01*
X122000Y25000D01*
X121500Y25500D02*
X122000Y25000D01*
X121500Y25500D02*
Y26000D01*
X122000D01*
X122500Y25500D01*
X123000Y26000D01*
X123500D01*
Y25500D02*
Y26000D01*
X123000Y25000D02*
X123500Y25500D01*
X123000Y25000D02*
X123500Y24500D01*
Y24000D02*
Y24500D01*
X123000Y24000D02*
X123500D01*
X122500Y24500D02*
X123000Y24000D01*
X122000D02*
X122500Y24500D01*
X121500Y24000D02*
X122000D01*
X124000D02*
Y24500D01*
X124500Y25000D01*
X124000Y25500D02*
X124500Y25000D01*
X124000Y25500D02*
Y26000D01*
X124500D01*
X125000Y25500D01*
X125500Y26000D01*
X126000D01*
Y25500D02*
Y26000D01*
X125500Y25000D02*
X126000Y25500D01*
X125500Y25000D02*
X126000Y24500D01*
Y24000D02*
Y24500D01*
X125500Y24000D02*
X126000D01*
X125000Y24500D02*
X125500Y24000D01*
X124500D02*
X125000Y24500D01*
X124000Y24000D02*
X124500D01*
X124000Y26500D02*
Y27000D01*
X124500Y27500D01*
X124000Y28000D02*
X124500Y27500D01*
X124000Y28000D02*
Y28500D01*
X124500D01*
X125000Y28000D01*
X125500Y28500D01*
X126000D01*
Y28000D02*
Y28500D01*
X125500Y27500D02*
X126000Y28000D01*
X125500Y27500D02*
X126000Y27000D01*
Y26500D02*
Y27000D01*
X125500Y26500D02*
X126000D01*
X125000Y27000D02*
X125500Y26500D01*
X124500D02*
X125000Y27000D01*
X124000Y26500D02*
X124500D01*
X121500D02*
Y27000D01*
X122000Y27500D01*
X121500Y28000D02*
X122000Y27500D01*
X121500Y28000D02*
Y28500D01*
X122000D01*
X122500Y28000D01*
X123000Y28500D01*
X123500D01*
Y28000D02*
Y28500D01*
X123000Y27500D02*
X123500Y28000D01*
X123000Y27500D02*
X123500Y27000D01*
Y26500D02*
Y27000D01*
X123000Y26500D02*
X123500D01*
X122500Y27000D02*
X123000Y26500D01*
X122000D02*
X122500Y27000D01*
X121500Y26500D02*
X122000D01*
X115500Y21500D02*
Y22000D01*
X116000Y22500D01*
X115500Y23000D02*
X116000Y22500D01*
X115500Y23000D02*
Y23500D01*
X116000D01*
X116500Y23000D01*
X117000Y23500D01*
X117500D01*
Y23000D02*
Y23500D01*
X117000Y22500D02*
X117500Y23000D01*
X117000Y22500D02*
X117500Y22000D01*
Y21500D02*
Y22000D01*
X117000Y21500D02*
X117500D01*
X116500Y22000D02*
X117000Y21500D01*
X116000D02*
X116500Y22000D01*
X115500Y21500D02*
X116000D01*
X118500D02*
Y22000D01*
X119000Y22500D01*
X118500Y23000D02*
X119000Y22500D01*
X118500Y23000D02*
Y23500D01*
X119000D01*
X119500Y23000D01*
X120000Y23500D01*
X120500D01*
Y23000D02*
Y23500D01*
X120000Y22500D02*
X120500Y23000D01*
X120000Y22500D02*
X120500Y22000D01*
Y21500D02*
Y22000D01*
X120000Y21500D02*
X120500D01*
X119500Y22000D02*
X120000Y21500D01*
X119000D02*
X119500Y22000D01*
X118500Y21500D02*
X119000D01*
X115500Y24000D02*
Y24500D01*
X116000Y25000D01*
X115500Y25500D02*
X116000Y25000D01*
X115500Y25500D02*
Y26000D01*
X116000D01*
X116500Y25500D01*
X117000Y26000D01*
X117500D01*
Y25500D02*
Y26000D01*
X117000Y25000D02*
X117500Y25500D01*
X117000Y25000D02*
X117500Y24500D01*
Y24000D02*
Y24500D01*
X117000Y24000D02*
X117500D01*
X116500Y24500D02*
X117000Y24000D01*
X116000D02*
X116500Y24500D01*
X115500Y24000D02*
X116000D01*
X118500D02*
Y24500D01*
X119000Y25000D01*
X118500Y25500D02*
X119000Y25000D01*
X118500Y25500D02*
Y26000D01*
X119000D01*
X119500Y25500D01*
X120000Y26000D01*
X120500D01*
Y25500D02*
Y26000D01*
X120000Y25000D02*
X120500Y25500D01*
X120000Y25000D02*
X120500Y24500D01*
Y24000D02*
Y24500D01*
X120000Y24000D02*
X120500D01*
X119500Y24500D02*
X120000Y24000D01*
X119000D02*
X119500Y24500D01*
X118500Y24000D02*
X119000D01*
X115500Y26500D02*
Y27000D01*
X116000Y27500D01*
X115500Y28000D02*
X116000Y27500D01*
X115500Y28000D02*
Y28500D01*
X116000D01*
X116500Y28000D01*
X117000Y28500D01*
X117500D01*
Y28000D02*
Y28500D01*
X117000Y27500D02*
X117500Y28000D01*
X117000Y27500D02*
X117500Y27000D01*
Y26500D02*
Y27000D01*
X117000Y26500D02*
X117500D01*
X116500Y27000D02*
X117000Y26500D01*
X116000D02*
X116500Y27000D01*
X115500Y26500D02*
X116000D01*
X118500D02*
Y27000D01*
X119000Y27500D01*
X118500Y28000D02*
X119000Y27500D01*
X118500Y28000D02*
Y28500D01*
X119000D01*
X119500Y28000D01*
X120000Y28500D01*
X120500D01*
Y28000D02*
Y28500D01*
X120000Y27500D02*
X120500Y28000D01*
X120000Y27500D02*
X120500Y27000D01*
Y26500D02*
Y27000D01*
X120000Y26500D02*
X120500D01*
X119500Y27000D02*
X120000Y26500D01*
X119000D02*
X119500Y27000D01*
X118500Y26500D02*
X119000D01*
X91500Y27000D02*
Y27500D01*
X92000Y28000D01*
X91500Y28500D02*
X92000Y28000D01*
X91500Y28500D02*
Y29000D01*
X92000D01*
X92500Y28500D01*
X93000Y29000D01*
X93500D01*
Y28500D02*
Y29000D01*
X93000Y28000D02*
X93500Y28500D01*
X93000Y28000D02*
X93500Y27500D01*
Y27000D02*
Y27500D01*
X93000Y27000D02*
X93500D01*
X92500Y27500D02*
X93000Y27000D01*
X92000D02*
X92500Y27500D01*
X91500Y27000D02*
X92000D01*
X91500Y24500D02*
Y25000D01*
X92000Y25500D01*
X91500Y26000D02*
X92000Y25500D01*
X91500Y26000D02*
Y26500D01*
X92000D01*
X92500Y26000D01*
X93000Y26500D01*
X93500D01*
Y26000D02*
Y26500D01*
X93000Y25500D02*
X93500Y26000D01*
X93000Y25500D02*
X93500Y25000D01*
Y24500D02*
Y25000D01*
X93000Y24500D02*
X93500D01*
X92500Y25000D02*
X93000Y24500D01*
X92000D02*
X92500Y25000D01*
X91500Y24500D02*
X92000D01*
X81000Y19000D02*
Y19500D01*
X81500Y20000D01*
X81000Y20500D02*
X81500Y20000D01*
X81000Y20500D02*
Y21000D01*
X81500D01*
X82000Y20500D01*
X82500Y21000D01*
X83000D01*
Y20500D02*
Y21000D01*
X82500Y20000D02*
X83000Y20500D01*
X82500Y20000D02*
X83000Y19500D01*
Y19000D02*
Y19500D01*
X82500Y19000D02*
X83000D01*
X82000Y19500D02*
X82500Y19000D01*
X81500D02*
X82000Y19500D01*
X81000Y19000D02*
X81500D01*
X83500D02*
Y19500D01*
X84000Y20000D01*
X83500Y20500D02*
X84000Y20000D01*
X83500Y20500D02*
Y21000D01*
X84000D01*
X84500Y20500D01*
X85000Y21000D01*
X85500D01*
Y20500D02*
Y21000D01*
X85000Y20000D02*
X85500Y20500D01*
X85000Y20000D02*
X85500Y19500D01*
Y19000D02*
Y19500D01*
X85000Y19000D02*
X85500D01*
X84500Y19500D02*
X85000Y19000D01*
X84000D02*
X84500Y19500D01*
X83500Y19000D02*
X84000D01*
X34300Y44000D02*
Y44500D01*
X34800Y45000D01*
X34300Y45500D02*
X34800Y45000D01*
X34300Y45500D02*
Y46000D01*
X34800D01*
X35300Y45500D01*
X35800Y46000D01*
X36300D01*
Y45500D02*
Y46000D01*
X35800Y45000D02*
X36300Y45500D01*
X35800Y45000D02*
X36300Y44500D01*
Y44000D02*
Y44500D01*
X35800Y44000D02*
X36300D01*
X35300Y44500D02*
X35800Y44000D01*
X34800D02*
X35300Y44500D01*
X34300Y44000D02*
X34800D01*
X32000Y51500D02*
Y52000D01*
X32500Y52500D01*
X32000Y53000D02*
X32500Y52500D01*
X32000Y53000D02*
Y53500D01*
X32500D01*
X33000Y53000D01*
X33500Y53500D01*
X34000D01*
Y53000D02*
Y53500D01*
X33500Y52500D02*
X34000Y53000D01*
X33500Y52500D02*
X34000Y52000D01*
Y51500D02*
Y52000D01*
X33500Y51500D02*
X34000D01*
X33000Y52000D02*
X33500Y51500D01*
X32500D02*
X33000Y52000D01*
X32000Y51500D02*
X32500D01*
X36000Y49000D02*
Y49500D01*
X36500Y50000D01*
X36000Y50500D02*
X36500Y50000D01*
X36000Y50500D02*
Y51000D01*
X36500D01*
X37000Y50500D01*
X37500Y51000D01*
X38000D01*
Y50500D02*
Y51000D01*
X37500Y50000D02*
X38000Y50500D01*
X37500Y50000D02*
X38000Y49500D01*
Y49000D02*
Y49500D01*
X37500Y49000D02*
X38000D01*
X37000Y49500D02*
X37500Y49000D01*
X36500D02*
X37000Y49500D01*
X36000Y49000D02*
X36500D01*
X30800Y45100D02*
Y45600D01*
X31300Y46100D01*
X30800Y46600D02*
X31300Y46100D01*
X30800Y46600D02*
Y47100D01*
X31300D01*
X31800Y46600D01*
X32300Y47100D01*
X32800D01*
Y46600D02*
Y47100D01*
X32300Y46100D02*
X32800Y46600D01*
X32300Y46100D02*
X32800Y45600D01*
Y45100D02*
Y45600D01*
X32300Y45100D02*
X32800D01*
X31800Y45600D02*
X32300Y45100D01*
X31300D02*
X31800Y45600D01*
X30800Y45100D02*
X31300D01*
X55900Y46100D02*
Y46600D01*
X56400Y47100D01*
X55900Y47600D02*
X56400Y47100D01*
X55900Y47600D02*
Y48100D01*
X56400D01*
X56900Y47600D01*
X57400Y48100D01*
X57900D01*
Y47600D02*
Y48100D01*
X57400Y47100D02*
X57900Y47600D01*
X57400Y47100D02*
X57900Y46600D01*
Y46100D02*
Y46600D01*
X57400Y46100D02*
X57900D01*
X56900Y46600D02*
X57400Y46100D01*
X56400D02*
X56900Y46600D01*
X55900Y46100D02*
X56400D01*
X53300Y52400D02*
Y52900D01*
X53800Y53400D01*
X53300Y53900D02*
X53800Y53400D01*
X53300Y53900D02*
Y54400D01*
X53800D01*
X54300Y53900D01*
X54800Y54400D01*
X55300D01*
Y53900D02*
Y54400D01*
X54800Y53400D02*
X55300Y53900D01*
X54800Y53400D02*
X55300Y52900D01*
Y52400D02*
Y52900D01*
X54800Y52400D02*
X55300D01*
X54300Y52900D02*
X54800Y52400D01*
X53800D02*
X54300Y52900D01*
X53300Y52400D02*
X53800D01*
X17858Y61878D02*
X18858Y62378D01*
X19858Y61878D01*
X19358Y62878D02*
X19858Y61878D01*
X19358Y62878D02*
X19858Y63878D01*
X18858Y63378D02*
X19858Y63878D01*
X17858D02*
X18858Y63378D01*
X17858Y63878D02*
X18358Y62878D01*
X17858Y61878D02*
X18358Y62878D01*
X17858Y39122D02*
X18858Y39622D01*
X19858Y39122D01*
X19358Y40122D02*
X19858Y39122D01*
X19358Y40122D02*
X19858Y41122D01*
X18858Y40622D02*
X19858Y41122D01*
X17858D02*
X18858Y40622D01*
X17858Y41122D02*
X18358Y40122D01*
X17858Y39122D02*
X18358Y40122D01*
X4579Y33972D02*
X5079Y33472D01*
X4079Y33972D02*
X4579D01*
X4079D02*
X4579Y34472D01*
X4079Y34972D02*
X4579Y34472D01*
X4079Y34972D02*
X4579D01*
X5079Y35472D01*
X5579Y34972D01*
X6079D01*
X5579Y34472D02*
X6079Y34972D01*
X5579Y34472D02*
X6079Y33972D01*
X5579D02*
X6079D01*
X5079Y33472D02*
X5579Y33972D01*
X4579Y68028D02*
X5079Y67528D01*
X4079Y68028D02*
X4579D01*
X4079D02*
X4579Y68528D01*
X4079Y69028D02*
X4579Y68528D01*
X4079Y69028D02*
X4579D01*
X5079Y69528D01*
X5579Y69028D01*
X6079D01*
X5579Y68528D02*
X6079Y69028D01*
X5579Y68528D02*
X6079Y68028D01*
X5579D02*
X6079D01*
X5079Y67528D02*
X5579Y68028D01*
X20827Y33472D02*
X21827Y35472D01*
X19827D02*
X21827D01*
X19827D02*
X20827Y33472D01*
Y67528D02*
X21827Y69528D01*
X19827D02*
X21827D01*
X19827D02*
X20827Y67528D01*
D111*
X1189518Y267694D02*
Y274892D01*
X1193117D01*
X1194317Y273692D01*
Y271293D01*
X1193117Y270093D01*
X1189518D01*
X1191917D02*
X1194317Y267694D01*
X1197915D02*
X1200315D01*
X1201514Y268894D01*
Y271293D01*
X1200315Y272493D01*
X1197915D01*
X1196716Y271293D01*
Y268894D01*
X1197915Y267694D01*
X1203913Y272493D02*
Y268894D01*
X1205113Y267694D01*
X1208712D01*
Y272493D01*
X1212311Y273692D02*
Y272493D01*
X1211111D01*
X1213510D01*
X1212311D01*
Y268894D01*
X1213510Y267694D01*
X1220708D02*
X1218309D01*
X1217109Y268894D01*
Y271293D01*
X1218309Y272493D01*
X1220708D01*
X1221908Y271293D01*
Y270093D01*
X1217109D01*
X1229105Y274892D02*
Y267694D01*
X1225506D01*
X1224307Y268894D01*
Y271293D01*
X1225506Y272493D01*
X1229105D01*
X1238702Y267694D02*
Y274892D01*
X1242301D01*
X1243501Y273692D01*
Y271293D01*
X1242301Y270093D01*
X1238702D01*
X1247099Y272493D02*
X1249499D01*
X1250698Y271293D01*
Y267694D01*
X1247099D01*
X1245900Y268894D01*
X1247099Y270093D01*
X1250698D01*
X1254297Y273692D02*
Y272493D01*
X1253098D01*
X1255497D01*
X1254297D01*
Y268894D01*
X1255497Y267694D01*
X1259096Y274892D02*
Y267694D01*
Y271293D01*
X1260295Y272493D01*
X1262694D01*
X1263894Y271293D01*
Y267694D01*
X1273491Y274892D02*
Y267694D01*
X1278289D01*
X1284287D02*
X1281888D01*
X1280689Y268894D01*
Y271293D01*
X1281888Y272493D01*
X1284287D01*
X1285487Y271293D01*
Y270093D01*
X1280689D01*
X1287886Y267694D02*
Y272493D01*
X1291485D01*
X1292685Y271293D01*
Y267694D01*
X1297483Y265295D02*
X1298683D01*
X1299883Y266495D01*
Y272493D01*
X1296284D01*
X1295084Y271293D01*
Y268894D01*
X1296284Y267694D01*
X1299883D01*
X1303481Y273692D02*
Y272493D01*
X1302282D01*
X1304681D01*
X1303481D01*
Y268894D01*
X1304681Y267694D01*
X1308280Y274892D02*
Y267694D01*
Y271293D01*
X1309479Y272493D01*
X1311879D01*
X1313078Y271293D01*
Y267694D01*
X1080550Y274892D02*
Y267694D01*
Y271293D01*
X1085348D01*
Y274892D01*
Y267694D01*
X1088947D02*
X1091346D01*
X1092546Y268894D01*
Y271293D01*
X1091346Y272493D01*
X1088947D01*
X1087748Y271293D01*
Y268894D01*
X1088947Y267694D01*
X1094945D02*
X1097344D01*
X1096145D01*
Y274892D01*
X1094945D01*
X1104542Y267694D02*
X1102143D01*
X1100943Y268894D01*
Y271293D01*
X1102143Y272493D01*
X1104542D01*
X1105742Y271293D01*
Y270093D01*
X1100943D01*
X1115339Y274892D02*
Y267694D01*
X1120137D01*
X1126135D02*
X1123736D01*
X1122536Y268894D01*
Y271293D01*
X1123736Y272493D01*
X1126135D01*
X1127335Y271293D01*
Y270093D01*
X1122536D01*
X1129734Y267694D02*
Y272493D01*
X1133333D01*
X1134532Y271293D01*
Y267694D01*
X1139331Y265295D02*
X1140530D01*
X1141730Y266495D01*
Y272493D01*
X1138131D01*
X1136932Y271293D01*
Y268894D01*
X1138131Y267694D01*
X1141730D01*
X1145329Y273692D02*
Y272493D01*
X1144129D01*
X1146529D01*
X1145329D01*
Y268894D01*
X1146529Y267694D01*
X1150127Y274892D02*
Y267694D01*
Y271293D01*
X1151327Y272493D01*
X1153726D01*
X1154926Y271293D01*
Y267694D01*
X947189Y274892D02*
Y267694D01*
Y271293D01*
X951988D01*
Y274892D01*
Y267694D01*
X955586D02*
X957986D01*
X959185Y268894D01*
Y271293D01*
X957986Y272493D01*
X955586D01*
X954387Y271293D01*
Y268894D01*
X955586Y267694D01*
X961584D02*
X963984D01*
X962784D01*
Y274892D01*
X961584D01*
X971181Y267694D02*
X968782D01*
X967583Y268894D01*
Y271293D01*
X968782Y272493D01*
X971181D01*
X972381Y271293D01*
Y270093D01*
X967583D01*
X981978Y274892D02*
X986776D01*
X984377D01*
Y267694D01*
X990375D02*
X992774D01*
X993974Y268894D01*
Y271293D01*
X992774Y272493D01*
X990375D01*
X989176Y271293D01*
Y268894D01*
X990375Y267694D01*
X996373D02*
X998772D01*
X997573D01*
Y274892D01*
X996373D01*
X1005970Y267694D02*
X1003571D01*
X1002371Y268894D01*
Y271293D01*
X1003571Y272493D01*
X1005970D01*
X1007170Y271293D01*
Y270093D01*
X1002371D01*
X1009569Y272493D02*
Y267694D01*
Y270093D01*
X1010769Y271293D01*
X1011968Y272493D01*
X1013168D01*
X1017966D02*
X1020365D01*
X1021565Y271293D01*
Y267694D01*
X1017966D01*
X1016767Y268894D01*
X1017966Y270093D01*
X1021565D01*
X1023964Y267694D02*
Y272493D01*
X1027563D01*
X1028763Y271293D01*
Y267694D01*
X1035960Y272493D02*
X1032362D01*
X1031162Y271293D01*
Y268894D01*
X1032362Y267694D01*
X1035960D01*
X1041958D02*
X1039559D01*
X1038360Y268894D01*
Y271293D01*
X1039559Y272493D01*
X1041958D01*
X1043158Y271293D01*
Y270093D01*
X1038360D01*
X1055154Y267694D02*
X1052755Y270093D01*
Y272493D01*
X1055154Y274892D01*
X1058753Y271293D02*
X1063551D01*
X1065951Y267694D02*
X1068350Y270093D01*
Y272493D01*
X1065951Y274892D01*
X813828D02*
Y267694D01*
Y271293D01*
X818627D01*
Y274892D01*
Y267694D01*
X822226D02*
X824625D01*
X825824Y268894D01*
Y271293D01*
X824625Y272493D01*
X822226D01*
X821026Y271293D01*
Y268894D01*
X822226Y267694D01*
X828224D02*
X830623D01*
X829423D01*
Y274892D01*
X828224D01*
X837821Y267694D02*
X835421D01*
X834222Y268894D01*
Y271293D01*
X835421Y272493D01*
X837821D01*
X839020Y271293D01*
Y270093D01*
X834222D01*
X848617Y274892D02*
X853415D01*
X851016D01*
Y267694D01*
X857014D02*
X859414D01*
X860613Y268894D01*
Y271293D01*
X859414Y272493D01*
X857014D01*
X855815Y271293D01*
Y268894D01*
X857014Y267694D01*
X863012D02*
X865412D01*
X864212D01*
Y274892D01*
X863012D01*
X872609Y267694D02*
X870210D01*
X869011Y268894D01*
Y271293D01*
X870210Y272493D01*
X872609D01*
X873809Y271293D01*
Y270093D01*
X869011D01*
X876208Y272493D02*
Y267694D01*
Y270093D01*
X877408Y271293D01*
X878607Y272493D01*
X879807D01*
X884605D02*
X887005D01*
X888204Y271293D01*
Y267694D01*
X884605D01*
X883406Y268894D01*
X884605Y270093D01*
X888204D01*
X890604Y267694D02*
Y272493D01*
X894202D01*
X895402Y271293D01*
Y267694D01*
X902600Y272493D02*
X899001D01*
X897801Y271293D01*
Y268894D01*
X899001Y267694D01*
X902600D01*
X908598D02*
X906198D01*
X904999Y268894D01*
Y271293D01*
X906198Y272493D01*
X908598D01*
X909797Y271293D01*
Y270093D01*
X904999D01*
X921793Y267694D02*
X919394Y270093D01*
Y272493D01*
X921793Y274892D01*
X925392Y271293D02*
X930191D01*
X927791Y273692D02*
Y268894D01*
X932590Y267694D02*
X934989Y270093D01*
Y272493D01*
X932590Y274892D01*
X728452D02*
Y267694D01*
X732051D01*
X733251Y268894D01*
Y273692D01*
X732051Y274892D01*
X728452D01*
X739249Y267694D02*
X736849D01*
X735650Y268894D01*
Y271293D01*
X736849Y272493D01*
X739249D01*
X740448Y271293D01*
Y270093D01*
X735650D01*
X742847Y267694D02*
X746446D01*
X747646Y268894D01*
X746446Y270093D01*
X744047D01*
X742847Y271293D01*
X744047Y272493D01*
X747646D01*
X754844D02*
X751245D01*
X750045Y271293D01*
Y268894D01*
X751245Y267694D01*
X754844D01*
X757243Y272493D02*
Y267694D01*
Y270093D01*
X758442Y271293D01*
X759642Y272493D01*
X760842D01*
X764440Y267694D02*
X766840D01*
X765640D01*
Y272493D01*
X764440D01*
X770438Y265295D02*
Y272493D01*
X774037D01*
X775237Y271293D01*
Y268894D01*
X774037Y267694D01*
X770438D01*
X778836Y273692D02*
Y272493D01*
X777636D01*
X780035D01*
X778836D01*
Y268894D01*
X780035Y267694D01*
X783634D02*
X786033D01*
X784834D01*
Y272493D01*
X783634D01*
X790832Y267694D02*
X793231D01*
X794431Y268894D01*
Y271293D01*
X793231Y272493D01*
X790832D01*
X789632Y271293D01*
Y268894D01*
X790832Y267694D01*
X796830D02*
Y272493D01*
X800429D01*
X801628Y271293D01*
Y267694D01*
X609487Y274892D02*
X614285D01*
X611886D01*
Y267694D01*
X620283D02*
X617884D01*
X616685Y268894D01*
Y271293D01*
X617884Y272493D01*
X620283D01*
X621483Y271293D01*
Y270093D01*
X616685D01*
X623882Y267694D02*
Y272493D01*
X625082D01*
X626281Y271293D01*
Y267694D01*
Y271293D01*
X627481Y272493D01*
X628681Y271293D01*
Y267694D01*
X631080Y265295D02*
Y272493D01*
X634679D01*
X635878Y271293D01*
Y268894D01*
X634679Y267694D01*
X631080D01*
X638278D02*
X640677D01*
X639477D01*
Y274892D01*
X638278D01*
X645475Y272493D02*
X647874D01*
X649074Y271293D01*
Y267694D01*
X645475D01*
X644276Y268894D01*
X645475Y270093D01*
X649074D01*
X652673Y273692D02*
Y272493D01*
X651473D01*
X653873D01*
X652673D01*
Y268894D01*
X653873Y267694D01*
X661070D02*
X658671D01*
X657471Y268894D01*
Y271293D01*
X658671Y272493D01*
X661070D01*
X662270Y271293D01*
Y270093D01*
X657471D01*
X534907Y267694D02*
Y274892D01*
X538506D01*
X539706Y273692D01*
Y271293D01*
X538506Y270093D01*
X534907D01*
X543304Y272493D02*
X545704D01*
X546903Y271293D01*
Y267694D01*
X543304D01*
X542105Y268894D01*
X543304Y270093D01*
X546903D01*
X554101Y274892D02*
Y267694D01*
X550502D01*
X549302Y268894D01*
Y271293D01*
X550502Y272493D01*
X554101D01*
X568496Y273692D02*
X567297Y274892D01*
X564897D01*
X563698Y273692D01*
Y272493D01*
X564897Y271293D01*
X567297D01*
X568496Y270093D01*
Y268894D01*
X567297Y267694D01*
X564897D01*
X563698Y268894D01*
X570895Y274892D02*
Y267694D01*
Y271293D01*
X572095Y272493D01*
X574494D01*
X575694Y271293D01*
Y267694D01*
X579293Y272493D02*
X581692D01*
X582892Y271293D01*
Y267694D01*
X579293D01*
X578093Y268894D01*
X579293Y270093D01*
X582892D01*
X585291Y265295D02*
Y272493D01*
X588890D01*
X590089Y271293D01*
Y268894D01*
X588890Y267694D01*
X585291D01*
X596087D02*
X593688D01*
X592488Y268894D01*
Y271293D01*
X593688Y272493D01*
X596087D01*
X597287Y271293D01*
Y270093D01*
X592488D01*
X475922Y274892D02*
Y270093D01*
X478322Y267694D01*
X480721Y270093D01*
Y274892D01*
X483120Y267694D02*
X485519D01*
X484319D01*
Y272493D01*
X483120D01*
X490318D02*
X492717D01*
X493916Y271293D01*
Y267694D01*
X490318D01*
X489118Y268894D01*
X490318Y270093D01*
X493916D01*
X496316Y267694D02*
X501114Y272493D01*
X503513Y267694D02*
Y274892D01*
X507112D01*
X508312Y273692D01*
Y271293D01*
X507112Y270093D01*
X503513D01*
X511911Y272493D02*
X514310D01*
X515510Y271293D01*
Y267694D01*
X511911D01*
X510711Y268894D01*
X511911Y270093D01*
X515510D01*
X522707Y274892D02*
Y267694D01*
X519108D01*
X517909Y268894D01*
Y271293D01*
X519108Y272493D01*
X522707D01*
X356957Y274892D02*
Y267694D01*
X360556D01*
X361755Y268894D01*
Y273692D01*
X360556Y274892D01*
X356957D01*
X364155Y272493D02*
Y267694D01*
Y270093D01*
X365354Y271293D01*
X366554Y272493D01*
X367753D01*
X371352Y267694D02*
X373751D01*
X372552D01*
Y272493D01*
X371352D01*
X377350Y267694D02*
X379749D01*
X378550D01*
Y274892D01*
X377350D01*
X383348Y267694D02*
X385748D01*
X384548D01*
Y274892D01*
X383348D01*
X396544D02*
Y267694D01*
X401342D01*
X404941Y272493D02*
X407340D01*
X408540Y271293D01*
Y267694D01*
X404941D01*
X403742Y268894D01*
X404941Y270093D01*
X408540D01*
X410939Y272493D02*
Y268894D01*
X412139Y267694D01*
X415738D01*
Y266495D01*
X414538Y265295D01*
X413339D01*
X415738Y267694D02*
Y272493D01*
X421736Y267694D02*
X419337D01*
X418137Y268894D01*
Y271293D01*
X419337Y272493D01*
X421736D01*
X422935Y271293D01*
Y270093D01*
X418137D01*
X425335Y272493D02*
Y267694D01*
Y270093D01*
X426534Y271293D01*
X427734Y272493D01*
X428933D01*
X439730Y267694D02*
Y274892D01*
X443329D01*
X444528Y273692D01*
Y271293D01*
X443329Y270093D01*
X439730D01*
X448127Y272493D02*
X450527D01*
X451726Y271293D01*
Y267694D01*
X448127D01*
X446928Y268894D01*
X448127Y270093D01*
X451726D01*
X454125Y267694D02*
X456525D01*
X455325D01*
Y272493D01*
X454125D01*
X460123D02*
Y267694D01*
Y270093D01*
X461323Y271293D01*
X462523Y272493D01*
X463722D01*
X283577Y274892D02*
Y267694D01*
Y271293D01*
X288375D01*
Y274892D01*
Y267694D01*
X291974D02*
X294373D01*
X295573Y268894D01*
Y271293D01*
X294373Y272493D01*
X291974D01*
X290774Y271293D01*
Y268894D01*
X291974Y267694D01*
X297972D02*
X300371D01*
X299172D01*
Y274892D01*
X297972D01*
X307569Y267694D02*
X305170D01*
X303970Y268894D01*
Y271293D01*
X305170Y272493D01*
X307569D01*
X308769Y271293D01*
Y270093D01*
X303970D01*
X318365Y274892D02*
X323164D01*
X320765D01*
Y267694D01*
X325563Y272493D02*
Y268894D01*
X326763Y267694D01*
X330362D01*
Y266495D01*
X329162Y265295D01*
X327962D01*
X330362Y267694D02*
Y272493D01*
X332761Y265295D02*
Y272493D01*
X336360D01*
X337559Y271293D01*
Y268894D01*
X336360Y267694D01*
X332761D01*
X343557D02*
X341158D01*
X339958Y268894D01*
Y271293D01*
X341158Y272493D01*
X343557D01*
X344757Y271293D01*
Y270093D01*
X339958D01*
X232989Y267694D02*
Y274892D01*
X236588D01*
X237788Y273692D01*
Y271293D01*
X236588Y270093D01*
X232989D01*
X240187Y267694D02*
X242586D01*
X241386D01*
Y274892D01*
X240187D01*
X247384Y272493D02*
X249784D01*
X250983Y271293D01*
Y267694D01*
X247384D01*
X246185Y268894D01*
X247384Y270093D01*
X250983D01*
X254582Y273692D02*
Y272493D01*
X253382D01*
X255782D01*
X254582D01*
Y268894D01*
X255782Y267694D01*
X262979D02*
X260580D01*
X259381Y268894D01*
Y271293D01*
X260580Y272493D01*
X262979D01*
X264179Y271293D01*
Y270093D01*
X259381D01*
X271377Y274892D02*
Y267694D01*
X267778D01*
X266578Y268894D01*
Y271293D01*
X267778Y272493D01*
X271377D01*
X121022Y274892D02*
Y267694D01*
Y271293D01*
X125820D01*
Y274892D01*
Y267694D01*
X129419D02*
X131818D01*
X133018Y268894D01*
Y271293D01*
X131818Y272493D01*
X129419D01*
X128219Y271293D01*
Y268894D01*
X129419Y267694D01*
X135417D02*
X137816D01*
X136617D01*
Y274892D01*
X135417D01*
X145014Y267694D02*
X142615D01*
X141415Y268894D01*
Y271293D01*
X142615Y272493D01*
X145014D01*
X146214Y271293D01*
Y270093D01*
X141415D01*
X160609Y273692D02*
X159409Y274892D01*
X157010D01*
X155810Y273692D01*
Y272493D01*
X157010Y271293D01*
X159409D01*
X160609Y270093D01*
Y268894D01*
X159409Y267694D01*
X157010D01*
X155810Y268894D01*
X163008Y267694D02*
X165407D01*
X164208D01*
Y272493D01*
X163008D01*
X169006D02*
X173805D01*
X169006Y267694D01*
X173805D01*
X179803D02*
X177403D01*
X176204Y268894D01*
Y271293D01*
X177403Y272493D01*
X179803D01*
X181002Y271293D01*
Y270093D01*
X176204D01*
X65836Y273692D02*
X64636Y274892D01*
X62237D01*
X61038Y273692D01*
Y268894D01*
X62237Y267694D01*
X64636D01*
X65836Y268894D01*
X69435Y267694D02*
X71834D01*
X73034Y268894D01*
Y271293D01*
X71834Y272493D01*
X69435D01*
X68235Y271293D01*
Y268894D01*
X69435Y267694D01*
X75433Y272493D02*
Y268894D01*
X76632Y267694D01*
X80231D01*
Y272493D01*
X82631Y267694D02*
Y272493D01*
X86229D01*
X87429Y271293D01*
Y267694D01*
X91028Y273692D02*
Y272493D01*
X89828D01*
X92228D01*
X91028D01*
Y268894D01*
X92228Y267694D01*
X15248Y273692D02*
X14049Y274892D01*
X11650D01*
X10450Y273692D01*
Y272493D01*
X11650Y271293D01*
X14049D01*
X15248Y270093D01*
Y268894D01*
X14049Y267694D01*
X11650D01*
X10450Y268894D01*
X17648Y272493D02*
Y268894D01*
X18847Y267694D01*
X22446D01*
Y266495D01*
X21247Y265295D01*
X20047D01*
X22446Y267694D02*
Y272493D01*
X24845Y267694D02*
Y272493D01*
X26045D01*
X27245Y271293D01*
Y267694D01*
Y271293D01*
X28444Y272493D01*
X29644Y271293D01*
Y267694D01*
X32043Y274892D02*
Y267694D01*
X35642D01*
X36841Y268894D01*
Y270093D01*
Y271293D01*
X35642Y272493D01*
X32043D01*
X40440Y267694D02*
X42840D01*
X44039Y268894D01*
Y271293D01*
X42840Y272493D01*
X40440D01*
X39241Y271293D01*
Y268894D01*
X40440Y267694D01*
X46438D02*
X48838D01*
X47638D01*
Y274892D01*
X46438D01*
D112*
X113719Y129197D02*
Y123199D01*
Y126198D01*
X117718D01*
Y129197D01*
Y123199D01*
X120717D02*
X122716D01*
X123716Y124199D01*
Y126198D01*
X122716Y127198D01*
X120717D01*
X119717Y126198D01*
Y124199D01*
X120717Y123199D01*
X125715D02*
X127714D01*
X126715D01*
Y129197D01*
X125715D01*
X133712Y123199D02*
X131713D01*
X130713Y124199D01*
Y126198D01*
X131713Y127198D01*
X133712D01*
X134712Y126198D01*
Y125199D01*
X130713D01*
X142710Y129197D02*
Y123199D01*
X146708D01*
X151707D02*
X149707D01*
X148708Y124199D01*
Y126198D01*
X149707Y127198D01*
X151707D01*
X152706Y126198D01*
Y125199D01*
X148708D01*
X154706Y123199D02*
Y127198D01*
X157705D01*
X158704Y126198D01*
Y123199D01*
X162703Y121200D02*
X163703D01*
X164702Y122200D01*
Y127198D01*
X161703D01*
X160704Y126198D01*
Y124199D01*
X161703Y123199D01*
X164702D01*
X167701Y128198D02*
Y127198D01*
X166702D01*
X168701D01*
X167701D01*
Y124199D01*
X168701Y123199D01*
X171700Y129197D02*
Y123199D01*
Y126198D01*
X172700Y127198D01*
X174699D01*
X175699Y126198D01*
Y123199D01*
X113719Y133197D02*
Y139195D01*
X116718D01*
X117718Y138195D01*
Y136196D01*
X116718Y135196D01*
X113719D01*
X115718D02*
X117718Y133197D01*
X120717D02*
X122716D01*
X123716Y134196D01*
Y136196D01*
X122716Y137196D01*
X120717D01*
X119717Y136196D01*
Y134196D01*
X120717Y133197D01*
X125715Y137196D02*
Y134196D01*
X126715Y133197D01*
X129714D01*
Y137196D01*
X132713Y138195D02*
Y137196D01*
X131713D01*
X133712D01*
X132713D01*
Y134196D01*
X133712Y133197D01*
X139710D02*
X137711D01*
X136712Y134196D01*
Y136196D01*
X137711Y137196D01*
X139710D01*
X140710Y136196D01*
Y135196D01*
X136712D01*
X146708Y139195D02*
Y133197D01*
X143709D01*
X142710Y134196D01*
Y136196D01*
X143709Y137196D01*
X146708D01*
X154706Y133197D02*
Y139195D01*
X157705D01*
X158704Y138195D01*
Y136196D01*
X157705Y135196D01*
X154706D01*
X161703Y137196D02*
X163703D01*
X164702Y136196D01*
Y133197D01*
X161703D01*
X160704Y134196D01*
X161703Y135196D01*
X164702D01*
X167701Y138195D02*
Y137196D01*
X166702D01*
X168701D01*
X167701D01*
Y134196D01*
X168701Y133197D01*
X171700Y139195D02*
Y133197D01*
Y136196D01*
X172700Y137196D01*
X174699D01*
X175699Y136196D01*
Y133197D01*
X183696Y139195D02*
Y133197D01*
X187695D01*
X192693D02*
X190694D01*
X189694Y134196D01*
Y136196D01*
X190694Y137196D01*
X192693D01*
X193693Y136196D01*
Y135196D01*
X189694D01*
X195692Y133197D02*
Y137196D01*
X198691D01*
X199691Y136196D01*
Y133197D01*
X203690Y131197D02*
X204690D01*
X205689Y132197D01*
Y137196D01*
X202690D01*
X201691Y136196D01*
Y134196D01*
X202690Y133197D01*
X205689D01*
X208688Y138195D02*
Y137196D01*
X207688D01*
X209688D01*
X208688D01*
Y134196D01*
X209688Y133197D01*
X212687Y139195D02*
Y133197D01*
Y136196D01*
X213687Y137196D01*
X215686D01*
X216686Y136196D01*
Y133197D01*
X14449Y138195D02*
X13449Y139195D01*
X11450D01*
X10450Y138195D01*
Y137196D01*
X11450Y136196D01*
X13449D01*
X14449Y135196D01*
Y134196D01*
X13449Y133197D01*
X11450D01*
X10450Y134196D01*
X16448Y133197D02*
X18447D01*
X17448D01*
Y139195D01*
X16448D01*
X22446Y133197D02*
X24445D01*
X25445Y134196D01*
Y136196D01*
X24445Y137196D01*
X22446D01*
X21446Y136196D01*
Y134196D01*
X22446Y133197D01*
X28444Y138195D02*
Y137196D01*
X27444D01*
X29444D01*
X28444D01*
Y134196D01*
X29444Y133197D01*
X42440Y139195D02*
Y133197D01*
X39441D01*
X38441Y134196D01*
Y136196D01*
X39441Y137196D01*
X42440D01*
X47438Y133197D02*
X45439D01*
X44439Y134196D01*
Y136196D01*
X45439Y137196D01*
X47438D01*
X48438Y136196D01*
Y135196D01*
X44439D01*
X51437Y133197D02*
Y138195D01*
Y136196D01*
X50437D01*
X52436D01*
X51437D01*
Y138195D01*
X52436Y139195D01*
X55435Y133197D02*
X57435D01*
X56435D01*
Y137196D01*
X55435D01*
X60434Y133197D02*
Y137196D01*
X63433D01*
X64433Y136196D01*
Y133197D01*
X66432D02*
X68431D01*
X67432D01*
Y137196D01*
X66432D01*
X72430Y138195D02*
Y137196D01*
X71430D01*
X73430D01*
X72430D01*
Y134196D01*
X73430Y133197D01*
X76429D02*
X78428D01*
X77428D01*
Y137196D01*
X76429D01*
X82427Y133197D02*
X84426D01*
X85426Y134196D01*
Y136196D01*
X84426Y137196D01*
X82427D01*
X81427Y136196D01*
Y134196D01*
X82427Y133197D01*
X87425D02*
Y137196D01*
X90424D01*
X91424Y136196D01*
Y133197D01*
X93423D02*
X96422D01*
X97422Y134196D01*
X96422Y135196D01*
X94423D01*
X93423Y136196D01*
X94423Y137196D01*
X97422D01*
X105419D02*
X106419D01*
Y136196D01*
X105419D01*
Y137196D01*
Y134196D02*
X106419D01*
Y133197D01*
X105419D01*
Y134196D01*
M02*
