G04*
G04 #@! TF.GenerationSoftware,Altium Limited,Altium Designer,21.6.1 (37)*
G04*
G04 Layer_Color=2752767*
%FSLAX25Y25*%
%MOIN*%
G70*
G04*
G04 #@! TF.SameCoordinates,532E04BB-9670-4093-A683-9B17944729E4*
G04*
G04*
G04 #@! TF.FilePolarity,Positive*
G04*
G01*
G75*
%ADD19C,0.01000*%
%ADD20C,0.01500*%
%ADD21C,0.00200*%
%ADD22C,0.01600*%
D19*
X-12438Y550250D02*
X-9104Y556917D01*
X-15771D02*
X-9104D01*
X-15771D02*
X-12438Y550250D01*
X-15771Y535250D02*
X-9104D01*
Y541917D01*
X-15771D02*
X-9104D01*
X-15771Y535250D02*
Y541917D01*
X1111936Y553249D02*
X1115935D01*
X1111936Y538249D02*
X1115935D01*
X1025360Y553249D02*
X1029359D01*
X1025360Y538249D02*
X1029359D01*
X612278Y554249D02*
X609279D01*
X608279Y553249D01*
Y551250D01*
X609279Y550250D01*
X612278D01*
X618276Y556248D02*
X614278D01*
Y553249D01*
X616277Y554249D01*
X617276D01*
X618276Y553249D01*
Y551250D01*
X617276Y550250D01*
X615277D01*
X614278Y551250D01*
X620276Y550250D02*
X622275D01*
X621275D01*
Y556248D01*
X620276Y555248D01*
X625274D02*
X626274Y556248D01*
X628273D01*
X629273Y555248D01*
Y551250D01*
X628273Y550250D01*
X626274D01*
X625274Y551250D01*
Y555248D01*
X631272Y556248D02*
Y550250D01*
Y553249D01*
X632272Y554249D01*
X634271D01*
X635271Y553249D01*
Y550250D01*
X641269Y556248D02*
X637270D01*
Y553249D01*
X639269Y554249D01*
X640269D01*
X641269Y553249D01*
Y551250D01*
X640269Y550250D01*
X638270D01*
X637270Y551250D01*
X643268Y550250D02*
X645267D01*
X644268D01*
Y556248D01*
X643268Y555248D01*
X652265Y556248D02*
X648267D01*
Y553249D01*
X650266Y554249D01*
X651265D01*
X652265Y553249D01*
Y551250D01*
X651265Y550250D01*
X649266D01*
X648267Y551250D01*
X612278Y539249D02*
X609279D01*
X608279Y538249D01*
Y536250D01*
X609279Y535250D01*
X612278D01*
X617276D02*
Y541248D01*
X614278Y538249D01*
X618276D01*
X620276Y535250D02*
X622275D01*
X621275D01*
Y541248D01*
X620276Y540248D01*
X625274Y536250D02*
X626274Y535250D01*
X628273D01*
X629273Y536250D01*
Y540248D01*
X628273Y541248D01*
X626274D01*
X625274Y540248D01*
Y539249D01*
X626274Y538249D01*
X629273D01*
X631272Y541248D02*
Y535250D01*
Y538249D01*
X632272Y539249D01*
X634271D01*
X635271Y538249D01*
Y535250D01*
X640269D02*
Y541248D01*
X637270Y538249D01*
X641269D01*
X643268Y535250D02*
X645267D01*
X644268D01*
Y541248D01*
X643268Y540248D01*
X648267D02*
X649266Y541248D01*
X651265D01*
X652265Y540248D01*
Y536250D01*
X651265Y535250D01*
X649266D01*
X648267Y536250D01*
Y540248D01*
X533700Y550250D02*
Y556248D01*
X536699D01*
X537698Y555248D01*
Y553249D01*
X536699Y552249D01*
X533700D01*
X535699D02*
X537698Y550250D01*
X540697D02*
X542697D01*
X543696Y551250D01*
Y553249D01*
X542697Y554249D01*
X540697D01*
X539698Y553249D01*
Y551250D01*
X540697Y550250D01*
X545696Y554249D02*
Y551250D01*
X546695Y550250D01*
X549694D01*
Y554249D01*
X551694Y550250D02*
Y554249D01*
X554693D01*
X555692Y553249D01*
Y550250D01*
X561691Y556248D02*
Y550250D01*
X558692D01*
X557692Y551250D01*
Y553249D01*
X558692Y554249D01*
X561691D01*
X566689Y550250D02*
X564690D01*
X563690Y551250D01*
Y553249D01*
X564690Y554249D01*
X566689D01*
X567689Y553249D01*
Y552249D01*
X563690D01*
X573687Y556248D02*
Y550250D01*
X570688D01*
X569688Y551250D01*
Y553249D01*
X570688Y554249D01*
X573687D01*
X533700Y535250D02*
Y541248D01*
X536699D01*
X537698Y540248D01*
Y538249D01*
X536699Y537249D01*
X533700D01*
X535699D02*
X537698Y535250D01*
X540697D02*
X542697D01*
X543696Y536250D01*
Y538249D01*
X542697Y539249D01*
X540697D01*
X539698Y538249D01*
Y536250D01*
X540697Y535250D01*
X545696Y539249D02*
Y536250D01*
X546695Y535250D01*
X549694D01*
Y539249D01*
X551694Y535250D02*
Y539249D01*
X554693D01*
X555692Y538249D01*
Y535250D01*
X561691Y541248D02*
Y535250D01*
X558692D01*
X557692Y536250D01*
Y538249D01*
X558692Y539249D01*
X561691D01*
X566689Y535250D02*
X564690D01*
X563690Y536250D01*
Y538249D01*
X564690Y539249D01*
X566689D01*
X567689Y538249D01*
Y537249D01*
X563690D01*
X573687Y541248D02*
Y535250D01*
X570688D01*
X569688Y536250D01*
Y538249D01*
X570688Y539249D01*
X573687D01*
X474715Y550250D02*
Y556248D01*
X477714D01*
X478714Y555248D01*
Y553249D01*
X477714Y552249D01*
X474715D01*
X481712Y554249D02*
X483712D01*
X484712Y553249D01*
Y550250D01*
X481712D01*
X480713Y551250D01*
X481712Y552249D01*
X484712D01*
X490710Y556248D02*
Y550250D01*
X487711D01*
X486711Y551250D01*
Y553249D01*
X487711Y554249D01*
X490710D01*
X474715Y535250D02*
Y541248D01*
X477714D01*
X478714Y540248D01*
Y538249D01*
X477714Y537249D01*
X474715D01*
X481712Y539249D02*
X483712D01*
X484712Y538249D01*
Y535250D01*
X481712D01*
X480713Y536250D01*
X481712Y537249D01*
X484712D01*
X490710Y541248D02*
Y535250D01*
X487711D01*
X486711Y536250D01*
Y538249D01*
X487711Y539249D01*
X490710D01*
X324760Y556248D02*
X328758D01*
X326759D01*
Y550250D01*
X331757D02*
X333757D01*
X334756Y551250D01*
Y553249D01*
X333757Y554249D01*
X331757D01*
X330758Y553249D01*
Y551250D01*
X331757Y550250D01*
X336756Y548251D02*
Y554249D01*
X339755D01*
X340755Y553249D01*
Y551250D01*
X339755Y550250D01*
X336756D01*
X348752Y556248D02*
Y550250D01*
X352751D01*
X355750Y554249D02*
X357749D01*
X358749Y553249D01*
Y550250D01*
X355750D01*
X354750Y551250D01*
X355750Y552249D01*
X358749D01*
X360748Y554249D02*
Y551250D01*
X361748Y550250D01*
X364747D01*
Y549250D01*
X363747Y548251D01*
X362747D01*
X364747Y550250D02*
Y554249D01*
X369745Y550250D02*
X367746D01*
X366746Y551250D01*
Y553249D01*
X367746Y554249D01*
X369745D01*
X370745Y553249D01*
Y552249D01*
X366746D01*
X372744Y554249D02*
Y550250D01*
Y552249D01*
X373744Y553249D01*
X374744Y554249D01*
X375743D01*
X384740Y553249D02*
X388739D01*
X396737Y556248D02*
Y550250D01*
X399735D01*
X400735Y551250D01*
Y552249D01*
X399735Y553249D01*
X396737D01*
X399735D01*
X400735Y554249D01*
Y555248D01*
X399735Y556248D01*
X396737D01*
X403734Y550250D02*
X405733D01*
X406733Y551250D01*
Y553249D01*
X405733Y554249D01*
X403734D01*
X402735Y553249D01*
Y551250D01*
X403734Y550250D01*
X409732Y555248D02*
Y554249D01*
X408733D01*
X410732D01*
X409732D01*
Y551250D01*
X410732Y550250D01*
X414731Y555248D02*
Y554249D01*
X413731D01*
X415730D01*
X414731D01*
Y551250D01*
X415730Y550250D01*
X419729D02*
X421728D01*
X422728Y551250D01*
Y553249D01*
X421728Y554249D01*
X419729D01*
X418729Y553249D01*
Y551250D01*
X419729Y550250D01*
X424727D02*
Y554249D01*
X425727D01*
X426727Y553249D01*
Y550250D01*
Y553249D01*
X427726Y554249D01*
X428726Y553249D01*
Y550250D01*
X436724Y556248D02*
Y550250D01*
X440722D01*
X443721Y554249D02*
X445721D01*
X446720Y553249D01*
Y550250D01*
X443721D01*
X442722Y551250D01*
X443721Y552249D01*
X446720D01*
X448720Y554249D02*
Y551250D01*
X449719Y550250D01*
X452718D01*
Y549250D01*
X451719Y548251D01*
X450719D01*
X452718Y550250D02*
Y554249D01*
X457717Y550250D02*
X455717D01*
X454718Y551250D01*
Y553249D01*
X455717Y554249D01*
X457717D01*
X458716Y553249D01*
Y552249D01*
X454718D01*
X460716Y554249D02*
Y550250D01*
Y552249D01*
X461715Y553249D01*
X462715Y554249D01*
X463715D01*
X324760Y541248D02*
X328758D01*
X326759D01*
Y535250D01*
X331757D02*
X333757D01*
X334756Y536250D01*
Y538249D01*
X333757Y539249D01*
X331757D01*
X330758Y538249D01*
Y536250D01*
X331757Y535250D01*
X336756Y533251D02*
Y539249D01*
X339755D01*
X340755Y538249D01*
Y536250D01*
X339755Y535250D01*
X336756D01*
X348752Y541248D02*
Y535250D01*
X352751D01*
X355750Y539249D02*
X357749D01*
X358749Y538249D01*
Y535250D01*
X355750D01*
X354750Y536250D01*
X355750Y537249D01*
X358749D01*
X360748Y539249D02*
Y536250D01*
X361748Y535250D01*
X364747D01*
Y534250D01*
X363747Y533251D01*
X362747D01*
X364747Y535250D02*
Y539249D01*
X369745Y535250D02*
X367746D01*
X366746Y536250D01*
Y538249D01*
X367746Y539249D01*
X369745D01*
X370745Y538249D01*
Y537249D01*
X366746D01*
X372744Y539249D02*
Y535250D01*
Y537249D01*
X373744Y538249D01*
X374744Y539249D01*
X375743D01*
X384740Y538249D02*
X388739D01*
X396737Y541248D02*
Y535250D01*
X399735D01*
X400735Y536250D01*
Y537249D01*
X399735Y538249D01*
X396737D01*
X399735D01*
X400735Y539249D01*
Y540248D01*
X399735Y541248D01*
X396737D01*
X403734Y535250D02*
X405733D01*
X406733Y536250D01*
Y538249D01*
X405733Y539249D01*
X403734D01*
X402735Y538249D01*
Y536250D01*
X403734Y535250D01*
X409732Y540248D02*
Y539249D01*
X408733D01*
X410732D01*
X409732D01*
Y536250D01*
X410732Y535250D01*
X414731Y540248D02*
Y539249D01*
X413731D01*
X415730D01*
X414731D01*
Y536250D01*
X415730Y535250D01*
X419729D02*
X421728D01*
X422728Y536250D01*
Y538249D01*
X421728Y539249D01*
X419729D01*
X418729Y538249D01*
Y536250D01*
X419729Y535250D01*
X424727D02*
Y539249D01*
X425727D01*
X426727Y538249D01*
Y535250D01*
Y538249D01*
X427726Y539249D01*
X428726Y538249D01*
Y535250D01*
X436724Y541248D02*
Y535250D01*
X440722D01*
X443721Y539249D02*
X445721D01*
X446720Y538249D01*
Y535250D01*
X443721D01*
X442722Y536250D01*
X443721Y537249D01*
X446720D01*
X448720Y539249D02*
Y536250D01*
X449719Y535250D01*
X452718D01*
Y534250D01*
X451719Y533251D01*
X450719D01*
X452718Y535250D02*
Y539249D01*
X457717Y535250D02*
X455717D01*
X454718Y536250D01*
Y538249D01*
X455717Y539249D01*
X457717D01*
X458716Y538249D01*
Y537249D01*
X454718D01*
X460716Y539249D02*
Y535250D01*
Y537249D01*
X461715Y538249D01*
X462715Y539249D01*
X463715D01*
X251379Y550250D02*
Y556248D01*
X254379D01*
X255378Y555248D01*
Y553249D01*
X254379Y552249D01*
X251379D01*
X253379D02*
X255378Y550250D01*
X258377D02*
X260377D01*
X261376Y551250D01*
Y553249D01*
X260377Y554249D01*
X258377D01*
X257378Y553249D01*
Y551250D01*
X258377Y550250D01*
X263376Y554249D02*
Y551250D01*
X264375Y550250D01*
X267374D01*
Y554249D01*
X269374Y550250D02*
Y554249D01*
X272373D01*
X273372Y553249D01*
Y550250D01*
X279370Y556248D02*
Y550250D01*
X276372D01*
X275372Y551250D01*
Y553249D01*
X276372Y554249D01*
X279370D01*
X251379Y535250D02*
Y541248D01*
X254379D01*
X255378Y540248D01*
Y538249D01*
X254379Y537249D01*
X251379D01*
X253379D02*
X255378Y535250D01*
X258377D02*
X260377D01*
X261376Y536250D01*
Y538249D01*
X260377Y539249D01*
X258377D01*
X257378Y538249D01*
Y536250D01*
X258377Y535250D01*
X263376Y539249D02*
Y536250D01*
X264375Y535250D01*
X267374D01*
Y539249D01*
X269374Y535250D02*
Y539249D01*
X272373D01*
X273372Y538249D01*
Y535250D01*
X279370Y541248D02*
Y535250D01*
X276372D01*
X275372Y536250D01*
Y538249D01*
X276372Y539249D01*
X279370D01*
X200792Y550250D02*
Y556248D01*
X203791D01*
X204791Y555248D01*
Y553249D01*
X203791Y552249D01*
X200792D01*
X206790Y556248D02*
X210789D01*
X208789D01*
Y550250D01*
X212788Y556248D02*
Y550250D01*
Y553249D01*
X216787D01*
Y556248D01*
Y550250D01*
X200792Y535250D02*
Y541248D01*
X203791D01*
X204791Y540248D01*
Y538249D01*
X203791Y537249D01*
X200792D01*
X206790Y541248D02*
X210789D01*
X208789D01*
Y535250D01*
X212788Y541248D02*
Y535250D01*
Y538249D01*
X216787D01*
Y541248D01*
Y535250D01*
X89824Y550250D02*
X85826D01*
X89824Y554249D01*
Y555248D01*
X88825Y556248D01*
X86825D01*
X85826Y555248D01*
X91824D02*
X92823Y556248D01*
X94823D01*
X95822Y555248D01*
Y551250D01*
X94823Y550250D01*
X92823D01*
X91824Y551250D01*
Y555248D01*
X101820Y550250D02*
X97822D01*
X101820Y554249D01*
Y555248D01*
X100821Y556248D01*
X98821D01*
X97822Y555248D01*
X103820Y550250D02*
Y551250D01*
X104820D01*
Y550250D01*
X103820D01*
X108818Y556248D02*
X112817D01*
Y555248D01*
X108818Y551250D01*
Y550250D01*
X118815Y556248D02*
X116816Y555248D01*
X114816Y553249D01*
Y551250D01*
X115816Y550250D01*
X117815D01*
X118815Y551250D01*
Y552249D01*
X117815Y553249D01*
X114816D01*
X120814Y550250D02*
Y554249D01*
X121814D01*
X122814Y553249D01*
Y550250D01*
Y553249D01*
X123813Y554249D01*
X124813Y553249D01*
Y550250D01*
X126812D02*
X128812D01*
X127812D01*
Y554249D01*
X126812D01*
X131811Y550250D02*
X133810D01*
X132810D01*
Y556248D01*
X131811D01*
X144807Y550250D02*
X142807Y552249D01*
Y554249D01*
X144807Y556248D01*
X151804D02*
X147806D01*
Y553249D01*
X149805Y554249D01*
X150805D01*
X151804Y553249D01*
Y551250D01*
X150805Y550250D01*
X148805D01*
X147806Y551250D01*
X153804Y550250D02*
Y551250D01*
X154803D01*
Y550250D01*
X153804D01*
X158802D02*
X160801D01*
X159802D01*
Y556248D01*
X158802Y555248D01*
X167799Y556248D02*
X163800D01*
Y553249D01*
X165800Y554249D01*
X166799D01*
X167799Y553249D01*
Y551250D01*
X166799Y550250D01*
X164800D01*
X163800Y551250D01*
X169798Y555248D02*
X170798Y556248D01*
X172798D01*
X173797Y555248D01*
Y551250D01*
X172798Y550250D01*
X170798D01*
X169798Y551250D01*
Y555248D01*
X175796Y550250D02*
Y554249D01*
X176796D01*
X177796Y553249D01*
Y550250D01*
Y553249D01*
X178796Y554249D01*
X179795Y553249D01*
Y550250D01*
X181795D02*
Y554249D01*
X182794D01*
X183794Y553249D01*
Y550250D01*
Y553249D01*
X184794Y554249D01*
X185793Y553249D01*
Y550250D01*
X187793D02*
X189792Y552249D01*
Y554249D01*
X187793Y556248D01*
X85826Y535250D02*
X87825D01*
X86825D01*
Y541248D01*
X85826Y540248D01*
X94823Y541248D02*
X92823Y540248D01*
X90824Y538249D01*
Y536250D01*
X91824Y535250D01*
X93823D01*
X94823Y536250D01*
Y537249D01*
X93823Y538249D01*
X90824D01*
X96822Y535250D02*
X98821D01*
X97822D01*
Y541248D01*
X96822Y540248D01*
X101820Y535250D02*
Y536250D01*
X102820D01*
Y535250D01*
X101820D01*
X109818D02*
Y541248D01*
X106819Y538249D01*
X110818D01*
X116816Y535250D02*
X112817D01*
X116816Y539249D01*
Y540248D01*
X115816Y541248D01*
X113816D01*
X112817Y540248D01*
X118815Y535250D02*
Y539249D01*
X119815D01*
X120814Y538249D01*
Y535250D01*
Y538249D01*
X121814Y539249D01*
X122814Y538249D01*
Y535250D01*
X124813D02*
X126812D01*
X125813D01*
Y539249D01*
X124813D01*
X129811Y535250D02*
X131811D01*
X130811D01*
Y541248D01*
X129811D01*
X142807Y535250D02*
X140808Y537249D01*
Y539249D01*
X142807Y541248D01*
X148805Y535250D02*
Y541248D01*
X145806Y538249D01*
X149805D01*
X151804Y535250D02*
Y536250D01*
X152804D01*
Y535250D01*
X151804D01*
X156803D02*
X158802D01*
X157802D01*
Y541248D01*
X156803Y540248D01*
X161801D02*
X162801Y541248D01*
X164800D01*
X165800Y540248D01*
Y536250D01*
X164800Y535250D01*
X162801D01*
X161801Y536250D01*
Y540248D01*
X167799D02*
X168799Y541248D01*
X170798D01*
X171798Y540248D01*
Y536250D01*
X170798Y535250D01*
X168799D01*
X167799Y536250D01*
Y540248D01*
X173797Y535250D02*
Y539249D01*
X174797D01*
X175796Y538249D01*
Y535250D01*
Y538249D01*
X176796Y539249D01*
X177796Y538249D01*
Y535250D01*
X179795D02*
Y539249D01*
X180795D01*
X181795Y538249D01*
Y535250D01*
Y538249D01*
X182794Y539249D01*
X183794Y538249D01*
Y535250D01*
X185793D02*
X187793Y537249D01*
Y539249D01*
X185793Y541248D01*
X37838Y525248D02*
X38837Y526248D01*
X40837D01*
X41836Y525248D01*
Y524249D01*
X40837Y523249D01*
X41836Y522249D01*
Y521250D01*
X40837Y520250D01*
X38837D01*
X37838Y521250D01*
Y522249D01*
X38837Y523249D01*
X37838Y524249D01*
Y525248D01*
X38837Y523249D02*
X40837D01*
X49834Y526248D02*
X53832D01*
X51833D01*
Y520250D01*
X56831D02*
X58831D01*
X59830Y521250D01*
Y523249D01*
X58831Y524249D01*
X56831D01*
X55832Y523249D01*
Y521250D01*
X56831Y520250D01*
X62830Y525248D02*
Y524249D01*
X61830D01*
X63829D01*
X62830D01*
Y521250D01*
X63829Y520250D01*
X67828Y524249D02*
X69827D01*
X70827Y523249D01*
Y520250D01*
X67828D01*
X66828Y521250D01*
X67828Y522249D01*
X70827D01*
X72826Y520250D02*
X74826D01*
X73826D01*
Y526248D01*
X72826D01*
X41836Y550250D02*
X37838D01*
X41836Y554249D01*
Y555248D01*
X40837Y556248D01*
X38837D01*
X37838Y555248D01*
X41836Y541248D02*
X39837Y540248D01*
X37838Y538249D01*
Y536250D01*
X38837Y535250D01*
X40837D01*
X41836Y536250D01*
Y537249D01*
X40837Y538249D01*
X37838D01*
D20*
X-21750Y560750D02*
X1247696D01*
X-21750Y530750D02*
X1247696D01*
X-21750Y515750D02*
X1247696D01*
Y575750D01*
X-21750D02*
X1247696D01*
X-21750Y515750D02*
Y575750D01*
X1107436Y515750D02*
Y575750D01*
X1020860Y515750D02*
Y575750D01*
X887500Y515750D02*
Y575750D01*
X754139Y515750D02*
Y575750D01*
X668762Y515750D02*
Y575750D01*
X603779Y515750D02*
Y575750D01*
X529200Y515750D02*
Y575750D01*
X470215Y515750D02*
Y575750D01*
X320260Y515750D02*
Y575750D01*
X246880Y515750D02*
Y575750D01*
X196292Y515750D02*
Y575750D01*
X81326Y515750D02*
Y575750D01*
X33338Y515750D02*
Y575750D01*
D21*
X471634Y450949D02*
X472634Y452949D01*
X470634D02*
X472634D01*
X470634D02*
X471634Y450949D01*
X471649Y19548D02*
X472649Y21548D01*
X470649D02*
X472649D01*
X470649D02*
X471649Y19548D01*
X473410Y353331D02*
X475410D01*
Y355331D01*
X473410D02*
X475410D01*
X473410Y353331D02*
Y355331D01*
Y117110D02*
X475410D01*
Y119110D01*
X473410D02*
X475410D01*
X473410Y117110D02*
Y119110D01*
Y235221D02*
X475410D01*
Y237221D01*
X473410D02*
X475410D01*
X473410Y235221D02*
Y237221D01*
X-8500Y454000D02*
X-6500D01*
Y456000D01*
X-8500D02*
X-6500D01*
X-8500Y454000D02*
Y456000D01*
Y16500D02*
X-6500D01*
Y18500D01*
X-8500D02*
X-6500D01*
X-8500Y16500D02*
Y18500D01*
Y236500D02*
X-6500D01*
Y238500D01*
X-8500D02*
X-6500D01*
X-8500Y236500D02*
Y238500D01*
D22*
X1111936Y565250D02*
Y572448D01*
X1115535D01*
X1116735Y571248D01*
Y568849D01*
X1115535Y567649D01*
X1111936D01*
X1114335D02*
X1116735Y565250D01*
X1120333D02*
X1122733D01*
X1123932Y566450D01*
Y568849D01*
X1122733Y570048D01*
X1120333D01*
X1119134Y568849D01*
Y566450D01*
X1120333Y565250D01*
X1126332Y570048D02*
Y566450D01*
X1127531Y565250D01*
X1131130D01*
Y570048D01*
X1134729Y571248D02*
Y570048D01*
X1133529D01*
X1135928D01*
X1134729D01*
Y566450D01*
X1135928Y565250D01*
X1143126D02*
X1140727D01*
X1139527Y566450D01*
Y568849D01*
X1140727Y570048D01*
X1143126D01*
X1144326Y568849D01*
Y567649D01*
X1139527D01*
X1151523Y572448D02*
Y565250D01*
X1147925D01*
X1146725Y566450D01*
Y568849D01*
X1147925Y570048D01*
X1151523D01*
X1161120Y565250D02*
Y572448D01*
X1164719D01*
X1165919Y571248D01*
Y568849D01*
X1164719Y567649D01*
X1161120D01*
X1169518Y570048D02*
X1171917D01*
X1173116Y568849D01*
Y565250D01*
X1169518D01*
X1168318Y566450D01*
X1169518Y567649D01*
X1173116D01*
X1176715Y571248D02*
Y570048D01*
X1175516D01*
X1177915D01*
X1176715D01*
Y566450D01*
X1177915Y565250D01*
X1181514Y572448D02*
Y565250D01*
Y568849D01*
X1182713Y570048D01*
X1185112D01*
X1186312Y568849D01*
Y565250D01*
X1195909Y572448D02*
Y565250D01*
X1200708D01*
X1206705D02*
X1204306D01*
X1203107Y566450D01*
Y568849D01*
X1204306Y570048D01*
X1206705D01*
X1207905Y568849D01*
Y567649D01*
X1203107D01*
X1210304Y565250D02*
Y570048D01*
X1213903D01*
X1215103Y568849D01*
Y565250D01*
X1219901Y562851D02*
X1221101D01*
X1222301Y564050D01*
Y570048D01*
X1218702D01*
X1217502Y568849D01*
Y566450D01*
X1218702Y565250D01*
X1222301D01*
X1225899Y571248D02*
Y570048D01*
X1224700D01*
X1227099D01*
X1225899D01*
Y566450D01*
X1227099Y565250D01*
X1230698Y572448D02*
Y565250D01*
Y568849D01*
X1231897Y570048D01*
X1234297D01*
X1235496Y568849D01*
Y565250D01*
X1025360Y572448D02*
Y565250D01*
Y568849D01*
X1030159D01*
Y572448D01*
Y565250D01*
X1033757D02*
X1036157D01*
X1037356Y566450D01*
Y568849D01*
X1036157Y570048D01*
X1033757D01*
X1032558Y568849D01*
Y566450D01*
X1033757Y565250D01*
X1039756D02*
X1042155D01*
X1040955D01*
Y572448D01*
X1039756D01*
X1049352Y565250D02*
X1046953D01*
X1045754Y566450D01*
Y568849D01*
X1046953Y570048D01*
X1049352D01*
X1050552Y568849D01*
Y567649D01*
X1045754D01*
X1060149Y572448D02*
Y565250D01*
X1064947D01*
X1070945D02*
X1068546D01*
X1067347Y566450D01*
Y568849D01*
X1068546Y570048D01*
X1070945D01*
X1072145Y568849D01*
Y567649D01*
X1067347D01*
X1074544Y565250D02*
Y570048D01*
X1078143D01*
X1079343Y568849D01*
Y565250D01*
X1084141Y562851D02*
X1085341D01*
X1086541Y564050D01*
Y570048D01*
X1082942D01*
X1081742Y568849D01*
Y566450D01*
X1082942Y565250D01*
X1086541D01*
X1090139Y571248D02*
Y570048D01*
X1088940D01*
X1091339D01*
X1090139D01*
Y566450D01*
X1091339Y565250D01*
X1094938Y572448D02*
Y565250D01*
Y568849D01*
X1096137Y570048D01*
X1098537D01*
X1099736Y568849D01*
Y565250D01*
X892000Y572448D02*
Y565250D01*
Y568849D01*
X896798D01*
Y572448D01*
Y565250D01*
X900397D02*
X902796D01*
X903996Y566450D01*
Y568849D01*
X902796Y570048D01*
X900397D01*
X899197Y568849D01*
Y566450D01*
X900397Y565250D01*
X906395D02*
X908794D01*
X907594D01*
Y572448D01*
X906395D01*
X915992Y565250D02*
X913593D01*
X912393Y566450D01*
Y568849D01*
X913593Y570048D01*
X915992D01*
X917191Y568849D01*
Y567649D01*
X912393D01*
X926788Y572448D02*
X931587D01*
X929187D01*
Y565250D01*
X935186D02*
X937585D01*
X938784Y566450D01*
Y568849D01*
X937585Y570048D01*
X935186D01*
X933986Y568849D01*
Y566450D01*
X935186Y565250D01*
X941183D02*
X943583D01*
X942383D01*
Y572448D01*
X941183D01*
X950780Y565250D02*
X948381D01*
X947182Y566450D01*
Y568849D01*
X948381Y570048D01*
X950780D01*
X951980Y568849D01*
Y567649D01*
X947182D01*
X954379Y570048D02*
Y565250D01*
Y567649D01*
X955579Y568849D01*
X956779Y570048D01*
X957978D01*
X962777D02*
X965176D01*
X966375Y568849D01*
Y565250D01*
X962777D01*
X961577Y566450D01*
X962777Y567649D01*
X966375D01*
X968775Y565250D02*
Y570048D01*
X972373D01*
X973573Y568849D01*
Y565250D01*
X980771Y570048D02*
X977172D01*
X975972Y568849D01*
Y566450D01*
X977172Y565250D01*
X980771D01*
X986769D02*
X984370D01*
X983170Y566450D01*
Y568849D01*
X984370Y570048D01*
X986769D01*
X987968Y568849D01*
Y567649D01*
X983170D01*
X999965Y565250D02*
X997565Y567649D01*
Y570048D01*
X999965Y572448D01*
X1003563Y568849D02*
X1008362D01*
X1010761Y565250D02*
X1013160Y567649D01*
Y570048D01*
X1010761Y572448D01*
X758639D02*
Y565250D01*
Y568849D01*
X763437D01*
Y572448D01*
Y565250D01*
X767036D02*
X769435D01*
X770635Y566450D01*
Y568849D01*
X769435Y570048D01*
X767036D01*
X765836Y568849D01*
Y566450D01*
X767036Y565250D01*
X773034D02*
X775433D01*
X774234D01*
Y572448D01*
X773034D01*
X782631Y565250D02*
X780232D01*
X779032Y566450D01*
Y568849D01*
X780232Y570048D01*
X782631D01*
X783830Y568849D01*
Y567649D01*
X779032D01*
X793427Y572448D02*
X798226D01*
X795827D01*
Y565250D01*
X801825D02*
X804224D01*
X805424Y566450D01*
Y568849D01*
X804224Y570048D01*
X801825D01*
X800625Y568849D01*
Y566450D01*
X801825Y565250D01*
X807823D02*
X810222D01*
X809022D01*
Y572448D01*
X807823D01*
X817420Y565250D02*
X815020D01*
X813821Y566450D01*
Y568849D01*
X815020Y570048D01*
X817420D01*
X818619Y568849D01*
Y567649D01*
X813821D01*
X821019Y570048D02*
Y565250D01*
Y567649D01*
X822218Y568849D01*
X823418Y570048D01*
X824617D01*
X829416D02*
X831815D01*
X833015Y568849D01*
Y565250D01*
X829416D01*
X828216Y566450D01*
X829416Y567649D01*
X833015D01*
X835414Y565250D02*
Y570048D01*
X839013D01*
X840212Y568849D01*
Y565250D01*
X847410Y570048D02*
X843811D01*
X842612Y568849D01*
Y566450D01*
X843811Y565250D01*
X847410D01*
X853408D02*
X851009D01*
X849809Y566450D01*
Y568849D01*
X851009Y570048D01*
X853408D01*
X854608Y568849D01*
Y567649D01*
X849809D01*
X866604Y565250D02*
X864205Y567649D01*
Y570048D01*
X866604Y572448D01*
X870203Y568849D02*
X875001D01*
X872602Y571248D02*
Y566450D01*
X877400Y565250D02*
X879799Y567649D01*
Y570048D01*
X877400Y572448D01*
X673262D02*
Y565250D01*
X676861D01*
X678061Y566450D01*
Y571248D01*
X676861Y572448D01*
X673262D01*
X684059Y565250D02*
X681660D01*
X680460Y566450D01*
Y568849D01*
X681660Y570048D01*
X684059D01*
X685258Y568849D01*
Y567649D01*
X680460D01*
X687658Y565250D02*
X691257D01*
X692456Y566450D01*
X691257Y567649D01*
X688857D01*
X687658Y568849D01*
X688857Y570048D01*
X692456D01*
X699654D02*
X696055D01*
X694855Y568849D01*
Y566450D01*
X696055Y565250D01*
X699654D01*
X702053Y570048D02*
Y565250D01*
Y567649D01*
X703253Y568849D01*
X704452Y570048D01*
X705652D01*
X709251Y565250D02*
X711650D01*
X710450D01*
Y570048D01*
X709251D01*
X715249Y562851D02*
Y570048D01*
X718848D01*
X720047Y568849D01*
Y566450D01*
X718848Y565250D01*
X715249D01*
X723646Y571248D02*
Y570048D01*
X722446D01*
X724846D01*
X723646D01*
Y566450D01*
X724846Y565250D01*
X728444D02*
X730844D01*
X729644D01*
Y570048D01*
X728444D01*
X735642Y565250D02*
X738041D01*
X739241Y566450D01*
Y568849D01*
X738041Y570048D01*
X735642D01*
X734443Y568849D01*
Y566450D01*
X735642Y565250D01*
X741640D02*
Y570048D01*
X745239D01*
X746439Y568849D01*
Y565250D01*
X608279Y572448D02*
X613078D01*
X610679D01*
Y565250D01*
X619076D02*
X616677D01*
X615477Y566450D01*
Y568849D01*
X616677Y570048D01*
X619076D01*
X620276Y568849D01*
Y567649D01*
X615477D01*
X622675Y565250D02*
Y570048D01*
X623874D01*
X625074Y568849D01*
Y565250D01*
Y568849D01*
X626274Y570048D01*
X627473Y568849D01*
Y565250D01*
X629873Y562851D02*
Y570048D01*
X633471D01*
X634671Y568849D01*
Y566450D01*
X633471Y565250D01*
X629873D01*
X637070D02*
X639469D01*
X638270D01*
Y572448D01*
X637070D01*
X644268Y570048D02*
X646667D01*
X647867Y568849D01*
Y565250D01*
X644268D01*
X643068Y566450D01*
X644268Y567649D01*
X647867D01*
X651466Y571248D02*
Y570048D01*
X650266D01*
X652665D01*
X651466D01*
Y566450D01*
X652665Y565250D01*
X659863D02*
X657464D01*
X656264Y566450D01*
Y568849D01*
X657464Y570048D01*
X659863D01*
X661062Y568849D01*
Y567649D01*
X656264D01*
X533700Y565250D02*
Y572448D01*
X537298D01*
X538498Y571248D01*
Y568849D01*
X537298Y567649D01*
X533700D01*
X542097Y570048D02*
X544496D01*
X545696Y568849D01*
Y565250D01*
X542097D01*
X540897Y566450D01*
X542097Y567649D01*
X545696D01*
X552893Y572448D02*
Y565250D01*
X549295D01*
X548095Y566450D01*
Y568849D01*
X549295Y570048D01*
X552893D01*
X567289Y571248D02*
X566089Y572448D01*
X563690D01*
X562490Y571248D01*
Y570048D01*
X563690Y568849D01*
X566089D01*
X567289Y567649D01*
Y566450D01*
X566089Y565250D01*
X563690D01*
X562490Y566450D01*
X569688Y572448D02*
Y565250D01*
Y568849D01*
X570888Y570048D01*
X573287D01*
X574486Y568849D01*
Y565250D01*
X578085Y570048D02*
X580484D01*
X581684Y568849D01*
Y565250D01*
X578085D01*
X576886Y566450D01*
X578085Y567649D01*
X581684D01*
X584083Y562851D02*
Y570048D01*
X587682D01*
X588882Y568849D01*
Y566450D01*
X587682Y565250D01*
X584083D01*
X594880D02*
X592481D01*
X591281Y566450D01*
Y568849D01*
X592481Y570048D01*
X594880D01*
X596079Y568849D01*
Y567649D01*
X591281D01*
X474715Y572448D02*
Y567649D01*
X477114Y565250D01*
X479513Y567649D01*
Y572448D01*
X481912Y565250D02*
X484312D01*
X483112D01*
Y570048D01*
X481912D01*
X489110D02*
X491509D01*
X492709Y568849D01*
Y565250D01*
X489110D01*
X487911Y566450D01*
X489110Y567649D01*
X492709D01*
X495108Y565250D02*
X499907Y570048D01*
X502306Y565250D02*
Y572448D01*
X505905D01*
X507104Y571248D01*
Y568849D01*
X505905Y567649D01*
X502306D01*
X510703Y570048D02*
X513102D01*
X514302Y568849D01*
Y565250D01*
X510703D01*
X509504Y566450D01*
X510703Y567649D01*
X514302D01*
X521500Y572448D02*
Y565250D01*
X517901D01*
X516701Y566450D01*
Y568849D01*
X517901Y570048D01*
X521500D01*
X324760Y572448D02*
Y565250D01*
X328359D01*
X329558Y566450D01*
Y571248D01*
X328359Y572448D01*
X324760D01*
X331957Y570048D02*
Y565250D01*
Y567649D01*
X333157Y568849D01*
X334357Y570048D01*
X335556D01*
X339155Y565250D02*
X341554D01*
X340355D01*
Y570048D01*
X339155D01*
X345153Y565250D02*
X347552D01*
X346353D01*
Y572448D01*
X345153D01*
X351151Y565250D02*
X353550D01*
X352351D01*
Y572448D01*
X351151D01*
X364347D02*
Y565250D01*
X369145D01*
X372744Y570048D02*
X375143D01*
X376343Y568849D01*
Y565250D01*
X372744D01*
X371545Y566450D01*
X372744Y567649D01*
X376343D01*
X378742Y570048D02*
Y566450D01*
X379942Y565250D01*
X383541D01*
Y564050D01*
X382341Y562851D01*
X381141D01*
X383541Y565250D02*
Y570048D01*
X389539Y565250D02*
X387140D01*
X385940Y566450D01*
Y568849D01*
X387140Y570048D01*
X389539D01*
X390738Y568849D01*
Y567649D01*
X385940D01*
X393138Y570048D02*
Y565250D01*
Y567649D01*
X394337Y568849D01*
X395537Y570048D01*
X396736D01*
X407533Y565250D02*
Y572448D01*
X411132D01*
X412331Y571248D01*
Y568849D01*
X411132Y567649D01*
X407533D01*
X415930Y570048D02*
X418329D01*
X419529Y568849D01*
Y565250D01*
X415930D01*
X414731Y566450D01*
X415930Y567649D01*
X419529D01*
X421928Y565250D02*
X424328D01*
X423128D01*
Y570048D01*
X421928D01*
X427926D02*
Y565250D01*
Y567649D01*
X429126Y568849D01*
X430326Y570048D01*
X431525D01*
X251379Y572448D02*
Y565250D01*
Y568849D01*
X256178D01*
Y572448D01*
Y565250D01*
X259777D02*
X262176D01*
X263376Y566450D01*
Y568849D01*
X262176Y570048D01*
X259777D01*
X258577Y568849D01*
Y566450D01*
X259777Y565250D01*
X265775D02*
X268174D01*
X266974D01*
Y572448D01*
X265775D01*
X275372Y565250D02*
X272972D01*
X271773Y566450D01*
Y568849D01*
X272972Y570048D01*
X275372D01*
X276571Y568849D01*
Y567649D01*
X271773D01*
X286168Y572448D02*
X290967D01*
X288567D01*
Y565250D01*
X293366Y570048D02*
Y566450D01*
X294566Y565250D01*
X298164D01*
Y564050D01*
X296965Y562851D01*
X295765D01*
X298164Y565250D02*
Y570048D01*
X300564Y562851D02*
Y570048D01*
X304162D01*
X305362Y568849D01*
Y566450D01*
X304162Y565250D01*
X300564D01*
X311360D02*
X308961D01*
X307761Y566450D01*
Y568849D01*
X308961Y570048D01*
X311360D01*
X312560Y568849D01*
Y567649D01*
X307761D01*
X200792Y565250D02*
Y572448D01*
X204391D01*
X205590Y571248D01*
Y568849D01*
X204391Y567649D01*
X200792D01*
X207990Y565250D02*
X210389D01*
X209189D01*
Y572448D01*
X207990D01*
X215187Y570048D02*
X217586D01*
X218786Y568849D01*
Y565250D01*
X215187D01*
X213988Y566450D01*
X215187Y567649D01*
X218786D01*
X222385Y571248D02*
Y570048D01*
X221185D01*
X223585D01*
X222385D01*
Y566450D01*
X223585Y565250D01*
X230782D02*
X228383D01*
X227183Y566450D01*
Y568849D01*
X228383Y570048D01*
X230782D01*
X231982Y568849D01*
Y567649D01*
X227183D01*
X239179Y572448D02*
Y565250D01*
X235581D01*
X234381Y566450D01*
Y568849D01*
X235581Y570048D01*
X239179D01*
X85826Y572448D02*
Y565250D01*
Y568849D01*
X90624D01*
Y572448D01*
Y565250D01*
X94223D02*
X96622D01*
X97822Y566450D01*
Y568849D01*
X96622Y570048D01*
X94223D01*
X93023Y568849D01*
Y566450D01*
X94223Y565250D01*
X100221D02*
X102620D01*
X101421D01*
Y572448D01*
X100221D01*
X109818Y565250D02*
X107419D01*
X106219Y566450D01*
Y568849D01*
X107419Y570048D01*
X109818D01*
X111018Y568849D01*
Y567649D01*
X106219D01*
X125413Y571248D02*
X124213Y572448D01*
X121814D01*
X120614Y571248D01*
Y570048D01*
X121814Y568849D01*
X124213D01*
X125413Y567649D01*
Y566450D01*
X124213Y565250D01*
X121814D01*
X120614Y566450D01*
X127812Y565250D02*
X130211D01*
X129012D01*
Y570048D01*
X127812D01*
X133810D02*
X138609D01*
X133810Y565250D01*
X138609D01*
X144607D02*
X142207D01*
X141008Y566450D01*
Y568849D01*
X142207Y570048D01*
X144607D01*
X145806Y568849D01*
Y567649D01*
X141008D01*
X42636Y571248D02*
X41436Y572448D01*
X39037D01*
X37838Y571248D01*
Y566450D01*
X39037Y565250D01*
X41436D01*
X42636Y566450D01*
X46235Y565250D02*
X48634D01*
X49834Y566450D01*
Y568849D01*
X48634Y570048D01*
X46235D01*
X45035Y568849D01*
Y566450D01*
X46235Y565250D01*
X52233Y570048D02*
Y566450D01*
X53433Y565250D01*
X57031D01*
Y570048D01*
X59431Y565250D02*
Y570048D01*
X63029D01*
X64229Y568849D01*
Y565250D01*
X67828Y571248D02*
Y570048D01*
X66628D01*
X69028D01*
X67828D01*
Y566450D01*
X69028Y565250D01*
X-7952Y571248D02*
X-9151Y572448D01*
X-11550D01*
X-12750Y571248D01*
Y570048D01*
X-11550Y568849D01*
X-9151D01*
X-7952Y567649D01*
Y566450D01*
X-9151Y565250D01*
X-11550D01*
X-12750Y566450D01*
X-5552Y570048D02*
Y566450D01*
X-4353Y565250D01*
X-754D01*
Y564050D01*
X-1953Y562851D01*
X-3153D01*
X-754Y565250D02*
Y570048D01*
X1645Y565250D02*
Y570048D01*
X2845D01*
X4045Y568849D01*
Y565250D01*
Y568849D01*
X5244Y570048D01*
X6444Y568849D01*
Y565250D01*
X8843Y572448D02*
Y565250D01*
X12442D01*
X13642Y566450D01*
Y567649D01*
Y568849D01*
X12442Y570048D01*
X8843D01*
X17240Y565250D02*
X19639D01*
X20839Y566450D01*
Y568849D01*
X19639Y570048D01*
X17240D01*
X16041Y568849D01*
Y566450D01*
X17240Y565250D01*
X23238D02*
X25638D01*
X24438D01*
Y572448D01*
X23238D01*
M02*
