G04*
G04 #@! TF.GenerationSoftware,Altium Limited,Altium Designer,21.6.1 (37)*
G04*
G04 Layer_Physical_Order=1*
G04 Layer_Color=255*
%FSLAX25Y25*%
%MOIN*%
G70*
G04*
G04 #@! TF.SameCoordinates,532E04BB-9670-4093-A683-9B17944729E4*
G04*
G04*
G04 #@! TF.FilePolarity,Positive*
G04*
G01*
G75*
%ADD14C,0.09252*%
%ADD15C,0.04606*%
%ADD16C,0.07874*%
%ADD17C,0.16496*%
%ADD18C,0.20079*%
D14*
X471649Y5194D02*
G03*
X462279Y32712I0J15354D01*
G01*
Y32712D02*
G03*
X459508Y29948I9370J-12163D01*
G01*
X456643Y23799D02*
G03*
X457181Y15406I15006J-3251D01*
G01*
X459508Y29948D02*
G03*
X456643Y23799I12141J-9400D01*
G01*
X457181Y15406D02*
G03*
X471649Y5194I14468J5142D01*
G01*
X460063Y441855D02*
G03*
X459470Y442579I11570J10094D01*
G01*
D15*
X449739Y23556D02*
X453956Y27773D01*
X449739Y23556D02*
Y29643D01*
Y20272D02*
Y23556D01*
Y20272D02*
X460556Y9456D01*
X453941Y442854D02*
X459470D01*
X459237Y29587D02*
X459975D01*
X460541Y463041D02*
X464941Y467441D01*
X456727Y24167D02*
X457220Y23674D01*
X449724Y452224D02*
X460541Y463041D01*
X451307Y29587D02*
X459237D01*
X459470Y442854D02*
X459854D01*
X462554Y32328D02*
X462639Y32244D01*
X459982Y29587D02*
X462639Y32244D01*
X459975Y29587D02*
X459982D01*
X449823D02*
X451307D01*
X457034Y15604D02*
X457737D01*
X449724Y448941D02*
Y452224D01*
Y442854D02*
Y448941D01*
Y442854D02*
X453941D01*
Y444725D01*
X449724Y448941D02*
X453941Y444725D01*
X459854Y442854D02*
X459938Y442939D01*
X226063Y232835D02*
X232835D01*
X226063Y226063D02*
Y232835D01*
X226063Y239650D02*
X232835D01*
X226063D02*
Y246421D01*
X449724Y402224D02*
Y415768D01*
X402323Y320866D02*
Y327638D01*
X348150Y422441D02*
X361693D01*
X368465Y361496D02*
Y381811D01*
X402323Y300551D02*
X409094D01*
X429410Y402224D02*
X436181D01*
X409094Y429311D02*
X422638D01*
X415866Y354725D02*
X422638D01*
X348150Y388583D02*
X354921D01*
X422638Y341181D02*
X436181D01*
X442953Y442854D02*
Y449626D01*
X409094Y375039D02*
Y381811D01*
X361693Y435984D02*
X368465D01*
X449724Y300551D02*
Y314094D01*
X429410Y287008D02*
X442953D01*
X354921Y388583D02*
X354965Y381811D01*
X436181Y334409D02*
Y341181D01*
X442953Y381811D02*
X449724D01*
X409094Y415768D02*
Y422539D01*
Y408996D02*
X415866Y409039D01*
X348150Y449528D02*
X361693D01*
X415866Y395354D02*
X422638D01*
X429410Y314094D02*
X436181D01*
X415866Y320866D02*
Y327638D01*
X429410Y266693D02*
Y273465D01*
X436181Y415768D02*
Y422539D01*
X382008Y375040D02*
Y381811D01*
X361693Y442756D02*
X368465D01*
X415866Y381811D02*
X422638D01*
X415866Y402224D02*
Y408996D01*
X422638Y293780D02*
X436181D01*
X361693Y347953D02*
Y354725D01*
X449724Y259921D02*
Y273465D01*
X348150Y442756D02*
X354921D01*
X415866Y307323D02*
Y314094D01*
X402323Y361496D02*
Y375039D01*
X415866Y415768D02*
Y422539D01*
X368465Y347953D02*
Y354725D01*
X415866Y375039D02*
X436181D01*
X368465Y402126D02*
Y408898D01*
X442953Y293780D02*
Y300551D01*
X429410Y368268D02*
X442953D01*
Y280236D02*
X449724D01*
X429410Y442854D02*
Y449626D01*
X388779Y375040D02*
X395551D01*
X422638Y334409D02*
Y341181D01*
X415823Y361496D02*
X415866Y354725D01*
X442953Y402224D02*
Y408996D01*
X402323Y293780D02*
X415866D01*
X402323Y375039D02*
X409094D01*
X368465Y415669D02*
Y435984D01*
X442953Y300551D02*
X449724D01*
X442953Y280236D02*
Y287008D01*
X375236Y408898D02*
X382008D01*
X449724Y239606D02*
Y253150D01*
X415866Y361496D02*
X422638D01*
X402323Y307323D02*
X409094D01*
X442953Y415768D02*
Y422539D01*
X361693Y408898D02*
X368465D01*
X436181Y375039D02*
Y381811D01*
X442953Y293780D02*
X449724D01*
X429410Y442854D02*
X436181D01*
X388779Y375040D02*
Y381811D01*
X415866Y334409D02*
X422638D01*
X436181Y408996D02*
X442953Y409039D01*
X422638Y347953D02*
Y354725D01*
X402323Y293780D02*
Y300551D01*
X348150Y429213D02*
Y435984D01*
X402323Y395354D02*
X409094D01*
X442953Y314094D02*
X449724D01*
X442953Y253150D02*
X449724D01*
X429410Y280236D02*
Y287008D01*
X442953Y442854D02*
X449724D01*
X368465Y388583D02*
Y395354D01*
X442953Y320866D02*
X449724D01*
X375236Y375040D02*
Y388583D01*
X402323Y327638D02*
X409094D01*
X449724Y422539D02*
Y436083D01*
X402323Y442854D02*
Y449528D01*
X422638Y402224D02*
Y415768D01*
X361693Y442756D02*
Y449528D01*
X422638Y381811D02*
Y395354D01*
X436181Y293780D02*
Y300551D01*
X442953Y273465D02*
X449724D01*
X442953Y334409D02*
X449724D01*
X388780Y449528D02*
X402323D01*
X395551Y395354D02*
Y402126D01*
X361693Y388583D02*
X368465D01*
X442953Y320866D02*
Y327638D01*
X436181Y402224D02*
Y408996D01*
X409094Y347953D02*
X422638D01*
X415866Y300551D02*
X422638D01*
X348150Y435984D02*
X354921D01*
X409094Y388583D02*
Y395354D01*
X442953Y307323D02*
Y314094D01*
X422638Y442854D02*
Y449626D01*
X449724Y361496D02*
Y375039D01*
X382008Y402126D02*
Y408898D01*
X442953Y266693D02*
Y273465D01*
X429410Y280236D02*
X436181D01*
X402323Y381811D02*
X409094D01*
X442953Y253150D02*
Y259921D01*
X409094Y388539D02*
X415866Y388583D01*
X354921Y442756D02*
X354965Y435984D01*
X402323Y402224D02*
Y415768D01*
X429410Y300551D02*
Y314094D01*
X429410Y266693D02*
X442953D01*
X415866Y293780D02*
Y300551D01*
X429410Y402224D02*
Y415768D01*
X402323Y354725D02*
X409094D01*
X422638Y307323D02*
Y327638D01*
X409094Y347953D02*
Y354725D01*
X422638Y293780D02*
Y300551D01*
X442953Y347953D02*
Y354725D01*
Y259921D02*
X449724D01*
X429410Y273465D02*
X436181D01*
X429410Y300551D02*
X436181D01*
X348150Y442756D02*
Y449528D01*
X415866Y388583D02*
Y395354D01*
X402323Y402224D02*
X409094D01*
X436181Y307323D02*
Y314094D01*
X375236Y429213D02*
Y442756D01*
X388780Y395354D02*
X395551D01*
X409094Y334409D02*
X409138Y327638D01*
X429410Y429311D02*
Y436083D01*
X382008Y388583D02*
Y395354D01*
X368465Y442756D02*
Y449528D01*
X415866Y375039D02*
Y381811D01*
X415866Y307323D02*
X422638D01*
X415866Y402224D02*
X422638D01*
X402323Y442854D02*
X409094D01*
X388780Y402126D02*
Y408898D01*
X348150Y402126D02*
Y408898D01*
X429410Y395354D02*
X436181D01*
X449724Y280236D02*
Y293780D01*
X388780Y429213D02*
X395551D01*
X422638Y361496D02*
Y368268D01*
X442953Y422539D02*
X449724D01*
X402323Y307323D02*
Y314094D01*
X415866Y422539D02*
X436181D01*
X368465Y449528D02*
X382008D01*
X402323Y361496D02*
X409094D01*
X402323Y314094D02*
X415866D01*
X402323Y347953D02*
Y354725D01*
X429410Y415768D02*
X436181D01*
X415866Y327638D02*
X422638D01*
X442953Y436083D02*
X449724D01*
X375236Y388583D02*
X382008D01*
X402323Y320866D02*
X415866D01*
X361693Y361496D02*
Y368268D01*
X429410Y449626D02*
X442953D01*
X368465Y395354D02*
X382008D01*
X402323Y334409D02*
X409094D01*
X442953Y361496D02*
Y368268D01*
X395551Y408898D02*
Y422441D01*
X429410Y436083D02*
X436181D01*
X375236Y375040D02*
X382008D01*
X402323Y334409D02*
Y341181D01*
X449724Y341181D02*
Y354725D01*
X429410Y429311D02*
X442953D01*
X395551Y375040D02*
Y388583D01*
X402323Y341181D02*
X415866D01*
X382008Y381811D02*
X388779Y381854D01*
X436181Y442854D02*
X436225Y436083D01*
X415866Y334409D02*
Y341181D01*
X442953Y354725D02*
X449724D01*
X348150Y375040D02*
X361693D01*
X429410Y334409D02*
X436181D01*
X348150Y381811D02*
X354921D01*
X429410Y320866D02*
Y334409D01*
X348150Y388583D02*
Y395354D01*
X429410Y320866D02*
X436181D01*
X348150Y375040D02*
Y381811D01*
X436181Y320866D02*
Y327638D01*
X348150Y395354D02*
X361693D01*
X449724Y320866D02*
Y334409D01*
X361693Y381811D02*
X368465D01*
X442953Y334409D02*
Y341181D01*
X436181Y388539D02*
X442953Y388583D01*
X354921Y415669D02*
X354965Y408898D01*
X442953Y341181D02*
X449724D01*
X375236Y354725D02*
X382008D01*
X382008Y415626D02*
X388780Y415669D01*
X422638Y429311D02*
Y436083D01*
X429410Y347953D02*
X442953D01*
X375236Y422441D02*
X382008D01*
X415866Y442854D02*
X422638D01*
X429410Y347953D02*
Y354725D01*
X415823Y442854D02*
X415866Y436083D01*
X382008Y415669D02*
Y422441D01*
X429410Y354725D02*
X436181D01*
X429410Y361496D02*
X436181D01*
X402323Y436083D02*
X409094D01*
X388780Y415669D02*
Y422441D01*
X429410Y361496D02*
Y368268D01*
X402323Y422539D02*
Y436083D01*
X368465Y402126D02*
X382008D01*
X442953Y388583D02*
Y395354D01*
X388780Y442756D02*
X395551D01*
X388780Y422441D02*
X395551D01*
X409094Y429311D02*
Y436083D01*
X442953Y361496D02*
X449724D01*
X409094Y402224D02*
Y408996D01*
X361693Y415669D02*
X368465D01*
X442953Y375039D02*
X449724D01*
X402323Y422539D02*
X409094D01*
X361693Y415669D02*
Y422441D01*
X442953Y375039D02*
Y381811D01*
X415866Y436083D02*
X422638D01*
X388780Y408898D02*
X395551D01*
X348150Y415669D02*
Y422441D01*
X449724Y381811D02*
Y395354D01*
X348150Y415669D02*
X354921D01*
X442953Y395354D02*
X449724D01*
X348150Y408898D02*
X354921D01*
X436181Y388583D02*
Y395354D01*
X348150Y402126D02*
X361693D01*
X429410Y381811D02*
Y395354D01*
Y381811D02*
X436181D01*
X348150Y354725D02*
X354921D01*
X436181Y307280D02*
X442953Y307323D01*
X402323Y415768D02*
X409094D01*
X348150Y429213D02*
X361693D01*
X402323Y381811D02*
Y395354D01*
X375236Y442756D02*
X382008D01*
X388780Y347953D02*
X402323D01*
X409094Y361496D02*
Y368268D01*
X409094Y307323D02*
X409138Y300551D01*
X442953Y402224D02*
X449724D01*
X409094Y368268D02*
X422638D01*
X361693Y429213D02*
Y435984D01*
X361693Y361496D02*
X368465D01*
X382008Y442756D02*
Y449528D01*
X388780Y347953D02*
Y354725D01*
X375236Y429213D02*
X382008D01*
X388780Y354725D02*
X395551D01*
X382008Y435984D02*
X388780Y436028D01*
X388780Y368268D02*
X395551D01*
X395551Y429213D02*
Y442756D01*
X395551Y354725D02*
Y368268D01*
X388780Y429213D02*
Y435984D01*
X388780Y361496D02*
Y368268D01*
X382008Y361496D02*
Y368268D01*
X375236D02*
X382008D01*
X375236Y354725D02*
Y368268D01*
X382008Y347953D02*
Y354725D01*
X368465Y347953D02*
X382008D01*
X361693Y354725D02*
X368465D01*
X348150Y347953D02*
X361693D01*
X348150D02*
Y354725D01*
X436181Y361496D02*
X436224Y354725D01*
X409094Y449626D02*
X422638D01*
X375236Y408898D02*
Y422441D01*
X348150Y361496D02*
X354921D01*
X348150D02*
Y368268D01*
X361693D01*
Y375040D02*
Y381811D01*
X382008Y429213D02*
Y435984D01*
X388780Y388583D02*
Y395354D01*
X436181Y327638D02*
X442953Y327681D01*
X361693Y388583D02*
Y395354D01*
X409094Y442854D02*
Y449626D01*
X388780Y388583D02*
X395551D01*
X388780Y442756D02*
Y449528D01*
Y402126D02*
X395551D01*
X361693Y402126D02*
Y408898D01*
X415866Y415768D02*
X422638D01*
X442953D02*
X449724D01*
X442953Y429311D02*
Y436083D01*
X436181Y280236D02*
X436224Y273465D01*
X382008Y361453D02*
X388780Y361496D01*
X354921D02*
X354965Y354725D01*
X381909Y334409D02*
Y341181D01*
X409094Y280236D02*
Y287008D01*
X415866Y253150D02*
X422638D01*
X381909Y307323D02*
Y314094D01*
X361595Y334409D02*
X368366D01*
X348150Y293780D02*
X354823D01*
X348051Y300551D02*
X354823D01*
X388780Y266693D02*
Y273465D01*
Y253150D02*
X395551D01*
X354921Y280236D02*
Y287008D01*
X361693Y253150D02*
X368465D01*
X327638Y442854D02*
Y449626D01*
Y415768D02*
Y422540D01*
X307323Y442854D02*
X314094D01*
X293780Y408996D02*
X300551D01*
X327638Y388681D02*
Y395453D01*
Y361595D02*
Y368366D01*
X307323Y388681D02*
X314094D01*
X293780Y354823D02*
X300551D01*
X280236Y429311D02*
Y436083D01*
Y415768D02*
X287008D01*
X246378Y442854D02*
Y449626D01*
X253150Y415768D02*
X259921D01*
X287008Y348051D02*
Y354725D01*
X280236Y347953D02*
Y354725D01*
X266693Y381811D02*
X273465D01*
X246378Y361496D02*
Y368268D01*
X334508Y334409D02*
X341280D01*
X320965Y300551D02*
X327736D01*
X307421Y320866D02*
Y327638D01*
Y293780D02*
Y300551D01*
X334508Y266693D02*
Y273465D01*
Y253150D02*
X341280D01*
X300650Y280236D02*
Y287008D01*
X307421Y253150D02*
X314193D01*
X273465Y307323D02*
Y314095D01*
Y334409D02*
Y341181D01*
X253150Y334409D02*
X259921D01*
X239705Y293780D02*
X246378D01*
X280335Y266693D02*
Y273465D01*
Y253150D02*
X287106D01*
X246476Y280236D02*
Y287008D01*
X253248Y253150D02*
X260020D01*
X429410Y219291D02*
X436181D01*
X442953Y185433D02*
Y192205D01*
X409094Y198976D02*
Y205748D01*
X443051Y178662D02*
X449724D01*
X443051Y171890D02*
X449823D01*
X429508Y138031D02*
X436280D01*
X415965Y158346D02*
Y165118D01*
Y131260D02*
Y138031D01*
X402323Y219291D02*
X409094D01*
X375236Y219291D02*
X382008D01*
X388780Y185433D02*
Y192205D01*
X348150Y219291D02*
X354921D01*
Y198977D02*
Y205748D01*
X382008Y171890D02*
Y178662D01*
Y144803D02*
Y151575D01*
X361693Y171890D02*
X368465D01*
X348150Y138032D02*
X354921D01*
X443051Y104173D02*
Y110945D01*
Y90630D02*
X449823D01*
X402421Y117717D02*
Y124390D01*
X409193Y117717D02*
Y124488D01*
X415965Y90630D02*
X422736D01*
X429508Y56673D02*
X436280D01*
X443051Y22815D02*
Y29587D01*
X402421Y56673D02*
X409193D01*
Y36358D02*
Y43130D01*
X388878Y117618D02*
X395650D01*
X375335Y83760D02*
X382106D01*
X361791Y104075D02*
Y110846D01*
Y76988D02*
Y83760D01*
X388878Y63445D02*
X395650D01*
X375335Y29587D02*
X382106D01*
X361791Y49902D02*
Y56673D01*
Y22815D02*
Y29587D01*
X320965Y219291D02*
X327736D01*
X334606Y178662D02*
X341280D01*
X334508Y185433D02*
Y192205D01*
X293878Y219291D02*
X300650D01*
Y198977D02*
Y205748D01*
X334606Y171890D02*
X341378D01*
X321063Y138032D02*
X327835D01*
X307520Y158346D02*
Y165118D01*
Y131260D02*
Y138032D01*
X266791Y219291D02*
X273563D01*
X280335Y185433D02*
Y192205D01*
X239705Y219291D02*
X246476D01*
Y198977D02*
Y205748D01*
X273563Y171890D02*
Y178662D01*
Y144803D02*
Y151575D01*
X253248Y171890D02*
X260020D01*
X239705Y138032D02*
X246476D01*
X327736Y117717D02*
Y124488D01*
Y90630D02*
Y97402D01*
X307421Y117717D02*
X314193D01*
X293878Y83858D02*
X300650D01*
X327736Y63543D02*
Y70315D01*
Y36457D02*
Y43228D01*
X307421Y63543D02*
X314193D01*
X293878Y29685D02*
X300650D01*
X280335Y104173D02*
Y110945D01*
Y90630D02*
X287106D01*
X246476Y117717D02*
Y124488D01*
X253248Y90630D02*
X260020D01*
X266791Y56673D02*
X273563D01*
X287106Y22914D02*
Y29587D01*
X280335Y22815D02*
Y29587D01*
X239705Y56673D02*
X246476D01*
Y36358D02*
Y43130D01*
X226063Y429311D02*
Y436083D01*
Y415768D02*
X232835D01*
X185433Y442854D02*
Y449528D01*
X192205Y442854D02*
Y449626D01*
X198976Y415768D02*
X205748D01*
X239606Y381811D02*
X246378D01*
X212520Y381811D02*
X219291D01*
X226063Y347953D02*
Y354725D01*
X192205Y361496D02*
Y368268D01*
X171890Y442756D02*
X178662D01*
X158346Y408898D02*
X165118D01*
X144803Y429213D02*
Y435984D01*
Y402126D02*
Y408898D01*
X171890Y388583D02*
X178661D01*
X185433Y381811D02*
X192205D01*
X158346Y354725D02*
X165118D01*
X144803Y375040D02*
Y381811D01*
Y347953D02*
Y354725D01*
X226063Y334409D02*
X232835D01*
X239606Y300551D02*
X246378D01*
X212520Y300551D02*
X219291D01*
X198976Y320866D02*
Y327638D01*
Y293780D02*
Y300551D01*
X226063Y266693D02*
Y273465D01*
Y253150D02*
X232835D01*
X192205Y280236D02*
Y287008D01*
X198976Y253150D02*
X205748D01*
X165020Y334409D02*
Y341181D01*
Y307323D02*
Y314094D01*
X144705Y334409D02*
X151476D01*
X131260Y293780D02*
X137933D01*
X131161Y300551D02*
X137933D01*
X171890Y266693D02*
Y273465D01*
Y253150D02*
X178662D01*
X144803D02*
X151575D01*
X138031Y280236D02*
Y287008D01*
X110748Y442854D02*
Y449626D01*
Y415768D02*
Y422540D01*
X90433Y442854D02*
X97205D01*
X76890Y408996D02*
X83662D01*
X110748Y388681D02*
Y395453D01*
Y361595D02*
Y368366D01*
X90433Y388681D02*
X97205D01*
X76890Y354823D02*
X83662D01*
X63347Y429311D02*
Y436083D01*
Y415768D02*
X70118D01*
X36260D02*
X43032D01*
X29488Y442854D02*
Y449626D01*
X49803Y381811D02*
X56575D01*
X70118Y348051D02*
Y354725D01*
X63346Y347953D02*
Y354725D01*
X22717Y381811D02*
X29488D01*
Y361496D02*
Y368268D01*
X117618Y334409D02*
X124390D01*
X104075Y300551D02*
X110846D01*
X90532Y320866D02*
Y327638D01*
Y293780D02*
Y300551D01*
X117618Y266693D02*
Y273465D01*
Y253150D02*
X124390D01*
X83760Y280236D02*
Y287008D01*
X90532Y253150D02*
X97303D01*
X56575Y307323D02*
Y314095D01*
Y334409D02*
Y341181D01*
X36260Y334409D02*
X43031D01*
X22717Y300551D02*
X29488D01*
X22815Y293780D02*
X29488D01*
X63445Y266693D02*
Y273465D01*
Y253150D02*
X70217D01*
X29587Y280236D02*
Y287008D01*
X36358Y253150D02*
X43130D01*
X212520Y219291D02*
X219291D01*
X226063Y185433D02*
Y192205D01*
X185433Y219291D02*
X192205D01*
Y198976D02*
Y205748D01*
X226162Y178662D02*
X232835D01*
X226162Y171890D02*
X232933D01*
X212618Y138031D02*
X219390D01*
X199075Y158346D02*
Y165118D01*
Y131260D02*
Y138031D01*
X158346Y219291D02*
X165118D01*
X171890Y185433D02*
Y192205D01*
X131260Y219291D02*
X138032D01*
Y198977D02*
Y205748D01*
X165118Y171890D02*
Y178662D01*
Y144803D02*
Y151575D01*
X144803Y171890D02*
X151575D01*
X131260Y138032D02*
X138032D01*
X226162Y104173D02*
Y110945D01*
Y90630D02*
X232933D01*
X185531Y117717D02*
Y124390D01*
X192303Y117717D02*
Y124488D01*
X199075Y90630D02*
X205847D01*
X212618Y56673D02*
X219390D01*
X226162Y22815D02*
Y29587D01*
X185531Y56673D02*
X192303D01*
Y36358D02*
Y43130D01*
X171988Y117618D02*
X178760D01*
X158445Y83760D02*
X165217D01*
X144902Y104075D02*
Y110846D01*
Y76988D02*
Y83760D01*
X171988Y63445D02*
X178760D01*
X158445Y29587D02*
X165217D01*
X144902Y49902D02*
Y56673D01*
Y22815D02*
Y29587D01*
X104075Y219291D02*
X110846D01*
X117618Y185433D02*
Y192205D01*
X76988Y219291D02*
X83760D01*
Y198977D02*
Y205748D01*
X117717Y178662D02*
X124390D01*
X117717Y171890D02*
X124488D01*
X104173Y138032D02*
X110945D01*
X90630Y158346D02*
Y165118D01*
Y131260D02*
Y138032D01*
X49902Y219291D02*
X56673D01*
X63445Y185433D02*
Y192205D01*
X22815Y219291D02*
X29587D01*
Y198977D02*
Y205748D01*
X56673Y171890D02*
Y178662D01*
Y144803D02*
Y151575D01*
X36358Y171890D02*
X43130D01*
X22815Y138032D02*
X29587D01*
X110847Y117717D02*
Y124488D01*
Y90630D02*
Y97402D01*
X90532Y117717D02*
X97303D01*
X76988Y83858D02*
X83760D01*
X110846Y63543D02*
Y70315D01*
Y36457D02*
Y43228D01*
X90532Y63543D02*
X97303D01*
X76988Y29685D02*
X83760D01*
X63445Y104173D02*
Y110945D01*
Y90630D02*
X70217D01*
X29587Y117717D02*
Y124488D01*
X36358Y90630D02*
X43130D01*
X49902Y56673D02*
X56673D01*
X70217Y22914D02*
Y29587D01*
X63445Y22815D02*
Y29587D01*
X22815Y56673D02*
X29587D01*
Y36358D02*
Y43130D01*
X232835Y219291D02*
Y232835D01*
X232835Y239650D02*
Y253150D01*
X239705Y239606D02*
Y253150D01*
X246476D01*
X239705Y239606D02*
X246476D01*
Y246378D01*
X14941Y449626D02*
X22717D01*
X415866Y273465D02*
X422638D01*
X409094Y266693D02*
X422638D01*
X409094D02*
Y273465D01*
X402323D02*
X409094D01*
X422638Y266693D02*
Y273465D01*
X409094Y287008D02*
X422638D01*
X415823Y280236D02*
X415866Y273465D01*
Y280236D02*
X422638D01*
Y287008D01*
X402323Y259921D02*
Y273465D01*
X409094Y239606D02*
Y246378D01*
X402323Y259921D02*
X409094D01*
Y253150D02*
Y259921D01*
X402323Y253150D02*
X409094D01*
X402323Y239606D02*
Y253150D01*
Y239606D02*
X409094D01*
Y246378D02*
X415866Y246421D01*
X422638Y239606D02*
Y253150D01*
X415866Y239606D02*
Y246378D01*
Y239606D02*
X422638D01*
X415866Y253150D02*
Y259921D01*
X436181D01*
X442953Y239606D02*
X449724D01*
X442953D02*
Y246378D01*
X436181D02*
X442953Y246421D01*
X436181Y239606D02*
Y246378D01*
X429410Y239606D02*
X436181D01*
X429410D02*
Y253150D01*
X436181D01*
Y259921D01*
X402323Y280236D02*
Y287008D01*
Y280236D02*
X409094D01*
X395551Y287008D02*
X402323D01*
X395551Y280236D02*
Y287008D01*
X388780Y280236D02*
X395551D01*
X388780D02*
Y287008D01*
X375236D02*
X388780D01*
X375236Y280236D02*
Y287008D01*
Y280236D02*
X382008D01*
X382051Y273465D01*
X375236Y266693D02*
X388780D01*
X375236Y273465D02*
X382008D01*
X375236Y266693D02*
Y273465D01*
X388780Y273465D02*
X395551D01*
Y259921D02*
Y273465D01*
X382008Y253150D02*
Y259921D01*
X375236Y253150D02*
X382008D01*
X375236Y239606D02*
Y253150D01*
Y239606D02*
X382008D01*
Y246378D01*
X388780Y246421D01*
X395551Y239606D02*
Y253150D01*
X388780Y239606D02*
Y246378D01*
Y239606D02*
X395551D01*
X388780Y253150D02*
Y259921D01*
X395551D01*
X361693D02*
X382008D01*
X361693Y253150D02*
Y259921D01*
X361693Y239606D02*
X368465D01*
X361693D02*
Y246378D01*
X368465Y239606D02*
Y253150D01*
X354921Y246378D02*
X361693Y246421D01*
X348150Y239606D02*
X354921D01*
X348150D02*
Y253150D01*
X354921D01*
Y259921D01*
X348150D02*
X354921D01*
Y239606D02*
Y246378D01*
X348150Y259921D02*
Y273465D01*
X368465Y280236D02*
Y287008D01*
X361693Y280236D02*
X368465D01*
X361650D02*
X361693Y273465D01*
X354921Y287008D02*
X368465D01*
Y266693D02*
Y273465D01*
X348150D02*
X354921D01*
Y266693D02*
Y273465D01*
Y266693D02*
X368465D01*
X361693Y273465D02*
X368465D01*
X348150Y280236D02*
Y293780D01*
Y280236D02*
X354921D01*
X354823Y293780D02*
Y300551D01*
X361595Y307323D02*
Y314094D01*
X368366Y300551D02*
Y314094D01*
X361595Y300551D02*
X368366D01*
X361595Y293780D02*
Y300551D01*
Y314094D02*
X368366D01*
X348051Y300551D02*
Y314094D01*
X354823Y307280D02*
X361595Y307323D01*
X354823D02*
Y314094D01*
X348051D02*
X354823D01*
X361595Y293780D02*
X375138D01*
X388681Y300551D02*
X395453D01*
X375138Y293780D02*
Y300551D01*
X381909D01*
Y293780D02*
Y300551D01*
Y293780D02*
X395453D01*
Y300551D01*
X388638Y307323D02*
X388681Y300551D01*
X381909Y314094D02*
X395453D01*
X388681Y307323D02*
X395453D01*
Y314094D01*
X375138Y307323D02*
X381909D01*
X375138D02*
Y327638D01*
Y334409D02*
Y341181D01*
Y334409D02*
X381909D01*
X395453Y334409D02*
Y341181D01*
X388681Y334409D02*
X395453D01*
X381909Y341181D02*
X395453D01*
X388638Y334409D02*
X388681Y327638D01*
X395453D01*
Y320866D02*
Y327638D01*
X381909Y320866D02*
X395453D01*
X381909D02*
Y327638D01*
X375138D02*
X381909D01*
X361595Y341181D02*
X375138D01*
X361595Y334409D02*
Y341181D01*
X361595Y320866D02*
X368366D01*
X361595D02*
Y327638D01*
X368366Y320866D02*
Y334409D01*
X354823Y327638D02*
X361595Y327681D01*
X354823Y320866D02*
Y327638D01*
X348051Y320866D02*
X354823D01*
X348051D02*
Y334409D01*
X354823D01*
Y341181D01*
X334508D02*
X354823D01*
X239606Y341181D02*
X246378D01*
Y334409D02*
Y341181D01*
X239606Y334409D02*
X246378D01*
X239606Y320866D02*
Y334409D01*
Y320866D02*
X246378D01*
Y327638D01*
X253150Y327681D01*
X259921Y320866D02*
Y334409D01*
X253150Y320866D02*
Y327638D01*
Y320866D02*
X259921D01*
X253150Y334409D02*
Y341181D01*
X266693D01*
Y327638D02*
X273465D01*
Y320866D02*
Y327638D01*
Y320866D02*
X287008D01*
Y327638D01*
X280236D02*
X287008D01*
X280193Y334409D02*
X280236Y327638D01*
X273465Y341181D02*
X287008D01*
X280236Y334409D02*
X287008D01*
Y341181D01*
X266693Y334409D02*
X273465D01*
X266693D02*
Y341181D01*
Y307323D02*
Y327638D01*
Y307323D02*
X273465D01*
X287008Y307323D02*
Y314095D01*
X280236Y307323D02*
X287008D01*
X273465Y314095D02*
X287008D01*
X280193Y307323D02*
X280236Y300551D01*
X287008Y293780D02*
Y300551D01*
X273465Y293780D02*
X287008D01*
X273465D02*
Y300551D01*
X266693D02*
X273465D01*
X266693Y293780D02*
Y300551D01*
X280236D02*
X287008D01*
X253150Y293780D02*
X266693D01*
X239606Y314095D02*
X246378D01*
Y307323D02*
Y314095D01*
Y307280D02*
X253150Y307323D01*
X239606Y300551D02*
Y314095D01*
X253150D02*
X259921D01*
X253150Y293780D02*
Y300551D01*
X259921D01*
Y314095D01*
X253150Y307323D02*
Y314095D01*
X246378Y293780D02*
Y300551D01*
X239705Y280236D02*
X246476D01*
X239705D02*
Y293780D01*
X253248Y273465D02*
X260020D01*
X246476Y266693D02*
X260020D01*
X246476D02*
Y273465D01*
X239705D02*
X246476D01*
X260020Y266693D02*
Y273465D01*
X246476Y287008D02*
X260020D01*
X253205Y280236D02*
X253248Y273465D01*
Y280236D02*
X260020D01*
Y287008D01*
X239705Y259921D02*
Y273465D01*
X239705Y259921D02*
X246476D01*
Y253150D02*
Y259921D01*
Y246378D02*
X253248Y246421D01*
X260020Y239606D02*
Y253150D01*
X253248Y239606D02*
Y246378D01*
Y239606D02*
X260020D01*
X253248Y253150D02*
Y259921D01*
X273563D01*
X280335D02*
X287106D01*
X280335Y253150D02*
Y259921D01*
X280335Y239606D02*
X287106D01*
X280335D02*
Y246378D01*
X287106Y239606D02*
Y253150D01*
X273563Y246378D02*
X280335Y246421D01*
X273563Y239606D02*
Y246378D01*
X266791Y239606D02*
X273563D01*
X266791D02*
Y253150D01*
X273563D01*
Y259921D01*
X287106D02*
Y273465D01*
X280335D02*
X287106D01*
X266791Y266693D02*
Y273465D01*
X273563D01*
X266791Y266693D02*
X280335D01*
X273563Y280236D02*
X273606Y273465D01*
X266791Y280236D02*
X273563D01*
X266791D02*
Y287008D01*
X280335D01*
Y280236D02*
Y287008D01*
Y280236D02*
X287106D01*
Y287008D01*
X293878D01*
Y280236D02*
X300650D01*
X293878Y280236D02*
Y287008D01*
X341280Y280236D02*
Y293780D01*
X334508Y280236D02*
X341280D01*
X334508D02*
Y287008D01*
X320965D02*
X334508D01*
X320965Y280236D02*
Y287008D01*
Y280236D02*
X327736D01*
X327780Y273465D01*
X320965Y266693D02*
X334508D01*
X320965Y273465D02*
X327736D01*
X320965Y266693D02*
Y273465D01*
X334508Y273465D02*
X341280D01*
Y259921D02*
Y273465D01*
X327736Y253150D02*
Y259921D01*
X320965Y253150D02*
X327736D01*
X320965Y239606D02*
Y253150D01*
Y239606D02*
X327736D01*
Y246378D01*
X334508Y246421D01*
X341280Y239606D02*
Y253150D01*
X334508Y239606D02*
Y246378D01*
Y239606D02*
X341280D01*
X334508Y253150D02*
Y259921D01*
X341280D01*
X307421D02*
X327736D01*
X307421Y253150D02*
Y259921D01*
X307421Y239606D02*
X314193D01*
X307421D02*
Y246378D01*
X314193Y239606D02*
Y253150D01*
X300650Y246378D02*
X307421Y246421D01*
X293878Y239606D02*
X300650D01*
X293878D02*
Y253150D01*
X300650D01*
Y259921D01*
X293878D02*
X300650D01*
Y239606D02*
Y246378D01*
X293878Y259921D02*
Y273465D01*
X314193Y280236D02*
Y287008D01*
X307421Y280236D02*
X314193D01*
X307378D02*
X307421Y273465D01*
X300650Y287008D02*
X314193D01*
Y266693D02*
Y273465D01*
X293878D02*
X300650D01*
Y266693D02*
Y273465D01*
Y266693D02*
X314193D01*
X307421Y273465D02*
X314193D01*
X334508Y293780D02*
X341280D01*
X334508D02*
Y300551D01*
X341280D01*
Y314094D01*
X334508D02*
X341280D01*
X334508Y307323D02*
Y314094D01*
X327736Y307280D02*
X334508Y307323D01*
X320965Y300551D02*
Y314094D01*
X327736Y307323D02*
Y314094D01*
X320965D02*
X327736D01*
X327736Y293780D02*
Y300551D01*
X314193Y293780D02*
X327736D01*
X307421Y307323D02*
X314193D01*
X307421D02*
Y314094D01*
X293878D02*
X307421D01*
X293878Y307323D02*
Y314094D01*
Y307323D02*
X300650D01*
X300693Y300551D01*
X293878Y293780D02*
X307421D01*
X293878Y300551D02*
X300650D01*
X293878Y293780D02*
Y300551D01*
X307421Y300551D02*
X314193D01*
Y293780D02*
Y300551D01*
Y307323D02*
Y327638D01*
X307421D02*
X314193D01*
X293878Y320866D02*
Y327638D01*
X300650D01*
X293878Y320866D02*
X307421D01*
X300650Y334409D02*
X300693Y327638D01*
X293878Y334409D02*
Y341181D01*
X307421D01*
Y334409D02*
Y341181D01*
Y334409D02*
X314193D01*
Y341181D01*
X293878Y334409D02*
X300650D01*
X314193Y341181D02*
X327736D01*
X334508Y320866D02*
X341280D01*
X334508D02*
Y327638D01*
X327736D02*
X334508Y327681D01*
X341280Y320866D02*
Y334409D01*
X320965Y320866D02*
X327736D01*
Y334409D02*
Y341181D01*
X320965Y334409D02*
X327736D01*
X320965Y320866D02*
Y334409D01*
X327736Y320866D02*
Y327638D01*
X334508Y334409D02*
Y341181D01*
X239606Y442854D02*
X246378D01*
X253150Y436083D02*
X259921D01*
X246378Y429311D02*
X259921D01*
X246378D02*
Y436083D01*
X239606D02*
X246378D01*
X259921Y429311D02*
Y436083D01*
X246378Y449626D02*
X259921D01*
X253106Y442854D02*
X253150Y436083D01*
Y442854D02*
X259921D01*
Y449626D01*
X239606Y422540D02*
Y436083D01*
X246378Y402224D02*
Y408996D01*
X239606Y422540D02*
X246378D01*
Y415768D02*
Y422540D01*
X239606Y415768D02*
X246378D01*
X239606Y402224D02*
Y415768D01*
Y402224D02*
X246378D01*
Y408996D02*
X253150Y409039D01*
X259921Y402224D02*
Y415768D01*
X253150Y402224D02*
Y408996D01*
Y402224D02*
X259921D01*
X253150Y415768D02*
Y422540D01*
X273465D01*
X280236D02*
X287008D01*
X280236Y415768D02*
Y422540D01*
X280236Y402224D02*
X287008D01*
X280236D02*
Y408996D01*
X287008Y402224D02*
Y415768D01*
X273465Y408996D02*
X280236Y409039D01*
X273465Y402224D02*
Y408996D01*
X266693Y402224D02*
X273465D01*
X266693D02*
Y415768D01*
X273465D01*
Y422540D01*
X287008D02*
Y436083D01*
X280236D02*
X287008D01*
X266693Y429311D02*
Y436083D01*
X273465D01*
X266693Y429311D02*
X280236D01*
X273465Y442854D02*
X273508Y436083D01*
X266693Y442854D02*
X273465D01*
X266693D02*
Y449626D01*
X280236D01*
Y442854D02*
Y449626D01*
Y442854D02*
X287008D01*
Y449626D01*
X307323Y415768D02*
Y422540D01*
X314095Y408996D02*
Y422540D01*
X307323Y408996D02*
X314095D01*
X307323Y402224D02*
Y408996D01*
Y422540D02*
X314095D01*
X293780Y408996D02*
Y422540D01*
X300551Y415725D02*
X307323Y415768D01*
X300551D02*
Y422540D01*
X293780D02*
X300551D01*
X307323Y402224D02*
X320866D01*
X334409Y408996D02*
X341181D01*
X320866Y402224D02*
Y408996D01*
X327638D01*
Y402224D02*
Y408996D01*
Y402224D02*
X341181D01*
Y408996D01*
X334366Y415768D02*
X334409Y408996D01*
X327638Y422540D02*
X341181D01*
X334409Y415768D02*
X341181D01*
Y422540D01*
X320866Y415768D02*
X327638D01*
X320866D02*
Y436083D01*
Y442854D02*
Y449626D01*
Y442854D02*
X327638D01*
X341181Y442854D02*
Y449626D01*
X334409Y442854D02*
X341181D01*
X327638Y449626D02*
X341181D01*
X334366Y442854D02*
X334409Y436083D01*
X341181D01*
Y429311D02*
Y436083D01*
X327638Y429311D02*
X341181D01*
X327638D02*
Y436083D01*
X320866D02*
X327638D01*
X307323Y449626D02*
X320866D01*
X307323Y442854D02*
Y449626D01*
X307323Y429311D02*
X314094D01*
X307323D02*
Y436083D01*
X314094Y429311D02*
Y442854D01*
X300551Y436083D02*
X307323Y436126D01*
X300551Y429311D02*
Y436083D01*
X293780Y429311D02*
X300551D01*
X293780D02*
Y442854D01*
X300551D01*
Y449626D01*
X287008D02*
X300551D01*
X293780Y402224D02*
X300551D01*
X300551D02*
Y408996D01*
X293780Y395453D02*
Y402224D01*
Y395453D02*
X300551D01*
Y388681D02*
Y395453D01*
X293780Y388681D02*
X300551D01*
X293780Y375138D02*
Y388681D01*
Y375138D02*
X300551D01*
Y381909D01*
X307323Y381953D01*
X314094Y375138D02*
Y388681D01*
X307323Y375138D02*
Y381909D01*
Y375138D02*
X314094D01*
X307323Y388681D02*
Y395453D01*
X320866D01*
Y381909D02*
X327638D01*
Y375138D02*
Y381909D01*
Y375138D02*
X341181D01*
Y381909D01*
X334409D02*
X341181D01*
X334366Y388681D02*
X334409Y381909D01*
X327638Y395453D02*
X341181D01*
X334409Y388681D02*
X341181D01*
Y395453D01*
X320866Y388681D02*
X327638D01*
X320866D02*
Y395453D01*
Y361595D02*
Y381909D01*
Y361595D02*
X327638D01*
X341181Y361595D02*
Y368366D01*
X334409Y361595D02*
X341181D01*
X327638Y368366D02*
X341181D01*
X334366Y361595D02*
X334409Y354823D01*
X341181Y348051D02*
Y354823D01*
X327638Y348051D02*
X341181D01*
X327638D02*
Y354823D01*
X320866D02*
X327638D01*
X320866Y348051D02*
Y354823D01*
X334409D02*
X341181D01*
X307323Y348051D02*
X320866D01*
X293780Y368366D02*
X300551D01*
Y361595D02*
Y368366D01*
Y361551D02*
X307323Y361595D01*
X293780Y354823D02*
Y368366D01*
X307323D02*
X314094D01*
X307323Y348051D02*
Y354823D01*
X314094D01*
Y368366D01*
X307323Y361595D02*
Y368366D01*
X287008Y348051D02*
X300551D01*
Y354823D01*
X280236Y354725D02*
X287008D01*
X266693Y361496D02*
X273465D01*
X266693Y368268D02*
X280236D01*
Y361496D02*
Y368268D01*
Y361496D02*
X287008D01*
X266693D02*
Y368268D01*
Y347953D02*
X280236D01*
X273465Y361496D02*
X273508Y354725D01*
X266693D02*
X273465D01*
X266693Y347953D02*
Y354725D01*
X287008Y361496D02*
Y375040D01*
X280236Y388583D02*
Y395354D01*
Y375040D02*
X287008D01*
X280236D02*
Y381811D01*
X287008D01*
Y395354D01*
X280236D02*
X287008D01*
X273465Y388540D02*
X280236Y388583D01*
X266693Y381811D02*
Y395354D01*
X273465Y388583D02*
Y395354D01*
X266693D02*
X273465D01*
X273465Y375040D02*
Y381811D01*
X253150Y375040D02*
X273465D01*
X239606D02*
X246378D01*
Y381811D01*
X239606Y395354D02*
X246378D01*
Y388583D02*
Y395354D01*
X239606Y381811D02*
Y395354D01*
X246378Y388540D02*
X253150Y388583D01*
Y395354D01*
X259921D01*
Y381811D02*
Y395354D01*
X253150Y381811D02*
X259921D01*
X253150Y375040D02*
Y381811D01*
X239606Y361496D02*
Y375040D01*
Y361496D02*
X246378D01*
X259921Y361496D02*
Y368268D01*
X253150Y361496D02*
X259921D01*
X246378Y368268D02*
X259921D01*
X253106Y361496D02*
X253150Y354725D01*
X259921D01*
Y347953D02*
Y354725D01*
X246378Y347953D02*
X259921D01*
X246378D02*
Y354725D01*
X239606D02*
X246378D01*
X239606Y341181D02*
Y354725D01*
X239606Y442854D02*
Y449626D01*
X22717Y442854D02*
Y449626D01*
X232835D02*
X239606D01*
X22717Y341181D02*
Y354725D01*
X29488D01*
Y347953D02*
Y354725D01*
Y347953D02*
X43031D01*
Y354725D01*
X36260D02*
X43031D01*
X36217Y361496D02*
X36260Y354725D01*
X29488Y368268D02*
X43031D01*
X36260Y361496D02*
X43031D01*
Y368268D01*
X22717Y361496D02*
X29488D01*
X22717D02*
Y375040D01*
X36260D02*
Y381811D01*
X43031D01*
Y395354D01*
X36260D02*
X43031D01*
X36260Y388583D02*
Y395354D01*
X29488Y388540D02*
X36260Y388583D01*
X22717Y381811D02*
Y395354D01*
X29488Y388583D02*
Y395354D01*
X22717D02*
X29488D01*
X29488Y375040D02*
Y381811D01*
X22717Y375040D02*
X29488D01*
X36260D02*
X56575D01*
Y381811D01*
X49803Y395354D02*
X56575D01*
Y388583D02*
Y395354D01*
X49803Y381811D02*
Y395354D01*
X56575Y388540D02*
X63346Y388583D01*
Y395354D02*
X70118D01*
Y381811D02*
Y395354D01*
X63346Y381811D02*
X70118D01*
X63346Y375040D02*
Y381811D01*
Y375040D02*
X70118D01*
X63346Y388583D02*
Y395354D01*
X70118Y361496D02*
Y375040D01*
X49803Y347953D02*
Y354725D01*
X56575D01*
Y361496D02*
X56618Y354725D01*
X49803Y347953D02*
X63346D01*
X49803Y361496D02*
Y368268D01*
X63346Y361496D02*
X70118D01*
X63346D02*
Y368268D01*
X49803D02*
X63346D01*
X49803Y361496D02*
X56575D01*
X63346Y354725D02*
X70118D01*
X83662Y348051D02*
Y354823D01*
X70118Y348051D02*
X83662D01*
X90433Y361595D02*
Y368366D01*
X97205Y354823D02*
Y368366D01*
X90433Y354823D02*
X97205D01*
X90433Y348051D02*
Y354823D01*
Y368366D02*
X97205D01*
X76890Y354823D02*
Y368366D01*
X83662Y361551D02*
X90433Y361595D01*
X83662D02*
Y368366D01*
X76890D02*
X83662D01*
X90433Y348051D02*
X103976D01*
X117520Y354823D02*
X124291D01*
X103976Y348051D02*
Y354823D01*
X110748D01*
Y348051D02*
Y354823D01*
Y348051D02*
X124291D01*
Y354823D01*
X117476Y361595D02*
X117520Y354823D01*
X110748Y368366D02*
X124291D01*
X117520Y361595D02*
X124291D01*
Y368366D01*
X103976Y361595D02*
X110748D01*
X103976D02*
Y381909D01*
Y388681D02*
Y395453D01*
Y388681D02*
X110748D01*
X124291Y388681D02*
Y395453D01*
X117520Y388681D02*
X124291D01*
X110748Y395453D02*
X124291D01*
X117476Y388681D02*
X117520Y381909D01*
X124291D01*
Y375138D02*
Y381909D01*
X110748Y375138D02*
X124291D01*
X110748D02*
Y381909D01*
X103976D02*
X110748D01*
X90433Y395453D02*
X103976D01*
X90433Y388681D02*
Y395453D01*
X90433Y375138D02*
X97205D01*
X90433D02*
Y381909D01*
X97205Y375138D02*
Y388681D01*
X83662Y381909D02*
X90433Y381953D01*
X83662Y375138D02*
Y381909D01*
X76890Y375138D02*
X83662D01*
X76890D02*
Y388681D01*
X83662D01*
Y395453D01*
X76890D02*
X83662D01*
X76890D02*
Y402224D01*
X83662D02*
Y408996D01*
X76890Y402224D02*
X83662D01*
X70118Y449626D02*
X83662D01*
Y442854D02*
Y449626D01*
X76890Y442854D02*
X83662D01*
X76890Y429311D02*
Y442854D01*
Y429311D02*
X83662D01*
Y436083D01*
X90433Y436126D01*
X97205Y429311D02*
Y442854D01*
X90433Y429311D02*
Y436083D01*
Y429311D02*
X97205D01*
X90433Y442854D02*
Y449626D01*
X103977D01*
Y436083D02*
X110748D01*
Y429311D02*
Y436083D01*
Y429311D02*
X124291D01*
Y436083D01*
X117520D02*
X124291D01*
X117476Y442854D02*
X117520Y436083D01*
X110748Y449626D02*
X124291D01*
X117520Y442854D02*
X124291D01*
Y449626D01*
X103977Y442854D02*
X110748D01*
X103977D02*
Y449626D01*
Y415768D02*
Y436083D01*
Y415768D02*
X110748D01*
X124291Y415768D02*
Y422540D01*
X117520Y415768D02*
X124291D01*
X110748Y422540D02*
X124291D01*
X117476Y415768D02*
X117520Y408996D01*
X124291Y402224D02*
Y408996D01*
X110748Y402224D02*
X124291D01*
X110748D02*
Y408996D01*
X103977D02*
X110748D01*
X103977Y402224D02*
Y408996D01*
X117520D02*
X124291D01*
X90433Y402224D02*
X103977D01*
X76890Y422540D02*
X83662D01*
Y415768D02*
Y422540D01*
Y415725D02*
X90433Y415768D01*
X76890Y408996D02*
Y422540D01*
X90433D02*
X97205D01*
X90433Y402224D02*
Y408996D01*
X97205D01*
Y422540D01*
X90433Y415768D02*
Y422540D01*
X70118Y442854D02*
Y449626D01*
X63347Y442854D02*
X70118D01*
X63347D02*
Y449626D01*
X49803D02*
X63347D01*
X49803Y442854D02*
Y449626D01*
Y442854D02*
X56575D01*
X56618Y436083D01*
X49803Y429311D02*
X63347D01*
X49803Y436083D02*
X56575D01*
X49803Y429311D02*
Y436083D01*
X63347Y436083D02*
X70118D01*
Y422540D02*
Y436083D01*
X56575Y415768D02*
Y422540D01*
X49803Y415768D02*
X56575D01*
X49803Y402224D02*
Y415768D01*
Y402224D02*
X56575D01*
Y408996D01*
X63346Y409039D01*
X70118Y402224D02*
Y415768D01*
X63346Y402224D02*
Y408996D01*
Y402224D02*
X70118D01*
X63347Y415768D02*
Y422540D01*
X70118D01*
X36260D02*
X56575D01*
X36260Y415768D02*
Y422540D01*
X36260Y402224D02*
X43032D01*
X36260D02*
Y408996D01*
X43032Y402224D02*
Y415768D01*
X29488Y408996D02*
X36260Y409039D01*
X22717Y402224D02*
X29488D01*
X22717D02*
Y415768D01*
X29488D01*
Y422540D01*
X22717D02*
X29488D01*
Y402224D02*
Y408996D01*
X22717Y422540D02*
Y436083D01*
X43032Y442854D02*
Y449626D01*
X36260Y442854D02*
X43032D01*
X36217D02*
X36260Y436083D01*
X29488Y449626D02*
X43032D01*
Y429311D02*
Y436083D01*
X22717D02*
X29488D01*
Y429311D02*
Y436083D01*
Y429311D02*
X43032D01*
X36260Y436083D02*
X43032D01*
X22717Y442854D02*
X29488D01*
X117618Y334409D02*
Y341181D01*
X110846Y320866D02*
Y327638D01*
X104075Y320866D02*
Y334409D01*
X110846D01*
Y341181D01*
X104075Y320866D02*
X110846D01*
X124390D02*
Y334409D01*
X110846Y327638D02*
X117618Y327681D01*
Y320866D02*
Y327638D01*
Y320866D02*
X124390D01*
X97303Y341181D02*
X110846D01*
X76988Y334409D02*
X83760D01*
X97303D02*
Y341181D01*
X90532Y334409D02*
X97303D01*
X90532D02*
Y341181D01*
X76988D02*
X90532D01*
X76988Y334409D02*
Y341181D01*
X83760Y334409D02*
X83803Y327638D01*
X76988Y320866D02*
X90532D01*
X76988Y327638D02*
X83760D01*
X76988Y320866D02*
Y327638D01*
X90532Y327638D02*
X97303D01*
Y307323D02*
Y327638D01*
Y293780D02*
Y300551D01*
X90532D02*
X97303D01*
X76988Y293780D02*
Y300551D01*
X83760D01*
X76988Y293780D02*
X90532D01*
X83760Y307323D02*
X83803Y300551D01*
X76988Y307323D02*
X83760D01*
X76988D02*
Y314094D01*
X90532D01*
Y307323D02*
Y314094D01*
Y307323D02*
X97303D01*
Y293780D02*
X110846D01*
Y300551D01*
X104075Y314094D02*
X110846D01*
Y307323D02*
Y314094D01*
X104075Y300551D02*
Y314094D01*
X110846Y307280D02*
X117618Y307323D01*
Y314094D01*
X124390D01*
Y300551D02*
Y314094D01*
X117618Y300551D02*
X124390D01*
X117618Y293780D02*
Y300551D01*
Y293780D02*
X124390D01*
X90531Y273465D02*
X97303D01*
X83760Y266693D02*
X97303D01*
X83760D02*
Y273465D01*
X76988D02*
X83760D01*
X97303Y266693D02*
Y273465D01*
X83760Y287008D02*
X97303D01*
X90488Y280236D02*
X90531Y273465D01*
Y280236D02*
X97303D01*
Y287008D01*
X76988Y259921D02*
Y273465D01*
X83760Y239606D02*
Y246378D01*
X76988Y259921D02*
X83760D01*
Y253150D02*
Y259921D01*
X76988Y253150D02*
X83760D01*
X76988Y239606D02*
Y253150D01*
Y239606D02*
X83760D01*
Y246378D02*
X90531Y246421D01*
X97303Y239606D02*
Y253150D01*
X90531Y239606D02*
Y246378D01*
Y239606D02*
X97303D01*
X90532Y253150D02*
Y259921D01*
X110846D01*
X117618D02*
X124390D01*
X117618Y253150D02*
Y259921D01*
X117618Y239606D02*
X124390D01*
X117618D02*
Y246378D01*
X124390Y239606D02*
Y253150D01*
X110846Y246378D02*
X117618Y246421D01*
X110846Y239606D02*
Y246378D01*
X104075Y239606D02*
X110846D01*
X104075D02*
Y253150D01*
X110846D01*
Y259921D01*
X124390D02*
Y273465D01*
X117618D02*
X124390D01*
X104075Y266693D02*
Y273465D01*
X110846D01*
X104075Y266693D02*
X117618D01*
X110846Y280236D02*
X110890Y273465D01*
X104075Y280236D02*
X110846D01*
X104075D02*
Y287008D01*
X117618D01*
Y280236D02*
Y287008D01*
Y280236D02*
X124390D01*
Y293780D01*
X76988Y280236D02*
Y287008D01*
Y280236D02*
X83760D01*
X70217Y287008D02*
X76988D01*
X70217Y280236D02*
Y287008D01*
X63445Y280236D02*
X70217D01*
X63445D02*
Y287008D01*
X49902D02*
X63445D01*
X49902Y280236D02*
Y287008D01*
Y280236D02*
X56673D01*
X56717Y273465D01*
X49902Y266693D02*
X63445D01*
X49902Y273465D02*
X56673D01*
X49902Y266693D02*
Y273465D01*
X63445Y273465D02*
X70217D01*
Y259921D02*
Y273465D01*
X56673Y253150D02*
Y259921D01*
X49902Y253150D02*
X56673D01*
X49902Y239606D02*
Y253150D01*
Y239606D02*
X56673D01*
Y246378D01*
X63445Y246421D01*
X70217Y239606D02*
Y253150D01*
X63445Y239606D02*
Y246378D01*
Y239606D02*
X70217D01*
X63445Y253150D02*
Y259921D01*
X70217D01*
X36358D02*
X56673D01*
X36358Y253150D02*
Y259921D01*
X36358Y239606D02*
X43130D01*
X36358D02*
Y246378D01*
X43130Y239606D02*
Y253150D01*
X29587Y246378D02*
X36358Y246421D01*
X22815Y239606D02*
Y253150D01*
X29587D01*
Y259921D01*
X22815D02*
X29587D01*
Y239606D02*
Y246378D01*
X22815Y259921D02*
Y273465D01*
X43130Y280236D02*
Y287008D01*
X36358Y280236D02*
X43130D01*
X36315D02*
X36358Y273465D01*
X29587Y287008D02*
X43130D01*
Y266693D02*
Y273465D01*
X22815D02*
X29587D01*
Y266693D02*
Y273465D01*
Y266693D02*
X43130D01*
X36358Y273465D02*
X43130D01*
X22815Y280236D02*
Y293780D01*
Y280236D02*
X29587D01*
X29488Y293780D02*
Y300551D01*
X36260Y307323D02*
Y314095D01*
X43032Y300551D02*
Y314095D01*
X36260Y300551D02*
X43032D01*
X36260Y293780D02*
Y300551D01*
Y314095D02*
X43032D01*
X22717Y300551D02*
Y314095D01*
X29488Y307280D02*
X36260Y307323D01*
X29488D02*
Y314095D01*
X22717D02*
X29488D01*
X36260Y293780D02*
X49803D01*
X63346Y300551D02*
X70118D01*
X49803Y293780D02*
Y300551D01*
X56575D01*
Y293780D02*
Y300551D01*
Y293780D02*
X70118D01*
Y300551D01*
X63303Y307323D02*
X63346Y300551D01*
X56575Y314095D02*
X70118D01*
X63346Y307323D02*
X70118D01*
Y314095D01*
X49803Y307323D02*
X56575D01*
X49803D02*
Y327638D01*
Y334409D02*
Y341181D01*
Y334409D02*
X56575D01*
X70118Y334409D02*
Y341181D01*
X63346Y334409D02*
X70118D01*
X56575Y341181D02*
X70118D01*
X63303Y334409D02*
X63346Y327638D01*
X70118D01*
Y320866D02*
Y327638D01*
X56575Y320866D02*
X70118D01*
X56575D02*
Y327638D01*
X49803D02*
X56575D01*
X36260Y341181D02*
X49803D01*
X36260Y334409D02*
Y341181D01*
X36260Y320866D02*
X43031D01*
X36260D02*
Y327638D01*
X43031Y320866D02*
Y334409D01*
X29488Y327638D02*
X36260Y327681D01*
X29488Y320866D02*
Y327638D01*
X22717Y320866D02*
X29488D01*
X22717D02*
Y334409D01*
X29488D01*
Y341181D01*
X22717D02*
X29488D01*
X226063Y341181D02*
X232835D01*
X117618Y341181D02*
X137933D01*
Y334409D02*
Y341181D01*
X131161Y334409D02*
X137933D01*
X131161Y320866D02*
Y334409D01*
Y320866D02*
X137933D01*
Y327638D01*
X144705Y327681D01*
X151476Y320866D02*
Y334409D01*
X144705Y320866D02*
Y327638D01*
Y320866D02*
X151476D01*
X144705Y334409D02*
Y341181D01*
X158248D01*
Y327638D02*
X165020D01*
Y320866D02*
Y327638D01*
Y320866D02*
X178563D01*
Y327638D01*
X171791D02*
X178563D01*
X171748Y334409D02*
X171791Y327638D01*
X165020Y341181D02*
X178563D01*
X171791Y334409D02*
X178563D01*
Y341181D01*
X158248Y334409D02*
X165020D01*
X158248D02*
Y341181D01*
Y307323D02*
Y327638D01*
Y307323D02*
X165020D01*
X178563Y307323D02*
Y314094D01*
X171791Y307323D02*
X178563D01*
X165020Y314094D02*
X178563D01*
X171748Y307323D02*
X171791Y300551D01*
X178563Y293780D02*
Y300551D01*
X165020Y293780D02*
X178563D01*
X165020D02*
Y300551D01*
X158248D02*
X165020D01*
X158248Y293780D02*
Y300551D01*
X171791D02*
X178563D01*
X144705Y293780D02*
X158248D01*
X131161Y314094D02*
X137933D01*
Y307323D02*
Y314094D01*
Y307280D02*
X144705Y307323D01*
X131161Y300551D02*
Y314094D01*
X144705D02*
X151476D01*
X144705Y293780D02*
Y300551D01*
X151476D01*
Y314094D01*
X144705Y307323D02*
Y314094D01*
X137933Y293780D02*
Y300551D01*
X131260Y280236D02*
X138031D01*
X131260D02*
Y293780D01*
X144803Y273465D02*
X151575D01*
X138031Y266693D02*
X151575D01*
X138031D02*
Y273465D01*
X131260D02*
X138031D01*
X151575Y266693D02*
Y273465D01*
X138031Y287008D02*
X151575D01*
X144760Y280236D02*
X144803Y273465D01*
Y280236D02*
X151575D01*
Y287008D01*
X131260Y259921D02*
Y273465D01*
X138031Y239606D02*
Y246378D01*
X131260Y259921D02*
X138031D01*
Y253150D02*
Y259921D01*
X131260Y253150D02*
X138031D01*
X131260Y239606D02*
Y253150D01*
Y239606D02*
X138031D01*
Y246378D02*
X144803Y246421D01*
X151575Y239606D02*
Y253150D01*
X144803Y239606D02*
Y246378D01*
Y239606D02*
X151575D01*
X144803Y253150D02*
Y259921D01*
X165118D01*
X171890D02*
X178662D01*
X171890Y253150D02*
Y259921D01*
X171890Y239606D02*
X178662D01*
X171890D02*
Y246378D01*
X178662Y239606D02*
Y253150D01*
X165118Y246378D02*
X171890Y246421D01*
X165118Y239606D02*
Y246378D01*
X158346Y239606D02*
X165118D01*
X158346D02*
Y253150D01*
X165118D01*
Y259921D01*
X178662D02*
Y273465D01*
X171890D02*
X178662D01*
X158346Y266693D02*
Y273465D01*
X165118D01*
X158346Y266693D02*
X171890D01*
X165118Y280236D02*
X165162Y273465D01*
X158346Y280236D02*
X165118D01*
X158346D02*
Y287008D01*
X171890D01*
Y280236D02*
Y287008D01*
Y280236D02*
X178662D01*
Y287008D01*
X185433D01*
Y280236D02*
X192205D01*
X185433Y280236D02*
Y287008D01*
X226063Y280236D02*
X232835D01*
X226063D02*
Y287008D01*
X212520D02*
X226063D01*
X212520Y280236D02*
Y287008D01*
Y280236D02*
X219291D01*
X219335Y273465D01*
X212520Y266693D02*
X226063D01*
X212520Y273465D02*
X219291D01*
X212520Y266693D02*
Y273465D01*
X226063Y273465D02*
X232835D01*
Y259921D02*
Y273465D01*
X219291Y253150D02*
Y259921D01*
X212520Y253150D02*
X219291D01*
X212520Y239606D02*
Y253150D01*
Y239606D02*
X219291D01*
Y246378D01*
X226063Y246421D01*
X226063Y253150D02*
Y259921D01*
X232835D01*
X198976D02*
X219291D01*
X198976Y253150D02*
Y259921D01*
X198976Y239606D02*
X205748D01*
X198976D02*
Y246378D01*
X205748Y239606D02*
Y253150D01*
X192205Y246378D02*
X198976Y246421D01*
X185433Y239606D02*
X192205D01*
X185433D02*
Y253150D01*
X192205D01*
Y259921D01*
X185433D02*
X192205D01*
Y239606D02*
Y246378D01*
X185433Y259921D02*
Y273465D01*
X205748Y280236D02*
Y287008D01*
X198976Y280236D02*
X205748D01*
X198933D02*
X198976Y273465D01*
X192205Y287008D02*
X205748D01*
Y266693D02*
Y273465D01*
X185433D02*
X192205D01*
Y266693D02*
Y273465D01*
Y266693D02*
X205748D01*
X198976Y273465D02*
X205748D01*
X232835Y280236D02*
Y293780D01*
X226063D02*
X232835D01*
X226063D02*
Y300551D01*
X232835D01*
Y314094D01*
X226063D02*
X232835D01*
X226063Y307323D02*
Y314094D01*
X219291Y307280D02*
X226063Y307323D01*
X212520Y300551D02*
Y314094D01*
X219291Y307323D02*
Y314094D01*
X212520D02*
X219291D01*
X219291Y293780D02*
Y300551D01*
X205748Y293780D02*
X219291D01*
X198976Y307323D02*
X205748D01*
X198976D02*
Y314094D01*
X185433D02*
X198976D01*
X185433Y307323D02*
Y314094D01*
Y307323D02*
X192205D01*
X192248Y300551D01*
X185433Y293780D02*
X198976D01*
X185433Y300551D02*
X192205D01*
X185433Y293780D02*
Y300551D01*
X198976Y300551D02*
X205748D01*
Y293780D02*
Y300551D01*
Y307323D02*
Y327638D01*
X198976D02*
X205748D01*
X185433Y320866D02*
Y327638D01*
X192205D01*
X185433Y320866D02*
X198976D01*
X192205Y334409D02*
X192248Y327638D01*
X185433Y334409D02*
Y341181D01*
X198976D01*
Y334409D02*
Y341181D01*
Y334409D02*
X205748D01*
Y341181D01*
X185433Y334409D02*
X192205D01*
X205748Y341181D02*
X219291D01*
X226063Y320866D02*
X232835D01*
X226063D02*
Y327638D01*
X219291D02*
X226063Y327681D01*
X232835Y320866D02*
Y334409D01*
X212520Y320866D02*
X219291D01*
Y334409D02*
Y341181D01*
X212520Y334409D02*
X219291D01*
X212520Y320866D02*
Y334409D01*
X219291Y320866D02*
Y327638D01*
X226063Y334409D02*
Y341181D01*
Y354725D02*
X232835D01*
Y341181D02*
Y354725D01*
X212520Y361496D02*
X219291D01*
X212520Y368268D02*
X226063D01*
Y361496D02*
Y368268D01*
Y361496D02*
X232835D01*
X212520D02*
Y368268D01*
Y347953D02*
X226063D01*
X219291Y361496D02*
X219335Y354725D01*
X212520D02*
X219291D01*
X212520Y347953D02*
Y354725D01*
X232835Y361496D02*
Y375039D01*
X226063Y388583D02*
Y395354D01*
Y375039D02*
X232835D01*
X226063D02*
Y381811D01*
X232835D01*
Y395354D01*
X226063D02*
X232835D01*
X219291Y388539D02*
X226063Y388583D01*
X212520Y381811D02*
Y395354D01*
X219291Y388583D02*
Y395354D01*
X212520D02*
X219291D01*
X219291Y375039D02*
Y381811D01*
X198976Y375039D02*
X219291D01*
X185433D02*
X192205D01*
Y381811D01*
X185433Y395354D02*
X192205D01*
Y388583D02*
Y395354D01*
X185433Y381811D02*
Y395354D01*
X192205Y388539D02*
X198976Y388583D01*
Y395354D01*
X205748D01*
Y381811D02*
Y395354D01*
X198976Y381811D02*
X205748D01*
X198976Y375039D02*
Y381811D01*
X185433Y361496D02*
Y375039D01*
Y361496D02*
X192205D01*
X205748Y361496D02*
Y368268D01*
X198976Y361496D02*
X205748D01*
X192205Y368268D02*
X205748D01*
X198933Y361496D02*
X198976Y354725D01*
X205748D01*
Y347953D02*
Y354725D01*
X192205Y347953D02*
X205748D01*
X192205D02*
Y354725D01*
X185433D02*
X192205D01*
X185433Y347953D02*
Y354725D01*
X165118Y375040D02*
Y381811D01*
X158346Y375040D02*
Y388583D01*
X165118D01*
Y395354D01*
X158346Y375040D02*
X165118D01*
X178661D02*
Y388583D01*
X165118Y381811D02*
X171890Y381854D01*
Y375040D02*
Y381811D01*
Y375040D02*
X178661D01*
X151575Y395354D02*
X165118D01*
X131260Y388583D02*
X138031D01*
X151575D02*
Y395354D01*
X144803Y388583D02*
X151575D01*
X144803D02*
Y395354D01*
X131260D02*
X144803D01*
X131260Y388583D02*
Y395354D01*
X138031Y388583D02*
X138075Y381811D01*
X131260Y375040D02*
X144803D01*
X131260Y381811D02*
X138031D01*
X131260Y375040D02*
Y381811D01*
X144803Y381811D02*
X151575D01*
Y361496D02*
Y381811D01*
Y347953D02*
Y354725D01*
X144803D02*
X151575D01*
X131260Y347953D02*
Y354725D01*
X138031D01*
X131260Y347953D02*
X144803D01*
X138031Y361496D02*
X138075Y354725D01*
X131260Y361496D02*
X138031D01*
X131260D02*
Y368268D01*
X144803D01*
Y361496D02*
Y368268D01*
Y361496D02*
X151575D01*
Y347953D02*
X165118D01*
Y354725D01*
X158346Y368268D02*
X165118D01*
Y361496D02*
Y368268D01*
X158346Y354725D02*
Y368268D01*
X165118Y361453D02*
X171890Y361496D01*
Y368268D01*
X178661D01*
Y354725D02*
Y368268D01*
X171890Y354725D02*
X178661D01*
X171890Y347953D02*
Y354725D01*
Y347953D02*
X185433D01*
X171890Y395354D02*
X178662D01*
X171890Y388583D02*
Y395354D01*
X178662D02*
Y402126D01*
X171890D02*
X178662D01*
X171890D02*
Y408898D01*
X178662D01*
Y422441D01*
X171890D02*
X178662D01*
X171890Y415669D02*
Y422441D01*
X165118Y415626D02*
X171890Y415669D01*
X158346Y408898D02*
Y422441D01*
X165118Y415669D02*
Y422441D01*
X158346D02*
X165118D01*
X165118Y402126D02*
Y408898D01*
X151575Y402126D02*
X165118D01*
X144803Y415669D02*
X151575D01*
X144803D02*
Y422441D01*
X131260D02*
X144803D01*
X131260Y415669D02*
Y422441D01*
Y415669D02*
X138031D01*
X138075Y408898D01*
X131260Y402126D02*
X144803D01*
X131260Y408898D02*
X138031D01*
X131260Y402126D02*
Y408898D01*
X144803Y408898D02*
X151575D01*
Y402126D02*
Y408898D01*
Y415669D02*
Y435984D01*
X144803D02*
X151575D01*
X131260Y429213D02*
Y435984D01*
X138031D01*
X131260Y429213D02*
X144803D01*
X138031Y442756D02*
X138075Y435984D01*
X131260Y442756D02*
Y449528D01*
X144803D01*
Y442756D02*
Y449528D01*
Y442756D02*
X151575D01*
Y449528D01*
X131260Y442756D02*
X138031D01*
X151575Y449528D02*
X165118D01*
X171890Y429213D02*
X178662D01*
X171890D02*
Y435984D01*
X165118D02*
X171890Y436028D01*
X178662Y429213D02*
Y442756D01*
X158346Y429213D02*
X165118D01*
Y442756D02*
Y449528D01*
X158346Y442756D02*
X165118D01*
X158346Y429213D02*
Y442756D01*
X165118Y429213D02*
Y435984D01*
X171890Y449528D02*
X185433D01*
X171890Y442756D02*
Y449528D01*
X185433Y442854D02*
X192205D01*
X198976Y436083D02*
X205748D01*
X192205Y429311D02*
X205748D01*
X192205D02*
Y436083D01*
X185433D02*
X192205D01*
X205748Y429311D02*
Y436083D01*
X192205Y449626D02*
X205748D01*
X198933Y442854D02*
X198976Y436083D01*
Y442854D02*
X205748D01*
Y449626D01*
X185433Y422539D02*
Y436083D01*
X192205Y402224D02*
Y408996D01*
X185433Y422539D02*
X192205D01*
Y415768D02*
Y422539D01*
X185433Y415768D02*
X192205D01*
X185433Y402224D02*
Y415768D01*
Y402224D02*
X192205D01*
Y408996D02*
X198976Y409039D01*
X205748Y402224D02*
Y415768D01*
X198976Y402224D02*
Y408996D01*
Y402224D02*
X205748D01*
X198976Y415768D02*
Y422539D01*
X219291D01*
X226063D02*
X232835D01*
X226063Y415768D02*
Y422539D01*
X226063Y402224D02*
X232835D01*
X226063D02*
Y408996D01*
X232835Y402224D02*
Y415768D01*
X219291Y408996D02*
X226063Y409039D01*
X219291Y402224D02*
Y408996D01*
X212520Y402224D02*
X219291D01*
X212520D02*
Y415768D01*
X219291D01*
Y422539D01*
X232835D02*
Y436083D01*
X226063D02*
X232835D01*
X212520Y429311D02*
Y436083D01*
X219291D01*
X212520Y429311D02*
X226063D01*
X219291Y442854D02*
X219335Y436083D01*
X212520Y442854D02*
X219291D01*
X212520D02*
Y449626D01*
X226063D01*
Y442854D02*
Y449626D01*
Y442854D02*
X232835D01*
Y449626D01*
X442953Y232835D02*
X449724D01*
X22815Y239606D02*
X29587D01*
X239705Y22815D02*
Y29587D01*
X246476D01*
Y22815D02*
Y29587D01*
Y22815D02*
X260020D01*
Y29587D01*
X253248D02*
X260020D01*
X253205Y36358D02*
X253248Y29587D01*
X246476Y43130D02*
X260020D01*
X253248Y36358D02*
X260020D01*
Y43130D01*
X239705Y36358D02*
X246476D01*
X239705D02*
Y49902D01*
X253248D02*
Y56673D01*
X260020D01*
Y70217D01*
X253248D02*
X260020D01*
X253248Y63445D02*
Y70217D01*
X246476Y63402D02*
X253248Y63445D01*
X239705Y56673D02*
Y70217D01*
X246476Y63445D02*
Y70217D01*
X239705D02*
X246476D01*
X246476Y49902D02*
Y56673D01*
X239705Y49902D02*
X246476D01*
X253248D02*
X273563D01*
Y56673D01*
X266791Y70217D02*
X273563D01*
Y63445D02*
Y70217D01*
X266791Y56673D02*
Y70217D01*
X273563Y63402D02*
X280335Y63445D01*
Y70217D02*
X287106D01*
Y56673D02*
Y70217D01*
X280335Y56673D02*
X287106D01*
X280335Y49902D02*
Y56673D01*
Y49902D02*
X287106D01*
X280335Y63445D02*
Y70217D01*
X287106Y36358D02*
Y49902D01*
X266791Y22815D02*
Y29587D01*
X273563D01*
Y36358D02*
X273606Y29587D01*
X266791Y22815D02*
X280335D01*
X266791Y36358D02*
Y43130D01*
X280335Y36358D02*
X287106D01*
X280335D02*
Y43130D01*
X266791D02*
X280335D01*
X266791Y36358D02*
X273563D01*
X280335Y29587D02*
X287106D01*
X300650Y22914D02*
Y29685D01*
X287106Y22914D02*
X300650D01*
X307421Y36457D02*
Y43228D01*
X314193Y29685D02*
Y43228D01*
X307421Y29685D02*
X314193D01*
X307421Y22914D02*
Y29685D01*
Y43228D02*
X314193D01*
X293878Y29685D02*
Y43228D01*
X300650Y36413D02*
X307421Y36457D01*
X300650D02*
Y43228D01*
X293878D02*
X300650D01*
X307421Y22914D02*
X320965D01*
X334508Y29685D02*
X341280D01*
X320965Y22914D02*
Y29685D01*
X327736D01*
Y22914D02*
Y29685D01*
Y22914D02*
X341280D01*
Y29685D01*
X334465Y36457D02*
X334508Y29685D01*
X327736Y43228D02*
X341280D01*
X334508Y36457D02*
X341280D01*
Y43228D01*
X320965Y36457D02*
X327736D01*
X320965D02*
Y56772D01*
Y63543D02*
Y70315D01*
Y63543D02*
X327736D01*
X341280Y63543D02*
Y70315D01*
X334508Y63543D02*
X341280D01*
X327736Y70315D02*
X341280D01*
X334465Y63543D02*
X334508Y56772D01*
X341280D01*
Y50000D02*
Y56772D01*
X327736Y50000D02*
X341280D01*
X327736D02*
Y56772D01*
X320965D02*
X327736D01*
X307421Y70315D02*
X320965D01*
X307421Y63543D02*
Y70315D01*
X307421Y50000D02*
X314193D01*
X307421D02*
Y56772D01*
X314193Y50000D02*
Y63543D01*
X300650Y56772D02*
X307421Y56815D01*
X300650Y50000D02*
Y56772D01*
X293878Y50000D02*
X300650D01*
X293878D02*
Y63543D01*
X300650D01*
Y70315D01*
X293878D02*
X300650D01*
X293878D02*
Y77087D01*
X300650D02*
Y83858D01*
X293878Y77087D02*
X300650D01*
X287106Y124488D02*
X300650D01*
Y117717D02*
Y124488D01*
X293878Y117717D02*
X300650D01*
X293878Y104173D02*
Y117717D01*
Y104173D02*
X300650D01*
Y110945D01*
X307421Y110988D01*
X314193Y104173D02*
Y117717D01*
X307421Y104173D02*
Y110945D01*
Y104173D02*
X314193D01*
X307421Y117717D02*
Y124488D01*
X320965D01*
Y110945D02*
X327736D01*
Y104173D02*
Y110945D01*
Y104173D02*
X341280D01*
Y110945D01*
X334508D02*
X341280D01*
X334465Y117717D02*
X334508Y110945D01*
X327736Y124488D02*
X341280D01*
X334508Y117717D02*
X341280D01*
Y124488D01*
X320965Y117717D02*
X327736D01*
X320965D02*
Y124488D01*
Y90630D02*
Y110945D01*
Y90630D02*
X327736D01*
X341280Y90630D02*
Y97402D01*
X334508Y90630D02*
X341280D01*
X327736Y97402D02*
X341280D01*
X334465Y90630D02*
X334508Y83858D01*
X341280Y77087D02*
Y83858D01*
X327736Y77087D02*
X341280D01*
X327736D02*
Y83858D01*
X320965D02*
X327736D01*
X320965Y77087D02*
Y83858D01*
X334508D02*
X341280D01*
X307421Y77087D02*
X320965D01*
X293878Y97402D02*
X300650D01*
Y90630D02*
Y97402D01*
Y90587D02*
X307421Y90630D01*
X293878Y83858D02*
Y97402D01*
X307421D02*
X314193D01*
X307421Y77087D02*
Y83858D01*
X314193D01*
Y97402D01*
X307421Y90630D02*
Y97402D01*
X287106Y117717D02*
Y124488D01*
X280335Y117717D02*
X287106D01*
X280335D02*
Y124488D01*
X266791D02*
X280335D01*
X266791Y117717D02*
Y124488D01*
Y117717D02*
X273563D01*
X273606Y110945D01*
X266791Y104173D02*
X280335D01*
X266791Y110945D02*
X273563D01*
X266791Y104173D02*
Y110945D01*
X280335Y110945D02*
X287106D01*
Y97402D02*
Y110945D01*
X273563Y90630D02*
Y97402D01*
X266791Y90630D02*
X273563D01*
X266791Y77087D02*
Y90630D01*
Y77087D02*
X273563D01*
Y83858D01*
X280335Y83902D01*
X287106Y77087D02*
Y90630D01*
X280335Y77087D02*
Y83858D01*
Y77087D02*
X287106D01*
X280335Y90630D02*
Y97402D01*
X287106D01*
X253248D02*
X273563D01*
X253248Y90630D02*
Y97402D01*
X253248Y77087D02*
X260020D01*
X253248D02*
Y83858D01*
X260020Y77087D02*
Y90630D01*
X246477Y83858D02*
X253248Y83902D01*
X239705Y77087D02*
X246477D01*
X239705D02*
Y90630D01*
X246477D01*
Y97402D01*
X239705D02*
X246477D01*
Y77087D02*
Y83858D01*
X239705Y97402D02*
Y110945D01*
X260020Y117717D02*
Y124488D01*
X253248Y117717D02*
X260020D01*
X253205D02*
X253248Y110945D01*
X246476Y124488D02*
X260020D01*
Y104173D02*
Y110945D01*
X239705D02*
X246476D01*
Y104173D02*
Y110945D01*
Y104173D02*
X260020D01*
X253248Y110945D02*
X260020D01*
X239705Y117717D02*
Y131260D01*
Y117717D02*
X246476D01*
Y131260D02*
Y138032D01*
X253248Y144803D02*
Y151575D01*
X260020Y138032D02*
Y151575D01*
X253248Y138032D02*
X260020D01*
X253248Y131260D02*
Y138032D01*
Y151575D02*
X260020D01*
X239705Y138032D02*
Y151575D01*
X246477Y144760D02*
X253248Y144803D01*
X246477D02*
Y151575D01*
X239705D02*
X246477D01*
X253248Y131260D02*
X266791D01*
X280335Y138032D02*
X287106D01*
X266791Y131260D02*
Y138032D01*
X273563D01*
Y131260D02*
Y138032D01*
Y131260D02*
X287106D01*
Y138032D01*
X280291Y144803D02*
X280335Y138032D01*
X273563Y151575D02*
X287106D01*
X280335Y144803D02*
X287106D01*
Y151575D01*
X266791Y144803D02*
X273563D01*
X266791D02*
Y165118D01*
Y171890D02*
Y178662D01*
Y171890D02*
X273563D01*
X287106Y171890D02*
Y178662D01*
X280335Y171890D02*
X287106D01*
X273563Y178662D02*
X287106D01*
X280291Y171890D02*
X280335Y165118D01*
X287106D01*
Y158347D02*
Y165118D01*
X273563Y158347D02*
X287106D01*
X273563D02*
Y165118D01*
X266791D02*
X273563D01*
X253248Y178662D02*
X266791D01*
X253248Y171890D02*
Y178662D01*
X253248Y158347D02*
X260020D01*
X253248D02*
Y165118D01*
X260020Y158347D02*
Y171890D01*
X246476Y165118D02*
X253248Y165162D01*
X246476Y158347D02*
Y165118D01*
X239705Y158347D02*
X246476D01*
X239705D02*
Y171890D01*
X246476D01*
Y178662D01*
X239705D02*
X246476D01*
X239705D02*
Y192205D01*
X266791Y198977D02*
X273563D01*
X266791Y205748D02*
X280335D01*
Y198977D02*
Y205748D01*
Y198977D02*
X287106D01*
X266791D02*
Y205748D01*
Y185433D02*
X280335D01*
X273563Y198977D02*
X273606Y192205D01*
X266791D02*
X273563D01*
X266791Y185433D02*
Y192205D01*
X287106Y198977D02*
Y212520D01*
X280335Y226063D02*
Y232835D01*
Y212520D02*
X287106D01*
X280335D02*
Y219291D01*
X287106D01*
Y232835D01*
X280335D02*
X287106D01*
X273563Y226020D02*
X280335Y226063D01*
X266791Y219291D02*
Y232835D01*
X273563Y226063D02*
Y232835D01*
X266791D02*
X273563D01*
X273563Y212520D02*
Y219291D01*
X253248Y212520D02*
X273563D01*
X239705D02*
X246476D01*
Y219291D01*
X239705Y232835D02*
X246477D01*
Y226063D02*
Y232835D01*
X239705Y219291D02*
Y232835D01*
X246477Y226020D02*
X253248Y226063D01*
Y232835D01*
X260020D01*
Y219291D02*
Y232835D01*
X253248Y219291D02*
X260020D01*
X253248Y212520D02*
Y219291D01*
X239705Y198977D02*
Y212520D01*
Y198977D02*
X246476D01*
X260020Y198977D02*
Y205748D01*
X253248Y198977D02*
X260020D01*
X246476Y205748D02*
X260020D01*
X253205Y198977D02*
X253248Y192205D01*
X260020D01*
Y185433D02*
Y192205D01*
X246476Y185433D02*
X260020D01*
X246476D02*
Y192205D01*
X239705D02*
X246476D01*
X287106Y185433D02*
Y192205D01*
X280335Y192205D02*
X287106D01*
Y185433D02*
X293878D01*
Y192205D01*
X300650D01*
Y185433D02*
Y192205D01*
Y185433D02*
X314193D01*
Y192205D01*
X307421D02*
X314193D01*
X307378Y198976D02*
X307421Y192205D01*
X300650Y205748D02*
X314193D01*
X307421Y198976D02*
X314193D01*
Y205748D01*
X293878Y198977D02*
X300650D01*
X293878D02*
Y212520D01*
X307421D02*
Y219291D01*
X314193D01*
Y232835D01*
X307421D02*
X314193D01*
X307421Y226063D02*
Y232835D01*
X300650Y226020D02*
X307421Y226063D01*
X293878Y219291D02*
Y232835D01*
X300650Y226063D02*
Y232835D01*
X293878D02*
X300650D01*
X300650Y212520D02*
Y219291D01*
X293878Y212520D02*
X300650D01*
X307421D02*
X327736D01*
Y219291D01*
X320965Y232835D02*
X327736D01*
Y226063D02*
Y232835D01*
X320965Y219291D02*
Y232835D01*
X327736Y226020D02*
X334508Y226063D01*
Y232835D02*
X341280D01*
Y219291D02*
Y232835D01*
X334508Y219291D02*
X341280D01*
X334508Y212520D02*
Y219291D01*
Y212520D02*
X341280D01*
X334508Y226063D02*
Y232835D01*
X341280Y198977D02*
Y212520D01*
X320965Y185433D02*
Y192205D01*
X327736D01*
Y198977D02*
X327780Y192205D01*
X320965Y185433D02*
X334508D01*
X320965Y198977D02*
Y205748D01*
X334508Y198977D02*
X341280D01*
X334508D02*
Y205748D01*
X320965D02*
X334508D01*
X320965Y198977D02*
X327736D01*
X341280Y178662D02*
Y192205D01*
X334508D02*
X341280D01*
X334606Y171890D02*
Y178662D01*
X327835Y158346D02*
Y165118D01*
X321063Y158346D02*
Y171890D01*
X327835D01*
Y178662D01*
X321063Y158346D02*
X327835D01*
X341378D02*
Y171890D01*
X327835Y165118D02*
X334606Y165162D01*
Y158346D02*
Y165118D01*
Y158346D02*
X341378D01*
X314291Y178662D02*
X327835D01*
X293976Y171890D02*
X300748D01*
X314291D02*
Y178662D01*
X307520Y171890D02*
X314291D01*
X307520D02*
Y178662D01*
X293976D02*
X307520D01*
X293976Y171890D02*
Y178662D01*
X300748Y171890D02*
X300791Y165118D01*
X293976Y158346D02*
X307520D01*
X293976Y165118D02*
X300748D01*
X293976Y158346D02*
Y165118D01*
X307520Y165118D02*
X314291D01*
Y144803D02*
Y165118D01*
Y131260D02*
Y138032D01*
X307520D02*
X314291D01*
X293976Y131260D02*
Y138032D01*
X300748D01*
X293976Y131260D02*
X307520D01*
X300748Y144803D02*
X300791Y138032D01*
X293976Y144803D02*
X300748D01*
X293976D02*
Y151575D01*
X307520D01*
Y144803D02*
Y151575D01*
Y144803D02*
X314291D01*
Y131260D02*
X327835D01*
Y138032D01*
X321063Y151575D02*
X327835D01*
Y144803D02*
Y151575D01*
X321063Y138032D02*
Y151575D01*
X327835Y144760D02*
X334606Y144803D01*
Y151575D01*
X341378D01*
Y138032D02*
Y151575D01*
X334606Y138032D02*
X341378D01*
X334606Y131260D02*
Y138032D01*
X239705Y131260D02*
X246476D01*
X334606Y131260D02*
X354921D01*
X443051Y131260D02*
X449823D01*
X443051D02*
Y138031D01*
X449823D01*
Y151575D01*
X443051D02*
X449823D01*
X443051Y144803D02*
Y151575D01*
X436280Y144760D02*
X443051Y144803D01*
X429508Y138031D02*
Y151575D01*
X436280Y144803D02*
Y151575D01*
X429508D02*
X436280D01*
X436280Y131260D02*
Y138031D01*
X422736Y131260D02*
X436280D01*
X415965Y144803D02*
X422736D01*
X415965D02*
Y151575D01*
X402421D02*
X415965D01*
X402421Y144803D02*
Y151575D01*
Y144803D02*
X409193D01*
X409236Y138031D01*
X402421Y131260D02*
X415965D01*
X402421Y138031D02*
X409193D01*
X402421Y131260D02*
Y138031D01*
X415965Y138031D02*
X422736D01*
Y131260D02*
Y138031D01*
Y144803D02*
Y165118D01*
X415965D02*
X422736D01*
X402421Y158346D02*
Y165118D01*
X409193D01*
X402421Y158346D02*
X415965D01*
X409193Y171890D02*
X409236Y165118D01*
X402421Y171890D02*
Y178662D01*
X415965D01*
Y171890D02*
Y178662D01*
Y171890D02*
X422736D01*
Y178662D01*
X402421Y171890D02*
X409193D01*
X422736Y178662D02*
X436280D01*
X443051Y158346D02*
X449823D01*
X443051D02*
Y165118D01*
X436280D02*
X443051Y165162D01*
X449823Y158346D02*
Y171890D01*
X429508Y158346D02*
X436280D01*
Y171890D02*
Y178662D01*
X429508Y171890D02*
X436280D01*
X429508Y158346D02*
Y171890D01*
X436280Y158346D02*
Y165118D01*
X443051Y171890D02*
Y178662D01*
X442953Y192205D02*
X449724D01*
Y178662D02*
Y192205D01*
X429410Y198976D02*
X436181D01*
X429410Y205748D02*
X442953D01*
Y198976D02*
Y205748D01*
Y198976D02*
X449724D01*
X429410D02*
Y205748D01*
Y185433D02*
X442953D01*
X436181Y198976D02*
X436225Y192205D01*
X429410D02*
X436181D01*
X429410Y185433D02*
Y192205D01*
X449724Y198976D02*
Y212520D01*
X442953Y226063D02*
Y232835D01*
Y212520D02*
X449724D01*
X442953D02*
Y219291D01*
X449724D01*
Y232835D01*
X436181Y226020D02*
X442953Y226063D01*
X429410Y219291D02*
Y232835D01*
X436181Y226063D02*
Y232835D01*
X429410D02*
X436181D01*
X436181Y212520D02*
Y219291D01*
X415866Y212520D02*
X436181D01*
X402323D02*
X409094D01*
Y219291D01*
X402323Y232835D02*
X409094D01*
Y226063D02*
Y232835D01*
X402323Y219291D02*
Y232835D01*
X409094Y226020D02*
X415866Y226063D01*
Y232835D01*
X422638D01*
Y219291D02*
Y232835D01*
X415866Y219291D02*
X422638D01*
X415866Y212520D02*
Y219291D01*
X402323Y198976D02*
Y212520D01*
Y198976D02*
X409094D01*
X422638Y198976D02*
Y205748D01*
X415866Y198976D02*
X422638D01*
X409094Y205748D02*
X422638D01*
X415823Y198976D02*
X415866Y192205D01*
X422638D01*
Y185433D02*
Y192205D01*
X409094Y185433D02*
X422638D01*
X409094D02*
Y192205D01*
X402323D02*
X409094D01*
X402323Y185433D02*
Y192205D01*
X395551Y185433D02*
X402323D01*
X388780Y192205D02*
X395551D01*
Y185433D02*
Y192205D01*
X348150Y178662D02*
Y192205D01*
X354921D01*
Y185433D02*
Y192205D01*
Y185433D02*
X368465D01*
Y192205D01*
X361693D02*
X368465D01*
X361650Y198976D02*
X361693Y192205D01*
X354921Y205748D02*
X368465D01*
X361693Y198976D02*
X368465D01*
Y205748D01*
X348150Y198977D02*
X354921D01*
X348150D02*
Y212520D01*
X361693D02*
Y219291D01*
X368465D01*
Y232835D01*
X361693D02*
X368465D01*
X361693Y226063D02*
Y232835D01*
X354921Y226020D02*
X361693Y226063D01*
X348150Y219291D02*
Y232835D01*
X354921Y226063D02*
Y232835D01*
X348150D02*
X354921D01*
X354921Y212520D02*
Y219291D01*
X348150Y212520D02*
X354921D01*
X361693D02*
X382008D01*
Y219291D01*
X375236Y232835D02*
X382008D01*
Y226063D02*
Y232835D01*
X375236Y219291D02*
Y232835D01*
X382008Y226020D02*
X388780Y226063D01*
Y232835D02*
X395551D01*
Y219291D02*
Y232835D01*
X388780Y219291D02*
X395551D01*
X388780Y212520D02*
Y219291D01*
Y212520D02*
X395551D01*
X388780Y226063D02*
Y232835D01*
X395551Y198977D02*
Y212520D01*
X375236Y185433D02*
Y192205D01*
X382008D01*
Y198977D02*
X382051Y192205D01*
X375236Y185433D02*
X388780D01*
X375236Y198977D02*
Y205748D01*
X388780Y198977D02*
X395551D01*
X388780D02*
Y205748D01*
X375236D02*
X388780D01*
X375236Y198977D02*
X382008D01*
X348150Y178662D02*
X354921D01*
Y171890D02*
Y178662D01*
X348150Y171890D02*
X354921D01*
X348150Y158346D02*
Y171890D01*
Y158346D02*
X354921D01*
Y165118D01*
X361693Y165162D01*
X368465Y158346D02*
Y171890D01*
X361693Y158346D02*
Y165118D01*
Y158346D02*
X368465D01*
X361693Y171890D02*
Y178662D01*
X375236D01*
Y165118D02*
X382008D01*
Y158346D02*
Y165118D01*
Y158346D02*
X395551D01*
Y165118D01*
X388780D02*
X395551D01*
X388736Y171890D02*
X388780Y165118D01*
X382008Y178662D02*
X395551D01*
X388780Y171890D02*
X395551D01*
Y178662D01*
X375236Y171890D02*
X382008D01*
X375236D02*
Y178662D01*
Y144803D02*
Y165118D01*
Y144803D02*
X382008D01*
X395551Y144803D02*
Y151575D01*
X388780Y144803D02*
X395551D01*
X382008Y151575D02*
X395551D01*
X388736Y144803D02*
X388780Y138032D01*
X395551Y131260D02*
Y138032D01*
X382008Y131260D02*
X395551D01*
X382008D02*
Y138032D01*
X375236D02*
X382008D01*
X375236Y131260D02*
Y138032D01*
X388780D02*
X395551D01*
X361693Y131260D02*
X375236D01*
X348150Y151575D02*
X354921D01*
Y144803D02*
Y151575D01*
Y144760D02*
X361693Y144803D01*
X348150Y138032D02*
Y151575D01*
X361693D02*
X368465D01*
X361693Y131260D02*
Y138032D01*
X368465D01*
Y151575D01*
X361693Y144803D02*
Y151575D01*
X354921Y131260D02*
Y138032D01*
X443051Y29587D02*
X449823D01*
X429508Y36358D02*
X436280D01*
X429508Y43130D02*
X443051D01*
Y36358D02*
Y43130D01*
Y36358D02*
X449823D01*
X429508D02*
Y43130D01*
Y22815D02*
X443051D01*
X436280Y36358D02*
X436323Y29587D01*
X429508D02*
X436280D01*
X429508Y22815D02*
Y29587D01*
X449823Y36358D02*
Y49902D01*
X443051Y63445D02*
Y70217D01*
Y49902D02*
X449823D01*
X443051D02*
Y56673D01*
X449823D01*
Y70217D01*
X443051D02*
X449823D01*
X436280Y63402D02*
X443051Y63445D01*
X429508Y56673D02*
Y70217D01*
X436280Y63445D02*
Y70217D01*
X429508D02*
X436280D01*
X436280Y49902D02*
Y56673D01*
X415965Y49902D02*
X436280D01*
X402421D02*
X409193D01*
Y56673D01*
X402421Y70217D02*
X409193D01*
Y63445D02*
Y70217D01*
X402421Y56673D02*
Y70217D01*
X409193Y63402D02*
X415965Y63445D01*
Y70217D01*
X422736D01*
Y56673D02*
Y70217D01*
X415965Y56673D02*
X422736D01*
X415965Y49902D02*
Y56673D01*
X402421Y36358D02*
Y49902D01*
Y36358D02*
X409193D01*
X422736Y36358D02*
Y43130D01*
X415965Y36358D02*
X422736D01*
X409193Y43130D02*
X422736D01*
X415921Y36358D02*
X415965Y29587D01*
X422736D01*
Y22815D02*
Y29587D01*
X409193Y22815D02*
X422736D01*
X409193D02*
Y29587D01*
X402421D02*
X409193D01*
X402421Y22815D02*
Y29587D01*
X382106Y49902D02*
Y56673D01*
X375335Y49902D02*
Y63445D01*
X382106D01*
Y70217D01*
X375335Y49902D02*
X382106D01*
X395650D02*
Y63445D01*
X382106Y56673D02*
X388878Y56717D01*
Y49902D02*
Y56673D01*
Y49902D02*
X395650D01*
X368563Y70217D02*
X382106D01*
X348248Y63445D02*
X355020D01*
X368563D02*
Y70217D01*
X361791Y63445D02*
X368563D01*
X361791D02*
Y70217D01*
X348248D02*
X361791D01*
X348248Y63445D02*
Y70217D01*
X355020Y63445D02*
X355063Y56673D01*
X348248Y49902D02*
X361791D01*
X348248Y56673D02*
X355020D01*
X348248Y49902D02*
Y56673D01*
X361791Y56673D02*
X368563D01*
Y36358D02*
Y56673D01*
Y22815D02*
Y29587D01*
X361791D02*
X368563D01*
X348248Y22815D02*
Y29587D01*
X355020D01*
X348248Y22815D02*
X361791D01*
X355020Y36358D02*
X355063Y29587D01*
X348248Y36358D02*
X355020D01*
X348248D02*
Y43130D01*
X361791D01*
Y36358D02*
Y43130D01*
Y36358D02*
X368563D01*
Y22815D02*
X382106D01*
Y29587D01*
X375335Y43130D02*
X382106D01*
Y36358D02*
Y43130D01*
X375335Y29587D02*
Y43130D01*
X382106Y36315D02*
X388878Y36358D01*
Y43130D01*
X395650D01*
Y29587D02*
Y43130D01*
X388878Y29587D02*
X395650D01*
X388878Y22815D02*
Y29587D01*
Y22815D02*
X402421D01*
X388878Y70217D02*
X395650D01*
X388878Y63445D02*
Y70217D01*
X395650D02*
Y76988D01*
X388878D02*
X395650D01*
X388878D02*
Y83760D01*
X395650D01*
Y97303D01*
X388878D02*
X395650D01*
X388878Y90531D02*
Y97303D01*
X382106Y90488D02*
X388878Y90531D01*
X375335Y83760D02*
Y97303D01*
X382106Y90531D02*
Y97303D01*
X375335D02*
X382106D01*
X382106Y76988D02*
Y83760D01*
X368563Y76988D02*
X382106D01*
X361791Y90531D02*
X368563D01*
X361791D02*
Y97303D01*
X348248D02*
X361791D01*
X348248Y90531D02*
Y97303D01*
Y90531D02*
X355020D01*
X355063Y83760D01*
X348248Y76988D02*
X361791D01*
X348248Y83760D02*
X355020D01*
X348248Y76988D02*
Y83760D01*
X361791Y83760D02*
X368563D01*
Y76988D02*
Y83760D01*
Y90531D02*
Y110846D01*
X361791D02*
X368563D01*
X348248Y104075D02*
Y110846D01*
X355020D01*
X348248Y104075D02*
X361791D01*
X355020Y117618D02*
X355063Y110846D01*
X348248Y117618D02*
Y124390D01*
X361791D01*
Y117618D02*
Y124390D01*
Y117618D02*
X368563D01*
Y124390D01*
X348248Y117618D02*
X355020D01*
X368563Y124390D02*
X382106D01*
X388878Y104075D02*
X395650D01*
X388878D02*
Y110846D01*
X382106D02*
X388878Y110890D01*
X395650Y104075D02*
Y117618D01*
X375335Y104075D02*
X382106D01*
Y117618D02*
Y124390D01*
X375335Y117618D02*
X382106D01*
X375335Y104075D02*
Y117618D01*
X382106Y104075D02*
Y110846D01*
X388878Y124390D02*
X402421D01*
X388878Y117618D02*
Y124390D01*
X402421Y117717D02*
X409193D01*
X415965Y110945D02*
X422736D01*
X409193Y104173D02*
X422736D01*
X409193D02*
Y110945D01*
X402421D02*
X409193D01*
X422736Y104173D02*
Y110945D01*
X409193Y124488D02*
X422736D01*
X415921Y117717D02*
X415965Y110945D01*
Y117717D02*
X422736D01*
Y124488D01*
X402421Y97402D02*
Y110945D01*
X409193Y77087D02*
Y83858D01*
X402421Y97402D02*
X409193D01*
Y90630D02*
Y97402D01*
X402421Y90630D02*
X409193D01*
X402421Y77087D02*
Y90630D01*
Y77087D02*
X409193D01*
Y83858D02*
X415965Y83902D01*
X422736Y77087D02*
Y90630D01*
X415965Y77087D02*
Y83858D01*
Y77087D02*
X422736D01*
X415965Y90630D02*
Y97402D01*
X436280D01*
X443051D02*
X449823D01*
X443051Y90630D02*
Y97402D01*
X443051Y77087D02*
X449823D01*
X443051D02*
Y83858D01*
X449823Y77087D02*
Y90630D01*
X436280Y83858D02*
X443051Y83902D01*
X436280Y77087D02*
Y83858D01*
X429508Y77087D02*
X436280D01*
X429508D02*
Y90630D01*
X436280D01*
Y97402D01*
X449823D02*
Y110945D01*
X443051D02*
X449823D01*
X429508Y104173D02*
Y110945D01*
X436280D01*
X429508Y104173D02*
X443051D01*
X436280Y117717D02*
X436323Y110945D01*
X429508Y117717D02*
X436280D01*
X429508D02*
Y124488D01*
X443051D01*
Y117717D02*
Y124488D01*
Y117717D02*
X449823D01*
Y131260D01*
X232933Y22815D02*
X239705D01*
X232933D02*
Y29587D01*
X14941Y22815D02*
X22815D01*
X232933Y117717D02*
Y131260D01*
X226162Y117717D02*
X232933D01*
X226162D02*
Y124488D01*
X212618D02*
X226162D01*
X212618Y117717D02*
Y124488D01*
Y117717D02*
X219390D01*
X219433Y110945D01*
X212618Y104173D02*
X226162D01*
X212618Y110945D02*
X219390D01*
X212618Y104173D02*
Y110945D01*
X226162Y110945D02*
X232933D01*
Y97402D02*
Y110945D01*
X219390Y90630D02*
Y97402D01*
X212618Y90630D02*
X219390D01*
X212618Y77087D02*
Y90630D01*
Y77087D02*
X219390D01*
Y83858D01*
X226162Y83902D01*
X232933Y77087D02*
Y90630D01*
X226162Y77087D02*
Y83858D01*
Y77087D02*
X232933D01*
X226162Y90630D02*
Y97402D01*
X232933D01*
X199075D02*
X219390D01*
X199075Y90630D02*
Y97402D01*
X199075Y77087D02*
X205847D01*
X199075D02*
Y83858D01*
X205847Y77087D02*
Y90630D01*
X192303Y83858D02*
X199075Y83902D01*
X185532Y77087D02*
X192303D01*
X185532D02*
Y90630D01*
X192303D01*
Y97402D01*
X185532D02*
X192303D01*
Y77087D02*
Y83858D01*
X185531Y97402D02*
Y110945D01*
X205847Y117717D02*
Y124488D01*
X199075Y117717D02*
X205847D01*
X199031D02*
X199075Y110945D01*
X192303Y124488D02*
X205847D01*
Y104173D02*
Y110945D01*
X185531D02*
X192303D01*
Y104173D02*
Y110945D01*
Y104173D02*
X205847D01*
X199075Y110945D02*
X205847D01*
X185531Y117717D02*
X192303D01*
X171988Y117618D02*
Y124390D01*
X185531D01*
X165217Y104075D02*
Y110846D01*
X158445Y104075D02*
Y117618D01*
X165217D01*
Y124390D01*
X158445Y104075D02*
X165217D01*
X178760D02*
Y117618D01*
X165217Y110846D02*
X171988Y110890D01*
Y104075D02*
Y110846D01*
Y104075D02*
X178760D01*
X151673Y124390D02*
X165217D01*
X131358Y117618D02*
X138130D01*
X151673D02*
Y124390D01*
X144902Y117618D02*
X151673D01*
X144902D02*
Y124390D01*
X131358D02*
X144902D01*
X131358Y117618D02*
Y124390D01*
X138130Y117618D02*
X138173Y110846D01*
X131358Y104075D02*
X144902D01*
X131358Y110846D02*
X138130D01*
X131358Y104075D02*
Y110846D01*
X144902Y110846D02*
X151673D01*
Y90531D02*
Y110846D01*
Y76988D02*
Y83760D01*
X144902D02*
X151673D01*
X131358Y76988D02*
Y83760D01*
X138130D01*
X131358Y76988D02*
X144902D01*
X138130Y90531D02*
X138173Y83760D01*
X131358Y90531D02*
X138130D01*
X131358D02*
Y97303D01*
X144902D01*
Y90531D02*
Y97303D01*
Y90531D02*
X151673D01*
Y76988D02*
X165217D01*
Y83760D01*
X158445Y97303D02*
X165217D01*
Y90531D02*
Y97303D01*
X158445Y83760D02*
Y97303D01*
X165217Y90488D02*
X171988Y90531D01*
Y97303D01*
X178760D01*
Y83760D02*
Y97303D01*
X171988Y83760D02*
X178760D01*
X171988Y76988D02*
Y83760D01*
Y76988D02*
X178760D01*
Y70217D02*
Y76988D01*
X171988Y63445D02*
Y70217D01*
X171988D02*
X178760D01*
X171988Y22815D02*
X185531D01*
X171988D02*
Y29587D01*
X178760D01*
Y43130D01*
X171988D02*
X178760D01*
X171988Y36358D02*
Y43130D01*
X165217Y36315D02*
X171988Y36358D01*
X158445Y29587D02*
Y43130D01*
X165217Y36358D02*
Y43130D01*
X158445D02*
X165217D01*
X165217Y22815D02*
Y29587D01*
X151673Y22815D02*
X165217D01*
X144902Y36358D02*
X151673D01*
X144902D02*
Y43130D01*
X131358D02*
X144902D01*
X131358Y36358D02*
Y43130D01*
Y36358D02*
X138130D01*
X138173Y29587D01*
X131358Y22815D02*
X144902D01*
X131358Y29587D02*
X138130D01*
X131358Y22815D02*
Y29587D01*
X144902Y29587D02*
X151673D01*
Y22815D02*
Y29587D01*
Y36358D02*
Y56673D01*
X144902D02*
X151673D01*
X131358Y49902D02*
Y56673D01*
X138130D01*
X131358Y49902D02*
X144902D01*
X138130Y63445D02*
X138173Y56673D01*
X131358Y63445D02*
Y70217D01*
X144902D01*
Y63445D02*
Y70217D01*
Y63445D02*
X151673D01*
Y70217D01*
X131358Y63445D02*
X138130D01*
X151673Y70217D02*
X165217D01*
X171988Y49902D02*
X178760D01*
X171988D02*
Y56673D01*
X165217D02*
X171988Y56717D01*
X178760Y49902D02*
Y63445D01*
X158445Y49902D02*
X165217D01*
Y63445D02*
Y70217D01*
X158445Y63445D02*
X165217D01*
X158445Y49902D02*
Y63445D01*
X165217Y49902D02*
Y56673D01*
X185531Y22815D02*
Y29587D01*
X192303D01*
Y22815D02*
Y29587D01*
Y22815D02*
X205847D01*
Y29587D01*
X199075D02*
X205847D01*
X199031Y36358D02*
X199075Y29587D01*
X192303Y43130D02*
X205847D01*
X199075Y36358D02*
X205847D01*
Y43130D01*
X185531Y36358D02*
X192303D01*
X185531D02*
Y49902D01*
X199075D02*
Y56673D01*
X205847D01*
Y70217D01*
X199075D02*
X205847D01*
X199075Y63445D02*
Y70217D01*
X192303Y63402D02*
X199075Y63445D01*
X185531Y56673D02*
Y70217D01*
X192303Y63445D02*
Y70217D01*
X185531D02*
X192303D01*
X192303Y49902D02*
Y56673D01*
X185531Y49902D02*
X192303D01*
X199075D02*
X219390D01*
Y56673D01*
X212618Y70217D02*
X219390D01*
Y63445D02*
Y70217D01*
X212618Y56673D02*
Y70217D01*
X219390Y63402D02*
X226162Y63445D01*
Y70217D02*
X232933D01*
Y56673D02*
Y70217D01*
X226162Y56673D02*
X232933D01*
X226162Y49902D02*
Y56673D01*
Y49902D02*
X232933D01*
X226162Y63445D02*
Y70217D01*
X232933Y36358D02*
Y49902D01*
X212618Y22815D02*
Y29587D01*
X219390D01*
Y36358D02*
X219433Y29587D01*
X212618Y22815D02*
X226162D01*
X212618Y36358D02*
Y43130D01*
X226162Y36358D02*
X232933D01*
X226162D02*
Y43130D01*
X212618D02*
X226162D01*
X212618Y36358D02*
X219390D01*
X226162Y29587D02*
X232933D01*
X138032Y131260D02*
Y138032D01*
X144803Y144803D02*
Y151575D01*
X151575Y138032D02*
Y151575D01*
X144803Y138032D02*
X151575D01*
X144803Y131260D02*
Y138032D01*
Y151575D02*
X151575D01*
X131260Y138032D02*
Y151575D01*
X138032Y144760D02*
X144803Y144803D01*
X138032D02*
Y151575D01*
X131260D02*
X138032D01*
X144803Y131260D02*
X158346D01*
X171890Y138032D02*
X178662D01*
X158346Y131260D02*
Y138032D01*
X165118D01*
Y131260D02*
Y138032D01*
Y131260D02*
X178662D01*
Y138032D01*
X171846Y144803D02*
X171890Y138032D01*
X165118Y151575D02*
X178662D01*
X171890Y144803D02*
X178662D01*
Y151575D01*
X158346Y144803D02*
X165118D01*
X158346D02*
Y165118D01*
Y171890D02*
Y178662D01*
Y171890D02*
X165118D01*
X178662Y171890D02*
Y178662D01*
X171890Y171890D02*
X178662D01*
X165118Y178662D02*
X178662D01*
X171846Y171890D02*
X171890Y165118D01*
X178662D01*
Y158346D02*
Y165118D01*
X165118Y158346D02*
X178662D01*
X165118D02*
Y165118D01*
X158346D02*
X165118D01*
X144803Y178662D02*
X158346D01*
X144803Y171890D02*
Y178662D01*
X144803Y158346D02*
X151575D01*
X144803D02*
Y165118D01*
X151575Y158346D02*
Y171890D01*
X138032Y165118D02*
X144803Y165162D01*
X138032Y158346D02*
Y165118D01*
X131260Y158346D02*
X138032D01*
X131260D02*
Y171890D01*
X138032D01*
Y178662D01*
X131260D02*
X138032D01*
X131260D02*
Y192205D01*
X158346Y198977D02*
X165118D01*
X158346Y205748D02*
X171890D01*
Y198977D02*
Y205748D01*
Y198977D02*
X178662D01*
X158346D02*
Y205748D01*
Y185433D02*
X171890D01*
X165118Y198977D02*
X165162Y192205D01*
X158346D02*
X165118D01*
X158346Y185433D02*
Y192205D01*
X178662Y198977D02*
Y212520D01*
X171890Y226063D02*
Y232835D01*
Y212520D02*
X178662D01*
X171890D02*
Y219291D01*
X178662D01*
Y232835D01*
X171890D02*
X178662D01*
X165118Y226020D02*
X171890Y226063D01*
X158346Y219291D02*
Y232835D01*
X165118Y226063D02*
Y232835D01*
X158346D02*
X165118D01*
X165118Y212520D02*
Y219291D01*
X144803Y212520D02*
X165118D01*
X131260D02*
X138032D01*
Y219291D01*
X131260Y232835D02*
X138032D01*
Y226063D02*
Y232835D01*
X131260Y219291D02*
Y232835D01*
X138032Y226020D02*
X144803Y226063D01*
Y232835D01*
X151575D01*
Y219291D02*
Y232835D01*
X144803Y219291D02*
X151575D01*
X144803Y212520D02*
Y219291D01*
X131260Y198977D02*
Y212520D01*
Y198977D02*
X138032D01*
X151575Y198976D02*
Y205748D01*
X144803Y198976D02*
X151575D01*
X138032Y205748D02*
X151575D01*
X144760Y198976D02*
X144803Y192205D01*
X151575D01*
Y185433D02*
Y192205D01*
X138032Y185433D02*
X151575D01*
X138032D02*
Y192205D01*
X131260D02*
X138032D01*
X178662Y185433D02*
Y192205D01*
X171890Y192205D02*
X178662D01*
Y185433D02*
X185433D01*
Y192205D01*
X192205D01*
Y185433D02*
Y192205D01*
Y185433D02*
X205748D01*
Y192205D01*
X198976D02*
X205748D01*
X198933Y198976D02*
X198976Y192205D01*
X192205Y205748D02*
X205748D01*
X198976Y198976D02*
X205748D01*
Y205748D01*
X185433Y198976D02*
X192205D01*
X185433D02*
Y212520D01*
X198976D02*
Y219291D01*
X205748D01*
Y232835D01*
X198976D02*
X205748D01*
X198976Y226063D02*
Y232835D01*
X192205Y226020D02*
X198976Y226063D01*
X185433Y219291D02*
Y232835D01*
X192205Y226063D02*
Y232835D01*
X185433D02*
X192205D01*
X192205Y212520D02*
Y219291D01*
X185433Y212520D02*
X192205D01*
X198976D02*
X219291D01*
Y219291D01*
X212520Y232835D02*
X219291D01*
Y226063D02*
Y232835D01*
X212520Y219291D02*
Y232835D01*
X219291Y226020D02*
X226063Y226063D01*
Y219291D02*
X232835D01*
X226063Y212520D02*
Y219291D01*
Y212520D02*
X232835D01*
X232835Y198976D02*
Y212520D01*
X212520Y185433D02*
Y192205D01*
X219291D01*
Y198976D02*
X219335Y192205D01*
X212520Y185433D02*
X226063D01*
X212520Y198976D02*
Y205748D01*
X226063Y198976D02*
X232835D01*
X226063D02*
Y205748D01*
X212520D02*
X226063D01*
X212520Y198976D02*
X219291D01*
X232835Y178662D02*
Y192205D01*
X226063D02*
X232835D01*
X226162Y171890D02*
Y178662D01*
X219390Y158346D02*
Y165118D01*
X212618Y158346D02*
Y171890D01*
X219390D01*
Y178662D01*
X212618Y158346D02*
X219390D01*
X232933D02*
Y171890D01*
X219390Y165118D02*
X226162Y165162D01*
Y158346D02*
Y165118D01*
Y158346D02*
X232933D01*
X205847Y178662D02*
X219390D01*
X185531Y171890D02*
X192303D01*
X205847D02*
Y178662D01*
X199075Y171890D02*
X205847D01*
X199075D02*
Y178662D01*
X185531D02*
X199075D01*
X185531Y171890D02*
Y178662D01*
X192303Y171890D02*
X192347Y165118D01*
X185531Y158346D02*
X199075D01*
X185531Y165118D02*
X192303D01*
X185531Y158346D02*
Y165118D01*
X199075Y165118D02*
X205847D01*
Y144803D02*
Y165118D01*
Y131260D02*
Y138031D01*
X199075D02*
X205847D01*
X185531Y131260D02*
Y138031D01*
X192303D01*
X185531Y131260D02*
X199075D01*
X192303Y144803D02*
X192347Y138031D01*
X185531Y144803D02*
X192303D01*
X185531D02*
Y151575D01*
X199075D01*
Y144803D02*
Y151575D01*
Y144803D02*
X205847D01*
Y131260D02*
X219390D01*
Y138031D01*
X212618Y151575D02*
X219390D01*
Y144803D02*
Y151575D01*
X212618Y138031D02*
Y151575D01*
X219390Y144760D02*
X226162Y144803D01*
Y151575D01*
X232933D01*
Y138031D02*
Y151575D01*
X226162Y138031D02*
X232933D01*
X226162Y131260D02*
Y138031D01*
Y131260D02*
X232933D01*
X117717Y131260D02*
X138032D01*
X22815Y131260D02*
X29587D01*
X117717Y131260D02*
Y138032D01*
X124488D01*
Y151575D01*
X117717D02*
X124488D01*
X117717Y144803D02*
Y151575D01*
X110945Y144760D02*
X117717Y144803D01*
X104173Y138032D02*
Y151575D01*
X110945Y144803D02*
Y151575D01*
X104173D02*
X110945D01*
X110945Y131260D02*
Y138032D01*
X97402Y131260D02*
X110945D01*
X90630Y144803D02*
X97402D01*
X90630D02*
Y151575D01*
X77087D02*
X90630D01*
X77087Y144803D02*
Y151575D01*
Y144803D02*
X83858D01*
X83902Y138032D01*
X77087Y131260D02*
X90630D01*
X77087Y138032D02*
X83858D01*
X77087Y131260D02*
Y138032D01*
X90630Y138032D02*
X97402D01*
Y131260D02*
Y138032D01*
Y144803D02*
Y165118D01*
X90630D02*
X97402D01*
X77087Y158346D02*
Y165118D01*
X83858D01*
X77087Y158346D02*
X90630D01*
X83858Y171890D02*
X83902Y165118D01*
X77087Y171890D02*
Y178662D01*
X90630D01*
Y171890D02*
Y178662D01*
Y171890D02*
X97402D01*
Y178662D01*
X77087Y171890D02*
X83858D01*
X97402Y178662D02*
X110945D01*
X117717Y158346D02*
X124488D01*
X117717D02*
Y165118D01*
X110945D02*
X117717Y165162D01*
X124488Y158346D02*
Y171890D01*
X104173Y158346D02*
X110945D01*
Y171890D02*
Y178662D01*
X104173Y171890D02*
X110945D01*
X104173Y158346D02*
Y171890D01*
X110945Y158346D02*
Y165118D01*
X117717Y171890D02*
Y178662D01*
X117618Y192205D02*
X124390D01*
Y178662D02*
Y192205D01*
X104075Y198977D02*
X110846D01*
X104075Y205748D02*
X117618D01*
Y198977D02*
Y205748D01*
Y198977D02*
X124390D01*
X104075D02*
Y205748D01*
Y185433D02*
X117618D01*
X110846Y198977D02*
X110890Y192205D01*
X104075D02*
X110846D01*
X104075Y185433D02*
Y192205D01*
X124390Y198977D02*
Y212520D01*
X117618Y226063D02*
Y232835D01*
Y212520D02*
X124390D01*
X117618D02*
Y219291D01*
X124390D01*
Y232835D01*
X117618D02*
X124390D01*
X110846Y226020D02*
X117618Y226063D01*
X104075Y219291D02*
Y232835D01*
X110846Y226063D02*
Y232835D01*
X104075D02*
X110846D01*
X110846Y212520D02*
Y219291D01*
X90532Y212520D02*
X110846D01*
X76988D02*
X83760D01*
Y219291D01*
X76988Y232835D02*
X83760D01*
Y226063D02*
Y232835D01*
X76988Y219291D02*
Y232835D01*
X83760Y226020D02*
X90532Y226063D01*
Y232835D01*
X97303D01*
Y219291D02*
Y232835D01*
X90532Y219291D02*
X97303D01*
X90532Y212520D02*
Y219291D01*
X76988Y198977D02*
Y212520D01*
Y198977D02*
X83760D01*
X97303Y198976D02*
Y205748D01*
X90532Y198976D02*
X97303D01*
X83760Y205748D02*
X97303D01*
X90488Y198976D02*
X90532Y192205D01*
X97303D01*
Y185433D02*
Y192205D01*
X83760Y185433D02*
X97303D01*
X83760D02*
Y192205D01*
X76988D02*
X83760D01*
X76988Y185433D02*
Y192205D01*
X70217Y185433D02*
X76988D01*
X63445Y192205D02*
X70217D01*
Y185433D02*
Y192205D01*
X22815Y192205D02*
X29587D01*
Y185433D02*
Y192205D01*
Y185433D02*
X43130D01*
Y192205D01*
X36358D02*
X43130D01*
X36315Y198977D02*
X36358Y192205D01*
X29587Y205748D02*
X43130D01*
X36358Y198977D02*
X43130D01*
Y205748D01*
X22815Y198977D02*
X29587D01*
X22815D02*
Y212520D01*
X36358D02*
Y219291D01*
X43130D01*
Y232835D01*
X36358D02*
X43130D01*
X36358Y226063D02*
Y232835D01*
X29587Y226020D02*
X36358Y226063D01*
X22815Y219291D02*
Y232835D01*
X29587Y226063D02*
Y232835D01*
X22815D02*
X29587D01*
X29587Y212520D02*
Y219291D01*
X22815Y212520D02*
X29587D01*
X36358D02*
X56673D01*
Y219291D01*
X49902Y232835D02*
X56673D01*
Y226063D02*
Y232835D01*
X49902Y219291D02*
Y232835D01*
X56673Y226020D02*
X63445Y226063D01*
Y232835D02*
X70217D01*
Y219291D02*
Y232835D01*
X63445Y219291D02*
X70217D01*
X63445Y212520D02*
Y219291D01*
Y212520D02*
X70217D01*
X63445Y226063D02*
Y232835D01*
X70217Y198977D02*
Y212520D01*
X49902Y185433D02*
Y192205D01*
X56673D01*
Y198977D02*
X56717Y192205D01*
X49902Y185433D02*
X63445D01*
X49902Y198977D02*
Y205748D01*
X63445Y198977D02*
X70217D01*
X63445D02*
Y205748D01*
X49902D02*
X63445D01*
X49902Y198977D02*
X56673D01*
X22815Y178662D02*
Y192205D01*
Y178662D02*
X29587D01*
Y171890D02*
Y178662D01*
X22815Y171890D02*
X29587D01*
X22815Y158347D02*
Y171890D01*
Y158347D02*
X29587D01*
Y165118D01*
X36358Y165162D01*
X43130Y158347D02*
Y171890D01*
X36358Y158347D02*
Y165118D01*
Y158347D02*
X43130D01*
X36358Y171890D02*
Y178662D01*
X49902D01*
Y165118D02*
X56673D01*
Y158347D02*
Y165118D01*
Y158347D02*
X70217D01*
Y165118D01*
X63445D02*
X70217D01*
X63402Y171890D02*
X63445Y165118D01*
X56673Y178662D02*
X70217D01*
X63445Y171890D02*
X70217D01*
Y178662D01*
X49902Y171890D02*
X56673D01*
X49902D02*
Y178662D01*
Y144803D02*
Y165118D01*
Y144803D02*
X56673D01*
X70217Y144803D02*
Y151575D01*
X63445Y144803D02*
X70217D01*
X56673Y151575D02*
X70217D01*
X63402Y144803D02*
X63445Y138032D01*
X70217Y131260D02*
Y138032D01*
X56673Y131260D02*
X70217D01*
X56673D02*
Y138032D01*
X49902D02*
X56673D01*
X49902Y131260D02*
Y138032D01*
X63445D02*
X70217D01*
X36358Y131260D02*
X49902D01*
X22815Y151575D02*
X29587D01*
Y144803D02*
Y151575D01*
Y144760D02*
X36358Y144803D01*
X22815Y138032D02*
Y151575D01*
X36358D02*
X43130D01*
X36358Y131260D02*
Y138032D01*
X43130D01*
Y151575D01*
X36358Y144803D02*
Y151575D01*
X29587Y131260D02*
Y138032D01*
X22815Y117717D02*
X29587D01*
X22815D02*
Y131260D01*
X36358Y110945D02*
X43130D01*
X29587Y104173D02*
X43130D01*
X29587D02*
Y110945D01*
X22815D02*
X29587D01*
X43130Y104173D02*
Y110945D01*
X29587Y124488D02*
X43130D01*
X36315Y117717D02*
X36358Y110945D01*
Y117717D02*
X43130D01*
Y124488D01*
X22815Y97402D02*
Y110945D01*
X29587Y77087D02*
Y83858D01*
X22815Y97402D02*
X29587D01*
Y90630D02*
Y97402D01*
X22815Y90630D02*
X29587D01*
X22815Y77087D02*
Y90630D01*
Y77087D02*
X29587D01*
Y83858D02*
X36358Y83902D01*
X43130Y77087D02*
Y90630D01*
X36358Y77087D02*
Y83858D01*
Y77087D02*
X43130D01*
X36358Y90630D02*
Y97402D01*
X56673D01*
X63445D02*
X70217D01*
X63445Y90630D02*
Y97402D01*
X63445Y77087D02*
X70217D01*
X63445D02*
Y83858D01*
X70217Y77087D02*
Y90630D01*
X56673Y83858D02*
X63445Y83902D01*
X56673Y77087D02*
Y83858D01*
X49902Y77087D02*
X56673D01*
X49902D02*
Y90630D01*
X56673D01*
Y97402D01*
X70217D02*
Y110945D01*
X63445D02*
X70217D01*
X49902Y104173D02*
Y110945D01*
X56673D01*
X49902Y104173D02*
X63445D01*
X56673Y117717D02*
X56717Y110945D01*
X49902Y117717D02*
X56673D01*
X49902D02*
Y124488D01*
X63445D01*
Y117717D02*
Y124488D01*
Y117717D02*
X70217D01*
Y124488D01*
X90532Y90630D02*
Y97402D01*
X97303Y83858D02*
Y97402D01*
X90532Y83858D02*
X97303D01*
X90532Y77087D02*
Y83858D01*
Y97402D02*
X97303D01*
X76988Y83858D02*
Y97402D01*
X83760Y90587D02*
X90532Y90630D01*
X83760D02*
Y97402D01*
X76988D02*
X83760D01*
X90532Y77087D02*
X104075D01*
X117618Y83858D02*
X124390D01*
X104075Y77087D02*
Y83858D01*
X110847D01*
Y77087D02*
Y83858D01*
Y77087D02*
X124390D01*
Y83858D01*
X117575Y90630D02*
X117618Y83858D01*
X110847Y97402D02*
X124390D01*
X117618Y90630D02*
X124390D01*
Y97402D01*
X104075Y90630D02*
X110847D01*
X104075D02*
Y110945D01*
Y117717D02*
Y124488D01*
Y117717D02*
X110847D01*
X124390Y117717D02*
Y124488D01*
X117618Y117717D02*
X124390D01*
X110847Y124488D02*
X124390D01*
X117575Y117717D02*
X117618Y110945D01*
X124390D01*
Y104173D02*
Y110945D01*
X110847Y104173D02*
X124390D01*
X110847D02*
Y110945D01*
X104075D02*
X110847D01*
X90532Y124488D02*
X104075D01*
X90532Y117717D02*
Y124488D01*
X90532Y104173D02*
X97303D01*
X90532D02*
Y110945D01*
X97303Y104173D02*
Y117717D01*
X83760Y110945D02*
X90532Y110988D01*
X83760Y104173D02*
Y110945D01*
X76988Y104173D02*
X83760D01*
X76988D02*
Y117717D01*
X83760D01*
Y124488D01*
X70217D02*
X83760D01*
X76988Y77087D02*
X83760D01*
X83760D02*
Y83858D01*
X76988Y70315D02*
Y77087D01*
Y70315D02*
X83760D01*
Y63543D02*
Y70315D01*
X76988Y63543D02*
X83760D01*
X76988Y50000D02*
Y63543D01*
Y50000D02*
X83760D01*
Y56772D01*
X90532Y56815D01*
X97303Y50000D02*
Y63543D01*
X90532Y50000D02*
Y56772D01*
Y50000D02*
X97303D01*
X90532Y63543D02*
Y70315D01*
X104075D01*
Y56772D02*
X110846D01*
Y50000D02*
Y56772D01*
Y50000D02*
X124390D01*
Y56772D01*
X117618D02*
X124390D01*
X117575Y63543D02*
X117618Y56772D01*
X110846Y70315D02*
X124390D01*
X117618Y63543D02*
X124390D01*
Y70315D01*
X104075Y63543D02*
X110846D01*
X104075D02*
Y70315D01*
Y36457D02*
Y56772D01*
Y36457D02*
X110846D01*
X124390Y36457D02*
Y43228D01*
X117618Y36457D02*
X124390D01*
X110846Y43228D02*
X124390D01*
X117575Y36457D02*
X117618Y29685D01*
X124390Y22914D02*
Y29685D01*
X110846Y22914D02*
X124390D01*
X110846D02*
Y29685D01*
X104075D02*
X110846D01*
X104075Y22914D02*
Y29685D01*
X117618D02*
X124390D01*
X90532Y22914D02*
X104075D01*
X76988Y43228D02*
X83760D01*
Y36457D02*
Y43228D01*
Y36413D02*
X90532Y36457D01*
X76988Y29685D02*
Y43228D01*
X90532D02*
X97303D01*
X90532Y22914D02*
Y29685D01*
X97303D01*
Y43228D01*
X90532Y36457D02*
Y43228D01*
X70217Y22914D02*
X83760D01*
Y29685D01*
X63445Y29587D02*
X70217D01*
X49902Y36358D02*
X56673D01*
X49902Y43130D02*
X63445D01*
Y36358D02*
Y43130D01*
Y36358D02*
X70217D01*
X49902D02*
Y43130D01*
Y22815D02*
X63445D01*
X56673Y36358D02*
X56717Y29587D01*
X49902D02*
X56673D01*
X49902Y22815D02*
Y29587D01*
X70217Y36358D02*
Y49902D01*
X63445Y63445D02*
Y70217D01*
Y49902D02*
X70217D01*
X63445D02*
Y56673D01*
X70217D01*
Y70217D01*
X63445D02*
X70217D01*
X56673Y63402D02*
X63445Y63445D01*
X49902Y56673D02*
Y70217D01*
X56673Y63445D02*
Y70217D01*
X49902D02*
X56673D01*
X56673Y49902D02*
Y56673D01*
X36358Y49902D02*
X56673D01*
X22815D02*
X29587D01*
Y56673D01*
X22815Y70217D02*
X29587D01*
Y63445D02*
Y70217D01*
X22815Y56673D02*
Y70217D01*
X29587Y63402D02*
X36358Y63445D01*
Y70217D01*
X43130D01*
Y56673D02*
Y70217D01*
X36358Y56673D02*
X43130D01*
X36358Y49902D02*
Y56673D01*
X22815Y36358D02*
Y49902D01*
Y36358D02*
X29587D01*
X43130Y36358D02*
Y43130D01*
X36358Y36358D02*
X43130D01*
X29587Y43130D02*
X43130D01*
X36315Y36358D02*
X36358Y29587D01*
X43130D01*
Y22815D02*
Y29587D01*
X29587Y22815D02*
X43130D01*
X29587D02*
Y29587D01*
X22815D02*
X29587D01*
X22815Y22815D02*
Y29587D01*
D16*
X14941Y24390D02*
Y448012D01*
D17*
X-7500Y237500D02*
D03*
Y17500D02*
D03*
Y455000D02*
D03*
X474409Y236221D02*
D03*
Y118110D02*
D03*
Y354331D02*
D03*
D18*
X471649Y20548D02*
D03*
X471634Y451949D02*
D03*
M02*
